<svg version="1.1" id="Layer_1" xmlns="http://www.w3.org/2000/svg" xmlns:xlink="http://www.w3.org/1999/xlink" x="0px" y="0px"
	 width="100%" viewBox="0 0 64 64" enable-background="new 0 0 64 64" xml:space="preserve">
<path fill="#F6F1EE" opacity="1.000000" stroke="none" 
	d="
M1.000000,22.000000 
	C1.000000,15.050599 1.000000,8.101199 1.000000,1.000000 
	C14.020566,1.000000 27.041624,1.000000 40.577503,1.378135 
	C41.390892,3.500852 41.689461,5.245434 41.691784,7.143750 
	C39.262608,9.532342 37.129677,11.767200 34.743324,14.219696 
	C34.659836,15.958450 34.829765,17.479568 34.587746,19.000433 
	C27.003283,18.577816 27.004007,18.577820 26.969414,25.858101 
	C26.967848,26.187445 26.931921,26.516626 26.484722,26.902914 
	C24.032003,26.981777 22.006559,27.003609 19.583447,27.015390 
	C18.122131,27.003126 17.058487,27.000912 15.751938,26.905766 
	C15.009395,27.200480 14.509755,27.588125 13.838708,28.063240 
	C13.667299,28.150707 13.283987,28.184708 12.993174,28.118340 
	C12.305548,28.033371 11.908735,28.014774 11.403091,27.729279 
	C11.207975,27.290592 11.121691,27.118805 10.948132,26.786263 
	C10.552287,26.667006 10.243716,26.708506 9.766277,27.043270 
	C9.596677,27.562145 9.595944,27.787750 9.540169,28.001339 
	C9.485125,27.989323 9.375584,28.015730 9.280120,27.699078 
	C8.772995,27.597054 8.361335,27.811682 7.977725,28.019835 
	C8.005774,28.013357 8.024984,27.959082 7.765303,27.786034 
	C7.136836,27.802427 6.768050,27.991869 6.095355,27.980137 
	C5.252982,23.491531 7.391334,21.111099 11.588264,19.791180 
	C9.570759,19.229439 7.648856,18.869242 5.948667,19.328981 
	C4.187159,19.805302 2.640584,21.076481 1.000000,22.000000 
z"/>
<path fill="#F6F1EF" opacity="1.000000" stroke="none" 
	d="
M65.000000,45.000000 
	C65.000000,51.617668 65.000000,58.235336 65.000000,65.000000 
	C51.979412,65.000000 38.958363,65.000000 25.468414,64.735138 
	C24.996389,64.293716 24.993265,64.117157 25.149628,63.650234 
	C26.534363,61.245430 27.759611,59.131001 28.938267,56.642994 
	C26.927914,55.513252 24.964153,54.757084 22.706938,53.873016 
	C21.609013,53.496578 20.804544,53.248039 19.965881,52.712124 
	C19.287231,52.283688 18.642776,52.142628 17.665293,52.001007 
	C16.888227,51.999893 16.444189,51.999336 15.867541,51.696922 
	C16.093784,49.922409 16.452639,48.449753 17.068075,47.244385 
	C18.498959,47.680401 19.673262,47.849125 21.222786,47.793358 
	C22.738089,47.646339 23.878168,47.723816 25.325624,47.892601 
	C26.060143,48.000355 26.487284,48.016804 26.998470,48.278622 
	C27.382582,48.614437 27.682648,48.704887 28.235508,48.877903 
	C28.988558,49.040730 29.488810,49.120991 30.298481,49.382866 
	C32.068630,49.042915 33.529358,48.521347 35.299484,47.984089 
	C36.102917,47.661232 36.596951,47.354061 37.337864,46.932632 
	C38.040237,46.539703 38.495735,46.261028 39.278893,46.124233 
	C42.404526,46.510895 45.202492,46.755676 48.068863,47.343838 
	C51.177860,51.215378 51.573597,47.119324 53.358124,46.156639 
	C57.476261,45.875732 61.238132,45.437866 65.000000,45.000000 
z"/>
<path fill="#F6F0ED" opacity="1.000000" stroke="none" 
	d="
M1.000000,22.468658 
	C2.640584,21.076481 4.187159,19.805302 5.948667,19.328981 
	C7.648856,18.869242 9.570759,19.229439 11.588264,19.791180 
	C7.391334,21.111099 5.252982,23.491531 5.997922,28.331367 
	C6.157051,29.850653 6.109704,30.817535 6.151067,32.042786 
	C6.521675,32.520603 6.803574,32.740044 7.052784,32.942780 
	C7.020096,32.926071 7.085992,32.893684 7.063745,33.268631 
	C8.027771,35.762360 9.014043,37.881142 10.000288,40.329033 
	C10.002063,41.097099 10.003867,41.536060 10.000595,42.230591 
	C9.996142,42.656578 9.996768,42.826996 9.632229,43.005051 
	C7.842612,45.003582 6.418159,46.994476 4.708873,49.133575 
	C3.947984,50.186451 3.471929,51.091118 2.736833,52.102768 
	C1.985195,52.473171 1.492597,52.736584 1.000000,53.000000 
	C1.000000,42.979103 1.000000,32.958210 1.000000,22.468658 
z"/>
<path fill="#F6F0EE" opacity="1.000000" stroke="none" 
	d="
M65.000000,24.000000 
	C65.000000,26.700630 65.000000,29.401260 64.642197,32.545952 
	C63.252872,32.579739 62.210777,31.837231 61.193359,31.869625 
	C60.447239,31.893379 59.733482,32.933655 58.695286,33.663498 
	C57.878460,34.163570 57.371647,34.521030 56.676506,34.770428 
	C56.258423,34.472038 56.097984,34.234825 55.955761,33.639076 
	C55.268536,32.884777 54.632420,32.442123 53.997345,31.545521 
	C53.997665,28.062557 53.996941,25.033541 54.240162,21.837845 
	C55.012302,21.100723 55.540497,20.530281 56.457890,19.956413 
	C57.362728,19.877447 57.878365,19.801910 58.577576,19.831673 
	C59.100018,20.180115 59.438889,20.423258 59.993946,20.969574 
	C61.136051,21.510607 62.061962,21.748466 63.037308,22.304859 
	C63.724495,23.082264 64.362244,23.541132 65.000000,24.000000 
z"/>
<path fill="#F5F2E8" opacity="1.000000" stroke="none" 
	d="
M65.000000,44.583336 
	C61.238132,45.437866 57.476261,45.875732 53.570343,45.900131 
	C55.280380,43.992672 57.134468,42.498684 59.364510,41.003868 
	C60.491089,40.999794 61.241714,40.996540 62.311634,40.967793 
	C63.420616,40.628201 64.210312,40.314102 65.000000,40.000000 
	C65.000000,41.388889 65.000000,42.777779 65.000000,44.583336 
z"/>
<path fill="#DAE7F0" opacity="1.000000" stroke="none" 
	d="
M41.988029,6.990016 
	C41.689461,5.245434 41.390892,3.500852 41.046162,1.378135 
	C41.444447,1.000000 41.888889,1.000000 42.766632,1.236987 
	C43.654320,1.678397 44.108715,1.882820 44.699272,2.399748 
	C45.900368,3.434838 46.965302,4.157423 48.216595,5.052582 
	C48.617054,5.488029 48.831150,5.750906 49.005112,6.246109 
	C48.964977,6.478437 48.848515,6.935365 48.487396,6.944300 
	C46.748455,8.633492 45.370636,10.313747 43.753273,11.999157 
	C43.513725,12.004309 43.034618,12.013846 42.707527,11.956151 
	C42.249638,10.262309 42.118835,8.626163 41.988029,6.990016 
z"/>
<path fill="#F2F1F2" opacity="1.000000" stroke="none" 
	d="
M65.000000,39.562500 
	C64.210312,40.314102 63.420616,40.628201 62.313911,40.634613 
	C61.997326,39.882305 61.997749,39.437687 61.958267,38.687820 
	C61.325787,37.923378 60.733204,37.464180 60.039581,36.732353 
	C59.851463,36.286545 59.764381,36.113373 59.741474,35.606171 
	C59.538868,34.688393 59.272083,34.104637 59.005302,33.520885 
	C59.733482,32.933655 60.447239,31.893379 61.193359,31.869625 
	C62.210777,31.837231 63.252872,32.579739 64.642197,32.995003 
	C65.000000,35.041668 65.000000,37.083332 65.000000,39.562500 
z"/>
<path fill="#F8F0ED" opacity="1.000000" stroke="none" 
	d="
M65.000000,11.000000 
	C65.000000,12.714375 65.000000,14.428750 64.668152,16.571817 
	C63.893829,17.001915 63.451363,17.003319 62.970757,16.707966 
	C62.384186,15.933715 61.835762,15.456223 61.243237,14.556776 
	C61.140736,12.436685 61.082333,10.738547 61.275795,8.888474 
	C61.648647,8.582212 61.769634,8.427889 61.949368,8.435039 
	C62.008118,8.596511 62.042942,8.938396 62.077789,9.288160 
	C63.075092,10.091949 64.037544,10.545975 65.000000,11.000000 
z"/>
<path fill="#6286AE" opacity="1.000000" stroke="none" 
	d="
M65.000000,6.000000 
	C65.000000,6.750000 65.000000,7.500000 64.629333,8.583741 
	C63.520096,8.924454 62.781521,8.931425 62.042942,8.938396 
	C62.042942,8.938396 62.008118,8.596511 61.807457,8.348701 
	C61.392326,8.010031 61.168667,7.968539 60.708191,7.973409 
	C60.480576,7.970400 60.025597,7.986861 59.722740,7.856646 
	C58.848316,7.399703 58.276752,7.072975 57.598255,6.612256 
	C57.491325,6.478265 57.290222,6.195493 57.732094,6.100100 
	C58.809414,5.408806 59.444866,4.812905 60.403591,4.419641 
	C62.151241,5.081519 63.575623,5.540759 65.000000,6.000000 
z"/>
<path fill="#594F48" opacity="1.000000" stroke="none" 
	d="
M50.000000,1.000000 
	C51.388996,1.000000 52.777996,1.000000 54.576931,1.348378 
	C54.986877,2.393466 54.986881,3.090177 54.655373,3.846490 
	C53.876270,3.938660 53.428680,3.971226 52.618820,3.985697 
	C51.534092,3.968598 50.811638,3.969596 50.098858,3.598312 
	C50.072357,2.484020 50.036179,1.742010 50.000000,1.000000 
z"/>
<path fill="#F8F2E5" opacity="1.000000" stroke="none" 
	d="
M63.008896,17.004725 
	C63.451363,17.003319 63.893829,17.001915 64.668152,17.000256 
	C65.000000,19.041666 65.000000,21.083334 65.000000,23.562500 
	C64.362244,23.541132 63.724495,23.082264 63.038651,21.890141 
	C62.996670,19.772833 63.002781,18.388779 63.008896,17.004725 
z"/>
<path fill="#E4F2F8" opacity="1.000000" stroke="none" 
	d="
M59.000000,1.000000 
	C60.666668,1.000000 62.351353,0.868022 63.987511,1.091449 
	C64.404114,1.148339 64.666664,2.333333 64.621582,3.445162 
	C62.490654,3.597643 60.738136,3.304962 58.975674,3.042269 
	C58.965729,3.072256 58.903137,3.080898 58.965149,2.794654 
	C59.030453,2.313284 59.033749,2.118157 59.026772,1.692313 
	C59.016506,1.461596 59.000000,1.000000 59.000000,1.000000 
z"/>
<path fill="#51565A" opacity="1.000000" stroke="none" 
	d="
M1.000000,63.000000 
	C1.000000,63.000000 1.000000,62.500000 1.342077,62.355000 
	C2.455697,61.799999 3.227239,61.390003 4.159453,61.257080 
	C5.065200,61.954456 5.810277,62.374756 6.562119,63.077118 
	C6.712590,63.906116 6.856295,64.453056 7.000000,65.000000 
	C5.933213,65.000000 4.866426,65.000000 3.343511,64.689651 
	C2.258255,63.919537 1.629127,63.459770 1.000000,63.000000 
z"/>
<path fill="#B7CCE7" opacity="1.000000" stroke="none" 
	d="
M58.985619,3.012281 
	C60.738136,3.304962 62.490654,3.597643 64.621582,3.945162 
	C65.000000,4.444445 65.000000,4.888889 65.000000,5.666667 
	C63.575623,5.540759 62.151241,5.081519 60.365566,4.374197 
	C60.004269,4.126117 59.775040,4.039091 59.506439,3.837161 
	C59.153767,3.427581 59.069691,3.219931 58.985619,3.012281 
z"/>
<path fill="#686355" opacity="1.000000" stroke="none" 
	d="
M58.975674,3.042269 
	C59.069691,3.219931 59.153767,3.427581 59.093925,3.866325 
	C58.269722,4.704814 57.589436,5.312210 56.727726,5.857175 
	C56.546303,5.794744 56.185276,5.664733 55.981079,5.582875 
	C55.513550,4.929641 55.250217,4.358264 54.986885,3.786888 
	C54.986881,3.090177 54.986877,2.393466 54.993435,1.348378 
	C55.444443,1.000000 55.888889,1.000000 56.720146,1.260389 
	C57.184475,1.680142 57.261990,1.839507 57.153175,2.123454 
	C57.612278,2.525657 58.257706,2.803277 58.903137,3.080897 
	C58.903137,3.080898 58.965729,3.072256 58.975674,3.042269 
z"/>
<path fill="#5E7C9A" opacity="1.000000" stroke="none" 
	d="
M14.000000,65.000000 
	C14.000000,65.000000 13.500000,65.000000 13.210827,64.690918 
	C12.322472,63.916775 11.723290,63.451702 11.133692,62.636742 
	C11.167954,62.054817 11.192632,61.822777 11.412582,61.489056 
	C11.607854,61.387371 12.049811,61.347363 12.356493,61.536541 
	C13.750684,62.161381 14.838191,62.597046 15.726215,63.144615 
	C15.271663,63.444508 15.096873,63.689732 14.787348,64.107880 
	C14.301071,64.423042 14.110294,64.681862 14.000000,65.000000 
z"/>
<path fill="#6D88AA" opacity="1.000000" stroke="none" 
	d="
M20.000000,65.000000 
	C20.000000,65.000000 19.500000,65.000000 19.236095,64.687393 
	C18.949051,64.167465 18.925907,63.960144 18.921364,63.594856 
	C18.939960,63.436886 18.987720,63.117722 19.250683,62.982079 
	C19.692629,62.763527 19.871614,62.680614 20.278301,62.616749 
	C20.805647,62.478210 20.964043,62.230251 21.320488,61.859615 
	C22.108358,61.754597 22.556936,61.681885 23.055960,62.027802 
	C23.162786,63.004414 23.219170,63.562393 23.185585,64.333679 
	C23.095619,64.546982 23.000000,65.000000 23.000000,65.000000 
	C23.000000,65.000000 22.500000,65.000000 22.085747,64.796539 
	C21.114328,64.728714 20.557165,64.864357 20.000000,65.000000 
z"/>
<path fill="#696661" opacity="1.000000" stroke="none" 
	d="
M11.217310,61.590740 
	C11.192632,61.822777 11.167954,62.054817 11.051891,62.967487 
	C10.973672,64.098747 10.986836,64.549370 11.000000,65.000000 
	C10.555555,65.000000 10.111111,65.000000 9.234522,64.730362 
	C8.499002,63.975132 8.195628,63.489536 8.120512,62.904434 
	C8.640769,62.619461 8.830496,62.359425 9.320786,61.978241 
	C9.991980,61.898964 10.260342,61.866272 10.677891,61.707756 
	C10.827079,61.581928 11.217310,61.590740 11.217310,61.590740 
z"/>
<path fill="#8FA2B9" opacity="1.000000" stroke="none" 
	d="
M49.625000,1.000000 
	C50.036179,1.742010 50.072357,2.484020 49.834534,3.510464 
	C49.058453,3.559779 48.556377,3.324662 47.978024,2.914573 
	C47.789841,2.511194 47.625835,2.330060 47.323399,1.891634 
	C47.158047,1.391379 47.079021,1.195690 47.000000,1.000000 
	C47.750000,1.000000 48.500000,1.000000 49.625000,1.000000 
z"/>
<path fill="#ECF0FB" opacity="1.000000" stroke="none" 
	d="
M62.077789,9.288160 
	C62.781521,8.931425 63.520096,8.924454 64.629333,8.958741 
	C65.000000,9.444445 65.000000,9.888889 65.000000,10.666667 
	C64.037544,10.545975 63.075092,10.091949 62.077789,9.288160 
z"/>
<path fill="#E3EEEE" opacity="1.000000" stroke="none" 
	d="
M1.000000,58.000000 
	C1.000000,57.250000 1.000000,56.500000 1.333064,55.373459 
	C2.110206,54.999912 2.554285,55.002914 2.999739,55.254524 
	C3.001113,55.503136 3.002890,56.000511 3.001776,56.332367 
	C2.999607,57.106609 2.998552,57.548996 2.664429,57.994503 
	C1.887574,57.998417 1.443787,57.999210 1.000000,58.000000 
z"/>
<path fill="#C8D1D0" opacity="1.000000" stroke="none" 
	d="
M1.000000,58.333496 
	C1.443787,57.999210 1.887574,57.998417 2.776354,58.219322 
	C3.476260,58.654121 3.731172,58.867226 4.059775,59.176529 
	C4.133466,59.272720 4.098475,59.512531 3.725565,59.642052 
	C2.568437,59.847713 1.784219,59.923855 1.000000,60.000000 
	C1.000000,59.555664 1.000000,59.111328 1.000000,58.333496 
z"/>
<path fill="#DDE3E6" opacity="1.000000" stroke="none" 
	d="
M2.998364,55.005913 
	C2.554285,55.002914 2.110206,54.999912 1.333064,54.998459 
	C1.000000,54.555557 1.000000,54.111111 1.000000,53.333336 
	C1.492597,52.736584 1.985195,52.473171 2.741921,52.107735 
	C3.006050,52.005711 3.016165,52.015209 3.012912,52.388657 
	C3.005893,53.510040 3.002129,54.257977 2.998364,55.005913 
z"/>
<path fill="#BAC5C4" opacity="1.000000" stroke="none" 
	d="
M1.000000,60.333332 
	C1.784219,59.923855 2.568437,59.847713 3.721742,59.676640 
	C4.090829,59.581711 4.109618,59.631023 4.043967,59.965149 
	C3.985138,60.526188 3.991959,60.753094 3.998781,60.980003 
	C3.227239,61.390003 2.455697,61.799999 1.342077,62.105000 
	C1.000000,61.555553 1.000000,61.111111 1.000000,60.333332 
z"/>
<path fill="#628EC1" opacity="1.000000" stroke="none" 
	d="
M18.902765,63.752823 
	C18.925907,63.960144 18.949051,64.167465 18.986095,64.687393 
	C17.611111,65.000000 16.222221,65.000000 14.416666,65.000000 
	C14.110294,64.681862 14.301071,64.423042 15.179860,64.114853 
	C16.825848,63.921703 17.864305,63.837261 18.902765,63.752823 
z"/>
<path fill="#84959E" opacity="1.000000" stroke="none" 
	d="
M11.333334,65.000000 
	C10.986836,64.549370 10.973672,64.098747 11.042308,63.317375 
	C11.723290,63.451702 12.322472,63.916775 12.960827,64.690918 
	C12.555555,65.000000 12.111111,65.000000 11.333334,65.000000 
z"/>
<path fill="#85857E" opacity="1.000000" stroke="none" 
	d="
M7.892254,63.003937 
	C8.195628,63.489536 8.499002,63.975132 8.901188,64.730362 
	C8.555555,65.000000 8.111111,65.000000 7.333333,65.000000 
	C6.856295,64.453056 6.712590,63.906116 6.579659,63.087177 
	C6.590431,62.815178 6.621266,62.841824 6.938866,62.890465 
	C7.468395,62.960712 7.680325,62.982323 7.892254,63.003937 
z"/>
<path fill="#91A2A9" opacity="1.000000" stroke="none" 
	d="
M0.999999,63.500000 
	C1.629127,63.459770 2.258255,63.919537 2.943691,64.689651 
	C2.333333,64.666664 1.666666,64.333336 0.999999,63.500000 
z"/>
<path fill="#9AA9C2" opacity="1.000000" stroke="none" 
	d="
M44.563107,2.087243 
	C44.108715,1.882820 43.654320,1.678397 43.099964,1.236987 
	C43.750000,1.000000 44.500000,1.000000 45.565758,1.264296 
	C45.858601,1.707703 45.835686,1.886813 45.501251,2.065140 
	C44.980858,2.071986 44.771980,2.079615 44.563107,2.087243 
z"/>
<path fill="#D8E8E7" opacity="1.000000" stroke="none" 
	d="
M57.339500,1.998872 
	C57.261990,1.839507 57.184475,1.680142 57.053482,1.260389 
	C57.444447,1.000000 57.888889,1.000000 58.666668,1.000000 
	C59.000000,1.000000 59.016506,1.461596 58.742741,1.703501 
	C58.092484,1.963228 57.715992,1.981050 57.339500,1.998872 
z"/>
<path fill="#7DA1D5" opacity="1.000000" stroke="none" 
	d="
M20.333332,65.000000 
	C20.557165,64.864357 21.114328,64.728714 21.835747,64.796539 
	C21.555555,65.000000 21.111111,65.000000 20.333332,65.000000 
z"/>
<path fill="#EAF0F6" opacity="1.000000" stroke="none" 
	d="
M23.333334,65.000000 
	C23.000000,65.000000 23.095619,64.546982 23.470644,64.300697 
	C24.227160,64.016479 24.608650,63.978539 24.990143,63.940605 
	C24.993265,64.117157 24.996389,64.293716 24.999756,64.735138 
	C24.555555,65.000000 24.111113,65.000000 23.333334,65.000000 
z"/>
<path fill="#A6C2E1" opacity="1.000000" stroke="none" 
	d="
M45.812767,2.065923 
	C45.835686,1.886813 45.858601,1.707703 45.940758,1.264296 
	C46.000000,1.000000 46.500000,1.000000 46.750000,1.000000 
	C47.079021,1.195690 47.158047,1.391379 46.921799,1.860504 
	C46.341942,2.111267 46.077354,2.088595 45.812767,2.065923 
z"/>
<path fill="#F7EFF7" opacity="1.000000" stroke="none" 
	d="
M26.911999,26.845882 
	C26.931921,26.516626 26.967848,26.187445 26.969414,25.858101 
	C27.004007,18.577820 27.003283,18.577816 34.587425,19.327114 
	C34.996910,20.089632 34.994774,20.525217 34.625648,20.979439 
	C33.490364,21.986483 32.722065,22.974890 31.923473,24.181843 
	C31.893179,24.400387 31.785793,24.828390 31.503386,24.887703 
	C30.779186,25.290215 30.337397,25.633415 29.624580,26.001640 
	C28.896925,26.296549 28.440298,26.566433 27.737820,26.885220 
	C27.327045,26.961056 27.162121,26.987988 26.982311,26.969429 
	C26.967424,26.923937 26.912001,26.845882 26.911999,26.845882 
z"/>
<path fill="#E7ECEB" opacity="1.000000" stroke="none" 
	d="
M41.691784,7.143750 
	C42.118835,8.626163 42.249638,10.262309 42.718147,12.247302 
	C43.378033,13.038199 43.700207,13.480249 44.018059,13.956676 
	C44.013729,13.991052 43.994560,14.057645 43.996101,14.380376 
	C43.998127,15.134754 43.998615,15.566402 43.665817,15.998682 
	C42.888157,15.999200 42.443771,15.999084 41.625870,15.990981 
	C39.167149,15.322680 37.081947,14.662370 34.996746,14.002059 
	C37.129677,11.767200 39.262608,9.532342 41.691784,7.143750 
z"/>
<path fill="#F4F2F1" opacity="1.000000" stroke="none" 
	d="
M34.743324,14.219696 
	C37.081947,14.662370 39.167149,15.322680 41.616882,16.352455 
	C40.344398,18.146303 38.707382,19.570688 36.724045,20.994036 
	C35.916027,20.982267 35.454330,20.971535 34.992630,20.960802 
	C34.994774,20.525217 34.996910,20.089632 34.999374,19.327366 
	C34.829765,17.479568 34.659836,15.958450 34.743324,14.219696 
z"/>
<path fill="#CFF5FF" opacity="1.000000" stroke="none" 
	d="
M9.375584,28.015730 
	C9.375584,28.015730 9.485125,27.989323 10.020437,28.029781 
	C10.874475,28.045553 11.193199,28.020864 11.511924,27.996178 
	C11.908735,28.014774 12.305548,28.033371 12.918825,28.316948 
	C13.135292,28.581928 12.969163,28.973122 12.651320,29.046885 
	C10.959366,30.010801 9.585258,30.900957 8.144979,31.410831 
	C8.060868,30.006729 8.042926,28.982904 8.024984,27.959082 
	C8.024984,27.959082 8.005774,28.013357 8.334240,28.021873 
	C8.900332,28.025503 9.137958,28.020617 9.375584,28.015730 
z"/>
<path fill="#E4F2F8" opacity="1.000000" stroke="none" 
	d="
M19.981117,27.025440 
	C22.006559,27.003609 24.032003,26.981777 26.484722,26.902914 
	C26.912001,26.845882 26.967424,26.923937 26.896278,27.267185 
	C26.782253,28.019777 26.739374,28.429125 26.501804,28.718468 
	C25.704571,29.013111 25.102030,29.427755 24.302780,29.577335 
	C23.575062,29.523321 23.044054,29.734369 22.423323,29.644382 
	C21.546837,28.762714 20.760077,28.182077 19.979008,27.457493 
	C19.984699,27.313543 19.981117,27.025440 19.981117,27.025440 
z"/>
<path fill="#556C88" opacity="1.000000" stroke="none" 
	d="
M7.765303,27.786034 
	C8.042926,28.982904 8.060868,30.006729 8.103672,31.690277 
	C8.094277,32.535366 8.060019,32.720730 7.790907,32.896202 
	C7.556055,32.886314 7.085992,32.893684 7.085992,32.893684 
	C7.085992,32.893684 7.020096,32.926071 6.965935,32.684380 
	C6.628636,32.223263 6.345497,32.003841 6.062358,31.784416 
	C6.109704,30.817535 6.157051,29.850653 6.301830,28.532543 
	C6.768050,27.991869 7.136836,27.802427 7.765303,27.786034 
z"/>
<path fill="#ECF5FF" opacity="1.000000" stroke="none" 
	d="
M19.583447,27.015390 
	C19.981117,27.025440 19.984699,27.313543 19.734434,27.595776 
	C18.978594,28.095436 18.473021,28.312862 17.696693,28.576332 
	C16.938450,28.480865 16.450960,28.339355 15.970701,27.898041 
	C15.983568,27.398392 15.989204,27.198544 15.994842,26.998695 
	C17.058487,27.000912 18.122131,27.003126 19.583447,27.015390 
z"/>
<path fill="#F8FBFD" opacity="1.000000" stroke="none" 
	d="
M15.751938,26.905766 
	C15.989204,27.198544 15.983568,27.398392 15.589439,27.901752 
	C14.706835,28.312496 14.212721,28.419724 13.780521,28.383356 
	C13.842435,28.239763 14.010116,27.975771 14.010117,27.975773 
	C14.509755,27.588125 15.009395,27.200480 15.751938,26.905766 
z"/>
<path fill="#E1ECF7" opacity="1.000000" stroke="none" 
	d="
M9.935145,26.750004 
	C10.243716,26.708506 10.552287,26.667006 10.665491,26.778595 
	C10.291798,26.871122 10.113472,26.810564 9.935145,26.750004 
z"/>
<path fill="#556C88" opacity="1.000000" stroke="none" 
	d="
M9.280120,27.699078 
	C9.137958,28.020617 8.900332,28.025503 8.306190,28.028351 
	C8.361335,27.811682 8.772995,27.597054 9.280120,27.699078 
z"/>
<path fill="#556C88" opacity="1.000000" stroke="none" 
	d="
M9.766277,27.043270 
	C10.113472,26.810564 10.291798,26.871122 10.752766,26.939350 
	C11.121691,27.118805 11.207975,27.290592 11.403091,27.729279 
	C11.193199,28.020864 10.874475,28.045553 10.075481,28.041800 
	C9.595944,27.787750 9.596677,27.562145 9.766277,27.043270 
z"/>
<path fill="#5E8AD5" opacity="1.000000" stroke="none" 
	d="
M12.969163,28.973122 
	C12.969163,28.973122 13.135292,28.581928 13.209640,28.383318 
	C13.283987,28.184708 13.667299,28.150707 13.838707,28.063240 
	C14.010116,27.975771 13.842435,28.239763 13.687212,28.487913 
	C13.380079,28.852243 13.217002,28.949755 13.024094,29.015114 
	C13.005430,29.001629 12.969163,28.973122 12.969163,28.973122 
z"/>
<path fill="#FBEDF5" opacity="1.000000" stroke="none" 
	d="
M58.988556,41.004696 
	C57.134468,42.498684 55.280380,43.992672 53.214073,45.743172 
	C51.573597,47.119324 51.177860,51.215378 48.381954,47.289692 
	C48.079327,44.443501 47.532013,41.994835 47.200699,39.380733 
	C47.580666,39.137970 47.744629,39.060646 48.256748,39.041512 
	C49.057293,38.989559 49.509682,38.879417 50.276756,38.927002 
	C50.765648,38.470383 50.939857,37.856037 51.152473,37.246147 
	C51.190884,37.250595 51.258530,37.213131 51.596806,37.271339 
	C52.783699,37.894390 53.632317,38.459232 54.635056,39.124420 
	C54.789181,39.224762 55.137421,39.343174 55.202637,39.451302 
	C55.267853,39.559433 55.612446,39.570915 55.612446,39.570915 
	C55.612446,39.570915 55.768074,39.258759 55.781708,39.259727 
	C55.795345,39.260693 55.811329,39.286827 56.220287,39.305550 
	C57.440063,39.338280 58.250881,39.352287 59.029953,39.636589 
	C58.994991,40.272827 58.991776,40.638760 58.988556,41.004696 
z"/>
<path fill="#F2F3E9" opacity="1.000000" stroke="none" 
	d="
M46.984695,39.546169 
	C47.532013,41.994835 48.079327,44.443501 48.313553,46.946312 
	C45.202492,46.755676 42.404526,46.510895 39.332153,45.874496 
	C39.074451,45.313416 39.091152,45.143951 39.325363,44.974411 
	C39.542870,44.974339 39.977879,44.975807 40.222935,44.812279 
	C40.647789,44.101177 40.827587,43.553604 41.003769,43.003170 
	C41.000153,43.000305 41.009407,43.007996 41.344788,42.969261 
	C42.431660,41.742886 43.183151,40.555252 44.271049,39.168213 
	C45.384254,38.951004 46.161053,38.933193 46.901855,39.076622 
	C46.865860,39.237858 46.984695,39.546169 46.984695,39.546169 
z"/>
<path fill="#F4F3F2" opacity="1.000000" stroke="none" 
	d="
M16.811493,46.977097 
	C16.452639,48.449753 16.093784,49.922409 15.858976,52.091221 
	C15.655613,54.855267 15.328204,56.923157 14.729336,58.879326 
	C13.390474,58.845181 12.323071,58.922752 11.252836,58.606190 
	C11.237360,57.432529 11.224717,56.653000 11.270878,55.670341 
	C11.329681,55.467205 11.416945,55.053356 11.653282,54.823654 
	C11.901334,52.744915 11.913049,50.895870 11.933890,48.788898 
	C11.943549,48.358902 11.944081,48.186840 12.212206,47.832088 
	C13.653763,46.778217 14.827726,45.907040 16.270424,45.095009 
	C16.680691,45.475616 16.822222,45.797085 16.929428,46.333847 
	C16.895103,46.549149 16.811493,46.977097 16.811493,46.977097 
z"/>
<path fill="#E5F0F4" opacity="1.000000" stroke="none" 
	d="
M23.005516,61.609177 
	C22.556936,61.681885 22.108358,61.754597 21.221342,61.662949 
	C20.595945,61.263966 20.366428,61.083443 19.902809,60.718838 
	C19.134768,60.300529 18.558264,60.120396 18.183090,59.687672 
	C19.923077,57.623692 21.461735,55.812302 23.000395,54.000916 
	C24.964153,54.757084 26.927914,55.513252 28.583954,56.674301 
	C26.519327,58.589176 24.762421,60.099174 23.005516,61.609177 
z"/>
<path fill="#F2EDEE" opacity="1.000000" stroke="none" 
	d="
M22.706938,53.873016 
	C21.461735,55.812302 19.923077,57.623692 17.812275,59.702747 
	C16.497538,59.969574 15.754945,59.968731 15.009834,59.723675 
	C15.007318,59.479462 15.000795,58.991047 15.000795,58.991047 
	C15.328204,56.923157 15.655613,54.855267 15.991587,52.393078 
	C16.444189,51.999336 16.888227,51.999893 17.839085,52.239632 
	C18.897295,52.652378 19.448685,52.825939 20.000076,52.999500 
	C20.804544,53.248039 21.609013,53.496578 22.706938,53.873016 
z"/>
<path fill="#C0CDD7" opacity="1.000000" stroke="none" 
	d="
M23.055958,62.027802 
	C24.762421,60.099174 26.519327,58.589176 28.630547,57.047874 
	C27.759611,59.131001 26.534363,61.245430 25.149628,63.650230 
	C24.608650,63.978539 24.227160,64.016479 23.560610,64.087395 
	C23.219170,63.562393 23.162786,63.004414 23.055958,62.027802 
z"/>
<path fill="#6C8CA0" opacity="1.000000" stroke="none" 
	d="
M39.107857,44.974487 
	C39.091152,45.143951 39.074451,45.313416 39.004490,45.732616 
	C38.495735,46.261028 38.040237,46.539703 37.015099,46.897766 
	C36.231060,46.948200 36.016666,46.919247 35.586403,46.626373 
	C34.221954,46.199615 33.073383,46.036777 31.753647,45.745525 
	C31.345203,45.453197 31.143450,45.253414 31.288288,44.980202 
	C32.097961,44.601242 32.596558,44.259842 33.358528,43.803482 
	C34.137566,43.437923 34.653229,43.187321 35.489944,42.959991 
	C36.909946,43.647003 38.008904,44.310745 39.107857,44.974487 
z"/>
<path fill="#394969" opacity="1.000000" stroke="none" 
	d="
M30.977213,45.017757 
	C31.143450,45.253414 31.345203,45.453197 31.910780,46.014046 
	C32.565975,46.657684 32.892864,46.904396 33.360085,47.371960 
	C33.996967,47.728470 34.493526,47.864128 34.990086,47.999779 
	C33.529358,48.521347 32.068630,49.042915 30.295704,49.076797 
	C29.627296,47.707905 29.271090,46.826694 29.055271,45.747498 
	C29.428844,45.319153 29.695795,45.138767 30.241562,45.023537 
	C30.486614,45.038731 30.977213,45.017757 30.977213,45.017757 
z"/>
<path fill="#2A426A" opacity="1.000000" stroke="none" 
	d="
M28.914885,45.945488 
	C29.271090,46.826694 29.627296,47.707905 29.986282,48.895180 
	C29.488810,49.120991 28.988558,49.040730 28.101315,48.695442 
	C27.492083,48.208637 27.225449,48.076248 26.914425,48.033257 
	C26.487284,48.016804 26.060143,48.000355 25.324242,47.592159 
	C25.013197,46.799862 25.010912,46.399311 25.353928,45.971882 
	C26.157694,45.889282 26.616158,45.833565 27.380119,45.820942 
	C28.095371,45.891190 28.505127,45.918339 28.914885,45.945488 
z"/>
<path fill="#394969" opacity="1.000000" stroke="none" 
	d="
M25.008629,45.998760 
	C25.010912,46.399311 25.013197,46.799862 25.016865,47.500854 
	C23.878168,47.723816 22.738089,47.646339 20.870663,47.616306 
	C20.062941,47.411888 19.982569,47.160027 20.298103,46.781319 
	C21.749674,46.411400 22.805340,46.168339 24.147612,45.948303 
	C24.625690,45.980476 24.817160,45.989620 25.008629,45.998760 
z"/>
<path fill="#E1E5F0" opacity="1.000000" stroke="none" 
	d="
M19.902197,46.908169 
	C19.982569,47.160027 20.062941,47.411888 20.495438,47.840797 
	C19.673262,47.849125 18.498959,47.680401 17.068075,47.244385 
	C16.811493,46.977097 16.895103,46.549149 17.229572,46.410839 
	C17.756660,46.197826 17.949280,46.123127 18.328835,46.112083 
	C18.977913,46.419880 19.440056,46.664024 19.902197,46.908169 
z"/>
<path fill="#8C95A9" opacity="1.000000" stroke="none" 
	d="
M35.299484,47.984093 
	C34.493526,47.864128 33.996967,47.728470 33.681953,47.332977 
	C34.509758,47.012192 35.156017,46.951244 35.802277,46.890297 
	C36.016666,46.919247 36.231060,46.948200 36.768219,47.012024 
	C36.596951,47.354061 36.102917,47.661232 35.299484,47.984093 
z"/>
<path fill="#F4F3F2" opacity="1.000000" stroke="none" 
	d="
M19.965881,52.712124 
	C19.448685,52.825939 18.897295,52.652378 18.172112,52.240189 
	C18.642776,52.142628 19.287231,52.283688 19.965881,52.712124 
z"/>
<path fill="#394969" opacity="1.000000" stroke="none" 
	d="
M26.998470,48.278618 
	C27.225449,48.076248 27.492083,48.208637 27.848518,48.612877 
	C27.682648,48.704887 27.382582,48.614437 26.998470,48.278618 
z"/>
<path fill="#F1F1F5" opacity="1.000000" stroke="none" 
	d="
M7.063745,33.268631 
	C7.085992,32.893684 7.556055,32.886314 8.028781,33.009438 
	C8.671439,33.178757 8.841371,33.224945 9.062170,33.551208 
	C9.693031,34.216995 10.273025,34.602718 10.944016,35.182617 
	C11.118251,35.657848 11.265040,35.900440 11.470963,36.499107 
	C11.503507,37.932678 11.540471,38.971722 11.314804,40.007660 
	C10.701553,40.003010 10.350934,40.001469 10.000315,39.999924 
	C9.014043,37.881142 8.027771,35.762360 7.063745,33.268631 
z"/>
<path fill="#E4E9ED" opacity="1.000000" stroke="none" 
	d="
M4.993706,48.985371 
	C6.418159,46.994476 7.842612,45.003582 9.633619,43.006420 
	C10.000175,43.000153 10.003516,43.003559 9.995695,43.268757 
	C9.982557,43.710751 9.977241,43.887547 9.703386,44.287327 
	C9.288430,45.672256 9.142011,46.834206 8.991888,48.238785 
	C8.988185,48.481419 8.977768,48.966633 8.759708,49.085518 
	C8.275110,49.413582 8.072747,49.672852 7.568063,49.984921 
	C6.468664,49.993732 5.735762,49.999840 5.000839,49.750801 
	C4.997114,49.325562 4.995410,49.155464 4.993706,48.985371 
z"/>
<path fill="#F4F8FD" opacity="1.000000" stroke="none" 
	d="
M10.000287,40.329033 
	C10.350934,40.001469 10.701553,40.003010 11.454348,40.302429 
	C12.218488,41.122829 12.580453,41.645348 12.941498,42.376648 
	C12.940578,42.585434 13.015577,42.996208 12.680512,42.993652 
	C11.898767,42.994015 11.452085,42.996929 10.893984,42.780521 
	C10.582128,42.288246 10.323163,42.092850 10.005671,41.975018 
	C10.003867,41.536060 10.002063,41.097099 10.000287,40.329033 
z"/>
<path fill="#DDE3E6" opacity="1.000000" stroke="none" 
	d="
M4.708873,49.133575 
	C4.995410,49.155464 4.997114,49.325562 4.953556,50.066895 
	C4.277585,51.097164 3.646876,51.556187 3.016166,52.015209 
	C3.016165,52.015209 3.006050,52.005711 3.000962,52.000748 
	C3.471929,51.091118 3.947984,50.186451 4.708873,49.133575 
z"/>
<path fill="#F1F1F5" opacity="1.000000" stroke="none" 
	d="
M6.151067,32.042786 
	C6.345497,32.003841 6.628636,32.223263 6.998624,32.701088 
	C6.803574,32.740044 6.521675,32.520603 6.151067,32.042786 
z"/>
<path fill="#E4E9ED" opacity="1.000000" stroke="none" 
	d="
M10.000594,42.230591 
	C10.323163,42.092850 10.582128,42.288246 10.643473,42.780357 
	C10.337428,43.000862 10.170472,43.002213 10.003516,43.003559 
	C10.003516,43.003559 10.000175,43.000153 9.998783,42.998779 
	C9.996768,42.826996 9.996142,42.656578 10.000594,42.230591 
z"/>
<path fill="#F4F2F8" opacity="1.000000" stroke="none" 
	d="
M53.996216,22.004524 
	C53.996941,25.033541 53.997665,28.062557 53.759216,31.719463 
	C53.346035,32.898182 53.172024,33.449017 52.666599,34.001053 
	C51.893368,34.004883 51.451553,34.007504 50.686089,34.006676 
	C49.562309,33.765560 48.762180,33.527885 48.320099,33.162216 
	C48.992088,32.077805 49.306034,31.121397 49.765274,29.894873 
	C50.262535,28.701782 50.614498,27.778807 51.230228,26.604853 
	C51.646706,24.902676 51.799412,23.451477 52.292828,21.998989 
	C53.087765,21.999973 53.541988,22.002249 53.996216,22.004524 
z"/>
<path fill="#7999B7" opacity="1.000000" stroke="none" 
	d="
M60.025597,7.986861 
	C60.025597,7.986861 60.480576,7.970400 60.726013,8.239925 
	C60.988945,8.686438 61.006439,8.863424 61.023930,9.040411 
	C61.082333,10.738547 61.140736,12.436685 61.094658,14.903106 
	C60.586040,17.336395 60.181900,19.001398 59.777756,20.666403 
	C59.438889,20.423258 59.100018,20.180115 58.496155,19.548721 
	C58.133327,18.777885 58.035492,18.395300 57.918823,17.802555 
	C57.826935,17.300625 57.652348,17.095299 57.304298,16.546309 
	C57.195614,14.083511 57.158844,12.050828 57.465767,10.006021 
	C58.548168,9.324886 59.286880,8.655874 60.025597,7.986861 
z"/>
<path fill="#EEF2ED" opacity="1.000000" stroke="none" 
	d="
M54.240162,21.837845 
	C53.541988,22.002249 53.087765,21.999973 52.087906,21.758511 
	C51.292213,20.720209 51.042152,19.921097 50.865074,18.848532 
	C50.958530,18.387484 50.979004,18.199886 51.156898,17.914598 
	C51.196663,17.546879 51.079014,17.276846 50.976063,17.036314 
	C50.990761,17.065815 50.933945,17.099606 50.957382,16.740725 
	C51.652847,15.585104 52.324875,14.788365 53.010345,13.993317 
	C53.023792,13.995008 53.050877,13.993787 53.071850,14.321817 
	C54.055599,15.775476 55.018379,16.901102 55.991554,18.349344 
	C56.024193,19.101254 56.046444,19.530544 56.068691,19.959839 
	C55.540497,20.530281 55.012302,21.100723 54.240162,21.837845 
z"/>
<path fill="#ECF0FB" opacity="1.000000" stroke="none" 
	d="
M59.993950,20.969574 
	C60.181900,19.001398 60.586040,17.336395 61.138756,15.325062 
	C61.835762,15.456223 62.384186,15.933715 62.970757,16.707966 
	C63.002781,18.388779 62.996670,19.772833 62.989216,21.571606 
	C62.061962,21.748466 61.136051,21.510607 59.993950,20.969574 
z"/>
<path fill="#64799D" opacity="1.000000" stroke="none" 
	d="
M59.061699,39.366291 
	C58.250881,39.352287 57.440063,39.338280 55.959854,38.965176 
	C55.815254,37.363548 56.340042,36.121021 56.864830,34.878494 
	C57.371647,34.521030 57.878460,34.163570 58.695290,33.663498 
	C59.272083,34.104637 59.538868,34.688393 59.548630,35.869377 
	C59.222980,37.335365 59.154358,38.204124 59.051262,39.143898 
	C59.016785,39.214920 59.061699,39.366291 59.061699,39.366291 
z"/>
<path fill="#DFF0FF" opacity="1.000000" stroke="none" 
	d="
M56.676506,34.770428 
	C56.340042,36.121021 55.815254,37.363548 55.550896,38.946449 
	C55.811329,39.286827 55.795345,39.260693 55.619003,39.237862 
	C55.442665,39.215027 55.137421,39.343174 55.137421,39.343174 
	C55.137421,39.343174 54.789181,39.224762 54.787636,38.721672 
	C54.526260,37.144756 54.266426,36.070930 54.212696,34.876450 
	C54.689159,34.566570 54.878876,34.316223 55.242867,33.994934 
	C55.667484,33.973648 55.837177,33.962189 56.006866,33.950726 
	C56.097984,34.234825 56.258423,34.472038 56.676506,34.770428 
z"/>
<path fill="#F2F1F2" opacity="1.000000" stroke="none" 
	d="
M55.955761,33.639076 
	C55.837177,33.962189 55.667484,33.973648 54.911404,33.993423 
	C53.882683,34.001106 53.440350,34.000477 52.998016,33.999847 
	C53.172024,33.449017 53.346035,32.898182 53.758171,32.173409 
	C54.632420,32.442123 55.268536,32.884777 55.955761,33.639076 
z"/>
<path fill="#CDE0F5" opacity="1.000000" stroke="none" 
	d="
M56.457890,19.956411 
	C56.046444,19.530544 56.024193,19.101254 56.318035,18.341610 
	C57.068638,18.011742 57.503147,18.012228 57.937660,18.012712 
	C58.035492,18.395300 58.133327,18.777885 58.312584,19.443424 
	C57.878365,19.801910 57.362728,19.877447 56.457890,19.956411 
z"/>
<path fill="#E6EFFC" opacity="1.000000" stroke="none" 
	d="
M59.364510,41.003868 
	C58.991776,40.638760 58.994991,40.272827 59.029953,39.636589 
	C59.061699,39.366291 59.016785,39.214920 59.289536,39.032173 
	C59.756622,38.560455 59.950951,38.271488 60.378235,38.108032 
	C61.073517,38.486721 61.535843,38.739895 61.998169,38.993069 
	C61.997749,39.437687 61.997326,39.882305 61.994621,40.660103 
	C61.241714,40.996540 60.491089,40.999794 59.364510,41.003868 
z"/>
<path fill="#BBD3E3" opacity="1.000000" stroke="none" 
	d="
M43.992817,11.994003 
	C45.370636,10.313747 46.748455,8.633492 48.557808,7.222702 
	C48.966927,7.872905 48.944515,8.253640 48.719673,8.798830 
	C48.429577,9.281465 48.341915,9.599645 48.265862,10.173193 
	C48.279873,10.598968 48.282284,10.769372 48.087368,11.140890 
	C47.590816,11.562222 47.291588,11.782444 46.748856,12.154224 
	C46.354305,12.840588 46.203255,13.375391 45.709328,13.935001 
	C44.909157,13.992420 44.451859,14.025033 43.994560,14.057646 
	C43.994560,14.057645 44.013729,13.991052 44.011379,13.636230 
	C44.003624,12.852275 43.998219,12.423139 43.992817,11.994003 
z"/>
<path fill="#7C939F" opacity="1.000000" stroke="none" 
	d="
M48.922104,8.634376 
	C48.944515,8.253640 48.966927,7.872905 48.918926,7.213767 
	C48.848515,6.935365 48.964977,6.478437 49.318596,6.246259 
	C49.881413,6.014309 50.090603,6.014536 50.297161,6.134362 
	C50.294525,6.253960 50.530113,6.327575 50.530113,6.327575 
	C50.530113,6.327575 50.584942,6.000992 50.922440,5.985600 
	C51.833652,5.666246 52.407372,5.362284 53.276684,5.325308 
	C53.805336,6.351302 54.038399,7.110310 54.123528,8.091528 
	C53.022385,8.850062 52.069176,9.386388 50.853859,10.037922 
	C50.105404,10.435704 49.619049,10.718277 48.920914,10.982565 
	C48.709129,10.964280 48.284691,10.939777 48.284691,10.939777 
	C48.282284,10.769372 48.279873,10.598968 48.450180,10.007439 
	C48.722630,9.269002 48.822369,8.951689 48.922104,8.634376 
z"/>
<path fill="#7894A7" opacity="1.000000" stroke="none" 
	d="
M52.981091,5.058322 
	C52.407372,5.362284 51.833652,5.666246 50.901138,5.923461 
	C50.542339,5.876714 50.299797,6.014763 50.299797,6.014763 
	C50.090603,6.014536 49.881413,6.014309 49.358734,6.013931 
	C48.831150,5.750906 48.617054,5.488029 48.215614,4.754480 
	C48.036945,3.885719 48.045624,3.487633 48.054302,3.089545 
	C48.556377,3.324662 49.058453,3.559779 49.824852,3.882745 
	C50.811638,3.969596 51.534092,3.968598 52.617165,4.249338 
	C52.978882,4.706825 52.979988,4.882574 52.981091,5.058322 
z"/>
<path fill="#88A0B6" opacity="1.000000" stroke="none" 
	d="
M47.978024,2.914574 
	C48.045624,3.487633 48.036945,3.885719 48.029251,4.581908 
	C46.965302,4.157423 45.900368,3.434838 44.699272,2.399748 
	C44.771980,2.079615 44.980858,2.071986 45.501251,2.065140 
	C46.077354,2.088595 46.341942,2.111267 47.008129,2.165069 
	C47.625835,2.330060 47.789841,2.511194 47.978024,2.914574 
z"/>
<path fill="#C0CDD7" opacity="1.000000" stroke="none" 
	d="
M43.753273,11.999156 
	C43.998219,12.423139 44.003624,12.852275 44.015709,13.601854 
	C43.700207,13.480249 43.378033,13.038199 43.045238,12.304997 
	C43.034618,12.013846 43.513725,12.004309 43.753273,11.999156 
z"/>
<path fill="#F4F8FD" opacity="1.000000" stroke="none" 
	d="
M61.958271,38.687820 
	C61.535843,38.739895 61.073517,38.486721 60.334656,37.863838 
	C60.058121,37.494129 60.140617,37.004986 60.140617,37.004986 
	C60.733204,37.464180 61.325787,37.923378 61.958271,38.687820 
z"/>
<path fill="#8FA4CA" opacity="1.000000" stroke="none" 
	d="
M60.039581,36.732353 
	C60.140617,37.004986 60.058121,37.494129 60.101700,37.738327 
	C59.950951,38.271488 59.756622,38.560455 59.324013,38.961151 
	C59.154358,38.204124 59.222980,37.335365 59.484451,36.203403 
	C59.764381,36.113373 59.851463,36.286545 60.039581,36.732353 
z"/>
<path fill="#7BA0C2" opacity="1.000000" stroke="none" 
	d="
M61.275795,8.888474 
	C61.006439,8.863424 60.988945,8.686438 60.953632,8.242934 
	C61.168667,7.968539 61.392326,8.010031 61.748707,8.187228 
	C61.769634,8.427889 61.648647,8.582212 61.275795,8.888474 
z"/>
<path fill="#7BA0C2" opacity="1.000000" stroke="none" 
	d="
M59.722740,7.856647 
	C59.286880,8.655874 58.548168,9.324886 57.358517,9.682152 
	C56.863426,8.922186 56.819275,8.473968 57.034092,7.908662 
	C57.478092,7.474746 57.663120,7.157917 57.808289,6.823593 
	C57.768421,6.806098 57.705185,6.746245 57.705185,6.746245 
	C58.276752,7.072975 58.848316,7.399703 59.722740,7.856647 
z"/>
<path fill="#88A5B8" opacity="1.000000" stroke="none" 
	d="
M56.909149,5.919606 
	C57.589436,5.312210 58.269722,4.704814 59.362526,4.068254 
	C59.775040,4.039091 60.004269,4.126117 60.042294,4.171561 
	C59.444866,4.812905 58.809414,5.408806 57.613415,6.069128 
	C57.052864,6.133548 56.909149,5.919607 56.909149,5.919606 
z"/>
<path fill="#CDE0F5" opacity="1.000000" stroke="none" 
	d="
M56.727726,5.857175 
	C56.909149,5.919607 57.052864,6.133548 57.171543,6.164521 
	C57.290222,6.195493 57.491325,6.478265 57.598255,6.612255 
	C57.705185,6.746245 57.768421,6.806098 57.585480,6.809473 
	C57.402542,6.812847 56.990887,6.991176 57.004707,7.003858 
	C57.018528,7.016539 57.048149,7.039446 56.920292,6.640620 
	C56.590046,6.049441 56.387661,5.857087 56.185276,5.664733 
	C56.185276,5.664733 56.546303,5.794744 56.727726,5.857175 
z"/>
<path fill="#757D7B" opacity="1.000000" stroke="none" 
	d="
M55.981079,5.582875 
	C56.387661,5.857087 56.590046,6.049441 56.565109,6.714604 
	C55.649010,7.414715 54.960236,7.642016 54.271461,7.869318 
	C54.038399,7.110310 53.805336,6.351302 53.276684,5.325309 
	C52.979988,4.882574 52.978882,4.706825 52.979435,4.267435 
	C53.428680,3.971226 53.876270,3.938660 54.655373,3.846491 
	C55.250217,4.358264 55.513550,4.929641 55.981079,5.582875 
z"/>
<path fill="#B3BDC2" opacity="1.000000" stroke="none" 
	d="
M57.153175,2.123454 
	C57.715992,1.981050 58.092484,1.963228 58.753006,1.934218 
	C59.033749,2.118157 59.030453,2.313284 58.965149,2.794654 
	C58.257706,2.803277 57.612278,2.525657 57.153175,2.123454 
z"/>
<path fill="#8B989C" opacity="1.000000" stroke="none" 
	d="
M6.621265,62.841824 
	C6.621266,62.841824 6.590431,62.815178 6.572892,62.805119 
	C5.810277,62.374756 5.065200,61.954456 4.159452,61.257080 
	C3.991959,60.753094 3.985138,60.526188 4.081099,60.034531 
	C4.183880,59.769779 4.222290,59.960327 4.909697,60.242371 
	C6.067884,60.678474 6.538665,60.832531 6.950807,61.296303 
	C6.801867,62.017952 6.711566,62.429890 6.621265,62.841824 
z"/>
<path fill="#E5F0F4" opacity="1.000000" stroke="none" 
	d="
M14.729336,58.879326 
	C15.000795,58.991047 15.007318,59.479462 14.789694,59.840458 
	C14.284316,60.391754 14.084347,60.650017 13.718417,60.977501 
	C12.993051,61.101624 12.521431,61.224491 12.049810,61.347359 
	C12.049811,61.347363 11.607854,61.387371 11.412582,61.489056 
	C11.217310,61.590740 10.827079,61.581928 10.616730,61.413368 
	C10.297804,60.859135 10.189227,60.473461 10.293452,59.925087 
	C10.756059,59.508366 11.005863,59.254345 11.255669,59.000324 
	C12.323071,58.922752 13.390474,58.845181 14.729336,58.879326 
z"/>
<path fill="#93B5DC" opacity="1.000000" stroke="none" 
	d="
M12.356493,61.536537 
	C12.521431,61.224491 12.993051,61.101624 14.084511,61.013840 
	C15.438349,61.045086 16.172346,61.041245 17.033602,61.247543 
	C17.384960,61.717056 17.666637,61.871170 18.042343,62.120026 
	C18.078794,62.320030 18.127407,62.723705 17.767910,62.817734 
	C16.914175,62.952076 16.419937,62.992393 15.925699,63.032711 
	C14.838191,62.597046 13.750684,62.161381 12.356493,61.536537 
z"/>
<path fill="#446C9E" opacity="1.000000" stroke="none" 
	d="
M15.726215,63.144615 
	C16.419937,62.992393 16.914175,62.952076 17.984253,62.913185 
	C18.560095,62.914612 18.987720,63.117722 18.987720,63.117722 
	C18.987720,63.117722 18.939960,63.436886 18.921364,63.594852 
	C17.864305,63.837261 16.825848,63.921703 15.394876,63.999172 
	C15.096873,63.689732 15.271663,63.444508 15.726215,63.144615 
z"/>
<path fill="#C4D3DF" opacity="1.000000" stroke="none" 
	d="
M19.250683,62.982079 
	C18.987720,63.117722 18.560095,62.914612 18.343750,62.819160 
	C18.127407,62.723705 18.078794,62.320030 17.911463,61.915829 
	C17.518555,61.258774 17.239292,61.100697 16.906342,61.037403 
	C16.172346,61.041245 15.438349,61.045086 14.338259,61.012589 
	C14.084347,60.650017 14.284316,60.391754 14.792212,60.084671 
	C15.754945,59.968731 16.497538,59.969574 17.610947,59.955341 
	C18.558264,60.120396 19.134768,60.300529 19.882843,60.993561 
	C20.053143,61.870205 20.051870,62.233952 20.050600,62.597698 
	C19.871614,62.680614 19.692629,62.763527 19.250683,62.982079 
z"/>
<path fill="#CFE6F3" opacity="1.000000" stroke="none" 
	d="
M20.278301,62.616749 
	C20.051870,62.233952 20.053143,61.870205 20.074381,61.231735 
	C20.366428,61.083443 20.595945,61.263966 20.882050,61.695259 
	C20.964043,62.230251 20.805647,62.478210 20.278301,62.616749 
z"/>
<path fill="#56626A" opacity="1.000000" stroke="none" 
	d="
M10.080650,60.087784 
	C10.189227,60.473461 10.297804,60.859135 10.467543,61.539200 
	C10.260342,61.866272 9.991980,61.898964 9.070299,61.873947 
	C7.947802,61.539692 7.478623,61.263142 7.009445,60.986588 
	C6.538665,60.832531 6.067884,60.678474 5.184297,59.947514 
	C5.181880,58.622353 5.592269,57.874096 6.283062,57.564552 
	C7.373770,57.999016 8.184074,57.994774 9.239223,58.175789 
	C9.682926,58.936630 9.881788,59.512207 10.080650,60.087784 
z"/>
<path fill="#7B7A78" opacity="1.000000" stroke="none" 
	d="
M6.950807,61.296303 
	C7.478623,61.263142 7.947802,61.539692 8.667467,61.920540 
	C8.830496,62.359425 8.640769,62.619461 8.120512,62.904434 
	C7.680325,62.982323 7.468395,62.960712 6.938866,62.890465 
	C6.711566,62.429890 6.801867,62.017952 6.950807,61.296303 
z"/>
<path fill="#D9E9FA" opacity="1.000000" stroke="none" 
	d="
M6.002657,57.125839 
	C5.592269,57.874096 5.181880,58.622353 4.496890,59.665466 
	C4.222290,59.960327 4.183880,59.769779 4.146749,59.700401 
	C4.109618,59.631023 4.090829,59.581711 4.094652,59.547119 
	C4.098475,59.512531 4.133466,59.272720 4.069728,59.154434 
	C4.005989,59.036152 3.958344,59.033997 4.247874,59.173409 
	C4.388342,58.962444 4.239281,58.612076 4.048720,57.935448 
	C3.672444,57.072964 3.337667,56.536739 3.002890,56.000511 
	C3.002890,56.000511 3.001113,55.503136 2.999739,55.254524 
	C3.002129,54.257977 3.005893,53.510040 3.012912,52.388657 
	C3.646876,51.556187 4.277585,51.097164 4.955577,50.322044 
	C5.735762,49.999840 6.468664,49.993732 7.587805,50.323029 
	C7.986849,51.109272 7.999653,51.560116 7.992460,52.244629 
	C7.972464,52.478302 7.922077,52.944923 7.742552,52.949558 
	C7.130502,53.130566 6.697976,53.306938 6.171341,53.869431 
	C6.052374,55.212315 6.027515,56.169079 6.002657,57.125839 
z"/>
<path fill="#D1DFE7" opacity="1.000000" stroke="none" 
	d="
M3.001776,56.332367 
	C3.337667,56.536739 3.672444,57.072964 4.046721,58.133747 
	C4.086222,58.658302 3.958344,59.033997 3.958344,59.033997 
	C3.958344,59.033997 4.005989,59.036152 3.996037,59.058243 
	C3.731172,58.867226 3.476260,58.654121 3.109422,58.216198 
	C2.998552,57.548996 2.999607,57.106609 3.001776,56.332367 
z"/>
<path fill="#D9C8AA" opacity="1.000000" stroke="none" 
	d="
M29.895607,25.976616 
	C30.337397,25.633415 30.779186,25.290215 31.911572,24.940723 
	C33.416088,24.948202 34.230007,24.961971 35.255730,24.999878 
	C35.467533,25.024014 35.892159,25.062286 35.931477,25.389372 
	C35.705482,26.502703 35.440170,27.288946 35.083893,27.934307 
	C34.894547,27.742104 34.796165,27.690783 34.697784,27.639463 
	C34.822754,27.818125 34.947727,27.996784 35.110863,28.183813 
	C35.149029,28.192181 35.184025,28.309620 35.060867,28.686985 
	C34.882423,29.323153 34.827141,29.581951 34.762466,29.852119 
	C34.753071,29.863493 34.678394,29.847698 34.066147,29.697876 
	C33.079746,29.739336 32.705597,29.930616 32.160812,30.207626 
	C31.490845,30.440184 30.991514,30.587008 30.349222,30.421913 
	C29.985834,29.710514 29.765409,29.311031 29.612003,28.809052 
	C29.861828,28.535736 30.003008,28.334339 30.334667,28.055803 
	C30.806229,27.840508 31.045681,27.671772 31.285131,27.503036 
	C30.887264,27.322975 30.489399,27.142912 30.049454,26.714920 
	C29.970121,26.303534 29.932865,26.140076 29.895607,25.976616 
z"/>
<path fill="#FAEDD4" opacity="1.000000" stroke="none" 
	d="
M34.625645,20.979439 
	C35.454330,20.971535 35.916027,20.982267 36.675106,21.312830 
	C36.295433,22.433920 35.618378,23.235176 34.568535,24.023071 
	C33.448421,23.994238 32.701096,23.978767 31.953770,23.963297 
	C32.722065,22.974890 33.490364,21.986483 34.625645,20.979439 
z"/>
<path fill="#2152AA" opacity="1.000000" stroke="none" 
	d="
M29.544985,28.911549 
	C29.765409,29.311031 29.985834,29.710514 30.174417,30.729343 
	C29.698772,31.825579 29.254971,32.302467 28.647930,32.681625 
	C28.484695,32.583900 28.119528,32.690853 27.913090,32.575195 
	C27.399597,32.375355 27.087282,32.321873 26.842560,31.868044 
	C26.842440,30.570824 26.769466,29.704647 26.696495,28.838470 
	C26.739374,28.429125 26.782253,28.019777 26.911163,27.312675 
	C27.162121,26.987988 27.327045,26.961056 27.875910,27.149654 
	C28.688227,27.880640 29.116606,28.396095 29.544985,28.911549 
z"/>
<path fill="#FEEBE6" opacity="1.000000" stroke="none" 
	d="
M29.612003,28.809052 
	C29.116606,28.396095 28.688227,27.880640 28.121758,27.100750 
	C28.440298,26.566433 28.896925,26.296549 29.624580,26.001640 
	C29.932865,26.140076 29.970121,26.303534 30.028700,27.000221 
	C30.067537,27.723091 30.085049,27.912729 30.102558,28.102365 
	C30.003008,28.334339 29.861828,28.535736 29.612003,28.809052 
z"/>
<path fill="#E4CABF" opacity="1.000000" stroke="none" 
	d="
M31.923473,24.181843 
	C32.701096,23.978767 33.448421,23.994238 34.596199,24.257584 
	C34.996651,24.505457 35.043930,24.975742 35.043930,24.975742 
	C34.230007,24.961971 33.416088,24.948202 32.193977,24.881411 
	C31.785793,24.828390 31.893179,24.400387 31.923473,24.181843 
z"/>
<path fill="#F7EEEF" opacity="1.000000" stroke="none" 
	d="
M35.255730,24.999878 
	C35.043930,24.975742 34.996651,24.505457 34.968987,24.270947 
	C35.618378,23.235176 36.295433,22.433920 37.021423,21.313868 
	C38.707382,19.570688 40.344398,18.146303 41.990402,16.360443 
	C42.443771,15.999084 42.888157,15.999200 43.666855,16.392773 
	C44.376560,18.286552 44.751957,19.786871 45.120594,21.586960 
	C44.983421,22.260550 44.853008,22.634375 44.510902,23.030149 
	C44.246159,23.390156 44.193100,23.728209 44.143745,24.457123 
	C44.145393,25.886074 44.143333,26.924164 43.851200,27.990215 
	C42.379383,28.329639 41.197639,28.641104 39.613258,29.084671 
	C39.010189,29.386339 38.809761,29.555901 38.609333,29.725464 
	C38.445457,29.267832 38.281582,28.810198 38.166981,28.110104 
	C40.344288,24.527758 37.032478,25.694506 35.892159,25.062286 
	C35.892159,25.062286 35.467533,25.024014 35.255730,24.999878 
z"/>
<path fill="#F4F2F1" opacity="1.000000" stroke="none" 
	d="
M45.127350,21.287191 
	C44.751957,19.786871 44.376560,18.286552 44.000134,16.392141 
	C43.998615,15.566402 43.998127,15.134754 43.996101,14.380377 
	C44.451859,14.025033 44.909157,13.992420 45.964409,14.005567 
	C46.733948,14.092614 46.905533,14.133904 47.236660,14.380600 
	C47.945766,15.004942 48.495323,15.423876 49.040466,16.137856 
	C49.045826,16.629375 49.055599,16.825851 49.067047,17.351068 
	C48.713596,18.454151 48.358471,19.228491 47.677917,20.011820 
	C46.903576,20.388060 46.454674,20.755312 45.788010,21.173565 
	C45.570248,21.224564 45.127350,21.287191 45.127350,21.287191 
z"/>
<path fill="#5E8AD5" opacity="1.000000" stroke="none" 
	d="
M9.011303,33.271137 
	C8.841371,33.224945 8.671439,33.178757 8.263633,33.019329 
	C8.060019,32.720730 8.094277,32.535366 8.169842,32.070557 
	C9.585258,30.900957 10.959366,30.010801 12.651320,29.046885 
	C12.969163,28.973122 13.005430,29.001629 13.031008,29.267750 
	C13.060229,29.702265 13.063874,29.870655 13.051049,30.330811 
	C13.076733,31.008129 13.118885,31.393681 13.167023,32.113239 
	C13.167980,32.669895 13.162953,32.892548 12.918847,33.171562 
	C12.236005,33.426136 11.792241,33.624355 11.136495,33.565735 
	C10.286776,33.296307 9.649039,33.283722 9.011303,33.271137 
z"/>
<path fill="#B1CBF4" opacity="1.000000" stroke="none" 
	d="
M17.967445,28.530289 
	C18.473021,28.312862 18.978594,28.095436 19.728741,27.739727 
	C20.760077,28.182077 21.546837,28.762714 22.385822,29.940329 
	C22.329903,31.316225 22.221758,32.095142 21.783386,32.978745 
	C20.629150,32.737564 19.805145,32.391697 18.907501,31.836802 
	C18.687637,31.348858 18.461586,31.172045 18.174026,30.662188 
	C18.117380,29.661459 18.042414,29.095873 17.967445,28.530289 
z"/>
<path fill="#88BEFF" opacity="1.000000" stroke="none" 
	d="
M26.501802,28.718468 
	C26.769466,29.704647 26.842440,30.570824 26.764725,31.994335 
	C26.614038,32.551670 26.449366,32.802914 26.267242,32.799847 
	C25.723509,32.793564 25.361902,32.790352 24.827574,32.512142 
	C24.603065,31.438898 24.551275,30.640648 24.499489,29.842400 
	C25.102030,29.427755 25.704571,29.013111 26.501802,28.718468 
z"/>
<path fill="#366BAE" opacity="1.000000" stroke="none" 
	d="
M24.302778,29.577335 
	C24.551275,30.640648 24.603065,31.438898 24.566895,32.600174 
	C24.307785,33.025932 24.136631,33.088661 23.728149,33.092316 
	C23.490820,33.033237 23.003090,33.070396 22.797405,32.945736 
	C22.591719,32.821075 22.113615,32.874058 22.113613,32.874058 
	C22.221758,32.095142 22.329903,31.316225 22.475548,30.241364 
	C23.044054,29.734369 23.575062,29.523321 24.302778,29.577335 
z"/>
<path fill="#6F95E3" opacity="1.000000" stroke="none" 
	d="
M17.696693,28.576332 
	C18.042414,29.095873 18.117380,29.661459 18.144802,30.900101 
	C18.097258,31.573158 18.161268,32.048676 17.997593,32.262161 
	C17.556818,32.702759 17.279718,32.929863 16.742451,33.134975 
	C16.070749,33.352100 15.659214,33.591221 14.947032,33.832878 
	C14.445950,33.834183 14.245514,33.832954 13.923569,33.679878 
	C13.620404,33.338821 13.405693,33.201214 13.157926,33.115204 
	C13.162953,32.892548 13.167980,32.669895 13.378372,31.998398 
	C13.411665,31.046047 13.239593,30.542545 13.067519,30.039043 
	C13.063874,29.870655 13.060229,29.702265 13.049670,29.281235 
	C13.217002,28.949755 13.380079,28.852243 13.625298,28.631506 
	C14.212721,28.419724 14.706835,28.312496 15.582209,28.201557 
	C16.450960,28.339355 16.938450,28.480865 17.696693,28.576332 
z"/>
<path fill="#4A81ED" opacity="1.000000" stroke="none" 
	d="
M47.908596,38.983318 
	C47.744629,39.060646 47.580666,39.137970 47.200699,39.380733 
	C46.984695,39.546169 46.865860,39.237858 46.694580,38.911491 
	C45.839283,38.418644 45.155270,38.252167 44.255470,37.531677 
	C43.690918,36.246922 43.342155,35.516178 43.311157,34.603905 
	C44.778358,34.668568 45.927795,34.914761 47.230183,35.472610 
	C47.586327,35.895054 47.789528,36.005848 48.048561,36.473564 
	C48.039127,37.548100 47.973862,38.265709 47.908596,38.983318 
z"/>
<path fill="#125C9A" opacity="1.000000" stroke="none" 
	d="
M48.256748,39.041512 
	C47.973862,38.265709 48.039127,37.548100 48.185322,36.151073 
	C49.181992,35.433113 50.097733,35.394569 50.962284,35.672462 
	C51.026909,36.396976 51.142719,36.805054 51.258530,37.213131 
	C51.258530,37.213131 51.190884,37.250595 50.875412,37.296646 
	C50.360649,37.818222 50.161362,38.293751 49.962074,38.769276 
	C49.509682,38.879417 49.057293,38.989559 48.256748,39.041512 
z"/>
<path fill="#5F90E7" opacity="1.000000" stroke="none" 
	d="
M51.596806,37.271339 
	C51.142719,36.805054 51.026909,36.396976 50.905724,35.532021 
	C50.900349,35.075138 50.957733,34.777813 51.333996,34.858196 
	C52.475704,34.958088 53.241150,34.977596 54.006596,34.997105 
	C54.266426,36.070930 54.526260,37.144756 54.633514,38.621330 
	C53.632317,38.459232 52.783699,37.894390 51.596806,37.271339 
z"/>
<path fill="#4B739F" opacity="1.000000" stroke="none" 
	d="
M50.276756,38.927002 
	C50.161362,38.293751 50.360649,37.818222 50.837002,37.292198 
	C50.939857,37.856037 50.765648,38.470383 50.276756,38.927002 
z"/>
<path fill="#E6EFFC" opacity="1.000000" stroke="none" 
	d="
M55.202637,39.451302 
	C55.137421,39.343174 55.442665,39.215027 55.605370,39.236893 
	C55.768074,39.258759 55.612446,39.570915 55.612446,39.570915 
	C55.612446,39.570915 55.267853,39.559433 55.202637,39.451302 
z"/>
<path fill="#FCECF9" opacity="1.000000" stroke="none" 
	d="
M39.325363,44.974411 
	C38.008904,44.310745 36.909946,43.647003 35.365021,42.777584 
	C34.919048,42.571907 34.769592,42.155659 35.032669,41.983002 
	C35.523033,41.034603 35.750324,40.258869 36.397278,39.479362 
	C38.207554,39.488853 39.598167,39.502117 40.987526,39.864502 
	C40.993984,41.145081 41.001698,42.076538 41.009407,43.007996 
	C41.009407,43.007996 41.000153,43.000305 40.763969,43.171913 
	C40.344482,43.887615 40.161182,44.431713 39.977879,44.975807 
	C39.977879,44.975807 39.542870,44.974339 39.325363,44.974411 
z"/>
<path fill="#ECF1FA" opacity="1.000000" stroke="none" 
	d="
M41.344791,42.969261 
	C41.001698,42.076538 40.993984,41.145081 41.367371,39.788868 
	C42.498829,39.228664 43.249191,39.093216 44.062763,39.072815 
	C44.125973,39.187855 43.934639,39.367615 43.934639,39.367615 
	C43.183151,40.555252 42.431660,41.742886 41.344791,42.969261 
z"/>
<path fill="#125C9A" opacity="1.000000" stroke="none" 
	d="
M44.471256,38.085693 
	C45.155270,38.252167 45.839283,38.418644 46.730576,38.750252 
	C46.161053,38.933193 45.384254,38.951004 44.271049,39.168213 
	C43.934639,39.367615 44.125973,39.187855 44.176456,38.852234 
	C44.226940,38.516613 44.471256,38.085690 44.471256,38.085693 
z"/>
<path fill="#ECF1FA" opacity="1.000000" stroke="none" 
	d="
M40.222935,44.812279 
	C40.161182,44.431713 40.344482,43.887615 40.767586,43.174778 
	C40.827587,43.553604 40.647789,44.101177 40.222935,44.812279 
z"/>
<path fill="#EAF0F6" opacity="1.000000" stroke="none" 
	d="
M9.995695,43.268757 
	C10.170472,43.002213 10.337428,43.000862 10.754894,42.999680 
	C11.452085,42.996929 11.898767,42.994015 12.955917,43.084198 
	C14.067081,43.424339 14.567775,43.671371 15.259527,44.073696 
	C15.703610,44.450596 15.887312,44.719555 16.001690,45.035862 
	C14.827726,45.907040 13.653763,46.778217 11.993998,47.823364 
	C11.508197,47.997337 11.070937,47.973789 11.012465,47.637169 
	C10.626637,46.221813 10.299280,45.143078 9.971923,44.064346 
	C9.977241,43.887547 9.982557,43.710751 9.995695,43.268757 
z"/>
<path fill="#BFD2E2" opacity="1.000000" stroke="none" 
	d="
M11.070937,47.973789 
	C11.070937,47.973789 11.508197,47.997337 11.726404,48.006058 
	C11.944081,48.186840 11.943549,48.358902 11.698868,48.978188 
	C10.977363,50.557827 10.500008,51.690243 9.752747,52.854431 
	C9.303276,52.908527 9.123713,52.930843 8.948875,52.961174 
	C8.953601,52.969185 8.940650,52.958031 8.845946,52.748573 
	C8.561219,52.284424 8.314957,52.108368 8.012457,52.010956 
	C7.999653,51.560116 7.986849,51.109272 7.954302,50.320324 
	C8.072747,49.672852 8.275110,49.413582 8.977320,48.989265 
	C9.680956,48.583294 9.865612,48.331390 10.243048,48.009613 
	C10.703071,47.991806 10.887004,47.982800 11.070937,47.973789 
z"/>
<path fill="#B7CBD6" opacity="1.000000" stroke="none" 
	d="
M10.022652,52.822655 
	C10.500008,51.690243 10.977363,50.557827 11.689741,49.236122 
	C11.913049,50.895870 11.901334,52.744915 11.339117,54.660835 
	C10.533295,54.092693 10.277973,53.457676 10.022652,52.822655 
z"/>
<path fill="#474E61" opacity="1.000000" stroke="none" 
	d="
M16.270424,45.095009 
	C15.887312,44.719555 15.703610,44.450596 15.421377,43.853947 
	C15.726089,43.338726 16.060009,43.198544 16.651577,43.080956 
	C17.291906,43.447311 17.674589,43.791073 18.086983,44.453621 
	C18.125095,45.197746 18.133497,45.623085 18.141899,46.048424 
	C17.949280,46.123127 17.756660,46.197826 17.263897,46.195541 
	C16.822222,45.797085 16.680691,45.475616 16.270424,45.095009 
z"/>
<path fill="#617A8A" opacity="1.000000" stroke="none" 
	d="
M10.293451,59.925087 
	C9.881788,59.512207 9.682926,58.936630 9.347299,57.922401 
	C9.479328,57.004330 9.748123,56.524902 10.316763,56.009811 
	C10.815097,55.940586 11.013585,55.907032 11.212074,55.873474 
	C11.224717,56.653000 11.237360,57.432529 11.252835,58.606190 
	C11.005863,59.254345 10.756059,59.508366 10.293451,59.925087 
z"/>
<path fill="#7FA1BE" opacity="1.000000" stroke="none" 
	d="
M11.270878,55.670341 
	C11.013585,55.907032 10.815097,55.940586 10.087183,55.879383 
	C9.361837,55.500046 9.165915,55.215473 8.951910,54.602039 
	C8.937269,53.833176 8.940709,53.393169 8.944149,52.953163 
	C9.123713,52.930843 9.303276,52.908527 9.752746,52.854431 
	C10.277973,53.457676 10.533295,54.092693 11.102781,54.890533 
	C11.416945,55.053356 11.329681,55.467205 11.270878,55.670341 
z"/>
<path fill="#5A6F98" opacity="1.000000" stroke="none" 
	d="
M34.769592,42.155659 
	C34.769592,42.155659 34.919048,42.571907 35.043968,42.754311 
	C34.653229,43.187321 34.137566,43.437923 33.117905,43.566292 
	C31.738035,43.284328 30.862164,43.124596 29.705444,42.844482 
	C28.877615,42.451149 28.330635,42.178204 27.881351,41.715145 
	C27.979052,41.525036 28.083658,41.109993 28.471380,41.053993 
	C30.164497,41.044975 31.469893,41.091965 32.949886,41.374092 
	C33.672855,41.791370 34.221222,41.973515 34.769592,42.155659 
z"/>
<path fill="#7289AF" opacity="1.000000" stroke="none" 
	d="
M29.986292,42.964863 
	C30.862164,43.124596 31.738035,43.284328 32.854530,43.681252 
	C32.596558,44.259842 32.097961,44.601242 31.288288,44.980202 
	C30.977213,45.017757 30.486614,45.038731 30.239019,44.683155 
	C29.989714,43.873341 29.988003,43.419102 29.986292,42.964863 
z"/>
<path fill="#2D4460" opacity="1.000000" stroke="none" 
	d="
M35.586403,46.626373 
	C35.156017,46.951244 34.509758,47.012192 33.541626,47.112122 
	C32.892864,46.904396 32.565975,46.657684 32.081947,46.142456 
	C33.073383,46.036777 34.221954,46.199615 35.586403,46.626373 
z"/>
<path fill="#6E81A1" opacity="1.000000" stroke="none" 
	d="
M29.705444,42.844482 
	C29.988003,43.419102 29.989714,43.873341 29.993965,44.667961 
	C29.695795,45.138767 29.428844,45.319153 29.055271,45.747498 
	C28.505127,45.918339 28.095371,45.891190 27.359562,45.455894 
	C27.027252,44.057564 27.020998,43.067379 27.199337,42.000935 
	C27.383934,41.924675 27.783653,41.905254 27.783653,41.905254 
	C28.330635,42.178204 28.877615,42.451149 29.705444,42.844482 
z"/>
<path fill="#656F7D" opacity="1.000000" stroke="none" 
	d="
M27.014742,42.077194 
	C27.020998,43.067379 27.027252,44.057564 27.054066,45.412796 
	C26.616158,45.833565 26.157694,45.889282 25.353928,45.971882 
	C24.817160,45.989620 24.625690,45.980476 24.207108,45.631813 
	C24.345329,44.538887 24.710665,43.785484 25.336964,42.936432 
	C26.070200,42.586258 26.542471,42.331726 27.014742,42.077194 
z"/>
<path fill="#F3F2F7" opacity="1.000000" stroke="none" 
	d="
M25.076000,43.032078 
	C24.710665,43.785484 24.345329,44.538887 23.920498,45.608788 
	C22.805340,46.168339 21.749674,46.411400 20.298103,46.781319 
	C19.440056,46.664024 18.977913,46.419880 18.328835,46.112083 
	C18.133497,45.623085 18.125095,45.197746 18.344374,44.200920 
	C17.764357,41.013554 16.956657,38.397678 16.320847,35.547401 
	C16.538549,35.124710 16.584364,34.936424 16.730524,34.568737 
	C16.888121,33.978546 16.945370,33.567760 17.002617,33.156971 
	C17.279718,32.929863 17.556818,32.702759 18.202364,32.260910 
	C18.570808,32.046169 18.981138,32.045834 18.981138,32.045834 
	C19.805145,32.391697 20.629150,32.737564 21.783386,32.978745 
	C22.113615,32.874058 22.591719,32.821075 22.795425,33.179401 
	C22.999130,33.537727 23.000675,34.005135 22.999176,34.397224 
	C22.947460,37.724239 20.569714,41.246025 25.076000,43.032078 
z"/>
<path fill="#A5B5C6" opacity="1.000000" stroke="none" 
	d="
M12.918847,33.171562 
	C13.405693,33.201214 13.620404,33.338821 13.922972,34.147171 
	C14.224556,35.354786 14.405227,35.943256 14.630308,36.729156 
	C14.674719,36.926582 14.623691,37.328075 14.237465,37.215897 
	C13.586686,37.060101 13.322132,37.016491 13.018003,36.688919 
	C12.477415,36.304829 11.976399,36.204700 11.475384,36.104576 
	C11.265040,35.900440 11.118251,35.657848 11.045441,34.881538 
	C11.153404,34.198380 11.250940,34.010475 11.348477,33.822575 
	C11.792241,33.624355 12.236005,33.426136 12.918847,33.171562 
z"/>
<path fill="#6A7787" opacity="1.000000" stroke="none" 
	d="
M11.470963,36.499107 
	C11.976399,36.204700 12.477415,36.304829 13.005072,36.936779 
	C13.031713,37.468601 13.079503,37.962364 13.064928,38.295719 
	C13.048777,39.073097 13.047199,39.517120 13.027811,40.328850 
	C12.987473,41.186996 12.964946,41.677429 12.942419,42.167866 
	C12.580453,41.645348 12.218488,41.122829 11.716978,40.305538 
	C11.540471,38.971722 11.503507,37.932678 11.470963,36.499107 
z"/>
<path fill="#E8F4FD" opacity="1.000000" stroke="none" 
	d="
M11.136495,33.565735 
	C11.250940,34.010475 11.153404,34.198380 10.954443,34.687359 
	C10.273025,34.602718 9.693031,34.216995 9.062170,33.551208 
	C9.649039,33.283722 10.286776,33.296307 11.136495,33.565735 
z"/>
<path fill="#C8D5D8" opacity="1.000000" stroke="none" 
	d="
M11.012465,47.637169 
	C10.887004,47.982800 10.703071,47.991806 10.000469,48.001572 
	C9.481802,48.002338 8.995590,47.996155 8.995590,47.996155 
	C9.142011,46.834206 9.288430,45.672256 9.703386,44.287327 
	C10.299280,45.143078 10.626637,46.221813 11.012465,47.637169 
z"/>
<path fill="#D4E4EE" opacity="1.000000" stroke="none" 
	d="
M8.991888,48.238785 
	C8.995590,47.996155 9.481802,48.002338 9.724380,48.010376 
	C9.865612,48.331390 9.680956,48.583294 9.195379,48.870377 
	C8.977768,48.966633 8.988185,48.481419 8.991888,48.238785 
z"/>
<path fill="#72819C" opacity="1.000000" stroke="none" 
	d="
M12.941498,42.376648 
	C12.964946,41.677429 12.987473,41.186996 13.295803,40.336571 
	C13.937638,39.962585 14.293668,39.948586 14.842388,40.232582 
	C15.488029,41.373177 15.940980,42.215767 16.393930,43.058361 
	C16.060009,43.198544 15.726089,43.338726 15.230318,43.698658 
	C14.567775,43.671371 14.067081,43.424339 13.290983,43.086754 
	C13.015577,42.996208 12.940578,42.585434 12.941498,42.376648 
z"/>
<path fill="#2B426F" opacity="1.000000" stroke="none" 
	d="
M48.003349,20.002831 
	C48.358471,19.228491 48.713596,18.454151 49.263245,17.324697 
	C49.457767,16.969584 49.835529,17.091578 49.824905,17.393532 
	C50.140217,18.170986 50.466156,18.646484 50.792091,19.121984 
	C51.042152,19.921097 51.292213,20.720209 51.747192,21.759800 
	C51.799412,23.451477 51.646706,24.902676 51.248558,26.292446 
	C50.991146,25.814009 50.979168,25.396997 50.863304,24.767391 
	C50.564510,24.292997 50.313049,24.108095 49.733032,24.114582 
	C48.725471,24.476460 47.989914,24.723846 47.207008,24.643297 
	C47.148296,23.873955 47.136940,23.432549 47.279984,22.713284 
	C47.624043,21.624559 47.813694,20.813696 48.003349,20.002831 
z"/>
<path fill="#304978" opacity="1.000000" stroke="none" 
	d="
M47.254356,24.971233 
	C47.989914,24.723846 48.725471,24.476460 49.840332,24.325516 
	C50.409306,24.687696 50.658493,24.873707 50.967194,24.979988 
	C50.979168,25.396997 50.991146,25.814009 50.984795,26.543425 
	C50.614498,27.778807 50.262535,28.701782 49.374962,29.845455 
	C48.578373,30.042095 48.317394,30.018036 47.733307,29.995094 
	C47.197201,30.025656 46.984203,30.055098 46.833935,30.101980 
	C46.896664,30.119421 46.829582,30.231031 46.911777,29.813046 
	C46.969166,28.551495 46.944359,27.707930 46.953880,26.546314 
	C47.076923,25.809250 47.165638,25.390240 47.254356,24.971233 
z"/>
<path fill="#F9F5F5" opacity="1.000000" stroke="none" 
	d="
M50.956909,35.215584 
	C50.097733,35.394569 49.181992,35.433113 48.129494,35.794151 
	C47.789528,36.005848 47.586327,35.895054 47.209267,35.173466 
	C47.049820,33.956295 47.064236,33.349926 47.307079,32.790855 
	C47.535507,32.838158 48.002048,32.840221 47.998154,32.953262 
	C47.994255,33.066299 47.962055,33.290215 47.962055,33.290215 
	C48.762180,33.527885 49.562309,33.765560 50.672897,34.198528 
	C50.983364,34.393826 50.957733,34.777813 50.957733,34.777813 
	C50.957733,34.777813 50.900349,35.075138 50.956909,35.215584 
z"/>
<path fill="#ECF9FF" opacity="1.000000" stroke="none" 
	d="
M51.333996,34.858196 
	C50.957733,34.777813 50.983364,34.393826 50.996552,34.201973 
	C51.451553,34.007504 51.893368,34.004883 52.666599,34.001053 
	C53.440350,34.000477 53.882683,34.001106 54.656479,34.003242 
	C54.878876,34.316223 54.689159,34.566570 54.212696,34.876450 
	C53.241150,34.977596 52.475704,34.958088 51.333996,34.858196 
z"/>
<path fill="#3F475A" opacity="1.000000" stroke="none" 
	d="
M48.056416,29.993975 
	C48.317394,30.018036 48.578373,30.042095 49.229664,30.115570 
	C49.306034,31.121397 48.992088,32.077805 48.320099,33.162216 
	C47.962055,33.290215 47.994255,33.066299 48.023560,32.598808 
	C48.054047,31.418873 48.055229,30.706423 48.056416,29.993975 
z"/>
<path fill="#CDE0F5" opacity="1.000000" stroke="none" 
	d="
M54.123528,8.091528 
	C54.960236,7.642016 55.649010,7.414715 56.692966,7.113430 
	C57.048149,7.039446 57.018528,7.016539 56.913246,7.254666 
	C56.797016,7.670445 56.786068,7.848097 56.775124,8.025749 
	C56.819275,8.473968 56.863426,8.922186 57.014832,9.694275 
	C57.158844,12.050828 57.195614,14.083511 56.959534,16.440926 
	C55.474751,15.841701 54.262814,14.917745 53.050877,13.993788 
	C53.050877,13.993787 53.023792,13.995008 52.857384,13.693967 
	C51.994804,12.849138 51.298634,12.305350 50.705212,11.460490 
	C50.910629,10.747183 51.013294,10.334948 51.115963,9.922713 
	C52.069176,9.386388 53.022385,8.850062 54.123528,8.091528 
z"/>
<path fill="#CEDBE5" opacity="1.000000" stroke="none" 
	d="
M53.071850,14.321818 
	C54.262814,14.917745 55.474751,15.841701 57.031456,16.871040 
	C57.652348,17.095299 57.826935,17.300625 57.918823,17.802555 
	C57.503147,18.012228 57.068638,18.011742 56.307640,18.018993 
	C55.018379,16.901102 54.055599,15.775476 53.071850,14.321818 
z"/>
<path fill="#E4ECF9" opacity="1.000000" stroke="none" 
	d="
M50.602459,11.761562 
	C51.298634,12.305350 51.994804,12.849138 52.843941,13.692276 
	C52.324875,14.788365 51.652847,15.585104 50.683304,16.704151 
	C50.202366,17.048164 50.018948,17.069870 49.835529,17.091578 
	C49.835529,17.091578 49.457767,16.969584 49.261566,16.995955 
	C49.055599,16.825851 49.045826,16.629375 49.296555,15.903725 
	C49.671974,14.436860 49.786900,13.499170 49.949539,12.378504 
	C50.152664,11.986244 50.354401,11.841589 50.602459,11.761562 
z"/>
<path fill="#9B9FA0" opacity="1.000000" stroke="none" 
	d="
M49.824905,17.393532 
	C50.018948,17.069870 50.202366,17.048164 50.659866,17.063030 
	C50.933945,17.099606 50.990761,17.065815 50.916512,17.290287 
	C50.894669,17.680601 50.947075,17.846443 50.999481,18.012287 
	C50.979004,18.199886 50.958530,18.387484 50.865074,18.848532 
	C50.466156,18.646484 50.140217,18.170986 49.824905,17.393532 
z"/>
<path fill="#F4F8FD" opacity="1.000000" stroke="none" 
	d="
M51.156898,17.914598 
	C50.947075,17.846443 50.894669,17.680601 50.901817,17.260788 
	C51.079014,17.276846 51.196663,17.546879 51.156898,17.914598 
z"/>
<path fill="#8497B4" opacity="1.000000" stroke="none" 
	d="
M48.087368,11.140890 
	C48.284691,10.939777 48.709129,10.964280 48.892578,11.247829 
	C49.059780,11.885706 49.043533,12.240032 48.830185,12.760343 
	C48.472237,12.986672 48.311394,13.047019 47.908329,12.978231 
	C47.441525,12.566955 47.216942,12.284810 46.992359,12.002666 
	C47.291588,11.782444 47.590816,11.562222 48.087368,11.140890 
z"/>
<path fill="#A1AEC2" opacity="1.000000" stroke="none" 
	d="
M46.748856,12.154224 
	C47.216942,12.284810 47.441525,12.566955 47.771309,13.194361 
	C47.610043,13.751480 47.343578,13.963338 47.077114,14.175195 
	C46.905533,14.133904 46.733948,14.092614 46.307285,13.980761 
	C46.203255,13.375391 46.354305,12.840588 46.748856,12.154224 
z"/>
<path fill="#6C8BAA" opacity="1.000000" stroke="none" 
	d="
M48.719673,8.798830 
	C48.822369,8.951689 48.722630,9.269002 48.438572,9.752069 
	C48.341915,9.599645 48.429577,9.281465 48.719673,8.798830 
z"/>
<path fill="#6C8BAA" opacity="1.000000" stroke="none" 
	d="
M49.027290,12.594358 
	C49.043533,12.240032 49.059780,11.885706 49.104359,11.266115 
	C49.619049,10.718277 50.105404,10.435704 50.853859,10.037922 
	C51.013294,10.334948 50.910629,10.747183 50.705212,11.460490 
	C50.354401,11.841589 50.152664,11.986244 49.732063,12.423962 
	C49.466873,12.652397 49.027290,12.594358 49.027290,12.594358 
z"/>
<path fill="#BBD3E3" opacity="1.000000" stroke="none" 
	d="
M50.297161,6.134362 
	C50.299797,6.014763 50.542339,5.876714 50.563641,5.938853 
	C50.584942,6.000992 50.530113,6.327575 50.530113,6.327575 
	C50.530113,6.327575 50.294525,6.253960 50.297161,6.134362 
z"/>
<path fill="#88A5B8" opacity="1.000000" stroke="none" 
	d="
M57.034088,7.908662 
	C56.786068,7.848097 56.797016,7.670445 56.899429,7.241984 
	C56.990887,6.991176 57.402542,6.812847 57.625347,6.826967 
	C57.663120,7.157917 57.478092,7.474746 57.034088,7.908662 
z"/>
<path fill="#B9D2F0" opacity="1.000000" stroke="none" 
	d="
M17.033602,61.247543 
	C17.239292,61.100697 17.518555,61.258774 17.875011,61.715828 
	C17.666637,61.871170 17.384960,61.717056 17.033602,61.247543 
z"/>
<path fill="#6B8AA4" opacity="1.000000" stroke="none" 
	d="
M8.969992,54.930897 
	C9.165915,55.215473 9.361837,55.500046 9.787339,55.915051 
	C9.748123,56.524902 9.479328,57.004330 9.102456,57.737141 
	C8.184074,57.994774 7.373770,57.999016 6.283060,57.564552 
	C6.027515,56.169079 6.052374,55.212315 6.544118,54.254147 
	C7.664000,54.478794 8.316996,54.704845 8.969992,54.930897 
z"/>
<path fill="#BFD2E2" opacity="1.000000" stroke="none" 
	d="
M8.951911,54.602039 
	C8.316996,54.704845 7.664000,54.478794 6.638227,53.868027 
	C6.697976,53.306938 7.130502,53.130566 7.997449,52.962925 
	C8.601463,52.967113 8.771057,52.962574 8.940650,52.958031 
	C8.940650,52.958031 8.953601,52.969185 8.948875,52.961174 
	C8.940709,53.393169 8.937269,53.833176 8.951911,54.602039 
z"/>
<path fill="#656F7D" opacity="1.000000" stroke="none" 
	d="
M4.247874,59.173409 
	C3.958344,59.033997 4.086222,58.658302 4.088221,58.460003 
	C4.239281,58.612076 4.388342,58.962444 4.247874,59.173409 
z"/>
<path fill="#B7CBD6" opacity="1.000000" stroke="none" 
	d="
M8.845946,52.748573 
	C8.771057,52.962574 8.601463,52.967113 8.176973,52.958290 
	C7.922077,52.944923 7.972464,52.478302 7.992460,52.244629 
	C8.314957,52.108368 8.561219,52.284424 8.845946,52.748573 
z"/>
<path fill="#8390AD" opacity="1.000000" stroke="none" 
	d="
M32.331444,30.121895 
	C32.705597,29.930616 33.079746,29.739336 33.879768,30.036121 
	C34.296833,31.035337 34.288029,31.546486 34.296364,32.312416 
	C34.552952,32.810879 34.792400,33.054565 35.160240,33.483543 
	C35.491745,33.899258 35.736660,34.069584 36.065407,34.470840 
	C36.088734,34.958504 36.070026,35.155128 36.125748,35.546810 
	C36.232906,36.019051 36.211639,36.292015 36.020172,37.089981 
	C35.830963,37.972969 35.757965,38.326733 35.443146,38.456253 
	C35.000679,38.145618 34.800034,38.059231 34.512146,38.033287 
	C34.424904,38.093735 34.212696,38.099220 34.272755,37.827301 
	C34.310570,37.371155 34.288330,37.186928 34.031525,36.685303 
	C33.053341,36.481541 32.309723,36.595173 31.397549,36.243530 
	C31.228983,35.121613 31.228975,34.464970 31.419996,33.681458 
	C31.611025,33.554588 31.597897,33.096142 31.914873,32.925407 
	C32.265049,31.877083 32.298244,30.999489 32.331444,30.121895 
z"/>
<path fill="#506D77" opacity="1.000000" stroke="none" 
	d="
M38.117710,28.352564 
	C38.281582,28.810198 38.445457,29.267832 38.609333,29.725464 
	C38.809761,29.555901 39.010189,29.386339 39.615211,29.639889 
	C40.059700,30.801897 40.099602,31.540796 39.884178,32.588360 
	C39.252640,33.602833 38.876423,34.308640 38.361870,34.696060 
	C37.523384,33.915375 36.823235,33.453075 36.074638,32.677845 
	C35.983406,31.946165 35.940624,31.527418 35.748657,30.674191 
	C35.323601,30.106722 35.047729,29.973734 34.771858,29.840748 
	C34.827141,29.581951 34.882423,29.323153 35.517860,28.975481 
	C36.771248,28.708595 37.444481,28.530581 38.117710,28.352564 
z"/>
<path fill="#F2F0DE" opacity="1.000000" stroke="none" 
	d="
M38.166981,28.110104 
	C37.444481,28.530581 36.771248,28.708595 35.641022,28.598114 
	C35.184025,28.309620 35.149029,28.192181 35.125965,28.148113 
	C35.102901,28.104044 35.174858,28.075191 35.174858,28.075191 
	C35.440170,27.288946 35.705482,26.502703 35.931477,25.389372 
	C37.032478,25.694506 40.344288,24.527758 38.166981,28.110104 
z"/>
<path fill="#ACD5FD" opacity="1.000000" stroke="none" 
	d="
M32.160809,30.207626 
	C32.298244,30.999489 32.265049,31.877083 31.652103,32.970268 
	C30.722250,33.262993 30.372147,33.340126 29.698486,33.297333 
	C29.187008,33.044720 28.999086,32.912037 28.811167,32.779354 
	C29.254971,32.302467 29.698772,31.825579 30.317379,31.041260 
	C30.991514,30.587008 31.490845,30.440184 32.160809,30.207626 
z"/>
<path fill="#A8CCFF" opacity="1.000000" stroke="none" 
	d="
M34.762466,29.852119 
	C35.047729,29.973734 35.323601,30.106722 35.520500,30.737175 
	C35.054096,31.508972 34.666660,31.783304 34.279228,32.057636 
	C34.288029,31.546486 34.296833,31.035337 34.492016,30.185944 
	C34.678394,29.847698 34.753071,29.863493 34.762466,29.852119 
z"/>
<path fill="#CFD4BA" opacity="1.000000" stroke="none" 
	d="
M30.334667,28.055803 
	C30.085049,27.912729 30.067537,27.723091 30.070778,27.248150 
	C30.489399,27.142912 30.887264,27.322975 31.285131,27.503036 
	C31.045681,27.671772 30.806229,27.840508 30.334667,28.055803 
z"/>
<path fill="#CFD4BA" opacity="1.000000" stroke="none" 
	d="
M35.087799,28.139744 
	C34.947727,27.996784 34.822754,27.818125 34.697784,27.639463 
	C34.796165,27.690783 34.894547,27.742104 35.083893,27.934307 
	C35.174858,28.075191 35.102901,28.104044 35.087799,28.139744 
z"/>
<path fill="#FCF9FE" opacity="1.000000" stroke="none" 
	d="
M28.647930,32.681625 
	C28.999086,32.912037 29.187008,33.044720 29.770298,33.393242 
	C30.165663,33.609074 30.514605,33.932743 30.436783,34.215202 
	C30.097397,35.024136 29.835833,35.550602 29.445646,36.204994 
	C29.163490,36.529270 29.056696,36.748417 28.753456,36.993439 
	C28.510269,36.996517 28.023960,37.006435 27.989601,36.686604 
	C27.642616,35.357086 27.329988,34.347401 27.320684,33.223335 
	C27.789183,32.969589 27.954355,32.830223 28.119528,32.690853 
	C28.119528,32.690853 28.484695,32.583900 28.647930,32.681625 
z"/>
<path fill="#88BEFF" opacity="1.000000" stroke="none" 
	d="
M27.913090,32.575195 
	C27.954355,32.830223 27.789183,32.969589 27.193462,33.073570 
	C26.762918,33.038181 26.449366,32.802914 26.449366,32.802914 
	C26.449366,32.802914 26.614038,32.551670 26.691872,32.425377 
	C27.087282,32.321873 27.399597,32.375355 27.913090,32.575195 
z"/>
<path fill="#EDF3FB" opacity="1.000000" stroke="none" 
	d="
M40.139503,32.279694 
	C40.099602,31.540796 40.059700,30.801897 40.017845,29.507782 
	C41.197639,28.641104 42.379383,28.329639 44.139099,28.153385 
	C45.421238,28.936073 46.125412,29.583553 46.829582,30.231031 
	C46.829582,30.231031 46.896664,30.119421 46.592590,30.228439 
	C46.551899,31.139490 46.815273,31.941523 47.078651,32.743553 
	C47.064236,33.349926 47.049820,33.956295 47.056320,34.861809 
	C45.927795,34.914761 44.778358,34.668568 43.178581,34.541111 
	C41.865330,33.866467 41.002415,33.073082 40.139503,32.279694 
z"/>
<path fill="#465679" opacity="1.000000" stroke="none" 
	d="
M46.911777,29.813046 
	C46.125412,29.583553 45.421238,28.936073 44.429169,28.125425 
	C44.143333,26.924164 44.145393,25.886074 44.332558,24.342363 
	C44.731842,23.596636 44.800152,23.320454 44.722591,23.008198 
	C44.853008,22.634375 44.983421,22.260550 45.120594,21.586960 
	C45.127350,21.287191 45.570248,21.224564 45.749722,21.486935 
	C45.960629,22.169231 45.992062,22.589155 46.013111,23.363579 
	C46.308338,24.766844 46.613945,25.815605 46.919552,26.864367 
	C46.944359,27.707930 46.969166,28.551495 46.911777,29.813046 
z"/>
<path fill="#EDF3FB" opacity="1.000000" stroke="none" 
	d="
M44.510902,23.030149 
	C44.800152,23.320454 44.731842,23.596636 44.328850,23.951504 
	C44.193100,23.728209 44.246159,23.390156 44.510902,23.030149 
z"/>
<path fill="#F8FBFD" opacity="1.000000" stroke="none" 
	d="
M48.830185,12.760343 
	C49.027290,12.594358 49.466873,12.652397 49.684349,12.606938 
	C49.786900,13.499170 49.671974,14.436860 49.300964,15.608681 
	C48.495323,15.423876 47.945766,15.004942 47.236660,14.380602 
	C47.343578,13.963338 47.610043,13.751480 48.013527,13.323494 
	C48.311394,13.047019 48.472237,12.986672 48.830185,12.760343 
z"/>
<path fill="#6E8096" opacity="1.000000" stroke="none" 
	d="
M46.023491,23.009079 
	C45.992062,22.589155 45.960629,22.169231 45.967484,21.435936 
	C46.454674,20.755312 46.903576,20.388060 47.677917,20.011820 
	C47.813694,20.813696 47.624043,21.624559 47.003838,22.717205 
	C46.390022,23.002350 46.206757,23.005714 46.023491,23.009079 
z"/>
<path fill="#A3B9D6" opacity="1.000000" stroke="none" 
	d="
M13.051049,30.330811 
	C13.239593,30.542545 13.411665,31.046047 13.372389,31.664391 
	C13.118885,31.393681 13.076733,31.008129 13.051049,30.330811 
z"/>
<path fill="#CEEEFF" opacity="1.000000" stroke="none" 
	d="
M18.907501,31.836802 
	C18.981138,32.045834 18.570808,32.046169 18.366039,32.047424 
	C18.161268,32.048676 18.097258,31.573158 18.126482,31.335245 
	C18.461586,31.172045 18.687637,31.348858 18.907501,31.836802 
z"/>
<path fill="#F6F0ED" opacity="1.000000" stroke="none" 
	d="
M26.267242,32.799847 
	C26.449366,32.802914 26.762918,33.038181 26.890141,33.187950 
	C27.329988,34.347401 27.642616,35.357086 27.985023,37.018150 
	C28.014105,38.111767 28.013407,38.554008 28.009161,39.247200 
	C28.006302,39.665466 28.006989,39.832779 28.019611,40.278053 
	C28.048914,40.740669 28.066286,40.925331 28.083658,41.109993 
	C28.083658,41.109993 27.979052,41.525036 27.881351,41.715145 
	C27.783653,41.905254 27.383934,41.924675 27.199337,42.000935 
	C26.542471,42.331726 26.070200,42.586258 25.336964,42.936432 
	C20.569714,41.246025 22.947460,37.724239 23.200474,34.304657 
	C23.663233,33.658150 23.850636,33.435280 23.965479,33.151394 
	C24.136631,33.088661 24.307785,33.025932 24.739616,32.875168 
	C25.361902,32.790352 25.723509,32.793564 26.267242,32.799847 
z"/>
<path fill="#E8F1FD" opacity="1.000000" stroke="none" 
	d="
M23.728149,33.092316 
	C23.850636,33.435280 23.663233,33.658150 23.201973,33.912567 
	C23.000675,34.005135 22.999130,33.537727 23.001110,33.304062 
	C23.003090,33.070396 23.490820,33.033237 23.728149,33.092316 
z"/>
<path fill="#88A0B6" opacity="1.000000" stroke="none" 
	d="
M14.585897,36.531731 
	C14.405227,35.943256 14.224556,35.354786 14.044482,34.299019 
	C14.245514,33.832954 14.445950,33.834183 15.157654,34.016838 
	C15.989341,34.381561 16.309759,34.564850 16.630177,34.748138 
	C16.584364,34.936424 16.538549,35.124710 16.062321,35.684616 
	C15.283236,36.214729 14.934566,36.373230 14.585897,36.531731 
z"/>
<path fill="#E8F1FD" opacity="1.000000" stroke="none" 
	d="
M16.730524,34.568737 
	C16.309759,34.564850 15.989341,34.381561 15.458302,34.014305 
	C15.659214,33.591221 16.070749,33.352100 16.742451,33.134975 
	C16.945370,33.567760 16.888121,33.978546 16.730524,34.568737 
z"/>
<path fill="#66A6E7" opacity="1.000000" stroke="none" 
	d="
M39.884178,32.588360 
	C41.002415,33.073082 41.865330,33.866467 42.860817,34.722641 
	C43.342155,35.516178 43.690918,36.246922 44.255470,37.531677 
	C44.471256,38.085690 44.226940,38.516613 44.113247,38.737190 
	C43.249191,39.093216 42.498829,39.228664 41.368626,39.439751 
	C39.598167,39.502117 38.207554,39.488853 36.339668,39.362892 
	C35.862404,39.250198 35.675385,39.069767 35.695934,38.972916 
	C35.716484,38.876068 35.684967,38.680500 35.684967,38.680500 
	C35.757965,38.326733 35.830963,37.972969 36.278461,37.171001 
	C36.760326,36.577778 36.867695,36.432751 37.109215,36.466270 
	C37.662315,36.101360 38.081261,35.557903 38.500202,35.014446 
	C38.876423,34.308640 39.252640,33.602833 39.884178,32.588360 
z"/>
<path fill="#ECF5FF" opacity="1.000000" stroke="none" 
	d="
M35.032669,41.983002 
	C34.221222,41.973515 33.672855,41.791370 33.229324,41.173050 
	C33.532219,40.330795 33.730270,39.924728 34.110600,39.400352 
	C34.562420,39.174419 34.836563,39.080158 35.252838,39.036617 
	C35.390377,39.073971 35.675385,39.069767 35.675385,39.069767 
	C35.675385,39.069767 35.862404,39.250198 35.920010,39.366665 
	C35.750324,40.258869 35.523033,41.034603 35.032669,41.983002 
z"/>
<path fill="#374464" opacity="1.000000" stroke="none" 
	d="
M14.630308,36.729156 
	C14.934566,36.373230 15.283236,36.214729 15.890430,35.919014 
	C16.956657,38.397678 17.764357,41.013554 18.314663,43.882133 
	C17.674589,43.791073 17.291906,43.447311 16.651577,43.080956 
	C15.940980,42.215767 15.488029,41.373177 14.905446,39.989304 
	C14.743407,38.967968 14.711000,38.487911 14.706106,37.834583 
	C14.733618,37.661308 14.623691,37.328075 14.623691,37.328075 
	C14.623691,37.328075 14.674719,36.926582 14.630308,36.729156 
z"/>
<path fill="#DFF0FF" opacity="1.000000" stroke="none" 
	d="
M33.928322,39.518658 
	C33.730270,39.924728 33.532219,40.330795 33.054726,40.937912 
	C31.469893,41.091965 30.164497,41.044975 28.471380,41.053993 
	C28.066286,40.925331 28.048914,40.740669 28.178011,40.186241 
	C28.383312,39.710716 28.518177,39.551815 28.487829,39.508396 
	C28.355684,39.319347 28.175465,39.163902 28.012709,38.996250 
	C28.013407,38.554008 28.014105,38.111767 28.019382,37.337982 
	C28.023960,37.006435 28.510269,36.996517 28.960167,36.981483 
	C29.410065,36.966454 29.821613,36.920761 29.928497,37.097744 
	C30.184059,37.506725 30.323767,37.743999 30.595421,38.286133 
	C31.129654,38.750275 31.522974,38.914837 32.121689,39.253914 
	C32.860828,39.458500 33.394577,39.488579 33.928322,39.518658 
z"/>
<path fill="#88A0B6" opacity="1.000000" stroke="none" 
	d="
M14.237465,37.215897 
	C14.623691,37.328075 14.733618,37.661308 14.304822,37.815514 
	C13.610519,37.967266 13.345012,37.964817 13.079503,37.962364 
	C13.079503,37.962364 13.031713,37.468601 13.044645,37.220741 
	C13.322132,37.016491 13.586686,37.060101 14.237465,37.215897 
z"/>
<path fill="#7E90AB" opacity="1.000000" stroke="none" 
	d="
M13.064928,38.295719 
	C13.345012,37.964817 13.610519,37.967266 14.277309,37.988789 
	C14.711000,38.487911 14.743407,38.967968 14.712755,39.691299 
	C14.293668,39.948586 13.937638,39.962585 13.313616,39.968864 
	C13.047199,39.517120 13.048777,39.073097 13.064928,38.295719 
z"/>
<path fill="#657CA3" opacity="1.000000" stroke="none" 
	d="
M46.013111,23.363579 
	C46.206757,23.005714 46.390022,23.002350 46.849434,22.995064 
	C47.136940,23.432549 47.148296,23.873955 47.207008,24.643295 
	C47.165638,25.390240 47.076923,25.809250 46.953880,26.546314 
	C46.613945,25.815605 46.308338,24.766844 46.013111,23.363579 
z"/>
<path fill="#30436B" opacity="1.000000" stroke="none" 
	d="
M50.863304,24.767391 
	C50.658493,24.873707 50.409306,24.687696 50.112335,24.211021 
	C50.313049,24.108095 50.564510,24.292997 50.863304,24.767391 
z"/>
<path fill="#465679" opacity="1.000000" stroke="none" 
	d="
M47.307079,32.790855 
	C46.815273,31.941523 46.551899,31.139490 46.529861,30.210999 
	C46.984203,30.055098 47.197201,30.025656 47.733307,29.995094 
	C48.055229,30.706423 48.054047,31.418873 48.027458,32.485771 
	C48.002048,32.840221 47.535507,32.838158 47.307079,32.790855 
z"/>
<path fill="#B9B588" opacity="1.000000" stroke="none" 
	d="
M38.361870,34.696060 
	C38.081261,35.557903 37.662315,36.101360 37.078896,36.317947 
	C36.875053,35.769566 36.898018,35.554569 36.861115,35.111683 
	C36.500404,34.644791 36.261887,34.412300 36.023373,34.179810 
	C35.736660,34.069584 35.491745,33.899258 35.433720,33.409351 
	C35.760231,33.096840 35.941658,33.043808 36.123085,32.990776 
	C36.823235,33.453075 37.523384,33.915375 38.361870,34.696060 
z"/>
<path fill="#5A7293" opacity="1.000000" stroke="none" 
	d="
M34.110600,39.400352 
	C33.394577,39.488579 32.860828,39.458500 32.131798,39.242847 
	C31.936514,39.057274 31.957693,39.044155 32.145050,38.828678 
	C32.675774,38.445320 33.019142,38.277439 33.575424,38.137604 
	C33.788345,38.165642 34.212696,38.099220 34.212696,38.099220 
	C34.212696,38.099220 34.424904,38.093735 34.731316,38.246056 
	C35.063587,38.598675 35.089443,38.798969 35.115303,38.999264 
	C34.836563,39.080158 34.562420,39.174419 34.110600,39.400352 
z"/>
<path fill="#C7F1FC" opacity="1.000000" stroke="none" 
	d="
M36.074638,32.677845 
	C35.941658,33.043808 35.760231,33.096840 35.305325,33.224068 
	C34.792400,33.054565 34.552952,32.810879 34.296364,32.312416 
	C34.666660,31.783304 35.054096,31.508972 35.669685,31.171656 
	C35.940624,31.527418 35.983406,31.946165 36.074638,32.677845 
z"/>
<path fill="#BBD4ED" opacity="1.000000" stroke="none" 
	d="
M29.574268,36.077072 
	C29.835833,35.550602 30.097397,35.024136 30.617382,34.188522 
	C30.875801,33.879375 31.228968,33.808327 31.228968,33.808327 
	C31.228975,34.464970 31.228983,35.121613 31.376694,36.268806 
	C31.524395,36.759354 31.488605,36.814259 31.230339,36.769974 
	C30.615362,36.744862 30.258650,36.764038 29.818592,36.607338 
	C29.735247,36.431469 29.574270,36.077072 29.574268,36.077072 
z"/>
<path fill="#25478F" opacity="1.000000" stroke="none" 
	d="
M36.983311,35.346085 
	C36.898018,35.554569 36.875053,35.769566 36.944740,36.139404 
	C36.867695,36.432751 36.760326,36.577778 36.394669,36.641777 
	C36.211639,36.292015 36.232906,36.019051 36.358055,35.468407 
	C36.515926,35.194950 36.983311,35.346085 36.983311,35.346085 
z"/>
<path fill="#BBD4ED" opacity="1.000000" stroke="none" 
	d="
M31.545250,36.734077 
	C32.309723,36.595173 33.053341,36.481541 33.615891,36.696663 
	C32.887562,37.076412 32.340305,37.127403 31.721188,37.082363 
	C31.649326,36.986332 31.488605,36.814259 31.488605,36.814259 
	C31.488605,36.814259 31.524395,36.759354 31.545250,36.734077 
z"/>
<path fill="#E8F1FD" opacity="1.000000" stroke="none" 
	d="
M31.419996,33.681458 
	C31.228968,33.808327 30.875801,33.879375 30.695202,33.906059 
	C30.514605,33.932743 30.165663,33.609074 30.093853,33.513168 
	C30.372147,33.340126 30.722250,33.262993 31.335125,33.140999 
	C31.597897,33.096142 31.611025,33.554588 31.419996,33.681458 
z"/>
<path fill="#B6D1FF" opacity="1.000000" stroke="none" 
	d="
M31.793051,37.178394 
	C32.340305,37.127403 32.887562,37.076412 33.850452,37.014061 
	C34.288330,37.186928 34.310570,37.371155 34.272755,37.827301 
	C34.212696,38.099220 33.788345,38.165642 33.312141,38.087952 
	C32.661697,37.981350 32.487457,37.952442 32.207283,37.826370 
	C32.101345,37.729202 32.004223,37.458607 31.916145,37.415146 
	C31.828066,37.371681 31.793051,37.178394 31.793051,37.178394 
z"/>
<path fill="#C7F1FC" opacity="1.000000" stroke="none" 
	d="
M36.861115,35.111683 
	C36.983311,35.346085 36.515926,35.194950 36.283623,35.273354 
	C36.070026,35.155128 36.088734,34.958504 36.065407,34.470840 
	C36.261887,34.412300 36.500404,34.644791 36.861115,35.111683 
z"/>
<path fill="#B6D1FF" opacity="1.000000" stroke="none" 
	d="
M35.252838,39.036617 
	C35.089443,38.798969 35.063587,38.598675 34.818558,38.185608 
	C34.800034,38.059231 35.000679,38.145618 35.443146,38.456253 
	C35.684967,38.680500 35.716484,38.876068 35.695934,38.972916 
	C35.675385,39.069767 35.390377,39.073971 35.252838,39.036617 
z"/>
<path fill="#ECF5FF" opacity="1.000000" stroke="none" 
	d="
M29.821613,36.920761 
	C29.821613,36.920761 29.410065,36.966454 29.203354,36.978409 
	C29.056696,36.748417 29.163490,36.529270 29.445648,36.204994 
	C29.574270,36.077072 29.735247,36.431469 29.795689,36.636612 
	C29.856133,36.841759 29.821613,36.920761 29.821613,36.920761 
z"/>
<path fill="#ECF5FF" opacity="1.000000" stroke="none" 
	d="
M28.009161,39.247200 
	C28.175465,39.163902 28.355684,39.319347 28.487829,39.508396 
	C28.518177,39.551815 28.383312,39.710716 28.166077,39.908283 
	C28.006989,39.832779 28.006302,39.665466 28.009161,39.247200 
z"/>
<path fill="#E2F9FF" opacity="1.000000" stroke="none" 
	d="
M29.928497,37.097744 
	C29.821613,36.920761 29.856133,36.841759 29.879036,36.812485 
	C30.258650,36.764038 30.615362,36.744862 31.230339,36.769974 
	C31.488605,36.814259 31.649326,36.986332 31.721188,37.082363 
	C31.793051,37.178394 31.828066,37.371681 31.429106,37.254581 
	C30.838266,37.420509 30.646387,37.703533 30.454506,37.986557 
	C30.323767,37.743999 30.184059,37.506725 29.928497,37.097744 
z"/>
<path fill="#5A7293" opacity="1.000000" stroke="none" 
	d="
M30.595421,38.286133 
	C30.646387,37.703533 30.838266,37.420509 31.517185,37.298042 
	C32.004223,37.458607 32.101345,37.729202 32.233902,38.143181 
	C32.230202,38.719490 32.093948,38.881821 31.957693,39.044155 
	C31.957693,39.044155 31.936514,39.057274 31.926403,39.068336 
	C31.522974,38.914837 31.129654,38.750275 30.595421,38.286133 
z"/>
<path fill="#BBD4ED" opacity="1.000000" stroke="none" 
	d="
M32.145050,38.828678 
	C32.093948,38.881821 32.230202,38.719490 32.339836,38.240349 
	C32.487457,37.952442 32.661697,37.981350 33.099220,38.059910 
	C33.019142,38.277439 32.675774,38.445320 32.145050,38.828678 
z"/>
</svg>