<svg version="1.1" id="Layer_1" xmlns="http://www.w3.org/2000/svg" xmlns:xlink="http://www.w3.org/1999/xlink" x="0px" y="0px"
	 width="100%" viewBox="0 0 200 200" enable-background="new 0 0 200 200" xml:space="preserve">
<path fill="#F6F1EE" opacity="1.000000" stroke="none" 
	d="
M7.000000,1.000000 
	C68.687561,1.000000 130.375122,1.000000 192.584320,1.334240 
	C195.737305,3.778989 198.368652,5.889496 201.000000,8.000002 
	C201.000000,69.687561 201.000000,131.375122 200.665421,193.583282 
	C198.553909,196.402603 196.776962,198.701309 195.000000,201.000000 
	C130.406296,201.000000 65.812592,201.000000 1.000000,201.000000 
	C1.000000,136.645935 1.000000,72.291626 1.343743,7.432233 
	C3.458324,4.951434 5.229162,2.975717 7.000000,1.000000 
M90.469688,161.102570 
	C90.629356,161.517761 90.789024,161.932953 91.472511,162.835480 
	C92.767899,165.026733 94.063286,167.217972 95.520607,169.683136 
	C95.528442,169.678696 96.207924,169.293320 97.459084,169.288269 
	C97.845535,169.820847 98.203262,170.377304 98.622849,170.882355 
	C103.243660,176.444275 104.174255,176.299149 107.266937,169.755585 
	C107.742889,168.748535 108.711899,167.984818 109.381012,167.056763 
	C111.281372,164.420975 113.144508,161.758331 115.717575,158.914764 
	C121.677910,158.311798 117.677971,153.441711 119.611366,150.412964 
	C121.717171,143.271988 123.822983,136.131027 126.004341,128.160873 
	C126.857986,119.651840 127.711639,111.142807 128.565292,102.633774 
	C127.944611,102.479980 127.323936,102.326187 126.703270,102.172394 
	C124.993126,104.198593 123.282990,106.224800 122.043091,107.693855 
	C120.325325,107.036179 119.089127,106.562874 117.839760,105.543190 
	C117.834061,105.361099 117.828354,105.179016 118.389732,104.498238 
	C118.617706,103.000443 118.845680,101.502647 119.760551,99.849762 
	C120.528770,97.920296 121.296982,95.990829 122.732681,93.932732 
	C127.165604,89.299210 131.598526,84.665680 136.626343,79.714104 
	C146.040482,69.440765 150.113815,60.803879 147.441025,55.683750 
	C145.520294,57.449986 143.678070,59.144016 141.118820,60.894299 
	C137.940399,62.751011 134.761993,64.607719 130.658951,67.004555 
	C131.878159,59.732334 132.945465,53.366150 134.808441,46.997902 
	C141.170074,45.978199 142.430145,42.840801 139.223129,36.632587 
	C136.505508,36.448997 132.883148,37.284214 131.601089,35.920025 
	C127.348869,31.395405 125.228676,35.961494 123.172333,37.701942 
	C120.833351,39.681606 121.611290,41.908772 125.092049,42.538654 
	C125.092049,42.538654 125.020126,42.992241 124.573692,43.239037 
	C124.391235,43.520557 124.208771,43.802074 123.713860,44.658836 
	C122.805405,46.109058 121.896950,47.559280 121.000198,49.000534 
	C121.000198,49.000534 121.008652,48.988483 120.346024,49.075260 
	C119.228783,50.370728 118.111549,51.666199 116.333344,52.989204 
	C115.892517,52.989960 115.451691,52.990719 114.673004,52.406666 
	C114.429199,51.296761 114.185387,50.186859 114.019447,48.313656 
	C113.372879,46.523666 112.726318,44.733677 112.086304,42.090672 
	C111.491821,38.465240 110.897346,34.839809 110.302864,31.214380 
	C109.737343,31.205956 109.171822,31.197533 108.606300,31.189108 
	C108.033356,32.418770 107.460411,33.648430 106.249290,34.946148 
	C105.204773,35.612823 104.160263,36.279499 102.677139,36.401367 
	C100.643669,35.174534 100.974709,30.830379 96.327248,32.073742 
	C91.890846,35.311222 86.639008,38.024033 87.330528,45.275612 
	C85.177757,44.449181 82.916618,44.122047 82.224495,46.918747 
	C80.271126,54.811771 77.386330,62.852638 82.962708,70.122948 
	C82.401093,70.375977 81.639374,70.475075 81.308327,70.905449 
	C77.289299,76.130371 78.984680,81.201607 81.001602,86.139961 
	C80.144768,86.317894 79.287926,86.495827 78.007317,86.761757 
	C79.362411,88.596527 80.395561,89.995384 81.462769,91.440353 
	C77.476669,93.113831 79.399803,95.080490 81.084671,97.648163 
	C81.430122,98.415398 81.775574,99.182632 82.044304,100.790619 
	C82.108589,102.191223 82.172867,103.591835 82.074333,105.825989 
	C80.354546,113.928268 80.319115,121.966286 82.994560,130.594009 
	C82.993889,131.056061 82.993225,131.518112 82.989555,132.653503 
	C82.990562,133.101868 82.991570,133.550247 82.309349,134.136063 
	C81.506065,135.450500 80.702782,136.764954 79.336731,137.718094 
	C76.914131,134.792770 74.491531,131.867432 71.950523,128.254776 
	C68.325340,123.367493 64.832436,118.373802 61.021454,113.635963 
	C58.991856,111.112762 56.506668,108.919762 54.019146,106.824646 
	C53.329224,106.243553 51.541512,106.082100 50.900097,106.571083 
	C50.233681,107.079132 49.797344,108.911781 50.202526,109.643471 
	C54.004181,116.508553 58.008018,123.261673 62.067917,130.674576 
	C62.704235,131.123947 63.340549,131.573318 63.953064,132.717010 
	C64.631172,133.818619 65.309273,134.920242 66.013199,136.734497 
	C67.713371,139.169556 69.413544,141.604599 70.278023,144.054535 
	C68.169144,144.293564 66.060257,144.532608 63.617760,144.809464 
	C61.714375,138.896133 58.321278,140.275925 54.380363,143.022446 
	C52.858986,144.082733 50.781536,144.345139 48.498116,144.995331 
	C48.498116,144.995331 48.039875,145.043274 47.124237,145.033905 
	C43.087265,145.053909 39.050293,145.073914 34.295963,145.031509 
	C33.485401,144.201691 32.676052,143.370697 31.863995,142.542343 
	C30.550911,141.202927 29.351780,139.691559 27.824135,138.673584 
	C27.519159,138.470337 25.956942,140.153778 24.243176,140.963745 
	C23.528170,140.819199 22.813166,140.674667 21.895224,139.984390 
	C20.905918,140.211853 19.916611,140.439331 18.411394,140.873703 
	C18.057711,140.983322 17.704027,141.092941 16.644674,141.604538 
	C15.662860,147.887650 14.681046,154.170761 13.539922,161.473373 
	C17.432051,160.464584 20.828962,159.584137 24.826197,158.833511 
	C25.230000,158.900665 25.633801,158.967819 26.335102,159.590622 
	C30.650431,159.311066 34.965759,159.031509 39.791969,158.750153 
	C40.131897,158.760742 40.471828,158.771332 41.436455,159.112289 
	C44.648350,158.843674 47.860245,158.575058 51.463142,158.092331 
	C51.463142,158.092331 51.878563,157.930603 52.651100,157.952393 
	C53.423401,157.971863 54.195698,157.991333 55.432018,158.362228 
	C55.952557,158.543915 56.473091,158.725616 57.732887,158.938293 
	C59.152355,158.543762 60.571823,158.149231 62.686237,158.093109 
	C64.235107,158.181763 65.786461,158.374847 67.332336,158.337982 
	C70.877792,158.253448 74.420586,158.056747 78.836563,158.015594 
	C79.934502,157.774200 81.032448,157.532791 82.723343,157.282898 
	C84.814796,158.177795 86.906250,159.072678 89.606987,159.943893 
	C89.746666,160.289978 89.886337,160.636078 90.469688,161.102570 
M55.454544,85.837425 
	C58.679325,97.386047 64.338188,107.333717 74.325241,116.027229 
	C73.471970,102.271095 72.982529,90.051987 71.870270,77.889832 
	C71.056664,68.993332 69.745422,60.101402 64.928566,52.194630 
	C63.314854,49.545761 61.637550,49.239449 60.192402,51.947330 
	C58.491146,55.135094 56.933334,58.480736 55.915657,61.935352 
	C53.679302,69.526924 53.359909,77.274307 55.454544,85.837425 
z"/>
<path fill="#FEFDFA" opacity="1.000000" stroke="none" 
	d="
M201.000000,7.502097 
	C198.368652,5.889496 195.737305,3.778989 193.052979,1.334240 
	C195.575485,1.000000 198.150970,1.000000 201.000000,1.000000 
	C201.000000,2.997643 201.000000,5.000917 201.000000,7.502097 
z"/>
<path fill="#FEFDFA" opacity="1.000000" stroke="none" 
	d="
M195.499481,201.000000 
	C196.776962,198.701309 198.553909,196.402603 200.665421,194.051941 
	C201.000000,196.240204 201.000000,198.480392 201.000000,201.000000 
	C199.337234,201.000000 197.668091,201.000000 195.499481,201.000000 
z"/>
<path fill="#FEFDFA" opacity="1.000000" stroke="none" 
	d="
M6.500528,1.000000 
	C5.229162,2.975717 3.458324,4.951434 1.343743,6.963575 
	C1.000000,5.086773 1.000000,3.173546 1.000000,1.000000 
	C2.663430,1.000000 4.332244,1.000000 6.500528,1.000000 
z"/>
<path fill="#F7EFEC" opacity="1.000000" stroke="none" 
	d="
M125.170654,42.086182 
	C121.611290,41.908772 120.833351,39.681606 123.172333,37.701942 
	C125.228676,35.961494 127.348869,31.395405 131.601089,35.920025 
	C132.883148,37.284214 136.505508,36.448997 139.223129,36.632587 
	C142.430145,42.840801 141.170074,45.978199 134.399582,46.575520 
	C133.813217,44.044849 133.635696,41.936558 133.458176,39.828270 
	C133.022888,39.833572 132.587601,39.838875 132.152313,39.844177 
	C132.177734,51.628582 131.171417,63.146034 123.891083,72.780319 
	C122.557663,71.649452 121.371407,70.816498 120.159439,69.615845 
	C120.168991,68.513275 120.204247,67.778389 120.439041,66.841370 
	C115.742165,63.948719 114.975250,59.982639 117.410095,55.025093 
	C118.827652,52.943893 119.918152,50.966190 121.008652,48.988487 
	C121.008652,48.988483 121.000198,49.000534 121.340874,48.982353 
	C124.441048,46.006443 127.200546,43.048714 129.968567,39.761326 
	C129.651794,38.762218 129.326538,38.092773 129.001266,37.423325 
	C128.753326,37.550545 128.505386,37.677765 128.257446,37.804985 
	C128.507050,38.543694 128.756653,39.282402 128.719894,40.162071 
	C127.345909,40.897419 126.258278,41.491802 125.170654,42.086182 
z"/>
<path fill="#D7C7C4" opacity="1.000000" stroke="none" 
	d="
M55.318489,85.439713 
	C53.359909,77.274307 53.679302,69.526924 55.915657,61.935352 
	C56.933334,58.480736 58.491146,55.135094 60.192402,51.947330 
	C61.637550,49.239449 63.314854,49.545761 64.928566,52.194630 
	C69.745422,60.101402 71.056664,68.993332 71.870270,77.889832 
	C72.982529,90.051987 73.471970,102.271095 74.325241,116.027229 
	C64.338188,107.333717 58.679325,97.386047 55.318489,85.439713 
M56.896637,69.328568 
	C54.324902,84.463493 61.089699,96.374512 70.266144,107.570587 
	C69.301277,90.241524 72.022987,72.486496 63.394627,55.378773 
	C58.914112,59.313457 56.894108,63.364681 56.896637,69.328568 
z"/>
<path fill="#C68281" opacity="1.000000" stroke="none" 
	d="
M113.941574,49.076954 
	C114.185387,50.186859 114.429199,51.296761 114.812897,53.038025 
	C114.954979,53.896156 114.957161,54.122925 114.889702,54.365833 
	C114.820068,54.381973 114.951942,54.602898 114.923599,55.029320 
	C114.262199,58.966511 113.629150,62.477276 112.893295,66.246361 
	C113.176308,70.323891 113.562119,74.143105 113.577698,77.984070 
	C112.142509,80.007378 111.077553,82.008942 110.004280,84.336533 
	C109.981705,85.097160 109.967445,85.531769 109.619179,85.976265 
	C108.521103,86.333855 107.757034,86.681557 106.772537,87.132111 
	C106.282181,87.434196 106.090042,87.691528 105.991539,88.005913 
	C106.007378,88.004868 105.998802,87.974304 105.718086,88.099518 
	C104.400711,88.224739 103.364052,88.224739 102.398666,88.224739 
	C101.967888,89.668213 101.482460,91.294838 100.837967,92.571991 
	C100.121895,88.350357 99.564880,84.478180 99.007874,80.606010 
	C99.412376,80.509964 99.816887,80.413925 100.221397,80.317886 
	C98.800995,79.210495 97.380592,78.103096 95.687988,76.769897 
	C94.940361,74.719788 94.464951,72.895477 94.381546,71.054657 
	C96.449348,71.899345 98.125145,72.760559 100.101227,73.776093 
	C101.042290,71.956276 102.050789,70.006027 103.309265,67.936340 
	C104.034218,67.531937 104.509216,67.246994 105.280991,67.127350 
	C106.019012,69.120674 106.460243,70.948692 106.901474,72.776711 
	C107.398277,72.944160 107.895081,73.111618 108.391891,73.279076 
	C109.280113,70.859810 110.168343,68.440544 111.062164,65.772430 
	C111.067764,65.523575 111.032913,65.026962 111.185760,64.654663 
	C111.593132,61.524326 111.847672,58.766293 112.332825,55.753517 
	C113.822647,51.769028 111.238068,50.896881 108.626511,49.712708 
	C108.900734,48.838306 109.099121,48.352371 109.600189,47.882484 
	C110.605553,48.270370 111.308243,48.642204 112.331696,49.048374 
	C113.082169,49.080791 113.511871,49.078873 113.941574,49.076954 
z"/>
<path fill="#EEE3E4" opacity="1.000000" stroke="none" 
	d="
M82.992554,131.980164 
	C82.993225,131.518112 82.993889,131.056061 83.148308,129.910156 
	C83.318367,127.983345 83.300858,126.738823 83.357292,125.497681 
	C83.530518,121.687965 83.732086,117.879555 84.128304,114.076630 
	C84.333969,114.082626 84.736580,113.997581 84.794350,114.330093 
	C85.168350,115.451820 85.484581,116.241028 85.817268,117.418556 
	C87.719170,121.618965 89.604614,125.431068 91.574432,129.552216 
	C91.805336,130.262375 91.951851,130.663483 91.925262,131.340759 
	C91.420059,132.207703 90.699295,132.892410 90.815872,133.374741 
	C92.004219,138.291733 97.152588,139.123810 99.934982,142.500092 
	C98.172768,144.588959 96.600479,146.408356 94.719902,148.223465 
	C93.787132,148.130371 92.779984,148.244080 92.606644,147.916534 
	C91.968491,146.710648 91.606644,145.358505 91.435272,143.991241 
	C91.073570,143.266861 90.417458,142.612625 89.458649,141.960464 
	C86.833939,142.249115 85.495392,143.327606 85.703941,145.948425 
	C84.681358,145.735855 83.950745,145.461823 83.079361,144.933228 
	C82.643791,144.438034 82.348984,144.197433 82.030411,143.662399 
	C81.705124,142.884293 81.403610,142.400604 81.044968,141.583267 
	C80.625053,140.192871 80.262276,139.136139 79.899506,138.079391 
	C80.702782,136.764954 81.506065,135.450500 82.902695,134.286667 
	C83.992645,135.629486 84.489265,136.821686 84.986252,138.308868 
	C85.085876,139.108765 85.185135,139.613708 85.284393,140.118652 
	C85.518959,140.042999 85.753525,139.967346 85.988083,139.891693 
	C85.662964,139.258362 85.337845,138.625031 85.013763,137.582687 
	C84.340729,135.442505 83.666641,133.711334 82.992554,131.980164 
z"/>
<path fill="#2F66C3" opacity="1.000000" stroke="none" 
	d="
M83.220131,145.187790 
	C83.950745,145.461823 84.681358,145.735855 85.989792,146.050873 
	C87.473541,145.388168 88.379463,144.684464 89.594574,143.992737 
	C90.316124,144.023605 90.728493,144.042496 91.140854,144.061401 
	C91.606644,145.358505 91.968491,146.710648 92.606644,147.916534 
	C92.779984,148.244080 93.787132,148.130371 94.712067,148.573639 
	C94.218880,152.291855 95.038643,155.054993 97.696762,157.131104 
	C96.411369,157.807358 95.451447,158.365067 94.352859,158.747803 
	C93.857430,158.453247 93.617599,158.571121 93.105286,158.698883 
	C91.465469,158.979736 90.215065,159.488190 88.977882,159.992218 
	C88.991104,159.987778 88.997704,159.967560 88.997704,159.967560 
	C86.906250,159.072678 84.814796,158.177795 82.503174,157.163239 
	C82.494209,156.826599 82.729309,156.640472 83.189163,156.784515 
	C84.728027,156.218430 86.066048,155.353012 87.577881,154.163696 
	C86.508331,149.283615 83.640228,150.825790 80.528702,151.993088 
	C79.117844,151.650543 78.046844,151.320877 76.648849,150.986404 
	C75.316956,150.631531 74.312065,150.281479 73.442894,149.978699 
	C72.287834,151.350891 71.166809,152.682663 70.089577,153.644196 
	C70.143311,151.617706 70.153252,149.961441 70.163193,148.305161 
	C69.163879,148.630219 68.164566,148.955276 67.105316,148.947632 
	C66.685585,148.071671 66.325775,147.528397 66.243820,146.695251 
	C68.675560,146.323380 70.829437,146.241379 73.152824,146.390259 
	C73.880135,146.750809 74.437935,146.880478 75.090988,147.307907 
	C77.830093,146.765823 80.473946,145.925980 83.131363,145.123657 
	C83.144920,145.161163 83.220131,145.187790 83.220131,145.187790 
z"/>
<path fill="#B67A70" opacity="1.000000" stroke="none" 
	d="
M83.806091,70.207550 
	C77.386330,62.852638 80.271126,54.811771 82.224495,46.918747 
	C82.916618,44.122047 85.177757,44.449181 87.787399,45.160355 
	C88.244263,45.045101 88.459641,45.145962 88.260452,45.471668 
	C88.379028,48.194111 88.696793,50.590851 88.964584,53.228073 
	C88.914612,53.468555 88.838860,53.953918 88.493622,53.971680 
	C86.161217,54.322041 84.495132,54.706940 85.862343,57.447994 
	C86.340042,58.405716 85.967957,59.787300 85.627678,61.035645 
	C85.865532,64.090454 86.459648,67.084938 87.206543,70.423058 
	C87.570374,72.531479 87.781425,74.296249 87.737465,75.936363 
	C86.989609,75.535057 86.496780,75.258415 85.997620,74.727829 
	C85.983139,74.304749 85.974983,74.135597 85.951172,73.671638 
	C85.225716,72.320412 84.515900,71.263977 83.806091,70.207550 
z"/>
<path fill="#1F63C3" opacity="1.000000" stroke="none" 
	d="
M26.037601,159.034973 
	C25.633801,158.967819 25.230000,158.900665 24.485167,158.377533 
	C23.825092,153.129410 27.227310,148.261673 24.756666,143.513229 
	C24.192604,143.479050 23.628542,143.444885 23.064482,143.410706 
	C22.545942,147.550995 22.027403,151.691284 21.123890,155.907288 
	C20.140083,156.723083 19.541254,157.463165 18.545467,158.279312 
	C17.604675,157.566055 16.512280,156.698563 16.611719,156.000931 
	C17.048225,152.938538 17.829378,149.925278 18.566845,146.827545 
	C18.776163,146.572128 18.778122,146.378433 18.566433,145.814026 
	C18.102692,144.033020 17.726515,142.617783 17.350342,141.202545 
	C17.704027,141.092941 18.057711,140.983322 19.065693,140.830231 
	C20.512716,140.701218 21.305437,140.615677 22.098160,140.530136 
	C22.813166,140.674667 23.528170,140.819199 24.970509,141.063644 
	C27.074129,141.058517 28.450420,140.953506 29.938597,140.839951 
	C29.602402,143.984131 29.216661,146.566833 29.079361,149.162689 
	C28.940842,151.781586 29.048847,154.413528 29.048847,157.442581 
	C28.360991,157.806335 27.199295,158.420654 26.037601,159.034973 
z"/>
<path fill="#B66A71" opacity="1.000000" stroke="none" 
	d="
M117.822647,104.996933 
	C117.828354,105.179016 117.834061,105.361099 117.724014,105.997490 
	C117.608269,106.451790 117.425682,106.849930 117.192894,106.964668 
	C117.264641,107.741806 117.569176,108.404213 118.079193,109.366302 
	C118.589859,110.807533 118.895027,111.949081 118.959213,113.109238 
	C118.718231,113.127838 118.238083,113.098389 117.895599,112.961006 
	C116.371895,113.578583 114.539749,114.088562 114.144333,115.139244 
	C113.309204,117.358353 113.225357,119.860191 112.922386,121.703896 
	C111.297546,122.251480 110.133202,122.643867 108.594604,123.020523 
	C106.813675,121.002190 105.406998,118.999588 104.074371,116.641251 
	C105.616051,115.557610 107.083679,114.829727 108.551315,114.101845 
	C108.128746,113.910538 107.706177,113.719231 107.283600,113.527916 
	C108.188179,111.028091 109.092758,108.528267 110.333817,106.024490 
	C111.118950,106.015213 111.567596,106.009888 112.255539,106.004852 
	C112.494827,106.005142 112.973404,106.007530 113.305031,105.868118 
	C115.031990,105.484787 116.427315,105.240860 117.822647,104.996933 
z"/>
<path fill="#DBA597" opacity="1.000000" stroke="none" 
	d="
M82.121017,99.949867 
	C81.775574,99.182632 81.430122,98.415398 81.181168,97.013290 
	C82.470764,93.299065 83.663857,90.219704 84.891602,87.106728 
	C84.926254,87.073112 84.995941,87.006256 85.236931,86.848465 
	C85.986076,86.127167 86.494225,85.563675 87.290665,85.146492 
	C91.047707,86.698715 90.734612,90.740662 92.837433,93.320534 
	C92.592575,94.586571 92.470482,95.545158 92.230965,97.425735 
	C94.394196,95.882301 95.691391,94.956772 96.996429,94.016365 
	C97.004272,94.001488 96.972580,94.012016 96.978790,94.398636 
	C97.057861,98.193405 95.545197,100.077087 91.552933,99.990288 
	C89.399818,99.998474 87.675499,100.005310 85.566605,100.010345 
	C84.161697,99.988983 83.141357,99.969429 82.121017,99.949867 
z"/>
<path fill="#DBCECB" opacity="1.000000" stroke="none" 
	d="
M124.038254,73.078232 
	C131.171417,63.146034 132.177734,51.628582 132.152313,39.844177 
	C132.587601,39.838875 133.022888,39.833572 133.458176,39.828270 
	C133.635696,41.936558 133.813217,44.044849 134.001740,46.576550 
	C132.945465,53.366150 131.878159,59.732334 130.658951,67.004555 
	C134.761993,64.607719 137.940399,62.751011 141.539703,60.930809 
	C141.960587,60.967323 142.079239,61.102200 141.907776,61.387344 
	C134.730225,67.650108 126.809982,72.697250 121.730003,80.991364 
	C120.921669,80.996948 120.459763,80.999084 119.876389,80.774261 
	C119.483658,80.339760 119.212387,80.132210 119.101135,79.634888 
	C120.853523,77.256157 122.445892,75.167191 124.038254,73.078232 
M129.492355,68.357132 
	C129.549255,68.142250 129.606155,67.927368 129.663055,67.712479 
	C129.527039,67.850075 129.391037,67.987671 129.492355,68.357132 
z"/>
<path fill="#D7CBCA" opacity="1.000000" stroke="none" 
	d="
M61.953426,130.047150 
	C58.008018,123.261673 54.004181,116.508553 50.202526,109.643471 
	C49.797344,108.911781 50.233681,107.079132 50.900097,106.571083 
	C51.541512,106.082100 53.329224,106.243553 54.019146,106.824646 
	C56.506668,108.919762 58.991856,111.112762 61.021454,113.635963 
	C64.832436,118.373802 68.325340,123.367493 71.971062,128.632584 
	C71.991600,129.010391 71.917122,129.079041 71.580360,129.030563 
	C69.099281,126.519890 66.979828,124.035484 64.804955,121.600578 
	C61.328228,117.708183 57.814713,113.848648 54.316753,109.975220 
	C53.885330,110.324516 53.453911,110.673820 53.022491,111.023117 
	C53.462872,112.001114 53.883114,112.988777 54.346973,113.955505 
	C56.907562,119.292023 59.478790,124.623428 62.022980,129.979065 
	C61.999596,130.001556 61.953426,130.047150 61.953426,130.047150 
z"/>
<path fill="#E2B1B2" opacity="1.000000" stroke="none" 
	d="
M119.997849,81.001221 
	C120.459763,80.999084 120.921669,80.996948 121.705170,81.383957 
	C121.745674,83.799904 121.464584,85.826714 121.135933,88.255569 
	C121.413979,90.458862 121.739586,92.260117 122.065193,94.061363 
	C121.296982,95.990829 120.528770,97.920296 119.025780,99.935883 
	C115.466431,100.797516 113.005264,100.256172 111.017975,97.638306 
	C114.014221,91.842339 117.006042,86.421783 119.997849,81.001221 
z"/>
<path fill="#2362C1" opacity="1.000000" stroke="none" 
	d="
M65.965958,146.985138 
	C66.325775,147.528397 66.685585,148.071671 67.017670,149.309540 
	C66.622726,151.851746 66.255501,153.699356 65.888275,155.546951 
	C66.291077,155.715836 66.693878,155.884720 67.096680,156.053589 
	C68.079712,155.373871 69.062744,154.694153 70.045784,154.014420 
	C71.166809,152.682663 72.287834,151.350891 73.442894,149.978699 
	C74.312065,150.281479 75.316956,150.631531 76.653114,151.389297 
	C77.311073,153.833206 77.637764,155.869400 77.964455,157.905594 
	C74.420586,158.056747 70.877792,158.253448 67.332336,158.337982 
	C65.786461,158.374847 64.235107,158.181763 62.330826,157.581390 
	C61.941460,156.613953 61.907513,156.158264 61.870251,155.322540 
	C63.233280,152.290054 64.599625,149.637604 65.965958,146.985138 
z"/>
<path fill="#C4DDFD" opacity="1.000000" stroke="none" 
	d="
M21.508865,155.831573 
	C22.027403,151.691284 22.545942,147.550995 23.064482,143.410706 
	C23.628542,143.444885 24.192604,143.479050 24.756666,143.513229 
	C27.227310,148.261673 23.825092,153.129410 24.185005,158.312622 
	C20.828962,159.584137 17.432051,160.464584 13.539922,161.473373 
	C14.681046,154.170761 15.662860,147.887650 16.997507,141.403534 
	C17.726515,142.617783 18.102692,144.033020 18.459867,145.977310 
	C18.440868,146.506363 18.485565,146.894196 18.485565,146.894196 
	C17.829378,149.925278 17.048225,152.938538 16.611719,156.000931 
	C16.512280,156.698563 17.604675,157.566055 18.764515,158.430603 
	C22.572382,158.059921 22.690140,157.911957 21.508865,155.831573 
z"/>
<path fill="#D8C2C0" opacity="1.000000" stroke="none" 
	d="
M115.022308,159.106262 
	C113.144508,161.758331 111.281372,164.420975 109.381012,167.056763 
	C108.711899,167.984818 107.742889,168.748535 107.266937,169.755585 
	C104.174255,176.299149 103.243660,176.444275 98.622849,170.882355 
	C98.203262,170.377304 97.845535,169.820847 97.249832,168.768829 
	C98.333099,166.481628 99.625610,164.713852 101.205421,163.163452 
	C102.025040,164.856049 102.557358,166.331268 103.386024,168.627762 
	C107.355904,165.021774 110.729576,161.957336 114.346252,158.889191 
	C114.589264,158.885483 115.022301,159.106262 115.022308,159.106262 
z"/>
<path fill="#C7E6FD" opacity="1.000000" stroke="none" 
	d="
M66.243820,146.695251 
	C64.599625,149.637604 63.233280,152.290054 61.453957,155.401031 
	C57.517189,153.944168 58.240559,149.703796 62.700661,146.707657 
	C60.867634,145.461258 59.071400,144.239868 57.010105,143.171875 
	C56.512154,143.654968 56.279255,143.984680 56.049477,144.627899 
	C55.302315,145.604874 54.552032,146.268341 53.562309,146.819641 
	C52.538513,147.151443 51.754154,147.595398 50.708244,148.010071 
	C50.285667,147.675720 50.124634,147.370667 49.954575,146.755692 
	C49.616180,145.954193 49.286808,145.462631 48.957436,144.971054 
	C50.781536,144.345139 52.858986,144.082733 54.380363,143.022446 
	C58.321278,140.275925 61.714375,138.896133 63.617760,144.809464 
	C66.060257,144.532608 68.169144,144.293564 70.938881,144.154648 
	C72.086449,144.476959 72.573151,144.699158 73.049942,144.936127 
	C73.040024,144.950912 73.053993,144.967743 73.037048,145.265701 
	C73.007843,145.762238 72.995575,145.960815 72.983315,146.159378 
	C70.829437,146.241379 68.675560,146.323380 66.243820,146.695251 
z"/>
<path fill="#D8C2C0" opacity="1.000000" stroke="none" 
	d="
M119.200195,113.090622 
	C118.895027,111.949081 118.589859,110.807533 118.080475,108.984520 
	C117.726067,107.818680 117.575874,107.334305 117.425690,106.849930 
	C117.425682,106.849930 117.608269,106.451790 117.730598,106.270676 
	C119.089127,106.562874 120.325325,107.036179 122.043091,107.693855 
	C123.282990,106.224800 124.993126,104.198593 126.703270,102.172394 
	C127.323936,102.326187 127.944611,102.479980 128.565292,102.633774 
	C127.711639,111.142807 126.857986,119.651840 125.697807,128.577698 
	C125.211647,128.993851 125.032021,128.993179 124.882256,128.543762 
	C125.330849,121.610260 125.749596,115.125488 126.262024,107.189972 
	C123.016602,109.901749 121.108398,111.496185 119.200195,113.090622 
z"/>
<path fill="#C7E6FD" opacity="1.000000" stroke="none" 
	d="
M35.013321,145.093903 
	C39.050293,145.073914 43.087265,145.053909 47.565273,145.235138 
	C48.006310,145.436356 47.975315,145.830429 47.643585,145.963470 
	C46.530758,147.398666 45.749668,148.700821 44.947937,150.330551 
	C45.620991,151.423492 46.314678,152.188858 47.137695,153.176788 
	C47.511292,153.640427 47.755562,153.881531 48.082024,154.299850 
	C48.308708,154.703308 48.502892,154.872528 48.839478,155.230804 
	C48.963280,155.649399 48.994381,155.821915 48.665497,155.997711 
	C47.826286,156.026810 47.347061,156.052658 46.615074,155.953018 
	C45.560844,155.527756 44.759373,155.227997 43.654720,154.968582 
	C42.951534,154.939026 42.551525,154.869110 42.186199,154.500214 
	C42.196831,153.802948 42.172779,153.404678 42.292549,152.692291 
	C42.568096,151.244720 42.699821,150.111267 42.915955,148.629059 
	C43.091858,145.488144 41.696281,145.716080 39.601353,146.975555 
	C38.969528,149.118256 38.637981,151.039902 38.183945,153.246902 
	C37.653343,154.248489 37.245235,154.964706 36.457150,155.664032 
	C35.743561,154.097229 35.281734,152.561249 35.111317,150.993607 
	C34.930115,149.326721 35.025063,147.629822 35.001099,145.732971 
	C35.002769,145.519913 35.013321,145.093918 35.013321,145.093903 
z"/>
<path fill="#DBA597" opacity="1.000000" stroke="none" 
	d="
M83.384399,70.165253 
	C84.515900,71.263977 85.225716,72.320412 85.584991,73.748901 
	C84.636711,76.042412 83.557831,77.965279 83.563530,79.884926 
	C83.570595,82.260109 84.477692,84.632599 84.995941,87.006256 
	C84.995941,87.006256 84.926254,87.073112 84.614777,87.061661 
	C83.477989,86.772972 82.652679,86.495720 81.827370,86.218468 
	C78.984680,81.201607 77.289299,76.130371 81.308327,70.905449 
	C81.639374,70.475075 82.401093,70.375977 83.384399,70.165253 
z"/>
<path fill="#2562C6" opacity="1.000000" stroke="none" 
	d="
M57.275162,143.018494 
	C59.071400,144.239868 60.867634,145.461258 62.700661,146.707657 
	C58.240559,149.703796 57.517189,153.944168 61.457268,155.781067 
	C61.907513,156.158264 61.941460,156.613953 61.983349,157.412170 
	C60.571823,158.149231 59.152355,158.543762 57.357029,158.569870 
	C56.276184,157.463135 55.571194,156.724808 54.837444,155.576569 
	C54.473038,152.421692 54.137394,149.676758 53.801750,146.931808 
	C54.552032,146.268341 55.302315,145.604874 56.285835,144.443848 
	C56.771103,143.636993 57.023129,143.327744 57.275162,143.018494 
z"/>
<path fill="#C4DDFD" opacity="1.000000" stroke="none" 
	d="
M34.654640,145.062714 
	C35.013321,145.093918 35.002769,145.519913 34.623711,145.751205 
	C32.901463,146.464478 31.558271,146.946442 30.879606,147.189972 
	C30.879606,149.835358 30.939800,151.779297 30.868000,153.718369 
	C30.674421,158.946182 31.985550,159.715622 37.369244,157.271149 
	C38.002468,157.208694 38.365734,157.186676 38.804291,157.400558 
	C38.879574,157.636475 39.236267,157.980072 39.262295,158.172180 
	C39.288322,158.364288 39.281086,158.751953 39.281086,158.751953 
	C34.965759,159.031509 30.650431,159.311066 26.186352,159.312805 
	C27.199295,158.420654 28.360991,157.806335 29.048847,157.442581 
	C29.048847,154.413528 28.940842,151.781586 29.079361,149.162689 
	C29.216661,146.566833 29.602402,143.984131 29.938597,140.839951 
	C28.450420,140.953506 27.074129,141.058517 25.336140,141.065399 
	C25.956942,140.153778 27.519159,138.470337 27.824135,138.673584 
	C29.351780,139.691559 30.550911,141.202927 31.863995,142.542343 
	C32.676052,143.370697 33.485401,144.201691 34.654640,145.062714 
z"/>
<path fill="#DBCECB" opacity="1.000000" stroke="none" 
	d="
M141.898224,60.902687 
	C143.678070,59.144016 145.520294,57.449986 147.441025,55.683750 
	C150.113815,60.803879 146.040482,69.440765 136.312408,79.856567 
	C135.998489,79.999031 135.965927,79.967239 135.959549,79.600845 
	C137.487137,76.539230 138.994659,73.828537 140.561447,71.152542 
	C142.724594,67.458015 144.932449,63.789669 147.755997,59.042797 
	C144.858200,60.094055 143.468719,60.598129 142.079239,61.102203 
	C142.079239,61.102200 141.960587,60.967323 141.898224,60.902687 
z"/>
<path fill="#1F63C3" opacity="1.000000" stroke="none" 
	d="
M115.369934,159.010513 
	C115.022301,159.106262 114.589264,158.885483 114.292007,158.480835 
	C114.289864,155.950546 114.609421,153.827942 114.873573,151.698441 
	C115.169327,149.314117 114.178223,148.636658 112.004448,149.308105 
	C112.003624,148.354706 112.006165,147.718933 112.367844,147.004639 
	C114.489426,146.959915 116.251877,146.993713 118.046219,147.372238 
	C118.433838,148.782593 118.789558,149.848236 119.145279,150.913864 
	C117.677971,153.441711 121.677910,158.311798 115.369934,159.010513 
z"/>
<path fill="#98787F" opacity="1.000000" stroke="none" 
	d="
M100.918121,162.946060 
	C99.625610,164.713852 98.333099,166.481628 96.963997,168.578674 
	C96.207924,169.293320 95.528442,169.678696 95.520607,169.683136 
	C94.063286,167.217972 92.767899,165.026733 91.216599,162.631348 
	C90.960686,162.427231 90.920647,162.498047 91.354355,162.464691 
	C92.356941,161.263031 92.925819,160.094742 93.494705,158.926453 
	C93.617599,158.571121 93.857430,158.453247 94.440033,159.114502 
	C95.414009,160.522278 96.162155,161.388382 97.394730,162.815292 
	C98.166351,160.742035 98.648048,159.447754 99.486496,158.131073 
	C100.555031,158.151123 101.266808,158.193573 102.022537,158.578873 
	C101.683701,160.263184 101.300911,161.604630 100.918121,162.946060 
z"/>
<path fill="#7F5D56" opacity="1.000000" stroke="none" 
	d="
M88.127640,45.021931 
	C86.639008,38.024033 91.890846,35.311222 96.577682,32.353462 
	C96.526398,33.092575 96.224678,33.551964 95.679306,34.217918 
	C95.262749,35.965649 95.089844,37.506813 94.931229,39.368748 
	C94.951294,40.117702 94.957069,40.545887 94.601364,41.029724 
	C93.476830,42.718208 92.713783,44.351040 91.713501,45.981899 
	C91.476273,45.979923 91.001961,45.992844 90.750702,45.879944 
	C89.819504,45.560017 89.139572,45.352989 88.459641,45.145962 
	C88.459641,45.145962 88.244263,45.045101 88.127640,45.021931 
z"/>
<path fill="#C6858D" opacity="1.000000" stroke="none" 
	d="
M111.013535,98.013702 
	C113.005264,100.256172 115.466431,100.797516 118.682327,100.013428 
	C118.845680,101.502647 118.617706,103.000443 118.106186,104.747589 
	C116.427315,105.240860 115.031990,105.484787 113.222649,105.705864 
	C112.544510,105.790192 112.280373,105.897369 112.016235,106.004555 
	C111.567596,106.009888 111.118950,106.015213 110.137161,105.742950 
	C109.069290,104.286835 108.534554,103.108307 108.185776,101.667076 
	C109.252213,100.274086 110.132690,99.143799 111.008362,98.007889 
	C111.003555,98.002274 111.013535,98.013702 111.013535,98.013702 
z"/>
<path fill="#D7C7C4" opacity="1.000000" stroke="none" 
	d="
M83.922638,114.070633 
	C83.732086,117.879555 83.530518,121.687965 83.357292,125.497681 
	C83.300858,126.738823 83.318367,127.983345 83.147453,129.563629 
	C80.319115,121.966286 80.354546,113.928268 82.508560,105.528336 
	C83.269409,108.177338 83.596024,111.123985 83.922638,114.070633 
z"/>
<path fill="#DBCECB" opacity="1.000000" stroke="none" 
	d="
M122.398941,93.997047 
	C121.739586,92.260117 121.413979,90.458862 121.401489,88.342499 
	C122.222069,88.909584 122.729546,89.791786 123.379295,90.921326 
	C124.728287,89.645836 125.990929,88.353439 127.356674,87.181183 
	C130.197510,84.742836 133.092941,82.368118 135.965927,79.967239 
	C135.965927,79.967239 135.998489,79.999031 136.014969,80.015594 
	C131.598526,84.665680 127.165604,89.299210 122.398941,93.997047 
z"/>
<path fill="#D5C9D0" opacity="1.000000" stroke="none" 
	d="
M119.378326,150.663422 
	C118.789558,149.848236 118.433838,148.782593 118.203537,147.055847 
	C120.503433,140.593994 122.677917,134.793259 124.852402,128.992508 
	C125.032021,128.993179 125.211647,128.993851 125.660034,128.992279 
	C123.822983,136.131027 121.717171,143.271988 119.378326,150.663422 
z"/>
<path fill="#B5D8F4" opacity="1.000000" stroke="none" 
	d="
M53.562309,146.819641 
	C54.137394,149.676758 54.473038,152.421692 54.817406,155.915039 
	C54.873421,157.112549 54.920708,157.561676 54.967999,158.010788 
	C54.195698,157.991333 53.423401,157.971863 52.254044,157.589844 
	C51.251701,155.137466 50.646412,153.047623 49.961609,150.638992 
	C50.244663,149.559906 50.607231,148.799637 50.969795,148.039352 
	C51.754154,147.595398 52.538513,147.151443 53.562309,146.819641 
z"/>
<path fill="#E3B8B5" opacity="1.000000" stroke="none" 
	d="
M84.128311,114.076630 
	C83.596024,111.123985 83.269409,108.177338 82.589973,105.111565 
	C82.172867,103.591835 82.108589,102.191223 82.082664,100.370239 
	C83.141357,99.969429 84.161697,99.988983 85.578552,100.448051 
	C85.975533,105.250839 85.975998,109.614113 85.666733,113.996887 
	C85.150185,114.010117 84.943382,114.003845 84.736580,113.997581 
	C84.736580,113.997581 84.333969,114.082626 84.128311,114.076630 
z"/>
<path fill="#E1C3BD" opacity="1.000000" stroke="none" 
	d="
M114.959335,54.349693 
	C114.957161,54.122925 114.954979,53.896156 114.981827,53.330429 
	C115.451691,52.990719 115.892517,52.989960 116.670280,53.336639 
	C117.032494,54.165577 117.057770,54.647083 117.083046,55.128590 
	C114.975250,59.982639 115.742165,63.948719 120.066956,66.862061 
	C117.328926,66.719284 115.162506,66.353661 112.996094,65.988045 
	C113.629150,62.477276 114.262199,58.966511 114.888901,54.967178 
	C114.882553,54.478619 114.959335,54.349693 114.959335,54.349693 
z"/>
<path fill="#E3B8B5" opacity="1.000000" stroke="none" 
	d="
M81.414490,86.179214 
	C82.652679,86.495720 83.477989,86.772972 84.580124,87.095276 
	C83.663857,90.219704 82.470764,93.299065 81.121109,96.702072 
	C79.399803,95.080490 77.476669,93.113831 81.462769,91.440353 
	C80.395561,89.995384 79.362411,88.596527 78.007317,86.761757 
	C79.287926,86.495827 80.144768,86.317894 81.414490,86.179214 
z"/>
<path fill="#1762CF" opacity="1.000000" stroke="none" 
	d="
M39.536530,158.751053 
	C39.281086,158.751953 39.288322,158.364288 39.367462,158.028656 
	C39.207401,157.516907 38.968201,157.340790 38.729004,157.164642 
	C38.365734,157.186676 38.002468,157.208694 37.305214,156.863129 
	C36.926525,156.224014 36.881824,155.952469 36.837124,155.680923 
	C37.245235,154.964706 37.653343,154.248489 38.475487,153.035370 
	C39.226891,150.610458 39.564259,148.682480 39.901630,146.754486 
	C41.696281,145.716080 43.091858,145.488144 42.663239,148.671509 
	C42.266983,150.377289 42.207855,151.691849 42.148727,153.006424 
	C42.172779,153.404678 42.196831,153.802948 42.235359,154.755096 
	C42.495110,155.548447 42.740387,155.787903 42.985664,156.289886 
	C42.982811,156.727432 42.979958,156.902420 42.763115,157.257980 
	C41.970001,157.886337 41.390881,158.334137 40.811760,158.781937 
	C40.471828,158.771332 40.131897,158.760742 39.536530,158.751053 
z"/>
<path fill="#55251B" opacity="1.000000" stroke="none" 
	d="
M95.922958,34.011353 
	C96.224678,33.551964 96.526398,33.092575 96.930336,32.376545 
	C100.974709,30.830379 100.643669,35.174534 102.878830,36.927841 
	C103.084625,37.624043 103.088730,37.793774 102.845352,38.146172 
	C102.461044,39.970932 102.324219,41.613022 102.082191,44.517689 
	C100.906647,42.582062 100.423256,41.786129 99.926605,40.668705 
	C99.576462,39.557602 99.239586,38.767986 98.921532,37.589828 
	C97.934555,36.137978 96.928757,35.074669 95.922958,34.011353 
z"/>
<path fill="#D7CBCA" opacity="1.000000" stroke="none" 
	d="
M79.618118,137.898743 
	C80.262276,139.136139 80.625053,140.192871 80.971268,141.649170 
	C80.954704,142.048737 80.810234,142.183746 80.492447,142.080078 
	C77.422142,137.677292 74.669632,133.378174 71.917122,129.079041 
	C71.917122,129.079041 71.991600,129.010391 72.030266,128.976257 
	C74.491531,131.867432 76.914131,134.792770 79.618118,137.898743 
z"/>
<path fill="#1358C5" opacity="1.000000" stroke="none" 
	d="
M78.400513,157.960602 
	C77.637764,155.869400 77.311073,153.833206 76.980118,151.394119 
	C78.046844,151.320877 79.117844,151.650543 80.608566,152.229507 
	C81.028297,152.478821 81.193657,152.949493 81.215622,153.291260 
	C81.821167,154.583740 82.404739,155.534470 82.988319,156.485184 
	C82.729309,156.640472 82.494209,156.826599 82.206696,157.167480 
	C81.032448,157.532791 79.934502,157.774200 78.400513,157.960602 
z"/>
<path fill="#D7C7C4" opacity="1.000000" stroke="none" 
	d="
M106.887466,34.878094 
	C107.460411,33.648430 108.033356,32.418770 108.606300,31.189108 
	C109.171822,31.197533 109.737343,31.205956 110.302864,31.214380 
	C110.897346,34.839809 111.491821,38.465240 112.054916,42.536423 
	C112.023529,42.982178 111.969475,43.019276 111.702705,42.787369 
	C109.971123,40.052452 108.506310,37.549442 107.002899,35.004425 
	C106.964310,34.962418 106.887466,34.878094 106.887466,34.878094 
z"/>
<path fill="#DBCECB" opacity="1.000000" stroke="none" 
	d="
M125.131348,42.312416 
	C126.258278,41.491802 127.345909,40.897419 128.958221,40.180531 
	C129.482895,40.058022 129.960052,40.090984 129.960052,40.090984 
	C127.200546,43.048714 124.441048,46.006443 121.335022,48.986839 
	C121.896950,47.559280 122.805405,46.109058 124.085716,44.238831 
	C124.645096,43.543301 124.832611,43.267773 125.020126,42.992241 
	C125.020126,42.992241 125.092049,42.538654 125.131348,42.312416 
z"/>
<path fill="#D7D2D4" opacity="1.000000" stroke="none" 
	d="
M73.059860,144.921356 
	C72.573151,144.699158 72.086449,144.476959 71.356728,144.147217 
	C69.413544,141.604599 67.713371,139.169556 66.007614,136.366669 
	C66.002037,135.998825 66.024948,135.988037 66.370331,136.018707 
	C68.830429,139.006699 70.945145,141.964035 73.059860,144.921356 
z"/>
<path fill="#2165C9" opacity="1.000000" stroke="none" 
	d="
M50.041119,150.957794 
	C50.646412,153.047623 51.251701,155.137466 51.867775,157.578949 
	C51.878563,157.930603 51.463142,158.092331 50.934578,158.180023 
	C49.968826,158.342834 49.531635,158.417953 49.070808,158.130463 
	C49.031582,157.526123 49.015991,157.284393 49.200676,156.945679 
	C49.499119,156.737946 49.597290,156.627167 49.695461,156.516403 
	C49.472137,156.342422 49.248810,156.168427 49.025486,155.994446 
	C48.994381,155.821915 48.963280,155.649399 48.830971,155.010056 
	C48.576115,154.247467 48.332806,154.107269 47.999832,154.122635 
	C47.755562,153.881531 47.511292,153.640427 47.165253,152.915283 
	C48.015736,151.963547 48.967991,151.495880 49.951218,151.011902 
	C49.982197,150.995590 50.041119,150.957794 50.041119,150.957794 
z"/>
<path fill="#B5D8F4" opacity="1.000000" stroke="none" 
	d="
M49.094448,158.493073 
	C49.531635,158.417953 49.968826,158.342834 50.739079,158.287079 
	C47.860245,158.575058 44.648350,158.843674 41.124107,158.947113 
	C41.390881,158.334137 41.970001,157.886337 43.082390,157.359863 
	C45.441921,157.685135 47.268185,158.089111 49.094448,158.493073 
z"/>
<path fill="#DBCECB" opacity="1.000000" stroke="none" 
	d="
M117.410095,55.025093 
	C117.057770,54.647083 117.032494,54.165577 117.000763,53.322868 
	C118.111549,51.666199 119.228783,50.370728 120.677338,49.031876 
	C119.918152,50.966190 118.827652,52.943893 117.410095,55.025093 
z"/>
<path fill="#D7C7C4" opacity="1.000000" stroke="none" 
	d="
M113.980515,48.695305 
	C113.511871,49.078873 113.082169,49.080791 112.339424,48.619484 
	C112.007416,46.443928 111.988449,44.731602 111.969475,43.019276 
	C111.969475,43.019276 112.023529,42.982178 112.051643,42.962933 
	C112.726318,44.733677 113.372879,46.523666 113.980515,48.695305 
z"/>
<path fill="#D7C7C4" opacity="1.000000" stroke="none" 
	d="
M103.092827,37.963501 
	C103.088730,37.793774 103.084625,37.624043 103.098145,37.200245 
	C104.160263,36.279499 105.204773,35.612823 106.568375,34.912121 
	C106.887466,34.878094 106.964310,34.962418 106.950089,35.332260 
	C105.974373,36.464703 105.012886,37.227303 103.811401,37.995575 
	C103.571419,38.001247 103.092827,37.963501 103.092827,37.963501 
z"/>
<path fill="#C9C9CC" opacity="1.000000" stroke="none" 
	d="
M84.985878,138.013901 
	C84.489265,136.821686 83.992645,135.629486 83.244308,134.217941 
	C82.991570,133.550247 82.990562,133.101868 82.991058,132.316833 
	C83.666641,133.711334 84.340729,135.442505 85.006836,137.587372 
	C84.998863,138.001083 84.985878,138.013901 84.985878,138.013901 
z"/>
<path fill="#C4DDFD" opacity="1.000000" stroke="none" 
	d="
M21.996693,140.257263 
	C21.305437,140.615677 20.512716,140.701218 19.323650,140.726776 
	C19.916611,140.439331 20.905918,140.211853 21.996693,140.257263 
z"/>
<path fill="#D7CBCA" opacity="1.000000" stroke="none" 
	d="
M65.994705,136.010345 
	C65.309273,134.920242 64.631172,133.818619 63.974365,132.360657 
	C63.995667,132.004288 64.013344,131.989853 64.313522,132.153687 
	C65.084114,133.541016 65.554535,134.764526 66.024948,135.988037 
	C66.024948,135.988037 66.002037,135.998825 65.994705,136.010345 
z"/>
<path fill="#2362C1" opacity="1.000000" stroke="none" 
	d="
M55.200008,158.186508 
	C54.920708,157.561676 54.873421,157.112549 54.846169,156.324966 
	C55.571194,156.724808 56.276184,157.463135 56.987400,158.554382 
	C56.473091,158.725616 55.952557,158.543915 55.200008,158.186508 
z"/>
<path fill="#D7CBCA" opacity="1.000000" stroke="none" 
	d="
M63.986267,132.013489 
	C63.340549,131.573318 62.704235,131.123947 62.010674,130.360870 
	C61.953426,130.047150 61.999596,130.001556 62.335289,130.029144 
	C63.118439,130.701111 63.565891,131.345474 64.013344,131.989853 
	C64.013344,131.989853 63.995667,132.004288 63.986267,132.013489 
z"/>
<path fill="#B5D8F4" opacity="1.000000" stroke="none" 
	d="
M47.975315,145.830429 
	C47.975315,145.830429 48.006310,145.436356 48.023094,145.239807 
	C48.039875,145.043274 48.498116,144.995331 48.727776,144.983185 
	C49.286808,145.462631 49.616180,145.954193 49.688766,146.621643 
	C48.946423,146.475159 48.460869,146.152802 47.975315,145.830429 
z"/>
<path fill="#2F66C3" opacity="1.000000" stroke="none" 
	d="
M90.920647,162.498047 
	C90.920647,162.498047 90.960686,162.427231 90.954697,162.387695 
	C90.789024,161.932953 90.629356,161.517761 90.240257,161.040192 
	C90.010826,160.977814 90.038002,160.962097 90.005463,161.301208 
	C90.288826,161.926224 90.604736,162.212143 90.920647,162.498047 
z"/>
<path fill="#2F66C3" opacity="1.000000" stroke="none" 
	d="
M90.018417,160.979980 
	C89.886337,160.636078 89.746666,160.289978 89.302345,159.955719 
	C88.997704,159.967560 88.991104,159.987778 89.001823,160.289124 
	C89.354362,160.714355 89.696182,160.838226 90.038002,160.962097 
	C90.038002,160.962097 90.010826,160.977814 90.018417,160.979980 
z"/>
<path fill="#F7EFEC" opacity="1.000000" stroke="none" 
	d="
M124.796906,43.115639 
	C124.832611,43.267773 124.645096,43.543301 124.241943,43.951210 
	C124.208771,43.802074 124.391235,43.520557 124.796906,43.115639 
z"/>
<path fill="#E1AFA4" opacity="1.000000" stroke="none" 
	d="
M112.893295,66.246361 
	C115.162506,66.353661 117.328926,66.719284 119.867416,67.064209 
	C120.204247,67.778389 120.168991,68.513275 120.038994,69.990021 
	C119.264473,73.489502 118.584686,76.247124 117.655411,79.267342 
	C116.955513,83.590759 116.021416,87.294815 110.977997,87.796799 
	C110.548233,87.007607 110.250710,86.486992 109.953186,85.966377 
	C109.967445,85.531769 109.981705,85.097160 110.340485,84.276428 
	C111.772659,81.914314 112.860298,79.938316 113.947937,77.962326 
	C113.562119,74.143105 113.176308,70.323891 112.893295,66.246361 
z"/>
<path fill="#F9EAE0" opacity="1.000000" stroke="none" 
	d="
M117.904900,79.004738 
	C118.584686,76.247124 119.264473,73.489502 120.064713,70.357712 
	C121.371407,70.816498 122.557663,71.649452 123.891083,72.780319 
	C122.445892,75.167191 120.853523,77.256157 118.886520,79.537277 
	C118.258163,79.530930 118.055832,79.289368 117.904900,79.004738 
z"/>
<path fill="#F6F1EE" opacity="1.000000" stroke="none" 
	d="
M129.968567,39.761326 
	C129.960052,40.090984 129.482895,40.058022 129.244568,40.039566 
	C128.756653,39.282402 128.507050,38.543694 128.257446,37.804985 
	C128.505386,37.677765 128.753326,37.550545 129.001266,37.423325 
	C129.326538,38.092773 129.651794,38.762218 129.968567,39.761326 
z"/>
<path fill="#F7EFEC" opacity="1.000000" stroke="none" 
	d="
M56.927940,68.896812 
	C56.894108,63.364681 58.914112,59.313457 63.394627,55.378773 
	C72.022987,72.486496 69.301277,90.241524 70.266144,107.570587 
	C61.089699,96.374512 54.324902,84.463493 56.927940,68.896812 
z"/>
<path fill="#AE5C57" opacity="1.000000" stroke="none" 
	d="
M87.053764,70.079414 
	C86.459648,67.084938 85.865532,64.090454 85.842896,61.309830 
	C88.620514,62.348587 90.826668,63.173481 93.397018,64.068741 
	C96.860573,65.444656 99.959938,66.750221 103.059296,68.055786 
	C102.050789,70.006027 101.042290,71.956276 100.101227,73.776093 
	C98.125145,72.760559 96.449348,71.899345 94.385864,70.693817 
	C93.497375,69.385719 92.996567,68.421928 92.495758,67.458138 
	C92.008034,67.964180 91.520317,68.470222 91.013863,68.990952 
	C90.995125,69.005630 90.960495,69.038399 90.598267,69.046806 
	C89.175278,69.396614 88.114517,69.738014 87.053764,70.079414 
z"/>
<path fill="#C77B7C" opacity="1.000000" stroke="none" 
	d="
M91.032600,68.976273 
	C91.520317,68.470222 92.008034,67.964180 92.495758,67.458138 
	C92.996567,68.421928 93.497375,69.385719 93.993866,70.710335 
	C94.464951,72.895477 94.940361,74.719788 95.657326,77.112984 
	C96.258186,81.109856 96.617500,84.537842 96.629150,87.928558 
	C93.518486,83.947868 90.755486,80.004448 87.992485,76.061028 
	C87.781425,74.296249 87.570374,72.531479 87.206543,70.423058 
	C88.114517,69.738014 89.175278,69.396614 90.606972,69.283707 
	C91.114929,69.774460 91.251945,70.036705 91.388962,70.298958 
	C91.270180,69.858063 91.151390,69.417168 91.032600,68.976273 
z"/>
<path fill="#953E38" opacity="1.000000" stroke="none" 
	d="
M112.102203,56.008255 
	C111.847672,58.766293 111.593132,61.524326 110.928589,64.648987 
	C110.347298,65.016670 110.176010,65.017738 109.705597,64.883453 
	C107.945923,64.849922 106.485352,64.951752 104.764214,65.039764 
	C104.329880,65.017418 104.156128,65.008896 103.985703,64.728577 
	C103.659111,63.971989 103.329185,63.487202 102.745468,63.009804 
	C102.322899,63.030090 102.154121,63.042992 101.994125,63.044243 
	C102.002914,63.032600 101.975906,63.032448 101.986740,62.655560 
	C101.993736,61.526157 101.989891,60.773647 102.030174,59.708969 
	C102.715744,58.597126 103.357193,57.797443 104.288498,56.876068 
	C105.407211,56.150070 106.236061,55.545769 107.435745,54.956230 
	C109.238457,55.316746 110.670326,55.662498 112.102203,56.008255 
z"/>
<path fill="#9B514B" opacity="1.000000" stroke="none" 
	d="
M103.982376,65.000381 
	C104.156128,65.008896 104.329880,65.017418 104.755562,65.357315 
	C104.999725,66.113136 104.991966,66.537590 104.984207,66.962044 
	C104.509216,67.246994 104.034218,67.531937 103.309265,67.936340 
	C99.959938,66.750221 96.860573,65.444656 93.241508,63.730240 
	C91.427483,60.198895 90.133171,57.076408 88.838860,53.953918 
	C88.838860,53.953918 88.914612,53.468555 89.276917,53.270119 
	C91.097595,53.729805 92.555969,54.387924 94.125885,55.254292 
	C94.439423,55.720619 94.697472,55.896530 95.017334,56.392662 
	C95.023117,58.451477 95.023117,60.107903 95.023117,62.197414 
	C95.555153,61.706200 95.923256,61.179935 96.094017,61.237644 
	C97.726517,61.789322 99.325653,62.439766 101.195206,63.071007 
	C101.629349,63.064243 101.802628,63.048344 101.975906,63.032448 
	C101.975906,63.032448 102.002914,63.032600 101.985794,63.315018 
	C101.980385,63.777843 101.992081,63.958248 102.190338,64.350487 
	C102.912071,64.708344 103.447220,64.854362 103.982376,65.000381 
z"/>
<path fill="#D29696" opacity="1.000000" stroke="none" 
	d="
M109.619179,85.976265 
	C110.250710,86.486992 110.548233,87.007607 110.955811,88.179688 
	C110.068085,91.878036 109.070297,94.924911 107.919212,98.288231 
	C107.523842,99.718826 107.281769,100.832985 106.789948,102.051102 
	C106.024620,101.745483 105.509026,101.335907 104.996658,100.525604 
	C105.332848,96.074684 105.665825,92.024490 105.998802,87.974304 
	C105.998802,87.974304 106.007378,88.004868 106.205017,87.892578 
	C106.666161,87.582397 106.862930,87.332054 106.992966,87.029266 
	C107.757034,86.681557 108.521103,86.333855 109.619179,85.976265 
z"/>
<path fill="#F2E5E5" opacity="1.000000" stroke="none" 
	d="
M104.051392,37.989902 
	C105.012886,37.227303 105.974373,36.464703 106.988678,35.374268 
	C108.506310,37.549442 109.971123,40.052452 111.702705,42.787369 
	C111.988449,44.731602 112.007416,46.443928 112.018654,48.585144 
	C111.308243,48.642204 110.605553,48.270370 109.465256,47.640495 
	C108.887947,47.262314 108.748238,47.142166 108.684372,46.674580 
	C107.190605,43.548061 105.621002,40.768982 104.051392,37.989902 
z"/>
<path fill="#D48D91" opacity="1.000000" stroke="none" 
	d="
M96.976822,87.965828 
	C96.617500,84.537842 96.258186,81.109856 95.929535,77.338791 
	C97.380592,78.103096 98.800995,79.210495 100.221397,80.317886 
	C99.816887,80.413925 99.412376,80.509964 99.007874,80.606010 
	C99.564880,84.478180 100.121895,88.350357 100.818703,92.852219 
	C100.943779,93.668053 100.929070,93.854187 100.522736,94.024399 
	C99.078278,94.009666 98.025429,94.010841 96.972580,94.012016 
	C96.972580,94.012016 97.004272,94.001488 97.003632,93.676071 
	C97.002563,92.897392 97.002121,92.444115 97.001678,91.588936 
	C96.993393,90.113297 96.985107,89.039558 96.976822,87.965828 
z"/>
<path fill="#76332A" opacity="1.000000" stroke="none" 
	d="
M108.608521,47.022018 
	C108.748238,47.142166 108.887947,47.262314 109.162582,47.624451 
	C109.099121,48.352371 108.900734,48.838306 108.452667,49.959984 
	C107.823624,52.044304 107.444260,53.492886 107.064896,54.941467 
	C106.236061,55.545769 105.407211,56.150070 104.147011,56.595737 
	C102.154816,55.975891 100.593971,55.514683 99.036743,54.671501 
	C99.049461,53.527515 99.058571,52.765503 99.452042,52.001415 
	C102.760445,50.340237 105.684479,48.681126 108.608521,47.022018 
z"/>
<path fill="#E5ADAD" opacity="1.000000" stroke="none" 
	d="
M100.914352,94.040314 
	C100.929070,93.854187 100.943779,93.668053 100.977760,93.201683 
	C101.482460,91.294838 101.967888,89.668213 102.398666,88.224739 
	C103.364052,88.224739 104.400711,88.224739 105.718086,88.099518 
	C105.665825,92.024490 105.332848,96.074684 104.745926,100.439301 
	C104.058189,100.446205 103.624413,100.138672 103.128586,99.476707 
	C102.349152,97.428284 101.631752,95.734299 100.914352,94.040314 
z"/>
<path fill="#A95753" opacity="1.000000" stroke="none" 
	d="
M105.280991,67.127350 
	C104.991966,66.537590 104.999725,66.113136 105.016136,65.371124 
	C106.485352,64.951752 107.945923,64.849922 109.826126,65.101486 
	C110.460007,65.723854 110.730270,65.912651 111.056564,66.021278 
	C110.168343,68.440544 109.280113,70.859810 108.391891,73.279076 
	C107.895081,73.111618 107.398277,72.944160 106.901474,72.776711 
	C106.460243,70.948692 106.019012,69.120674 105.280991,67.127350 
z"/>
<path fill="#9C584F" opacity="1.000000" stroke="none" 
	d="
M107.435738,54.956230 
	C107.444260,53.492886 107.823624,52.044304 108.376831,50.348450 
	C111.238068,50.896881 113.822647,51.769028 112.332825,55.753517 
	C110.670326,55.662498 109.238457,55.316746 107.435738,54.956230 
z"/>
<path fill="#D29696" opacity="1.000000" stroke="none" 
	d="
M113.577698,77.984070 
	C112.860298,79.938316 111.772659,81.914314 110.348801,83.950409 
	C111.077553,82.008942 112.142509,80.007378 113.577698,77.984070 
z"/>
<path fill="#E5ADAD" opacity="1.000000" stroke="none" 
	d="
M106.772537,87.132111 
	C106.862930,87.332054 106.666161,87.582397 106.189178,87.893631 
	C106.090042,87.691528 106.282181,87.434196 106.772537,87.132111 
z"/>
<path fill="#9C584F" opacity="1.000000" stroke="none" 
	d="
M111.062164,65.772430 
	C110.730270,65.912651 110.460007,65.723854 110.125244,65.236847 
	C110.176010,65.017738 110.347298,65.016670 110.775742,65.021286 
	C111.032913,65.026962 111.067764,65.523575 111.062164,65.772430 
z"/>
<path fill="#F6F1EE" opacity="1.000000" stroke="none" 
	d="
M114.889702,54.365833 
	C114.959335,54.349693 114.882553,54.478619 114.917252,54.540756 
	C114.951942,54.602898 114.820068,54.381973 114.889702,54.365833 
z"/>
<path fill="#8F5651" opacity="1.000000" stroke="none" 
	d="
M104.000320,116.996994 
	C105.406998,118.999588 106.813675,121.002190 108.600327,123.387833 
	C108.986366,124.507668 108.992424,125.244469 108.664780,125.985939 
	C107.886078,125.987808 107.441086,125.985001 106.911514,125.830734 
	C106.566261,125.762253 106.305595,125.845230 106.028625,126.297546 
	C105.637512,127.821381 105.262711,128.975876 104.670677,130.282776 
	C104.326569,130.949829 104.199684,131.464493 103.740952,132.108490 
	C99.449249,133.674774 95.433685,135.648712 92.098373,131.064606 
	C91.951851,130.663483 91.805336,130.262375 91.975311,129.513794 
	C93.898468,129.751099 95.505127,130.335846 97.160774,130.938431 
	C98.183022,127.665611 99.079956,124.793991 100.025192,121.580345 
	C100.772400,119.878265 101.471306,118.518204 102.475403,117.133194 
	C103.187172,117.071152 103.593742,117.034073 104.000320,116.996994 
z"/>
<path fill="#C27475" opacity="1.000000" stroke="none" 
	d="
M84.794350,114.330093 
	C84.943382,114.003845 85.150185,114.010117 86.083664,114.011948 
	C88.193405,113.280342 90.390953,112.853828 90.793068,111.764542 
	C91.679581,109.363022 91.660744,106.627304 92.328506,104.198051 
	C93.429779,106.280045 94.288956,108.166122 94.959724,110.116997 
	C95.215034,110.859535 94.774704,111.879921 95.104301,112.551369 
	C96.341072,115.070930 96.098930,114.900223 95.175575,117.015251 
	C94.565750,118.412125 95.011795,120.269966 94.766411,122.195648 
	C93.029579,121.794868 91.412735,121.277039 90.019928,120.402428 
	C88.505043,119.451164 87.198303,118.168449 85.800812,117.030243 
	C85.484581,116.241028 85.168350,115.451820 84.794350,114.330093 
z"/>
<path fill="#2258B5" opacity="1.000000" stroke="none" 
	d="
M101.978592,158.235992 
	C101.266808,158.193573 100.555031,158.151123 99.367371,157.876831 
	C98.601738,157.434174 98.311974,157.223373 98.022217,157.012589 
	C95.038643,155.054993 94.218880,152.291855 95.020355,148.577911 
	C96.600479,146.408356 98.172768,144.588959 100.201385,142.377106 
	C101.134399,141.651642 101.611084,141.318649 102.106125,141.369263 
	C103.070961,144.154938 102.640472,147.882828 107.305481,147.164474 
	C107.184044,149.137344 106.848145,150.856735 106.671738,151.759720 
	C104.410614,150.299713 102.661194,149.170105 100.610573,148.171234 
	C100.593185,149.207916 100.876991,150.113846 101.455353,151.080719 
	C100.883316,151.762985 100.016731,152.384338 99.087784,152.686707 
	C98.915352,152.067413 98.823372,151.758209 98.683052,151.472763 
	C98.645851,151.397064 98.459969,151.394470 98.342346,151.358322 
	C98.205017,152.700592 98.067688,154.042847 97.930359,155.385117 
	C98.242081,155.400467 98.553802,155.415833 98.865524,155.431183 
	C98.968735,154.957397 99.071945,154.483612 99.553207,154.024750 
	C100.677094,155.146942 101.422920,156.254181 102.164017,157.589386 
	C102.159279,157.817322 101.978592,158.235992 101.978592,158.235992 
z"/>
<path fill="#984A4B" opacity="1.000000" stroke="none" 
	d="
M85.817268,117.418556 
	C87.198303,118.168449 88.505043,119.451164 90.019928,120.402428 
	C91.412735,121.277039 93.029579,121.794868 95.087646,122.097122 
	C97.077339,121.790359 98.527107,121.856361 99.976883,121.922363 
	C99.079956,124.793991 98.183022,127.665611 97.160774,130.938431 
	C95.505127,130.335846 93.898468,129.751099 91.890930,129.204758 
	C89.604614,125.431068 87.719170,121.618965 85.817268,117.418556 
z"/>
<path fill="#754C42" opacity="1.000000" stroke="none" 
	d="
M102.087769,140.985657 
	C101.611084,141.318649 101.134399,141.651642 100.391312,142.107620 
	C97.152588,139.123810 92.004219,138.291733 90.815872,133.374741 
	C90.699295,132.892410 91.420059,132.207703 91.925270,131.340759 
	C95.433685,135.648712 99.449249,133.674774 103.759285,132.408386 
	C104.417023,133.050629 104.724586,133.522339 105.015640,133.997772 
	C104.999115,134.001511 105.002403,133.968170 105.029861,134.194061 
	C105.057327,134.419937 105.148102,134.865891 104.963448,135.012604 
	C105.176262,135.782593 105.573730,136.405869 105.682465,137.069550 
	C104.966896,137.453491 104.540062,137.797043 104.063889,138.443695 
	C103.962296,139.152084 103.910042,139.557373 103.587036,140.005157 
	C102.906776,140.360336 102.497276,140.672989 102.087769,140.985657 
z"/>
<path fill="#C9C9CC" opacity="1.000000" stroke="none" 
	d="
M89.285378,143.980759 
	C88.379463,144.684464 87.473541,145.388168 86.281769,145.989410 
	C85.495392,143.327606 86.833939,142.249115 89.423340,142.228821 
	C89.555603,142.990326 89.420494,143.485550 89.285378,143.980759 
z"/>
<path fill="#2258B5" opacity="1.000000" stroke="none" 
	d="
M89.594574,143.992737 
	C89.420494,143.485550 89.555603,142.990326 89.726028,142.226746 
	C90.417458,142.612625 91.073570,143.266861 91.435272,143.991241 
	C90.728493,144.042496 90.316124,144.023605 89.594574,143.992737 
z"/>
<path fill="#C9C9CC" opacity="1.000000" stroke="none" 
	d="
M85.005791,137.996399 
	C85.337845,138.625031 85.662964,139.258362 85.988083,139.891693 
	C85.753525,139.967346 85.518959,140.042999 85.284393,140.118652 
	C85.185135,139.613708 85.085876,139.108765 84.986252,138.308868 
	C84.985878,138.013901 84.998863,138.001083 85.005791,137.996399 
z"/>
<path fill="#D7CBCA" opacity="1.000000" stroke="none" 
	d="
M81.028397,141.982819 
	C81.403610,142.400604 81.705124,142.884293 81.999542,143.688416 
	C81.992439,144.008850 81.932114,144.062531 81.701630,143.894745 
	C81.250839,143.212555 81.030533,142.698151 80.810234,142.183746 
	C80.810234,142.183746 80.954704,142.048737 81.028397,141.982819 
z"/>
<path fill="#D7CBCA" opacity="1.000000" stroke="none" 
	d="
M82.023315,143.982834 
	C82.348984,144.197433 82.643791,144.438034 83.079361,144.933228 
	C83.220131,145.187790 83.144920,145.161163 82.873497,145.031769 
	C82.378754,144.622421 82.155434,144.342468 81.932114,144.062531 
	C81.932114,144.062531 81.992439,144.008850 82.023315,143.982834 
z"/>
<path fill="#F7EEED" opacity="1.000000" stroke="none" 
	d="
M81.701630,143.894745 
	C82.155434,144.342468 82.378754,144.622421 82.859940,144.994247 
	C80.473946,145.925980 77.830093,146.765823 75.080399,146.978638 
	C74.334358,145.890320 73.694176,145.429031 73.053993,144.967743 
	C73.053993,144.967743 73.040024,144.950912 73.049942,144.936127 
	C70.945145,141.964035 68.830429,139.006699 66.370331,136.018707 
	C65.554535,134.764526 65.084114,133.541016 64.313522,132.153687 
	C63.565891,131.345474 63.118439,130.701111 62.358673,130.006653 
	C59.478790,124.623428 56.907562,119.292023 54.346973,113.955505 
	C53.883114,112.988777 53.462872,112.001114 53.022491,111.023117 
	C53.453911,110.673820 53.885330,110.324516 54.316753,109.975220 
	C57.814713,113.848648 61.328228,117.708183 64.804955,121.600578 
	C66.979828,124.035484 69.099281,126.519890 71.580360,129.030563 
	C74.669632,133.378174 77.422142,137.677292 80.492447,142.080078 
	C81.030533,142.698151 81.250839,143.212555 81.701630,143.894745 
z"/>
<path fill="#C4DDFD" opacity="1.000000" stroke="none" 
	d="
M70.089577,153.644196 
	C69.062744,154.694153 68.079712,155.373871 67.096680,156.053589 
	C66.693878,155.884720 66.291077,155.715836 65.888275,155.546951 
	C66.255501,153.699356 66.622726,151.851746 67.077591,149.642242 
	C68.164566,148.955276 69.163879,148.630219 70.163193,148.305161 
	C70.153252,149.961441 70.143311,151.617706 70.089577,153.644196 
z"/>
<path fill="#F6F1EE" opacity="1.000000" stroke="none" 
	d="
M81.193657,152.949493 
	C81.193657,152.949493 81.028297,152.478821 80.948425,152.242401 
	C83.640228,150.825790 86.508331,149.283615 87.247215,154.016983 
	C84.893036,153.779282 83.043350,153.364395 81.193657,152.949493 
z"/>
<path fill="#D7D2D4" opacity="1.000000" stroke="none" 
	d="
M81.215622,153.291260 
	C83.043350,153.364395 84.893036,153.779282 87.073395,154.340881 
	C86.066048,155.353012 84.728027,156.218430 83.189163,156.784515 
	C82.404739,155.534470 81.821167,154.583740 81.215622,153.291260 
z"/>
<path fill="#F6F1EE" opacity="1.000000" stroke="none" 
	d="
M97.696762,157.131104 
	C98.311974,157.223373 98.601738,157.434174 99.010620,157.899216 
	C98.648048,159.447754 98.166351,160.742035 97.394730,162.815292 
	C96.162155,161.388382 95.414009,160.522278 94.578690,159.289490 
	C95.451447,158.365067 96.411369,157.807358 97.696762,157.131104 
z"/>
<path fill="#F6F1EE" opacity="1.000000" stroke="none" 
	d="
M90.005463,161.301208 
	C89.696182,160.838226 89.354362,160.714355 88.988602,160.293564 
	C90.215065,159.488190 91.465469,158.979736 93.105286,158.698883 
	C92.925819,160.094742 92.356941,161.263031 91.354355,162.464691 
	C90.604736,162.212143 90.288826,161.926224 90.005463,161.301208 
z"/>
<path fill="#D7D2D4" opacity="1.000000" stroke="none" 
	d="
M73.037048,145.265701 
	C73.694176,145.429031 74.334358,145.890320 74.985138,146.680878 
	C74.437935,146.880478 73.880135,146.750809 73.152824,146.390259 
	C72.995575,145.960815 73.007843,145.762238 73.037048,145.265701 
z"/>
<path fill="#D28E87" opacity="1.000000" stroke="none" 
	d="
M96.629150,87.928558 
	C96.985107,89.039558 96.993393,90.113297 96.648926,91.595299 
	C95.184181,92.340080 94.072182,92.676582 92.960190,93.013084 
	C90.734612,90.740662 91.047707,86.698715 87.289818,84.713379 
	C86.668434,81.083221 86.336189,78.032494 86.003944,74.981773 
	C86.496780,75.258415 86.989609,75.535057 87.737465,75.936363 
	C90.755486,80.004448 93.518486,83.947868 96.629150,87.928558 
z"/>
<path fill="#BA6762" opacity="1.000000" stroke="none" 
	d="
M88.493622,53.971680 
	C90.133171,57.076408 91.427483,60.198895 92.877304,63.659878 
	C90.826668,63.173481 88.620514,62.348587 86.199158,61.249504 
	C85.967957,59.787300 86.340042,58.405716 85.862343,57.447994 
	C84.495132,54.706940 86.161217,54.322041 88.493622,53.971680 
z"/>
<path fill="#743B2E" opacity="1.000000" stroke="none" 
	d="
M94.014351,55.046043 
	C92.555969,54.387924 91.097595,53.729805 89.326881,53.029633 
	C88.696793,50.590851 88.379028,48.194111 88.260452,45.471668 
	C89.139572,45.352989 89.819504,45.560017 90.784790,46.208977 
	C92.045883,47.759148 93.021629,48.867390 93.757195,50.197044 
	C93.682793,51.960983 93.848572,53.503513 94.014351,55.046043 
z"/>
<path fill="#C78C7C" opacity="1.000000" stroke="none" 
	d="
M85.997620,74.727829 
	C86.336189,78.032494 86.668434,81.083221 87.001526,84.567062 
	C86.494225,85.563675 85.986076,86.127167 85.236931,86.848465 
	C84.477692,84.632599 83.570595,82.260109 83.563530,79.884926 
	C83.557831,77.965279 84.636711,76.042412 85.600647,74.043701 
	C85.974983,74.135597 85.983139,74.304749 85.997620,74.727829 
z"/>
<path fill="#2165C9" opacity="1.000000" stroke="none" 
	d="
M21.123890,155.907288 
	C22.690140,157.911957 22.572382,158.059921 19.161470,158.354553 
	C19.541254,157.463165 20.140083,156.723083 21.123890,155.907288 
z"/>
<path fill="#2165C9" opacity="1.000000" stroke="none" 
	d="
M18.566845,146.827545 
	C18.485565,146.894196 18.440868,146.506363 18.547436,146.343079 
	C18.778122,146.378433 18.776163,146.572128 18.566845,146.827545 
z"/>
<path fill="#F2E5E5" opacity="1.000000" stroke="none" 
	d="
M124.882256,128.543762 
	C122.677917,134.793259 120.503433,140.593994 118.171638,146.711121 
	C116.251877,146.993713 114.489426,146.959915 112.014877,146.847900 
	C109.857437,146.784775 108.412094,146.799896 106.948318,146.395859 
	C109.145653,141.663223 111.361435,137.349762 113.752151,132.784424 
	C114.033203,132.140945 114.139320,131.749298 114.513145,131.237366 
	C114.585411,130.007187 114.389969,128.897293 114.140511,127.553879 
	C113.831932,126.935135 113.577370,126.549896 113.295807,126.124237 
	C113.268806,126.083801 113.236732,126.175598 113.521950,126.036469 
	C113.917656,125.278595 114.028145,124.659851 114.460495,124.017517 
	C115.371117,123.799347 115.959869,123.604774 116.548622,123.410202 
	C114.283951,119.509628 117.309753,116.475830 118.238083,113.098389 
	C118.238083,113.098389 118.718231,113.127838 118.959213,113.109230 
	C121.108398,111.496185 123.016602,109.901749 126.262024,107.189972 
	C125.749596,115.125488 125.330849,121.610260 124.882256,128.543762 
z"/>
<path fill="#BB757A" opacity="1.000000" stroke="none" 
	d="
M104.074371,116.641251 
	C103.593742,117.034073 103.187172,117.071152 102.435211,116.747101 
	C102.632332,114.922028 103.719292,113.416458 103.611137,112.002296 
	C103.331589,108.347084 102.524551,104.732224 102.076859,100.834961 
	C102.547234,100.322823 102.868927,100.076981 103.190628,99.831146 
	C103.624413,100.138672 104.058189,100.446205 104.742706,100.840027 
	C105.509026,101.335907 106.024620,101.745483 107.030090,102.061729 
	C107.519974,101.968399 107.999817,101.929779 107.999817,101.929779 
	C108.534554,103.108307 109.069290,104.286835 109.800674,105.746902 
	C109.092758,108.528267 108.188179,111.028091 107.283600,113.527916 
	C107.706177,113.719231 108.128746,113.910538 108.551315,114.101845 
	C107.083679,114.829727 105.616051,115.557610 104.074371,116.641251 
M104.487442,105.573044 
	C104.487442,105.573044 104.432968,105.477249 104.487442,105.573044 
M103.430153,103.488205 
	C103.430153,103.488205 103.526634,103.435310 103.430153,103.488205 
z"/>
<path fill="#B05D65" opacity="1.000000" stroke="none" 
	d="
M117.895599,112.961006 
	C117.309753,116.475830 114.283951,119.509628 116.548622,123.410202 
	C115.959869,123.604774 115.371117,123.799347 114.169464,124.011932 
	C113.449951,124.745171 113.343338,125.460381 113.236732,126.175598 
	C113.236732,126.175598 113.268806,126.083801 112.858994,126.071335 
	C111.298943,126.032990 110.148712,126.007126 108.998482,125.981262 
	C108.992424,125.244469 108.986366,124.507668 108.974579,123.403564 
	C110.133202,122.643867 111.297546,122.251480 112.922386,121.703896 
	C113.225357,119.860191 113.309204,117.358353 114.144333,115.139244 
	C114.539749,114.088562 116.371895,113.578583 117.895599,112.961006 
z"/>
<path fill="#C6858D" opacity="1.000000" stroke="none" 
	d="
M117.192902,106.964668 
	C117.575874,107.334305 117.726067,107.818680 117.874985,108.684830 
	C117.569176,108.404213 117.264641,107.741806 117.192902,106.964668 
z"/>
<path fill="#B86E75" opacity="1.000000" stroke="none" 
	d="
M112.255531,106.004845 
	C112.280373,105.897369 112.544510,105.790192 112.891022,105.845276 
	C112.973404,106.007530 112.494827,106.005142 112.255531,106.004845 
z"/>
<path fill="#C68281" opacity="1.000000" stroke="none" 
	d="
M103.128586,99.476700 
	C102.868927,100.076981 102.547234,100.322823 101.818443,101.062386 
	C100.638992,103.442589 99.866638,105.329071 99.576927,106.036697 
	C96.447670,104.366409 94.227623,103.181419 92.005035,101.661903 
	C91.995567,100.881226 91.988640,100.435081 91.981720,99.988937 
	C95.545197,100.077087 97.057861,98.193405 96.978790,94.398636 
	C98.025429,94.010841 99.078278,94.009666 100.522736,94.024399 
	C101.631752,95.734299 102.349152,97.428284 103.128586,99.476700 
z"/>
<path fill="#D29491" opacity="1.000000" stroke="none" 
	d="
M91.552933,99.990288 
	C91.988640,100.435081 91.995567,100.881226 92.002930,102.000351 
	C92.006035,103.124870 92.008690,103.576416 92.011345,104.027954 
	C91.660744,106.627304 91.679581,109.363022 90.793068,111.764542 
	C90.390953,112.853828 88.193405,113.280342 86.393402,113.992447 
	C85.975998,109.614113 85.975533,105.250839 85.963120,100.449860 
	C87.675499,100.005310 89.399818,99.998474 91.552933,99.990288 
z"/>
<path fill="#C68281" opacity="1.000000" stroke="none" 
	d="
M92.837433,93.320534 
	C94.072182,92.676582 95.184181,92.340080 96.648926,91.997208 
	C97.002121,92.444115 97.002563,92.897392 96.995796,93.690948 
	C95.691391,94.956772 94.394196,95.882301 92.230965,97.425735 
	C92.470482,95.545158 92.592575,94.586571 92.837433,93.320534 
z"/>
<path fill="#F7EEEB" opacity="1.000000" stroke="none" 
	d="
M135.959549,79.600845 
	C133.092941,82.368118 130.197510,84.742836 127.356674,87.181183 
	C125.990929,88.353439 124.728287,89.645836 123.379295,90.921326 
	C122.729546,89.791786 122.222069,88.909584 121.449036,87.940445 
	C121.464584,85.826714 121.745674,83.799904 122.051590,81.380508 
	C126.809982,72.697250 134.730225,67.650108 141.907776,61.387344 
	C143.468719,60.598129 144.858200,60.094055 147.755997,59.042797 
	C144.932449,63.789669 142.724594,67.458015 140.561447,71.152542 
	C138.994659,73.828537 137.487137,76.539230 135.959549,79.600845 
z"/>
<path fill="#EDBDBB" opacity="1.000000" stroke="none" 
	d="
M108.072510,97.971794 
	C109.070297,94.924911 110.068085,91.878036 111.088051,88.448265 
	C116.021416,87.294815 116.955513,83.590759 117.655411,79.267342 
	C118.055832,79.289368 118.258163,79.530930 118.726501,79.827049 
	C119.212387,80.132210 119.483658,80.339760 119.876396,80.774269 
	C117.006042,86.421783 114.014221,91.842339 111.017975,97.638306 
	C111.013535,98.013702 111.003555,98.002274 110.639809,97.999687 
	C109.541542,97.988670 108.807030,97.980232 108.072510,97.971794 
z"/>
<path fill="#F6F1EE" opacity="1.000000" stroke="none" 
	d="
M129.373688,68.241196 
	C129.391037,67.987671 129.527039,67.850075 129.663055,67.712479 
	C129.606155,67.927368 129.549255,68.142250 129.373688,68.241196 
z"/>
<path fill="#E5EAF3" opacity="1.000000" stroke="none" 
	d="
M102.022537,158.578857 
	C101.978592,158.235992 102.159279,157.817322 102.469696,157.422791 
	C103.692101,156.401352 104.604088,155.774414 104.765610,155.663391 
	C106.117783,156.899445 107.102776,157.799850 108.087753,158.700256 
	C109.047806,157.565720 110.360291,156.571426 110.881302,155.262177 
	C111.578072,153.511230 111.661179,151.516052 112.007812,149.625763 
	C114.178223,148.636658 115.169327,149.314117 114.873573,151.698441 
	C114.609421,153.827942 114.289864,155.950546 114.049004,158.484558 
	C110.729576,161.957336 107.355904,165.021774 103.386024,168.627762 
	C102.557358,166.331268 102.025040,164.856049 101.205421,163.163452 
	C101.300911,161.604630 101.683701,160.263184 102.022537,158.578857 
z"/>
<path fill="#2165C9" opacity="1.000000" stroke="none" 
	d="
M47.643585,145.963470 
	C48.460869,146.152802 48.946423,146.475159 49.697784,146.931564 
	C50.124634,147.370667 50.285667,147.675720 50.708252,148.010071 
	C50.607231,148.799637 50.244663,149.559906 49.961609,150.638992 
	C50.041119,150.957794 49.982197,150.995590 49.690475,150.862518 
	C47.922028,150.487289 46.445301,150.245132 44.968575,150.002991 
	C45.749668,148.700821 46.530758,147.398666 47.643585,145.963470 
z"/>
<path fill="#F6F1EE" opacity="1.000000" stroke="none" 
	d="
M57.010101,143.171875 
	C57.023129,143.327744 56.771103,143.636993 56.282715,144.130325 
	C56.279255,143.984680 56.512154,143.654968 57.010101,143.171875 
z"/>
<path fill="#2A69C9" opacity="1.000000" stroke="none" 
	d="
M36.457150,155.664032 
	C36.881824,155.952469 36.926525,156.224014 37.035255,156.903564 
	C31.985550,159.715622 30.674421,158.946182 30.868000,153.718369 
	C30.939800,151.779297 30.879606,149.835358 30.879606,147.189972 
	C31.558271,146.946442 32.901463,146.464478 34.622040,145.964264 
	C35.025063,147.629822 34.930115,149.326721 35.111317,150.993607 
	C35.281734,152.561249 35.743561,154.097229 36.457150,155.664032 
z"/>
<path fill="#3268B9" opacity="1.000000" stroke="none" 
	d="
M49.070808,158.130463 
	C47.268185,158.089111 45.441921,157.685135 43.296379,157.179291 
	C42.979958,156.902420 42.982811,156.727432 43.205208,156.162292 
	C43.602467,155.490845 43.780186,155.209549 43.957901,154.928238 
	C44.759373,155.227997 45.560844,155.527756 46.813244,156.181763 
	C47.842915,156.704880 48.421658,156.873764 49.000397,157.042648 
	C49.015991,157.284393 49.031582,157.526123 49.070808,158.130463 
z"/>
<path fill="#2A69C9" opacity="1.000000" stroke="none" 
	d="
M44.947937,150.330566 
	C46.445301,150.245132 47.922028,150.487289 49.659500,150.878815 
	C48.967991,151.495880 48.015736,151.963547 47.035927,152.692734 
	C46.314678,152.188858 45.620991,151.423492 44.947937,150.330566 
z"/>
<path fill="#2A69C9" opacity="1.000000" stroke="none" 
	d="
M39.601353,146.975555 
	C39.564259,148.682480 39.226891,150.610458 38.597977,152.750000 
	C38.637981,151.039902 38.969528,149.118256 39.601353,146.975555 
z"/>
<path fill="#2A69C9" opacity="1.000000" stroke="none" 
	d="
M42.292549,152.692291 
	C42.207855,151.691849 42.266983,150.377289 42.578827,149.020264 
	C42.699821,150.111267 42.568096,151.244720 42.292549,152.692291 
z"/>
<path fill="#B5D8F4" opacity="1.000000" stroke="none" 
	d="
M49.200676,156.945679 
	C48.421658,156.873764 47.842915,156.704880 47.066006,156.307251 
	C47.347061,156.052658 47.826286,156.026810 48.665497,155.997711 
	C49.248810,156.168427 49.472137,156.342422 49.695461,156.516403 
	C49.597290,156.627167 49.499119,156.737946 49.200676,156.945679 
z"/>
<path fill="#2A69C9" opacity="1.000000" stroke="none" 
	d="
M43.654720,154.968582 
	C43.780186,155.209549 43.602467,155.490845 43.205208,155.899750 
	C42.740387,155.787903 42.495110,155.548447 42.200676,155.054108 
	C42.551525,154.869110 42.951534,154.939026 43.654720,154.968582 
z"/>
<path fill="#B5D8F4" opacity="1.000000" stroke="none" 
	d="
M48.082024,154.299850 
	C48.332806,154.107269 48.576115,154.247467 48.738266,154.763977 
	C48.502892,154.872528 48.308708,154.703308 48.082024,154.299850 
z"/>
<path fill="#2A69C9" opacity="1.000000" stroke="none" 
	d="
M38.804287,157.400574 
	C38.968201,157.340790 39.207401,157.516907 39.341434,157.836548 
	C39.236267,157.980072 38.879574,157.636475 38.804287,157.400574 
z"/>
<path fill="#1C61CA" opacity="1.000000" stroke="none" 
	d="
M112.004448,149.308105 
	C111.661179,151.516052 111.578072,153.511230 110.881302,155.262177 
	C110.360291,156.571426 109.047806,157.565720 108.087753,158.700256 
	C107.102776,157.799850 106.117783,156.899445 104.765610,155.663391 
	C104.604088,155.774414 103.692101,156.401352 102.474426,157.194855 
	C101.422920,156.254181 100.677094,155.146942 99.493271,153.775024 
	C99.086899,153.342133 99.118515,153.173920 99.150139,153.005692 
	C100.016731,152.384338 100.883316,151.762985 101.407875,150.708191 
	C101.014488,149.530014 100.963127,148.785248 100.911774,148.040497 
	C102.661194,149.170105 104.410614,150.299713 106.671738,151.759720 
	C106.848145,150.856735 107.184044,149.137344 107.277321,147.136719 
	C107.034691,146.855499 106.966759,146.815018 106.966759,146.815018 
	C108.412094,146.799896 109.857437,146.784775 111.655739,146.926422 
	C112.006165,147.718933 112.003624,148.354706 112.004448,149.308105 
z"/>
<path fill="#6B3B2F" opacity="1.000000" stroke="none" 
	d="
M108.684372,46.674580 
	C105.684479,48.681126 102.760445,50.340237 99.389008,51.657562 
	C97.626411,49.866657 96.311226,48.417534 94.776459,46.716869 
	C93.688156,46.304840 92.819443,46.144356 91.950729,45.983875 
	C92.713783,44.351040 93.476830,42.718208 94.903809,41.164040 
	C97.025116,41.158539 98.482491,41.074364 99.939873,40.990192 
	C100.423256,41.786129 100.906647,42.582062 102.082191,44.517689 
	C102.324219,41.613022 102.461044,39.970932 102.845352,38.146172 
	C103.092827,37.963501 103.571419,38.001247 103.811401,37.995575 
	C105.621002,40.768982 107.190605,43.548061 108.684372,46.674580 
M99.283073,43.829777 
	C99.388634,43.976048 99.494194,44.122318 99.599762,44.268589 
	C99.579323,44.066784 99.558884,43.864979 99.283073,43.829777 
z"/>
<path fill="#6B3B2F" opacity="1.000000" stroke="none" 
	d="
M95.679306,34.217918 
	C96.928757,35.074669 97.934555,36.137978 98.708855,37.436661 
	C97.290550,38.130676 96.103737,38.589329 94.916931,39.047981 
	C95.089844,37.506813 95.262749,35.965649 95.679306,34.217918 
z"/>
<path fill="#6F3F33" opacity="1.000000" stroke="none" 
	d="
M94.931229,39.368748 
	C96.103737,38.589329 97.290550,38.130676 98.690033,37.825199 
	C99.239586,38.767986 99.576462,39.557602 99.926605,40.668705 
	C98.482491,41.074364 97.025116,41.158539 95.265289,41.108391 
	C94.957069,40.545887 94.951294,40.117702 94.931229,39.368748 
z"/>
<path fill="#6F3F33" opacity="1.000000" stroke="none" 
	d="
M91.713501,45.981899 
	C92.819443,46.144356 93.688156,46.304840 94.794830,47.014015 
	C94.687653,48.367012 94.342514,49.171322 93.997375,49.975632 
	C93.021629,48.867390 92.045883,47.759148 91.036057,46.321877 
	C91.001961,45.992844 91.476273,45.979923 91.713501,45.981899 
z"/>
<path fill="#E2B1B2" opacity="1.000000" stroke="none" 
	d="
M107.919212,98.288231 
	C108.807030,97.980232 109.541542,97.988670 110.644615,98.005310 
	C110.132690,99.143799 109.252213,100.274086 108.185776,101.667076 
	C107.999817,101.929779 107.519974,101.968399 107.279831,101.957771 
	C107.281769,100.832985 107.523842,99.718826 107.919212,98.288231 
z"/>
<path fill="#AE5C57" opacity="1.000000" stroke="none" 
	d="
M91.013863,68.990952 
	C91.151390,69.417168 91.270180,69.858063 91.388962,70.298958 
	C91.251945,70.036705 91.114929,69.774460 90.969208,69.275299 
	C90.960495,69.038399 90.995125,69.005630 91.013863,68.990952 
z"/>
<path fill="#873C35" opacity="1.000000" stroke="none" 
	d="
M99.033134,55.053474 
	C100.593971,55.514683 102.154816,55.975891 103.857147,56.717434 
	C103.357193,57.797443 102.715744,58.597126 101.768257,59.918266 
	C101.286263,61.313778 101.110306,62.187828 100.934357,63.061874 
	C99.325653,62.439766 97.726517,61.789322 96.094017,61.237644 
	C95.923256,61.179935 95.555153,61.706200 95.023117,62.197414 
	C95.023117,60.107903 95.023117,58.451477 95.015755,56.133656 
	C95.009338,55.299522 95.010284,55.126785 95.260246,54.977722 
	C95.676010,55.002754 95.842766,55.004120 96.387184,55.004177 
	C97.520935,55.019733 98.277039,55.036602 99.033134,55.053474 
z"/>
<path fill="#A95753" opacity="1.000000" stroke="none" 
	d="
M103.985703,64.728577 
	C103.447220,64.854362 102.912071,64.708344 102.406784,64.206947 
	C102.624191,63.568516 102.811729,63.285465 102.999268,63.002411 
	C103.329185,63.487202 103.659111,63.971989 103.985703,64.728577 
z"/>
<path fill="#76332A" opacity="1.000000" stroke="none" 
	d="
M101.195206,63.071007 
	C101.110306,62.187828 101.286263,61.313778 101.724129,60.230431 
	C101.989891,60.773647 101.993736,61.526157 101.986740,62.655560 
	C101.802628,63.048344 101.629349,63.064243 101.195206,63.071007 
z"/>
<path fill="#873C35" opacity="1.000000" stroke="none" 
	d="
M102.745468,63.009804 
	C102.811729,63.285465 102.624191,63.568516 102.220207,63.995110 
	C101.992081,63.958248 101.980385,63.777843 101.977013,63.326664 
	C102.154121,63.042992 102.322899,63.030090 102.745468,63.009804 
z"/>
<path fill="#8D4D45" opacity="1.000000" stroke="none" 
	d="
M99.036743,54.671501 
	C98.277039,55.036602 97.520935,55.019733 96.297928,54.847099 
	C95.557762,54.778904 95.284492,54.866478 95.011230,54.954052 
	C95.010284,55.126785 95.009338,55.299522 95.009979,55.731270 
	C94.697472,55.896530 94.439423,55.720619 94.125885,55.254292 
	C93.848572,53.503513 93.682793,51.960983 93.757195,50.197041 
	C94.342514,49.171322 94.687653,48.367012 95.014420,47.265560 
	C96.311226,48.417534 97.626411,49.866657 99.004646,51.659634 
	C99.058571,52.765503 99.049461,53.527515 99.036743,54.671501 
z"/>
<path fill="#D48D91" opacity="1.000000" stroke="none" 
	d="
M92.328506,104.198051 
	C92.008690,103.576416 92.006035,103.124870 92.005478,102.334885 
	C94.227623,103.181419 96.447670,104.366409 99.576927,106.036697 
	C99.866638,105.329071 100.638992,103.442589 101.669754,101.328674 
	C102.524551,104.732224 103.331589,108.347084 103.611137,112.002296 
	C103.719292,113.416458 102.632332,114.922028 102.130020,116.772049 
	C101.471306,118.518204 100.772400,119.878265 100.025192,121.580345 
	C98.527107,121.856361 97.077339,121.790359 95.306335,121.822891 
	C95.011795,120.269966 94.565750,118.412125 95.175575,117.015251 
	C96.098930,114.900223 96.341072,115.070930 95.104301,112.551369 
	C94.774704,111.879921 95.215034,110.859535 94.959724,110.116997 
	C94.288956,108.166122 93.429779,106.280045 92.328506,104.198051 
z"/>
<path fill="#96434A" opacity="1.000000" stroke="none" 
	d="
M108.664780,125.985939 
	C110.148712,126.007126 111.298943,126.032990 112.885986,126.111763 
	C113.577370,126.549896 113.831932,126.935135 114.076309,127.997543 
	C114.125893,129.569046 114.185669,130.463348 114.245445,131.357666 
	C114.139320,131.749298 114.033203,132.140945 113.492249,132.780670 
	C112.711273,133.067657 112.365120,133.106567 111.707779,132.965240 
	C109.248070,131.857468 107.099548,130.929947 104.957718,130.045517 
	C104.964424,130.088593 104.887909,130.130371 104.887909,130.130371 
	C105.262711,128.975876 105.637512,127.821381 106.265808,126.316978 
	C106.519310,125.967064 106.996094,125.982201 106.996094,125.982201 
	C107.441086,125.985001 107.886078,125.987808 108.664780,125.985939 
z"/>
<path fill="#98787F" opacity="1.000000" stroke="none" 
	d="
M105.032158,133.994034 
	C104.724586,133.522339 104.417023,133.050629 104.091125,132.279037 
	C104.199684,131.464493 104.326569,130.949829 104.670685,130.282776 
	C104.887909,130.130371 104.964424,130.088593 104.945740,130.445312 
	C104.962097,131.866028 104.997124,132.930038 105.032158,133.994034 
z"/>
<path fill="#B05D65" opacity="1.000000" stroke="none" 
	d="
M106.911514,125.830734 
	C106.996094,125.982201 106.519310,125.967064 106.282120,125.947632 
	C106.305595,125.845230 106.566261,125.762253 106.911514,125.830734 
z"/>
<path fill="#7D5F69" opacity="1.000000" stroke="none" 
	d="
M112.018967,133.145493 
	C112.365120,133.106567 112.711273,133.067657 113.317322,133.032516 
	C111.361435,137.349762 109.145653,141.663223 106.948318,146.395859 
	C106.966759,146.815018 107.034691,146.855499 107.062851,146.883240 
	C102.640472,147.882828 103.070961,144.154938 102.106125,141.369263 
	C102.497276,140.672989 102.906776,140.360336 103.759491,140.227875 
	C104.172874,139.652252 104.143044,138.896408 104.113220,138.140579 
	C104.540062,137.797043 104.966896,137.453491 106.062897,137.088715 
	C108.494362,135.760147 110.256660,134.452820 112.018967,133.145493 
z"/>
<path fill="#C4DDFD" opacity="1.000000" stroke="none" 
	d="
M99.087784,152.686707 
	C99.118515,153.173920 99.086899,153.342133 99.115219,153.760101 
	C99.071945,154.483612 98.968735,154.957397 98.865524,155.431183 
	C98.553802,155.415833 98.242081,155.400467 97.930359,155.385117 
	C98.067688,154.042847 98.205017,152.700592 98.342346,151.358322 
	C98.459969,151.394470 98.645851,151.397064 98.683052,151.472763 
	C98.823372,151.758209 98.915352,152.067413 99.087784,152.686707 
z"/>
<path fill="#E5EAF3" opacity="1.000000" stroke="none" 
	d="
M100.610580,148.171234 
	C100.963127,148.785248 101.014488,149.530014 101.113319,150.647278 
	C100.876991,150.113846 100.593185,149.207916 100.610580,148.171234 
z"/>
<path fill="#6C332D" opacity="1.000000" stroke="none" 
	d="
M111.707779,132.965240 
	C110.256660,134.452820 108.494362,135.760147 106.351631,137.048309 
	C105.573730,136.405869 105.176262,135.782593 105.141457,134.932922 
	C105.336884,134.460403 105.169640,134.214294 105.002403,133.968170 
	C105.002403,133.968170 104.999115,134.001511 105.015640,133.997772 
	C104.997124,132.930038 104.962097,131.866028 104.939041,130.402237 
	C107.099548,130.929947 109.248070,131.857468 111.707779,132.965240 
z"/>
<path fill="#DBCECB" opacity="1.000000" stroke="none" 
	d="
M104.063889,138.443695 
	C104.143044,138.896408 104.172874,139.652252 104.030243,140.185364 
	C103.910042,139.557373 103.962296,139.152084 104.063889,138.443695 
z"/>
<path fill="#98787F" opacity="1.000000" stroke="none" 
	d="
M105.029861,134.194061 
	C105.169640,134.214294 105.336884,134.460403 105.326111,134.786209 
	C105.148102,134.865891 105.057327,134.419937 105.029861,134.194061 
z"/>
<path fill="#7D5F69" opacity="1.000000" stroke="none" 
	d="
M114.513145,131.237366 
	C114.185669,130.463348 114.125893,129.569046 114.130325,128.231064 
	C114.389969,128.897293 114.585411,130.007187 114.513145,131.237366 
z"/>
<path fill="#96434A" opacity="1.000000" stroke="none" 
	d="
M113.521950,126.036469 
	C113.343338,125.460381 113.449951,124.745171 113.847595,124.035538 
	C114.028145,124.659851 113.917656,125.278595 113.521950,126.036469 
z"/>
<path fill="#C68281" opacity="1.000000" stroke="none" 
	d="
M104.460205,105.525146 
	C104.432968,105.477249 104.487442,105.573044 104.460205,105.525146 
z"/>
<path fill="#C68281" opacity="1.000000" stroke="none" 
	d="
M103.478394,103.461761 
	C103.526634,103.435310 103.430153,103.488205 103.478394,103.461761 
z"/>
<path fill="#55251B" opacity="1.000000" stroke="none" 
	d="
M99.410759,43.746475 
	C99.558884,43.864979 99.579323,44.066784 99.599762,44.268585 
	C99.494194,44.122318 99.388634,43.976048 99.410759,43.746475 
z"/>
<path fill="#9B514B" opacity="1.000000" stroke="none" 
	d="
M95.260246,54.977722 
	C95.284492,54.866478 95.557762,54.778904 95.920273,54.848412 
	C95.842766,55.004120 95.676010,55.002754 95.260246,54.977722 
z"/>
</svg>