<svg version="1.1" id="Layer_1" xmlns="http://www.w3.org/2000/svg" xmlns:xlink="http://www.w3.org/1999/xlink" x="0px" y="0px"
	 width="100%" viewBox="0 0 64 64" enable-background="new 0 0 64 64" xml:space="preserve">
<path fill="#F7F0EE" opacity="1.000000" stroke="none" 
	d="
M40.000000,1.000000 
	C48.268833,1.000000 56.537663,1.000000 65.000000,1.000000 
	C65.000000,11.353425 65.000000,21.708054 64.625084,32.531242 
	C63.500351,32.999363 62.750534,32.998920 61.838345,32.629372 
	C61.428299,28.002356 61.180626,23.744442 60.932953,19.486530 
	C60.463573,19.496061 59.994194,19.505594 59.524811,19.515127 
	C59.062740,20.715412 58.305004,21.888083 58.189877,23.120770 
	C57.696308,28.405552 55.746552,27.843679 52.864372,24.647156 
	C52.482998,24.224186 51.653957,24.204866 51.021370,23.624798 
	C50.997631,22.503342 50.984764,21.755690 51.286362,20.960951 
	C51.400513,19.275055 51.200195,17.636248 51.341377,15.938618 
	C52.121227,14.917423 52.559578,13.955053 52.906685,12.835020 
	C52.547577,12.782258 52.279709,12.887159 51.758804,12.994187 
	C51.337078,12.997809 51.168385,12.999305 50.997444,12.997984 
	C50.995197,12.995167 50.986794,12.987279 50.876102,12.779295 
	C50.571182,12.311432 50.320862,12.128137 49.861870,11.718145 
	C47.471775,9.943995 45.234272,8.473122 42.706116,6.857097 
	C41.299641,6.126915 40.183815,5.541885 39.039337,4.718119 
	C39.010689,4.479383 39.000820,3.998589 39.257694,3.788149 
	C39.676380,2.718472 39.838188,1.859236 40.000000,1.000000 
z"/>
<path fill="#E3B3C8" opacity="1.000000" stroke="none" 
	d="
M1.000000,50.000000 
	C1.000000,48.933483 1.000000,47.866962 1.395195,46.391815 
	C4.339670,45.280495 8.285929,45.380707 6.549341,41.196854 
	C5.664141,39.064198 2.909579,37.707462 1.000000,36.000000 
	C1.000000,34.611111 1.000000,33.222221 1.374658,31.417034 
	C2.498493,30.998741 3.247669,30.996744 4.326255,30.996914 
	C5.094877,31.002045 5.534090,31.005009 6.163747,31.072830 
	C6.692096,31.329201 7.030001,31.520712 7.536894,32.010029 
	C7.786433,32.521423 7.866984,32.735016 7.938709,33.214699 
	C7.941251,33.657921 7.952619,33.835045 7.744797,34.237747 
	C8.121909,34.975376 8.711150,35.495937 9.315829,35.997902 
	C11.191730,37.555153 13.083920,39.092941 14.949916,40.661919 
	C16.647945,42.089664 18.320002,43.548306 20.242327,45.167751 
	C20.657021,45.894325 20.832893,46.446476 20.960911,47.316490 
	C20.275579,48.089676 19.638105,48.544991 18.962912,48.722176 
	C18.626425,48.127388 18.327660,47.810730 18.028893,47.494072 
	C17.852968,47.698177 17.677044,47.902283 17.501120,48.106392 
	C18.000822,48.404469 18.500525,48.702538 18.999014,49.369179 
	C17.998262,51.491772 16.998724,53.245796 15.595400,54.999741 
	C12.817676,54.187763 10.437762,53.392830 8.071478,52.559204 
	C5.707219,51.726292 3.356600,50.854656 1.000000,50.000000 
z"/>
<path fill="#EED1E2" opacity="1.000000" stroke="none" 
	d="
M1.000000,12.000000 
	C1.000000,8.381216 1.000000,4.762433 1.000000,1.000000 
	C8.353718,1.000000 15.708122,1.000000 23.618656,1.244199 
	C23.228355,4.193280 25.546307,4.250332 27.014599,5.321653 
	C27.008581,6.086567 27.006035,6.523575 26.997032,7.223147 
	C26.986511,7.660464 26.982450,7.835215 26.735313,8.008949 
	C26.492233,8.007934 26.006083,8.004815 25.680759,8.007008 
	C24.905125,8.673512 24.454809,9.337821 23.978539,10.302834 
	C23.630844,11.082995 23.309107,11.562455 22.872780,11.830948 
	C22.367641,11.593969 21.977093,11.567955 21.586544,11.541941 
	C21.744429,11.971795 21.902315,12.401649 21.881914,13.095432 
	C21.125841,13.591248 20.548056,13.823133 19.764488,14.157729 
	C19.300470,14.446579 19.120747,14.690577 18.765915,14.992940 
	C18.343218,14.993091 18.174139,14.992734 17.969286,14.649292 
	C16.289320,12.871658 14.645129,11.437108 12.659451,9.851788 
	C8.545310,10.467344 4.772655,11.233672 1.000000,12.000000 
z"/>
<path fill="#F6F1ED" opacity="1.000000" stroke="none" 
	d="
M65.000000,41.000000 
	C65.000000,49.000149 65.000000,57.000298 65.000000,65.000000 
	C62.583622,65.000000 60.286545,65.000000 57.494667,64.587669 
	C56.997536,61.116356 56.995209,58.057377 56.994751,54.749893 
	C56.996620,54.501392 56.993893,54.004349 56.996750,53.604431 
	C57.002987,52.137974 57.006371,51.071434 57.356079,49.942139 
	C58.941723,47.998524 64.027306,48.272270 60.997963,43.665939 
	C60.999939,42.888493 61.000278,42.444386 61.345043,41.964592 
	C62.792980,41.619270 63.896492,41.309635 65.000000,41.000000 
z"/>
<path fill="#E0B6C8" opacity="1.000000" stroke="none" 
	d="
M1.000000,50.460632 
	C3.356600,50.854656 5.707219,51.726292 8.071478,52.559204 
	C10.437762,53.392830 12.817676,54.187763 15.595804,55.333450 
	C16.000937,56.112206 16.001881,56.557175 16.001411,57.001087 
	C16.000000,57.000034 16.002150,57.002899 15.639773,57.045822 
	C10.518265,58.725830 5.759133,60.362915 1.000000,62.000000 
	C1.000000,58.307091 1.000000,54.614182 1.000000,50.460632 
z"/>
<path fill="#F6F0EF" opacity="1.000000" stroke="none" 
	d="
M51.000000,65.000000 
	C45.645069,65.000000 40.290142,65.000000 34.467255,64.665047 
	C33.997551,63.883492 33.995804,63.436893 34.028778,62.663116 
	C34.709259,61.237530 35.355019,60.139114 36.258644,59.138153 
	C37.006790,59.486111 37.497070,59.736622 38.348106,59.982170 
	C40.163902,59.302521 41.618946,58.627834 43.383598,57.940434 
	C44.105835,57.890820 44.518456,57.853920 45.183159,58.121475 
	C47.289757,58.618355 49.144268,58.810780 50.999062,59.431431 
	C50.999561,61.573105 50.999783,63.286552 51.000000,65.000000 
z"/>
<path fill="#E2BBCD" opacity="1.000000" stroke="none" 
	d="
M1.000001,62.500000 
	C5.759133,60.362915 10.518265,58.725830 15.599648,57.402115 
	C14.947932,60.143658 13.973967,62.571827 13.000000,65.000000 
	C9.500000,65.000000 5.995838,65.083908 2.504430,64.910706 
	C1.972667,64.884331 1.500001,63.666664 1.000001,62.500000 
z"/>
<path fill="#EDB6CC" opacity="1.000000" stroke="none" 
	d="
M1.000000,26.000000 
	C1.000000,24.933214 1.000000,23.866426 1.317882,22.354649 
	C2.090869,21.273790 2.545974,20.637924 3.000544,20.001030 
	C3.000010,20.000000 3.001707,20.001133 3.374675,19.994698 
	C5.832710,18.992405 7.917776,17.996546 10.001861,17.376406 
	C9.999341,19.831820 9.997803,21.911516 9.720741,24.125935 
	C8.613426,24.845282 7.781633,25.429907 6.636646,26.016426 
	C5.905129,26.022659 5.486808,26.026995 4.803614,26.021191 
	C4.362032,26.010504 4.185323,26.009956 3.632546,26.006145 
	C2.504319,26.001921 1.752160,26.000961 1.000000,26.000000 
z"/>
<path fill="#E4C2D1" opacity="1.000000" stroke="none" 
	d="
M13.444164,65.000000 
	C13.973967,62.571827 14.947932,60.143658 15.962024,57.359192 
	C16.002150,57.002899 16.000000,57.000034 16.364792,56.958496 
	C18.820181,56.278683 20.910778,55.640411 23.001034,55.376549 
	C23.000360,56.499828 23.000029,57.248692 22.688847,58.038525 
	C21.585102,58.719456 20.792208,59.359421 19.705997,60.041428 
	C19.608326,60.722431 19.803972,61.361397 20.214869,62.113350 
	C20.698410,62.426636 20.888218,62.684677 20.999582,63.333710 
	C20.999748,64.111313 20.999874,64.555656 21.000000,65.000000 
	C18.629442,65.000000 16.258884,65.000000 13.444164,65.000000 
z"/>
<path fill="#F3F1F2" opacity="1.000000" stroke="none" 
	d="
M51.428463,65.000000 
	C50.999783,63.286552 50.999561,61.573105 51.003548,59.167473 
	C51.011288,58.299358 51.014820,58.123425 51.354187,57.955387 
	C52.138321,57.962349 52.586620,57.961418 53.367149,57.973522 
	C53.920143,57.966663 54.140907,57.946762 54.452438,57.890556 
	C54.543205,57.854259 54.883965,57.674053 54.969162,57.259644 
	C55.111622,56.569054 55.168888,56.292877 55.445541,55.884792 
	C56.107578,55.501389 56.550228,55.249889 56.992882,54.998390 
	C56.995209,58.057377 56.997536,61.116356 56.999931,64.587669 
	C55.285641,65.000000 53.571285,65.000000 51.428463,65.000000 
z"/>
<path fill="#EBC7DC" opacity="1.000000" stroke="none" 
	d="
M1.000000,12.444164 
	C4.772655,11.233672 8.545310,10.467344 12.658855,10.101971 
	C12.999430,10.669735 12.999113,10.836544 12.583816,11.002583 
	C8.245326,10.476618 5.402838,11.760909 4.208224,15.777085 
	C3.790762,17.180552 3.403021,18.592861 3.001707,20.001133 
	C3.001707,20.001133 3.000010,20.000000 2.667020,19.999748 
	C1.889353,19.999664 1.444677,19.999832 1.000000,20.000000 
	C1.000000,17.629442 1.000000,15.258885 1.000000,12.444164 
z"/>
<path fill="#DFAEC3" opacity="1.000000" stroke="none" 
	d="
M1.000000,36.454109 
	C2.909579,37.707462 5.664141,39.064198 6.549341,41.196854 
	C8.285929,45.380707 4.339670,45.280495 1.395195,45.991592 
	C1.000000,42.969406 1.000000,39.938812 1.000000,36.454109 
z"/>
<path fill="#E8C9D6" opacity="1.000000" stroke="none" 
	d="
M19.999313,59.999390 
	C20.792208,59.359421 21.585102,58.719456 22.689026,58.289570 
	C23.000113,58.666992 23.000170,58.834335 23.013409,59.386780 
	C25.673904,60.846073 28.321217,61.920269 30.809570,63.231976 
	C30.100407,63.979656 29.550201,64.489830 29.000000,65.000000 
	C27.285643,65.000000 25.571283,65.000000 23.382339,64.682312 
	C22.271683,63.909904 21.635612,63.455181 20.999542,63.000458 
	C20.888218,62.684677 20.698410,62.426636 20.215059,61.779854 
	C19.999771,60.888714 19.999542,60.444050 19.999313,59.999390 
z"/>
<path fill="#F3E8E8" opacity="1.000000" stroke="none" 
	d="
M39.000820,3.998589 
	C39.000820,3.998589 39.010689,4.479383 38.834030,4.984713 
	C37.474777,6.276810 36.292183,7.063577 34.997776,7.924732 
	C34.221115,6.787302 33.611141,5.893990 33.000824,4.667550 
	C32.999432,3.890587 32.998390,3.446750 33.237377,2.829875 
	C33.651604,2.104557 33.825802,1.552278 34.000000,1.000000 
	C35.388996,1.000000 36.777996,1.000000 38.472202,1.260495 
	C38.521633,2.025604 38.265850,2.530218 37.765095,3.042501 
	C37.262791,3.202366 37.005459,3.354563 36.748127,3.506758 
	C37.169331,3.662462 37.590538,3.818167 38.259068,3.977768 
	C38.506393,3.981664 39.000820,3.998589 39.000820,3.998589 
z"/>
<path fill="#E1B8D3" opacity="1.000000" stroke="none" 
	d="
M1.000000,26.400223 
	C1.752160,26.000961 2.504319,26.001921 3.539853,26.254543 
	C4.238242,26.993362 4.653256,27.480520 5.371230,27.979786 
	C6.075221,27.946133 6.476253,27.900373 6.975532,28.063877 
	C7.223516,28.557117 7.447298,28.758942 7.797762,29.163757 
	C7.862873,29.641809 7.875345,29.834715 7.602147,30.042881 
	C6.868752,30.374748 6.421027,30.691359 5.973302,31.007971 
	C5.534090,31.005009 5.094877,31.002045 4.115000,30.741547 
	C2.716223,30.322674 1.858112,30.161337 1.000000,30.000000 
	C1.000000,28.933481 1.000000,27.866964 1.000000,26.400223 
z"/>
<path fill="#F7E0EA" opacity="1.000000" stroke="none" 
	d="
M27.018072,4.993748 
	C25.546307,4.250332 23.228355,4.193280 24.087393,1.244199 
	C25.388889,1.000000 26.777779,1.000000 28.583513,1.374796 
	C29.001209,2.499148 29.002060,3.248702 28.746725,4.107136 
	C27.999718,4.475259 27.508894,4.734503 27.018072,4.993748 
z"/>
<path fill="#F1FAEF" opacity="1.000000" stroke="none" 
	d="
M65.000000,35.000000 
	C65.000000,35.750000 65.000000,36.500000 64.709869,37.748161 
	C63.628925,38.496201 62.838116,38.746082 62.037540,38.743916 
	C62.020119,38.323837 62.012470,38.155811 61.962616,37.678864 
	C61.278687,36.586269 60.636967,35.802601 60.250725,35.011627 
	C60.676529,35.000092 60.846863,34.995865 61.346592,34.995209 
	C62.114876,35.001484 62.553761,35.004189 63.012581,35.249809 
	C63.189312,35.747227 63.346115,36.001732 63.502922,36.256233 
	C63.669945,35.840801 63.836971,35.425373 64.252983,35.005905 
	C64.501968,35.001869 65.000000,35.000000 65.000000,35.000000 
z"/>
<path fill="#FDEDF4" opacity="1.000000" stroke="none" 
	d="
M62.047310,38.995964 
	C62.838116,38.746082 63.628925,38.496201 64.709869,38.123161 
	C65.000000,38.750000 65.000000,39.500000 65.000000,40.625000 
	C63.896492,41.309635 62.792980,41.619270 61.344345,41.637733 
	C60.996685,40.911175 60.994156,40.475792 61.113487,39.816338 
	C61.506001,39.393501 61.776657,39.194733 62.047310,38.995964 
z"/>
<path fill="#F2DEE5" opacity="1.000000" stroke="none" 
	d="
M29.002911,3.998257 
	C29.002060,3.248702 29.001209,2.499148 29.000179,1.374796 
	C29.000000,1.000000 29.500000,1.000000 29.894459,1.286367 
	C31.191729,2.049461 32.094536,2.526187 32.997345,3.002913 
	C32.998390,3.446750 32.999432,3.890587 32.656319,4.631831 
	C31.209078,4.618911 30.105993,4.308584 29.002911,3.998257 
z"/>
<path fill="#FBEAF1" opacity="1.000000" stroke="none" 
	d="
M29.416664,65.000000 
	C29.550201,64.489830 30.100407,63.979656 31.188494,63.232895 
	C32.482269,62.994301 33.238163,62.992298 33.994057,62.990292 
	C33.995804,63.436893 33.997551,63.883492 33.999649,64.665047 
	C32.611111,65.000000 31.222221,65.000000 29.416664,65.000000 
z"/>
<path fill="#FDECEA" opacity="1.000000" stroke="none" 
	d="
M65.000000,34.666504 
	C65.000000,35.000000 64.501968,35.001869 64.000130,35.002842 
	C63.329746,35.004845 63.161198,35.005871 62.992649,35.006897 
	C62.553761,35.004189 62.114876,35.001484 61.340557,34.663612 
	C61.002094,33.886051 60.999062,33.443665 61.247204,33.000732 
	C61.665821,32.999619 61.833271,32.999046 62.000717,32.998474 
	C62.750534,32.998920 63.500351,32.999363 64.625084,32.999901 
	C65.000000,33.444336 65.000000,33.888672 65.000000,34.666504 
z"/>
<path fill="#F7E8EB" opacity="1.000000" stroke="none" 
	d="
M33.237373,2.829875 
	C32.094536,2.526187 31.191729,2.049461 30.144459,1.286367 
	C31.066669,1.000000 32.133339,1.000000 33.600006,1.000000 
	C33.825802,1.552278 33.651604,2.104557 33.237373,2.829875 
z"/>
<path fill="#FEF9F7" opacity="1.000000" stroke="none" 
	d="
M39.257694,3.788149 
	C39.000820,3.998589 38.506393,3.981664 38.257454,3.743170 
	C38.008511,3.504677 38.010071,3.034834 38.010071,3.034833 
	C38.265850,2.530218 38.521633,2.025604 38.888706,1.260495 
	C39.000000,1.000000 39.500000,1.000000 39.750000,1.000000 
	C39.838188,1.859236 39.676380,2.718472 39.257694,3.788149 
z"/>
<path fill="#ECBED6" opacity="1.000000" stroke="none" 
	d="
M1.000000,20.333332 
	C1.444677,19.999832 1.889353,19.999664 2.667554,20.000778 
	C2.545974,20.637924 2.090869,21.273790 1.317882,21.954826 
	C1.000000,21.555555 1.000000,21.111111 1.000000,20.333332 
z"/>
<path fill="#E7C5D4" opacity="1.000000" stroke="none" 
	d="
M20.999582,63.333710 
	C21.635612,63.455181 22.271683,63.909904 22.953876,64.682312 
	C22.555555,65.000000 22.111111,65.000000 21.333332,65.000000 
	C20.999874,64.555656 20.999748,64.111313 20.999582,63.333710 
z"/>
<path fill="#F2BAD3" opacity="1.000000" stroke="none" 
	d="
M1.000000,30.250000 
	C1.858112,30.161337 2.716223,30.322674 3.785591,30.739380 
	C3.247669,30.996744 2.498493,30.998741 1.374658,31.000368 
	C1.000000,31.000000 1.000000,30.500000 1.000000,30.250000 
z"/>
<path fill="#F6E5EA" opacity="1.000000" stroke="none" 
	d="
M28.746725,4.107136 
	C30.105993,4.308584 31.209078,4.618911 32.656662,4.964958 
	C33.611141,5.893990 34.221115,6.787302 34.997776,7.924732 
	C36.292183,7.063577 37.474777,6.276810 38.862679,5.223449 
	C40.183815,5.541885 41.299641,6.126915 42.705929,7.206589 
	C43.668255,9.342619 40.383011,11.829570 44.003082,13.157009 
	C42.939735,14.322386 41.963970,15.153016 40.589439,15.988626 
	C39.127243,15.997423 38.063805,16.001238 36.846939,15.700060 
	C33.799625,13.594238 30.905745,11.793410 28.005589,9.995458 
	C27.999313,9.998332 28.009253,10.005652 28.008541,9.665152 
	C27.673052,8.536629 27.338272,7.748605 27.003490,6.960582 
	C27.006035,6.523575 27.008581,6.086567 27.014599,5.321653 
	C27.508894,4.734503 27.999718,4.475259 28.746725,4.107136 
z"/>
<path fill="#F9EDEF" opacity="1.000000" stroke="none" 
	d="
M61.838345,32.629372 
	C61.833271,32.999046 61.665821,32.999619 60.907982,33.005283 
	C59.583710,33.614426 58.849831,34.218479 58.086155,34.855011 
	C58.056358,34.887486 58.024189,34.969555 57.772003,34.922493 
	C57.350559,34.899555 57.181297,34.923687 56.683205,34.946526 
	C55.924141,34.923046 55.493904,34.900852 55.042534,34.657700 
	C55.021408,34.436741 54.980846,33.994667 54.954144,33.704018 
	C54.279968,33.290508 53.632500,33.167645 52.700317,33.031349 
	C52.041977,32.965214 51.668339,32.912514 51.203453,32.434250 
	C51.059681,29.678581 51.007164,27.348482 50.971954,24.763281 
	C51.003586,24.338322 51.017914,24.168465 51.032242,23.998608 
	C51.653957,24.204866 52.482998,24.224186 52.864372,24.647156 
	C55.746552,27.843679 57.696308,28.405552 58.189877,23.120770 
	C58.305004,21.888083 59.062740,20.715412 59.524811,19.515127 
	C59.994194,19.505594 60.463573,19.496061 60.932953,19.486530 
	C61.180626,23.744442 61.428299,28.002356 61.838345,32.629372 
z"/>
<path fill="#F9EDEF" opacity="1.000000" stroke="none" 
	d="
M44.090660,12.822264 
	C40.383011,11.829570 43.668255,9.342619 42.996574,7.351741 
	C45.234272,8.473122 47.471775,9.943995 49.973072,11.925310 
	C50.431004,12.695503 50.680981,12.879345 50.986794,12.987279 
	C50.986794,12.987279 50.995197,12.995167 50.981365,13.273972 
	C50.978313,14.367664 50.989094,15.182552 50.999878,15.997441 
	C51.200195,17.636248 51.400513,19.275055 51.012142,20.818874 
	C49.618587,19.815413 48.813717,18.906940 48.001553,17.664650 
	C47.670410,16.564611 47.346554,15.798392 46.877766,14.851695 
	C47.161369,14.190625 47.589909,13.710034 48.107193,13.129915 
	C46.615795,13.015679 45.353226,12.918972 44.090660,12.822264 
z"/>
<path fill="#E9D2DC" opacity="1.000000" stroke="none" 
	d="
M48.008842,17.998468 
	C48.813717,18.906940 49.618587,19.815413 50.697678,20.865963 
	C50.984764,21.755690 50.997631,22.503342 51.021370,23.624800 
	C51.017914,24.168465 51.003586,24.338322 50.626804,24.753706 
	C49.175404,24.662931 48.086464,24.326630 46.955704,23.627010 
	C46.610275,21.844257 46.306656,20.424820 46.219597,18.890316 
	C46.705612,18.571819 46.896179,18.310791 47.258102,17.994738 
	C47.675179,17.997700 47.842010,17.998085 48.008842,17.998468 
z"/>
<path fill="#F1ECE9" opacity="1.000000" stroke="none" 
	d="
M51.341377,15.938618 
	C50.989094,15.182552 50.978313,14.367664 50.983612,13.276789 
	C51.168385,12.999305 51.337078,12.997809 52.005245,12.995932 
	C52.504723,12.995550 52.997929,12.992683 52.997929,12.992683 
	C52.559578,13.955053 52.121227,14.917423 51.341377,15.938618 
z"/>
<path fill="#FEF9F7" opacity="1.000000" stroke="none" 
	d="
M52.906685,12.835020 
	C52.997929,12.992683 52.504723,12.995550 52.258282,12.993805 
	C52.279709,12.887159 52.547577,12.782258 52.906685,12.835020 
z"/>
<path fill="#FEF9F7" opacity="1.000000" stroke="none" 
	d="
M50.876102,12.779295 
	C50.680981,12.879345 50.431004,12.695503 50.125656,12.228588 
	C50.320862,12.128137 50.571182,12.311432 50.876102,12.779295 
z"/>
<path fill="#E4BACE" opacity="1.000000" stroke="none" 
	d="
M20.003506,44.993328 
	C18.320002,43.548306 16.647945,42.089664 14.949916,40.661919 
	C13.083920,39.092941 11.191730,37.555153 9.315829,35.997902 
	C8.711150,35.495937 8.121909,34.975376 8.013622,34.228287 
	C8.676905,33.956894 8.852173,33.920540 9.262215,33.871529 
	C9.496990,33.858871 9.941894,33.705711 10.139586,33.688965 
	C10.610520,33.586777 10.789473,33.407349 10.968380,33.100662 
	C11.062624,33.067383 11.259353,33.102810 11.410811,33.103252 
	C11.562270,33.103695 11.861677,33.149693 12.031879,33.330887 
	C12.758246,33.436470 13.314411,33.360855 14.206648,33.179993 
	C14.765017,32.999203 14.987311,32.923664 15.476457,32.847946 
	C15.920421,32.831032 16.097532,32.814293 16.535789,32.865913 
	C17.153254,32.983524 17.509571,33.032780 17.991465,33.272022 
	C18.301733,33.710224 18.539013,33.888325 18.861261,34.047318 
	C18.893644,34.098324 18.993557,34.166279 19.039566,34.309948 
	C19.170523,34.643139 19.304922,34.786201 19.621025,35.279266 
	C19.855145,35.935059 19.957014,36.194389 20.009703,36.714737 
	C19.702057,37.632072 19.443590,38.288399 19.119755,39.283279 
	C19.369337,40.419014 19.684288,41.216190 19.999550,42.385941 
	C20.001078,43.503448 20.002291,44.248390 20.003506,44.993328 
z"/>
<path fill="#E2BBCD" opacity="1.000000" stroke="none" 
	d="
M23.001373,55.002136 
	C20.910778,55.640411 18.820181,56.278683 16.366203,56.959549 
	C16.001881,56.557175 16.000937,56.112206 15.999590,55.333534 
	C16.998724,53.245796 17.998262,51.491772 18.998901,49.368874 
	C19.000000,49.000000 19.000629,49.000305 19.000629,49.000305 
	C19.638105,48.544991 20.275579,48.089676 21.359715,47.316898 
	C22.870729,47.000286 23.935085,47.001133 24.998882,47.390678 
	C24.332241,50.186199 23.666159,52.593021 23.000038,54.999924 
	C23.000000,55.000000 23.001373,55.002136 23.001373,55.002136 
z"/>
<path fill="#E1BDCD" opacity="1.000000" stroke="none" 
	d="
M24.999439,47.001984 
	C23.935085,47.001133 22.870729,47.000286 21.407572,46.999031 
	C20.832893,46.446476 20.657021,45.894325 20.242325,45.167751 
	C20.002291,44.248390 20.001078,43.503448 20.215641,42.269478 
	C20.701611,41.577515 20.892464,41.316551 21.336153,40.997902 
	C22.111193,41.003891 22.554056,41.009537 23.043903,41.331375 
	C23.727268,42.099499 24.363651,42.551430 25.000059,43.402771 
	C25.000448,44.867817 25.000811,45.933445 25.000587,46.999538 
	C25.000000,47.000000 24.999439,47.001984 24.999439,47.001984 
z"/>
<path fill="#5076D2" opacity="1.000000" stroke="none" 
	d="
M7.887818,30.027622 
	C7.875345,29.834715 7.862873,29.641809 7.878335,28.934155 
	C7.906269,28.419407 7.976862,27.936558 8.300510,27.763197 
	C9.323051,27.405973 10.021946,27.222111 10.879745,27.219643 
	C11.345198,27.536320 11.619184,27.720238 11.785920,28.145811 
	C11.631636,28.665874 11.749653,28.888260 12.343195,29.101339 
	C12.814598,29.227165 13.008089,29.257641 13.169286,29.411808 
	C13.136991,29.535503 13.086730,29.784100 13.042129,30.154221 
	C12.572556,31.102045 12.147583,31.679747 11.573649,32.350437 
	C11.252600,32.633850 11.197488,32.853645 11.259353,33.102810 
	C11.259353,33.102810 11.062624,33.067383 10.753189,33.061249 
	C10.443754,33.055115 10.004352,33.084782 9.730497,33.048912 
	C9.273260,33.029594 9.089876,33.046150 8.668417,33.020203 
	C8.430340,32.977703 7.947535,32.948608 7.947535,32.948608 
	C7.866984,32.735016 7.786433,32.521423 7.940719,31.907753 
	C8.448151,31.466187 8.720747,31.424702 9.120219,31.482475 
	C9.247095,31.581736 9.388205,31.377453 9.388205,31.377453 
	C9.388205,31.377453 8.962379,31.461279 8.874251,31.157394 
	C8.486689,30.578215 8.187253,30.302917 7.887818,30.027622 
z"/>
<path fill="#DAC6E6" opacity="1.000000" stroke="none" 
	d="
M7.602147,30.042881 
	C8.187253,30.302917 8.486689,30.578215 8.883184,31.137806 
	C8.980246,31.422104 8.993343,31.383215 8.993343,31.383215 
	C8.720747,31.424702 8.448151,31.466187 7.771730,31.609947 
	C7.030001,31.520712 6.692096,31.329201 6.163746,31.072830 
	C6.421027,30.691359 6.868752,30.374748 7.602147,30.042881 
z"/>
<path fill="#E4BACE" opacity="1.000000" stroke="none" 
	d="
M19.000114,49.000305 
	C18.500525,48.702538 18.000822,48.404469 17.501120,48.106392 
	C17.677044,47.902283 17.852968,47.698177 18.028893,47.494072 
	C18.327660,47.810730 18.626425,48.127388 18.962910,48.722176 
	C19.000629,49.000305 19.000000,49.000000 19.000114,49.000305 
z"/>
<path fill="#A68B9C" opacity="1.000000" stroke="none" 
	d="
M7.938709,33.214699 
	C7.947535,32.948608 8.430340,32.977703 8.704906,33.224537 
	C8.979473,33.471371 9.027440,33.884186 9.027440,33.884186 
	C8.852173,33.920540 8.676905,33.956894 8.232812,34.002708 
	C7.952619,33.835045 7.941251,33.657921 7.938709,33.214699 
z"/>
<path fill="#E9C6D9" opacity="1.000000" stroke="none" 
	d="
M12.998797,11.003354 
	C12.999113,10.836544 12.999430,10.669735 13.000341,10.252742 
	C14.645129,11.437108 16.289320,12.871658 18.066450,14.859800 
	C18.379276,15.677341 18.617807,15.867879 19.030796,16.232738 
	C19.412338,16.728039 19.678066,16.975603 19.949833,17.402620 
	C19.955870,17.582071 19.935656,17.940607 19.656425,18.000370 
	C19.252075,18.708252 19.126953,19.356373 19.001001,20.404015 
	C18.998833,21.867809 18.997494,22.932081 18.744591,23.998732 
	C18.325388,24.006292 18.157751,24.011477 17.700325,23.869385 
	C16.281145,23.149208 15.151749,22.576307 13.885307,21.695234 
	C13.832218,19.924206 13.916173,18.461348 13.992867,16.614601 
	C13.656670,14.488258 13.327734,12.745807 12.998797,11.003354 
z"/>
<path fill="#F1D9E9" opacity="1.000000" stroke="none" 
	d="
M26.006083,8.004815 
	C26.006083,8.004815 26.492233,8.007934 26.768986,8.304010 
	C27.366909,9.068608 27.688080,9.537130 28.009251,10.005653 
	C28.009253,10.005652 27.999313,9.998332 28.001848,10.377283 
	C27.669514,13.170903 27.334644,15.585571 26.749296,18.000170 
	C26.331795,18.000420 26.164772,18.000742 25.821461,17.997274 
	C25.645170,17.993483 25.292665,17.983097 25.229855,17.673569 
	C24.811846,16.863188 24.456646,16.362333 24.031458,15.527927 
	C23.581726,14.371910 23.201981,13.549443 22.876625,12.558870 
	C22.931015,12.390763 22.987371,12.041914 22.987371,12.041914 
	C23.309107,11.562455 23.630844,11.082995 24.295671,10.256111 
	C25.094536,9.274061 25.550310,8.639438 26.006083,8.004815 
z"/>
<path fill="#E6CBDE" opacity="1.000000" stroke="none" 
	d="
M22.822235,12.726976 
	C23.201981,13.549443 23.581726,14.371910 23.776636,15.720322 
	C23.393703,16.831894 23.195602,17.417521 22.780014,17.868572 
	C21.732088,17.840080 20.901649,17.946167 20.036476,18.025368 
	C20.001741,17.998484 19.935656,17.940607 19.935656,17.940607 
	C19.935656,17.940607 19.955870,17.582071 19.878603,17.122623 
	C19.505884,16.437119 19.210434,16.211063 18.914984,15.985005 
	C18.617807,15.867879 18.379276,15.677341 18.102224,15.202885 
	C18.174139,14.992734 18.343218,14.993091 18.968958,14.886116 
	C19.680555,14.592757 19.862106,14.351503 19.970272,14.055021 
	C20.548056,13.823133 21.125841,13.591248 22.075714,13.094286 
	C22.447803,12.829209 22.822235,12.726976 22.822235,12.726976 
z"/>
<path fill="#EDD6E2" opacity="1.000000" stroke="none" 
	d="
M25.680759,8.007008 
	C25.550310,8.639438 25.094536,9.274061 24.321629,9.955408 
	C24.454809,9.337821 24.905125,8.673512 25.680759,8.007008 
z"/>
<path fill="#E2CAD6" opacity="1.000000" stroke="none" 
	d="
M28.008541,9.665153 
	C27.688080,9.537130 27.366909,9.068608 27.012066,8.305025 
	C26.982450,7.835215 26.986511,7.660464 26.997032,7.223147 
	C27.338272,7.748605 27.673052,8.536629 28.008541,9.665153 
z"/>
<path fill="#F9DDED" opacity="1.000000" stroke="none" 
	d="
M22.876625,12.558870 
	C22.822235,12.726976 22.447803,12.829209 22.254002,12.830357 
	C21.902315,12.401649 21.744429,11.971795 21.586544,11.541941 
	C21.977093,11.567955 22.367641,11.593969 22.872780,11.830948 
	C22.987371,12.041914 22.931015,12.390763 22.876625,12.558870 
z"/>
<path fill="#E9C6D9" opacity="1.000000" stroke="none" 
	d="
M19.764488,14.157730 
	C19.862106,14.351503 19.680555,14.592757 19.222576,14.885609 
	C19.120747,14.690577 19.300470,14.446579 19.764488,14.157730 
z"/>
<path fill="#EEF1FC" opacity="1.000000" stroke="none" 
	d="
M60.991627,40.040405 
	C60.994156,40.475792 60.996685,40.911175 60.999916,41.673416 
	C61.000278,42.444386 60.999939,42.888493 60.769310,43.816994 
	C59.367832,45.020092 58.196640,45.738796 56.642246,46.593277 
	C54.075436,46.150425 51.891834,45.571789 49.852158,44.675613 
	C50.001129,43.894737 50.006168,43.431404 50.134483,42.725681 
	C50.419041,41.359283 50.580322,40.235271 51.059578,39.023308 
	C51.593563,38.900330 51.809566,38.865311 52.370232,38.901123 
	C53.616928,37.978371 54.518967,36.984783 55.480614,36.046783 
	C55.540226,36.102379 55.697250,36.058575 55.822990,36.472691 
	C56.645416,37.102448 57.342102,37.318089 58.045517,37.688709 
	C58.052250,37.843685 58.164257,38.132996 58.005375,38.372185 
	C57.728256,39.192093 57.610016,39.772816 57.491779,40.353535 
	C58.001404,40.228153 58.511032,40.102772 59.349285,39.985836 
	C60.115818,40.009655 60.553722,40.025032 60.991627,40.040405 
z"/>
<path fill="#F3F1F2" opacity="1.000000" stroke="none" 
	d="
M57.025452,46.457497 
	C58.196640,45.738796 59.367832,45.020092 60.767677,44.150330 
	C64.027306,48.272270 58.941723,47.998524 57.350117,49.938702 
	C56.997826,49.998020 56.988377,49.988605 56.989120,49.732952 
	C56.983696,49.306881 56.977528,49.136463 57.045799,48.549480 
	C57.088642,47.574444 57.057049,47.015972 57.025452,46.457497 
z"/>
<path fill="#EDF5FD" opacity="1.000000" stroke="none" 
	d="
M57.003788,50.001457 
	C57.006371,51.071434 57.002987,52.137974 56.749207,53.432743 
	C55.912716,53.150387 55.326626,52.639801 54.558811,52.097923 
	C54.377090,52.066635 54.012981,51.997692 54.027962,51.676460 
	C54.094421,50.931690 54.145901,50.508144 54.545238,50.075996 
	C55.591526,50.041130 56.289951,50.014866 56.988377,49.988605 
	C56.988377,49.988605 56.997826,49.998020 57.003788,50.001457 
z"/>
<path fill="#E3ECF8" opacity="1.000000" stroke="none" 
	d="
M54.740532,52.129215 
	C55.326626,52.639801 55.912716,53.150387 56.746353,53.832661 
	C56.993893,54.004349 56.996620,54.501392 56.994751,54.749893 
	C56.550228,55.249889 56.107578,55.501389 55.353851,55.551651 
	C54.956879,54.899506 54.870983,54.448589 54.816772,53.686371 
	C54.812481,52.959778 54.776508,52.544498 54.740532,52.129215 
z"/>
<path fill="#ECCEDB" opacity="1.000000" stroke="none" 
	d="
M34.028778,62.663116 
	C33.238163,62.992298 32.482269,62.994301 31.347454,62.995388 
	C28.321217,61.920269 25.673904,60.846073 23.418634,59.385880 
	C26.874599,57.667393 29.938520,56.334904 33.401703,55.000984 
	C34.865837,54.999748 35.930706,54.999950 36.997345,55.333115 
	C37.000732,56.110008 37.002354,56.553936 36.761559,57.174690 
	C36.346355,57.914574 36.173569,58.477638 36.000778,59.040703 
	C35.355019,60.139114 34.709259,61.237530 34.028778,62.663116 
z"/>
<path fill="#EBE5EB" opacity="1.000000" stroke="none" 
	d="
M43.073990,57.953152 
	C41.618946,58.627834 40.163902,59.302521 38.351288,59.608990 
	C37.996174,58.493660 37.998638,57.746552 38.278870,56.865669 
	C39.369186,55.822388 40.181740,54.912876 41.326454,54.002331 
	C42.100864,54.001316 42.543121,54.001331 42.994160,54.253933 
	C43.009708,54.674873 43.016468,54.843231 43.011215,55.380039 
	C43.024132,56.483376 43.049061,57.218266 43.073990,57.953152 
z"/>
<path fill="#F0F3F8" opacity="1.000000" stroke="none" 
	d="
M51.018356,57.947491 
	C51.014820,58.123425 51.011288,58.299358 51.003265,58.739250 
	C49.144268,58.810780 47.289757,58.618355 45.321793,57.895958 
	C45.470646,56.908100 45.732956,56.450218 46.122589,55.791718 
	C46.428371,55.317310 46.667404,55.115131 47.305321,54.996208 
	C48.094959,55.007378 48.546284,55.006905 49.123161,55.278957 
	C49.838600,56.350151 50.428478,57.148823 51.018356,57.947491 
z"/>
<path fill="#BEC8D3" opacity="1.000000" stroke="none" 
	d="
M45.995266,55.992336 
	C45.732956,56.450218 45.470646,56.908100 45.069710,57.591499 
	C44.518456,57.853920 44.105835,57.890820 43.383602,57.940434 
	C43.049061,57.218266 43.024132,56.483376 43.338005,55.374603 
	C44.114410,54.998829 44.552006,54.996937 45.096184,55.217800 
	C45.390331,55.734489 45.654499,55.918415 45.995266,55.992336 
z"/>
<path fill="#E9D2DC" opacity="1.000000" stroke="none" 
	d="
M38.001106,56.999439 
	C37.998638,57.746552 37.996174,58.493660 37.990528,59.613953 
	C37.497070,59.736622 37.006790,59.486111 36.258644,59.138153 
	C36.173569,58.477638 36.346355,57.914574 37.010815,57.174698 
	C37.502487,56.997883 38.001102,56.999439 38.001106,56.999439 
z"/>
<path fill="#ECBED6" opacity="1.000000" stroke="none" 
	d="
M12.583816,11.002583 
	C13.327734,12.745807 13.656670,14.488258 13.593088,16.614979 
	C12.134662,16.999727 11.068751,17.000206 10.002842,17.000687 
	C7.917776,17.996546 5.832710,18.992405 3.374675,19.994698 
	C3.403021,18.592861 3.790762,17.180552 4.208224,15.777085 
	C5.402838,11.760909 8.245326,10.476618 12.583816,11.002583 
z"/>
<path fill="#E1C3E0" opacity="1.000000" stroke="none" 
	d="
M13.201581,29.288115 
	C13.008089,29.257641 12.814598,29.227165 12.294455,28.839922 
	C11.935863,28.309076 11.903924,28.135000 11.772980,27.786495 
	C11.356264,27.420792 11.038551,27.229519 10.720839,27.038246 
	C10.021946,27.222111 9.323051,27.405973 8.207882,27.572437 
	C7.625103,27.316256 7.406666,27.142921 7.091860,26.779514 
	C7.014896,26.354170 6.982368,26.184351 6.949840,26.014530 
	C7.781633,25.429907 8.613426,24.845282 9.970895,24.127708 
	C10.663309,23.994911 10.830048,23.995064 11.326693,24.031679 
	C12.774213,25.042234 13.891826,26.016329 15.007524,27.289076 
	C15.012886,27.985350 15.020162,28.382971 14.715670,28.845987 
	C14.003129,29.036959 13.602355,29.162537 13.201581,29.288115 
z"/>
<path fill="#E9C1D2" opacity="1.000000" stroke="none" 
	d="
M10.996786,23.995218 
	C10.830048,23.995064 10.663309,23.994911 10.246418,23.992985 
	C9.997803,21.911516 9.999341,19.831820 10.001861,17.376404 
	C11.068751,17.000206 12.134662,16.999727 13.600349,16.998871 
	C13.916173,18.461348 13.832218,19.924206 13.600937,21.817543 
	C12.634669,22.830420 11.815727,23.412819 10.996786,23.995218 
z"/>
<path fill="#A4819B" opacity="1.000000" stroke="none" 
	d="
M6.636646,26.016426 
	C6.982368,26.184351 7.014896,26.354170 7.015297,26.980644 
	C6.983171,27.437298 6.877285,27.854614 6.877285,27.854614 
	C6.476253,27.900373 6.075221,27.946133 5.342118,27.657713 
	C5.029528,26.892799 5.049007,26.462067 5.068486,26.031332 
	C5.486808,26.026995 5.905129,26.022659 6.636646,26.016426 
z"/>
<path fill="#DCB2CB" opacity="1.000000" stroke="none" 
	d="
M4.803614,26.021191 
	C5.049007,26.462067 5.029528,26.892799 5.039160,27.645607 
	C4.653256,27.480520 4.238242,26.993362 3.915920,26.257805 
	C4.185323,26.009956 4.362032,26.010504 4.803614,26.021191 
z"/>
<path fill="#E7C5D4" opacity="1.000000" stroke="none" 
	d="
M33.002441,55.002415 
	C29.938520,56.334904 26.874599,57.667393 23.405453,59.000778 
	C23.000170,58.834335 23.000113,58.666992 22.999874,58.248604 
	C23.000029,57.248692 23.000360,56.499828 23.001034,55.376549 
	C23.001373,55.002136 23.000000,55.000000 23.454166,55.000259 
	C26.939703,55.001148 29.971071,55.001781 33.002441,55.002415 
z"/>
<path fill="#E7C5D4" opacity="1.000000" stroke="none" 
	d="
M19.705997,60.041428 
	C19.999542,60.444050 19.999771,60.888714 19.999809,61.666870 
	C19.803972,61.361397 19.608326,60.722431 19.705997,60.041428 
z"/>
<path fill="#8797A6" opacity="1.000000" stroke="none" 
	d="
M54.785088,53.997677 
	C54.870983,54.448589 54.956879,54.899506 55.134468,55.683559 
	C55.168888,56.292877 55.111622,56.569054 54.821808,57.137688 
	C54.589256,57.430149 54.207951,57.427505 53.960121,57.250664 
	C53.537601,56.970474 53.362911,56.867126 53.057323,56.528530 
	C52.606834,55.861504 52.287239,55.429718 52.007652,54.748569 
	C52.075867,54.333237 52.104065,54.167267 52.464436,54.001373 
	C53.459435,54.000195 54.122265,53.998936 54.785088,53.997677 
z"/>
<path fill="#CEDEEB" opacity="1.000000" stroke="none" 
	d="
M51.967644,54.997932 
	C52.287239,55.429718 52.606834,55.861504 53.000755,56.826263 
	C53.061699,57.559650 53.048309,57.760067 53.034920,57.960484 
	C52.586620,57.961418 52.138321,57.962349 51.354187,57.955387 
	C50.428478,57.148823 49.838600,56.350151 49.494686,55.276863 
	C50.482983,55.000805 51.225315,54.999367 51.967644,54.997932 
z"/>
<path fill="#C5CAD5" opacity="1.000000" stroke="none" 
	d="
M53.367149,57.973522 
	C53.048309,57.760067 53.061699,57.559650 53.131653,57.061508 
	C53.362911,56.867126 53.537601,56.970474 53.973618,57.380779 
	C54.234947,57.687737 54.361671,57.926857 54.361671,57.926857 
	C54.140907,57.946762 53.920143,57.966663 53.367149,57.973522 
z"/>
<path fill="#E3ECF8" opacity="1.000000" stroke="none" 
	d="
M54.452438,57.890556 
	C54.361671,57.926857 54.234947,57.687737 54.221451,57.557621 
	C54.207951,57.427505 54.589256,57.430149 54.736610,57.552101 
	C54.883965,57.674053 54.543205,57.854259 54.452438,57.890556 
z"/>
<path fill="#FCF3F2" opacity="1.000000" stroke="none" 
	d="
M37.765099,3.042502 
	C38.010071,3.034834 38.008511,3.504677 38.010124,3.739275 
	C37.590538,3.818167 37.169331,3.662462 36.748127,3.506758 
	C37.005459,3.354563 37.262791,3.202366 37.765099,3.042502 
z"/>
<path fill="#DAC6E6" opacity="1.000000" stroke="none" 
	d="
M6.975532,28.063877 
	C6.877285,27.854614 6.983171,27.437298 7.059733,27.236168 
	C7.406666,27.142921 7.625103,27.316256 7.884234,27.745800 
	C7.976862,27.936558 7.906269,28.419407 7.825697,28.649010 
	C7.447298,28.758942 7.223516,28.557117 6.975532,28.063877 
z"/>
<path fill="#E4F2EB" opacity="1.000000" stroke="none" 
	d="
M58.164257,38.132996 
	C58.164257,38.132996 58.052250,37.843685 57.969921,37.342659 
	C57.846222,36.609024 57.804855,36.376419 57.901466,35.866417 
	C58.034363,35.382530 58.029274,35.176041 58.024189,34.969555 
	C58.024189,34.969555 58.056358,34.887486 58.395393,34.913383 
	C59.154705,34.965836 59.574978,34.992382 59.995251,35.018932 
	C60.636967,35.802601 61.278687,36.586269 61.587055,37.685852 
	C60.502953,38.020443 59.752201,38.039120 58.791138,38.065269 
	C58.580822,38.072742 58.164257,38.132996 58.164257,38.132996 
z"/>
<path fill="#FAEEF9" opacity="1.000000" stroke="none" 
	d="
M60.250725,35.011627 
	C59.574978,34.992382 59.154705,34.965836 58.425194,34.880909 
	C58.849831,34.218479 59.583710,33.614426 60.656811,33.005821 
	C60.999062,33.443665 61.002094,33.886051 61.011162,34.660038 
	C60.846863,34.995865 60.676529,35.000092 60.250725,35.011627 
z"/>
<path fill="#E9DDDD" opacity="1.000000" stroke="none" 
	d="
M59.001450,38.057796 
	C59.752201,38.039120 60.502953,38.020443 61.629265,37.994778 
	C62.012470,38.155811 62.020119,38.323837 62.037540,38.743916 
	C61.776657,39.194733 61.506001,39.393501 61.113487,39.816338 
	C60.553722,40.025032 60.115818,40.009655 59.345978,39.665771 
	C59.009846,38.910778 59.005646,38.484287 59.001450,38.057796 
z"/>
<path fill="#F1ECED" opacity="1.000000" stroke="none" 
	d="
M63.012581,35.249809 
	C63.161198,35.005871 63.329746,35.004845 63.751144,35.006882 
	C63.836971,35.425373 63.669945,35.840801 63.502922,36.256233 
	C63.346115,36.001732 63.189312,35.747227 63.012581,35.249809 
z"/>
<path fill="#EDD1DF" opacity="1.000000" stroke="none" 
	d="
M46.003036,19.005384 
	C46.306656,20.424820 46.610275,21.844257 46.689316,23.831017 
	C45.742210,25.198568 45.019688,25.998796 44.297161,26.799025 
	C44.267570,26.333834 44.237980,25.868643 44.208385,25.403452 
	C41.473148,24.936689 38.737907,24.469927 35.888374,23.787716 
	C35.571579,23.302238 35.308689,23.118696 34.738705,23.013687 
	C34.491997,23.005737 33.998352,23.000683 33.999092,22.749296 
	C33.999195,22.330318 33.998554,22.162727 33.998302,21.747021 
	C33.998688,21.498905 33.999542,21.002670 34.277000,20.894753 
	C35.567627,20.647760 36.580795,20.508682 37.613762,20.366888 
	C37.387856,18.760477 37.194111,17.382765 37.000366,16.005054 
	C38.063805,16.001238 39.127243,15.997423 40.888855,16.122324 
	C43.059032,17.169155 44.531033,18.087269 46.003036,19.005384 
z"/>
<path fill="#EDD6E2" opacity="1.000000" stroke="none" 
	d="
M36.846939,15.700060 
	C37.194111,17.382765 37.387856,18.760477 37.613762,20.366888 
	C36.580795,20.508682 35.567627,20.647760 34.024879,20.893150 
	C33.327221,20.999743 33.159134,21.000025 32.746120,21.000210 
	C32.501198,21.000114 32.011349,21.001966 31.896442,20.788582 
	C31.580349,20.308655 31.321436,20.122324 30.685398,20.020060 
	C29.947523,20.084976 29.529041,20.146036 28.803974,20.138966 
	C27.997898,19.727661 27.498409,19.384487 26.999420,18.781048 
	C26.999874,18.347265 26.999825,18.173754 26.999775,18.000240 
	C27.334644,15.585571 27.669514,13.170903 28.008121,10.374409 
	C30.905745,11.793410 33.799625,13.594238 36.846939,15.700060 
z"/>
<path fill="#ECD9E1" opacity="1.000000" stroke="none" 
	d="
M46.219597,18.890316 
	C44.531033,18.087269 43.059032,17.169155 41.287613,16.117344 
	C41.963970,15.153016 42.939735,14.322386 44.003082,13.157009 
	C45.353226,12.918972 46.615795,13.015679 48.107193,13.129915 
	C47.589909,13.710034 47.161369,14.190625 46.867691,15.221070 
	C47.004322,16.511337 47.006092,17.251749 47.007862,17.992161 
	C46.896179,18.310791 46.705612,18.571819 46.219597,18.890316 
z"/>
<path fill="#E7C6D5" opacity="1.000000" stroke="none" 
	d="
M36.002666,24.003166 
	C38.737907,24.469927 41.473148,24.936689 44.208385,25.403452 
	C44.237980,25.868643 44.267570,26.333834 44.297161,26.799025 
	C45.019688,25.998796 45.742210,25.198568 46.731129,24.194332 
	C48.086464,24.326630 49.175404,24.662931 50.609497,25.008810 
	C51.007164,27.348482 51.059681,29.678581 50.949303,32.535198 
	C50.611729,33.108257 50.437046,33.154793 49.993668,33.223541 
	C49.316978,33.818718 48.908989,34.391678 48.192543,34.892036 
	C47.674534,34.792652 47.464981,34.765862 47.176540,34.573494 
	C47.097656,34.407917 46.832878,34.154064 46.697807,33.834808 
	C45.644539,33.396095 44.726341,33.276642 43.434853,33.102955 
	C42.042061,33.032875 41.022556,33.017025 39.795815,32.747726 
	C38.725597,31.661100 37.862610,30.827921 36.975044,29.699688 
	C36.633701,28.936499 36.316940,28.468365 35.973869,27.697218 
	C35.613647,26.915421 35.279728,26.436634 34.967113,25.625595 
	C34.988338,24.849632 34.988258,24.405924 35.241615,23.977045 
	C35.664257,23.995638 35.833462,23.999403 36.002666,24.003166 
z"/>
<path fill="#CBDEFD" opacity="1.000000" stroke="none" 
	d="
M50.262367,33.201324 
	C50.437046,33.154793 50.611729,33.108257 51.040558,32.960770 
	C51.668339,32.912514 52.041977,32.965214 52.878563,33.260986 
	C53.887962,33.667591 54.434402,33.831127 54.980846,33.994667 
	C54.980846,33.994667 55.021408,34.436741 55.083668,34.726059 
	C55.145927,35.015381 55.086945,35.165939 54.738464,35.066635 
	C53.912292,35.016319 53.434601,35.065311 52.707874,35.124943 
	C52.115410,35.287872 51.940910,35.551872 51.938587,35.911201 
	C51.941837,35.894821 51.908836,35.889614 51.707947,35.815762 
	C51.337555,35.508545 51.201958,35.256905 51.071320,34.634346 
	C50.707531,34.013439 50.372696,33.745171 50.116951,33.426720 
	C50.196045,33.376534 50.262367,33.201324 50.262367,33.201324 
z"/>
<path fill="#E1E0E7" opacity="1.000000" stroke="none" 
	d="
M54.954144,33.704018 
	C54.434402,33.831127 53.887962,33.667591 53.163273,33.274422 
	C53.632500,33.167645 54.279968,33.290508 54.954144,33.704018 
z"/>
<path fill="#687C92" opacity="1.000000" stroke="none" 
	d="
M55.697250,36.058575 
	C55.697250,36.058575 55.540226,36.102379 55.384209,36.051258 
	C55.228191,36.000137 55.035690,35.985943 55.034355,35.780060 
	C55.033024,35.574173 55.086945,35.165939 55.086945,35.165939 
	C55.086945,35.165939 55.145927,35.015381 55.104797,34.947021 
	C55.493904,34.900852 55.924141,34.923046 56.741379,35.177559 
	C57.128376,35.409874 57.167606,35.884304 56.800312,35.930359 
	C56.187759,36.003799 55.942505,36.031189 55.697250,36.058575 
z"/>
<path fill="#8EAEC7" opacity="1.000000" stroke="none" 
	d="
M57.167606,35.884304 
	C57.167606,35.884304 57.128376,35.409874 57.070206,35.178844 
	C57.181297,34.923687 57.350559,34.899555 57.772003,34.922493 
	C58.029274,35.176041 58.034363,35.382530 57.748947,35.810349 
	C57.458443,36.031685 57.167606,35.884304 57.167606,35.884304 
z"/>
<path fill="#E2CAD6" opacity="1.000000" stroke="none" 
	d="
M47.258102,17.994738 
	C47.006092,17.251749 47.004322,16.511337 47.012623,15.401549 
	C47.346554,15.798392 47.670410,16.564611 48.001553,17.664650 
	C47.842010,17.998085 47.675179,17.997700 47.258102,17.994738 
z"/>
<path fill="#DCC7E1" opacity="1.000000" stroke="none" 
	d="
M22.996920,41.015182 
	C22.554056,41.009537 22.111193,41.003891 21.293743,40.690941 
	C20.341146,39.903996 19.763136,39.424358 19.185123,38.944721 
	C19.443590,38.288399 19.702057,37.632072 20.229958,36.821579 
	C21.170929,37.102375 21.842464,37.537342 22.615677,38.258080 
	C22.845005,38.700676 22.972660,38.857506 23.068310,39.256218 
	C23.036303,39.498104 23.007725,39.985256 23.005753,40.242744 
	C23.001495,40.671886 22.999207,40.843533 22.996920,41.015182 
z"/>
<path fill="#BABEFB" opacity="1.000000" stroke="none" 
	d="
M22.514002,37.972305 
	C21.842464,37.537342 21.170929,37.102375 20.279137,36.560570 
	C19.957014,36.194389 19.855145,35.935059 19.647114,35.109253 
	C19.431631,34.311256 19.249165,34.185757 18.993557,34.166279 
	C18.993557,34.166279 18.893644,34.098324 18.898382,33.880592 
	C18.903120,33.662857 18.935726,33.322918 19.343105,33.275951 
	C20.011946,33.149868 20.273409,33.070751 20.727634,33.215603 
	C21.571096,34.607105 22.221792,35.774639 22.852921,37.224083 
	C22.726900,37.661434 22.620451,37.816872 22.514002,37.972305 
z"/>
<path fill="#D8BFD9" opacity="1.000000" stroke="none" 
	d="
M19.119757,39.283279 
	C19.763136,39.424358 20.341146,39.903996 20.961567,40.690598 
	C20.892464,41.316551 20.701611,41.577515 20.215328,41.896904 
	C19.684288,41.216190 19.369337,40.419014 19.119757,39.283279 
z"/>
<path fill="#585D96" opacity="1.000000" stroke="none" 
	d="
M17.865891,33.082035 
	C17.509571,33.032780 17.153254,32.983524 16.483238,32.574131 
	C16.127346,31.823221 16.085148,31.432447 16.321264,31.018837 
	C16.781576,31.036421 16.963572,31.076839 17.204624,31.255310 
	C17.263681,31.393366 17.446365,31.629969 17.446365,31.629969 
	C17.446365,31.629969 17.738338,31.566465 17.864716,31.911251 
	C17.983082,32.501678 17.975071,32.747322 17.938360,33.011368 
	C17.909660,33.029762 17.865891,33.082035 17.865891,33.082035 
z"/>
<path fill="#8BB4F8" opacity="1.000000" stroke="none" 
	d="
M15.209606,32.848129 
	C14.987311,32.923664 14.765017,32.999203 14.231052,33.108688 
	C13.919383,33.142639 14.010854,33.022854 14.070395,32.702850 
	C14.107142,31.949692 14.084350,31.516531 14.332722,31.043198 
	C14.784601,30.973331 14.965317,30.943642 15.145376,31.237995 
	C15.166348,31.990736 15.187977,32.419434 15.209606,32.848129 
z"/>
<path fill="#6886CF" opacity="1.000000" stroke="none" 
	d="
M15.476458,32.847946 
	C15.187977,32.419434 15.166348,31.990736 15.358561,31.244179 
	C15.572401,30.926321 15.996734,30.995949 16.007772,31.007217 
	C16.018812,31.018488 16.042950,31.041672 16.042950,31.041672 
	C16.085148,31.432447 16.127346,31.823221 16.222094,32.505775 
	C16.097532,32.814293 15.920421,32.831032 15.476458,32.847946 
z"/>
<path fill="#D6C7EA" opacity="1.000000" stroke="none" 
	d="
M13.894979,33.213940 
	C13.314411,33.360855 12.758246,33.436470 12.060501,33.298027 
	C11.918920,33.083965 11.979317,33.024738 12.318462,33.031712 
	C13.108690,33.033409 13.559772,33.028133 14.010854,33.022854 
	C14.010854,33.022854 13.919383,33.142639 13.894979,33.213940 
z"/>
<path fill="#D6C7EA" opacity="1.000000" stroke="none" 
	d="
M11.410811,33.103252 
	C11.197488,32.853645 11.252600,32.633850 11.640654,32.540955 
	C11.856618,32.638485 11.979317,33.024738 11.979317,33.024738 
	C11.979317,33.024738 11.918920,33.083965 11.890299,33.116829 
	C11.861677,33.149693 11.562270,33.103695 11.410811,33.103252 
z"/>
<path fill="#D6C7EA" opacity="1.000000" stroke="none" 
	d="
M18.935726,33.322918 
	C18.935726,33.322918 18.903120,33.662857 18.865999,33.829586 
	C18.539013,33.888325 18.301733,33.710224 17.991465,33.272022 
	C17.865891,33.082035 17.909660,33.029762 18.134876,33.052879 
	C18.360090,33.076000 18.758577,33.123322 18.817284,33.160423 
	C18.875992,33.197525 18.935726,33.322918 18.935726,33.322918 
z"/>
<path fill="#A68B9C" opacity="1.000000" stroke="none" 
	d="
M10.004352,33.084782 
	C10.004352,33.084782 10.443754,33.055115 10.658945,33.094528 
	C10.789473,33.407349 10.610520,33.586777 10.154514,33.534645 
	C9.971750,33.397072 10.004352,33.084782 10.004352,33.084782 
z"/>
<path fill="#997E8F" opacity="1.000000" stroke="none" 
	d="
M9.730497,33.048912 
	C10.004352,33.084782 9.971750,33.397072 9.956821,33.551392 
	C9.941894,33.705711 9.496990,33.858871 9.262215,33.871529 
	C9.027440,33.884186 8.979473,33.471371 8.942984,33.267036 
	C9.089876,33.046150 9.273260,33.029594 9.730497,33.048912 
z"/>
<path fill="#D6C7EA" opacity="1.000000" stroke="none" 
	d="
M19.039566,34.309948 
	C19.249165,34.185757 19.431631,34.311256 19.514866,34.712791 
	C19.304922,34.786201 19.170523,34.643139 19.039566,34.309948 
z"/>
<path fill="#E3BDD0" opacity="1.000000" stroke="none" 
	d="
M33.401703,55.000984 
	C29.971071,55.001781 26.939703,55.001148 23.454205,55.000183 
	C23.666159,52.593021 24.332241,50.186199 24.998882,47.390678 
	C24.999439,47.001984 25.000000,47.000000 25.397942,47.000149 
	C26.856192,46.998287 27.916496,46.996281 29.331360,46.959518 
	C31.450632,46.282185 33.215347,45.639606 34.988022,45.371788 
	C35.662594,46.835098 36.329201,47.923649 36.997780,49.384293 
	C37.001354,50.503429 37.002964,51.250469 37.002892,52.372841 
	C36.999332,53.498829 36.997452,54.249489 36.995575,55.000153 
	C35.930706,54.999950 34.865837,54.999748 33.401703,55.000984 
z"/>
<path fill="#EBBBBF" opacity="1.000000" stroke="none" 
	d="
M28.976803,46.994270 
	C27.916496,46.996281 26.856192,46.998287 25.398529,46.999687 
	C25.000811,45.933445 25.000448,44.867817 25.000237,43.401237 
	C25.000387,43.000286 25.005575,43.003750 25.403519,43.002594 
	C26.862186,43.003094 27.922915,43.004753 28.984587,43.405289 
	C28.982624,44.867531 28.979713,45.930901 28.976803,46.994270 
z"/>
<path fill="#E7C3D9" opacity="1.000000" stroke="none" 
	d="
M23.043903,41.331375 
	C22.999207,40.843533 23.001495,40.671886 23.336260,40.256161 
	C24.109709,40.027454 24.550682,40.042828 25.112690,40.264030 
	C25.442350,40.723942 25.701696,40.905655 25.905365,41.273758 
	C25.534504,42.022926 25.270041,42.513340 25.005575,43.003750 
	C25.005575,43.003750 25.000387,43.000286 25.000210,43.001823 
	C24.363651,42.551430 23.727268,42.099499 23.043903,41.331375 
z"/>
<path fill="#6886CF" opacity="1.000000" stroke="none" 
	d="
M12.318462,33.031712 
	C11.979317,33.024738 11.856618,32.638485 11.789614,32.447968 
	C12.147583,31.679747 12.572556,31.102045 13.279747,30.218349 
	C13.561968,29.912355 14.052753,29.962469 14.043959,30.243008 
	C14.043962,30.710155 14.052760,30.896765 14.061557,31.083372 
	C14.084350,31.516531 14.107142,31.949692 14.070395,32.702850 
	C13.559772,33.028133 13.108690,33.033409 12.318462,33.031712 
z"/>
<path fill="#DDCCF5" opacity="1.000000" stroke="none" 
	d="
M10.879745,27.219643 
	C11.038551,27.229519 11.356264,27.420792 11.753202,27.792740 
	C11.832430,27.973417 11.860609,27.952795 11.860609,27.952795 
	C11.619184,27.720238 11.345198,27.536320 10.879745,27.219643 
z"/>
<path fill="#585D96" opacity="1.000000" stroke="none" 
	d="
M14.052753,29.962469 
	C14.052753,29.962469 13.561968,29.912355 13.324348,29.848228 
	C13.086730,29.784100 13.136991,29.535503 13.169286,29.411808 
	C13.602355,29.162537 14.003129,29.036959 14.689161,28.910757 
	C14.974420,28.910131 14.958749,29.049314 14.976536,29.287350 
	C14.994324,29.525383 14.938549,29.999643 14.717358,29.984226 
	C14.496165,29.968809 14.052753,29.962469 14.052753,29.962469 
z"/>
<path fill="#E3B3C8" opacity="1.000000" stroke="none" 
	d="
M9.120219,31.482475 
	C8.993343,31.383215 8.980246,31.422104 8.971312,31.441692 
	C8.962379,31.461279 9.388205,31.377453 9.388205,31.377453 
	C9.388205,31.377453 9.247095,31.581736 9.120219,31.482475 
z"/>
<path fill="#C9CFFF" opacity="1.000000" stroke="none" 
	d="
M11.785920,28.145811 
	C11.860609,27.952795 11.832430,27.973417 11.852207,27.967171 
	C11.903924,28.135000 11.935863,28.309076 12.016542,28.744570 
	C11.749653,28.888260 11.631636,28.665874 11.785920,28.145811 
z"/>
<path fill="#EDCBDD" opacity="1.000000" stroke="none" 
	d="
M11.326693,24.031679 
	C11.815727,23.412819 12.634669,22.830420 13.737982,22.125713 
	C15.151749,22.576307 16.281145,23.149208 17.700001,24.196321 
	C17.962418,25.106506 17.935371,25.542479 17.602013,26.015846 
	C16.533615,26.365635 15.771526,26.678030 15.009439,26.990425 
	C13.891826,26.016329 12.774213,25.042234 11.326693,24.031679 
z"/>
<path fill="#E4C7DF" opacity="1.000000" stroke="none" 
	d="
M17.908325,25.978453 
	C17.935371,25.542479 17.962418,25.106506 17.989788,24.343597 
	C18.157751,24.011477 18.325388,24.006292 19.120445,24.000595 
	C20.499155,24.000626 21.250446,24.001167 22.000704,24.376091 
	C21.998722,25.499176 21.997772,26.247881 21.763206,27.086887 
	C21.094315,27.414103 20.659040,27.651014 19.996143,27.689034 
	C19.148457,26.986248 18.528391,26.482351 17.908325,25.978453 
z"/>
<path fill="#EDC9DE" opacity="1.000000" stroke="none" 
	d="
M22.001738,24.001711 
	C21.250446,24.001167 20.499155,24.000626 19.372009,23.998219 
	C18.997494,22.932081 18.998833,21.867809 19.249832,20.402985 
	C19.499495,20.002436 19.997206,20.001148 20.281727,20.127815 
	C21.119961,20.536961 21.673672,20.819441 22.172588,21.409431 
	C22.082451,22.132694 22.047110,22.548441 22.016491,23.229824 
	C22.026140,23.672506 22.031069,23.849554 22.023010,24.017521 
	C22.010027,24.008436 22.001738,24.001711 22.001738,24.001711 
z"/>
<path fill="#E8CDDC" opacity="1.000000" stroke="none" 
	d="
M19.997208,20.001148 
	C19.997206,20.001148 19.499495,20.002436 19.250664,20.003464 
	C19.126953,19.356373 19.252075,18.708252 19.656425,18.000370 
	C19.935656,17.940607 20.001741,17.998484 20.014435,18.349751 
	C20.017155,19.134394 20.007181,19.567772 19.997208,20.001148 
z"/>
<path fill="#CEB7CB" opacity="1.000000" stroke="none" 
	d="
M19.030796,16.232738 
	C19.210434,16.211063 19.505884,16.437119 19.872566,16.943172 
	C19.678066,16.975603 19.412338,16.728039 19.030796,16.232738 
z"/>
<path fill="#E0CADA" opacity="1.000000" stroke="none" 
	d="
M22.997501,18.003149 
	C23.195602,17.417521 23.393703,16.831894 23.846624,16.053873 
	C24.456646,16.362333 24.811846,16.863188 25.246521,17.897087 
	C25.474649,18.709784 25.699236,18.899755 25.999870,19.000017 
	C25.999985,18.999985 25.994305,18.999496 25.992771,19.249168 
	C25.991240,19.498838 25.995218,19.998163 25.663740,20.000593 
	C24.890209,20.005760 24.448156,20.008499 23.980469,19.714518 
	C23.635725,18.946249 23.316614,18.474699 22.997501,18.003149 
z"/>
<path fill="#F8D0E2" opacity="1.000000" stroke="none" 
	d="
M25.999756,19.000050 
	C25.699236,18.899755 25.474649,18.709784 25.309332,18.206615 
	C25.292665,17.983097 25.645170,17.993483 25.822517,18.246887 
	C25.999866,18.500292 25.999756,19.000050 25.999756,19.000050 
z"/>
<path fill="#ECD0D7" opacity="1.000000" stroke="none" 
	d="
M25.999870,19.000017 
	C25.999756,19.000050 25.999866,18.500292 25.998808,18.250679 
	C26.164772,18.000742 26.331795,18.000420 26.749296,18.000170 
	C26.999825,18.173754 26.999874,18.347265 26.748447,18.764523 
	C26.329418,19.005342 26.161861,19.002420 25.994305,18.999496 
	C25.994305,18.999496 25.999985,18.999985 25.999870,19.000017 
z"/>
<path fill="#ECD0D7" opacity="1.000000" stroke="none" 
	d="
M22.780016,17.868572 
	C23.316614,18.474699 23.635725,18.946249 23.980181,19.958767 
	C24.005526,20.499735 24.005926,20.988701 23.708206,21.001068 
	C23.016121,21.042933 22.621752,21.072426 22.227385,21.101919 
	C21.673672,20.819441 21.119961,20.536961 20.281727,20.127815 
	C20.007181,19.567772 20.017155,19.134394 20.049170,18.376637 
	C20.901649,17.946167 21.732088,17.840080 22.780016,17.868572 
z"/>
<path fill="#C2CCCD" opacity="1.000000" stroke="none" 
	d="
M49.993668,33.223541 
	C50.262367,33.201324 50.196045,33.376534 50.044842,33.807861 
	C49.887817,34.497688 49.882000,34.756180 49.822659,35.369888 
	C50.093285,36.853821 50.417442,37.982540 50.741600,39.111259 
	C50.580322,40.235271 50.419041,41.359283 49.911167,42.695034 
	C49.564575,42.906773 49.123173,42.814903 49.055080,42.551476 
	C48.202950,42.216507 47.418915,42.144962 46.466873,42.096207 
	C46.298874,42.118996 45.961662,42.154564 45.973480,41.774994 
	C45.996834,40.638718 46.008377,39.882008 46.205132,38.843056 
	C46.716522,37.751614 47.042702,36.942425 47.671803,36.065979 
	C48.150150,35.654030 48.325577,35.309334 48.500999,34.964638 
	C48.908989,34.391678 49.316978,33.818718 49.993668,33.223541 
z"/>
<path fill="#7A9CB5" opacity="1.000000" stroke="none" 
	d="
M54.197372,50.084602 
	C54.145901,50.508144 54.094421,50.931690 53.682262,51.677040 
	C52.630367,52.001228 51.939152,52.003609 51.064400,51.804047 
	C50.590565,51.389030 50.300274,51.175957 50.005764,50.595444 
	C49.979183,49.735222 49.956818,49.242443 49.906910,48.425171 
	C49.575298,47.076832 49.271225,46.052994 49.152275,45.017254 
	C49.337406,45.005356 49.708229,44.993156 49.708229,44.993156 
	C51.891834,45.571789 54.075436,46.150425 56.642246,46.593277 
	C57.057049,47.015972 57.088642,47.574444 56.724815,48.591869 
	C55.618717,49.395416 54.908047,49.740009 54.197372,50.084602 
z"/>
<path fill="#4576D5" opacity="1.000000" stroke="none" 
	d="
M55.324600,35.995667 
	C54.518967,36.984783 53.616928,37.978371 52.360893,38.533783 
	C51.974213,37.360279 51.941525,36.624947 51.908836,35.889614 
	C51.908836,35.889614 51.941837,35.894821 52.193779,35.936848 
	C52.616291,35.983841 52.786854,35.988808 53.303772,35.996197 
	C54.111980,35.994392 54.573833,35.990170 55.035690,35.985943 
	C55.035690,35.985943 55.228191,36.000137 55.324600,35.995667 
z"/>
<path fill="#4876CA" opacity="1.000000" stroke="none" 
	d="
M51.707947,35.815762 
	C51.941525,36.624947 51.974213,37.360279 52.016235,38.462952 
	C51.809566,38.865311 51.593563,38.900330 51.059578,39.023308 
	C50.417442,37.982540 50.093285,36.853821 50.128754,35.357101 
	C50.692341,34.988392 50.896305,34.987690 51.100266,34.986984 
	C51.201958,35.256905 51.337555,35.508545 51.707947,35.815762 
z"/>
<path fill="#FDEDF4" opacity="1.000000" stroke="none" 
	d="
M58.791134,38.065269 
	C59.005646,38.484287 59.009846,38.910778 59.017349,39.657333 
	C58.511032,40.102772 58.001404,40.228153 57.491779,40.353535 
	C57.610016,39.772816 57.728256,39.192093 58.005375,38.372185 
	C58.164257,38.132996 58.580822,38.072742 58.791134,38.065269 
z"/>
<path fill="#7D87A1" opacity="1.000000" stroke="none" 
	d="
M49.852158,44.675613 
	C49.708229,44.993156 49.337406,45.005356 49.141205,45.033997 
	C48.945000,45.062634 48.906452,45.045944 48.834190,44.783531 
	C48.502453,44.045273 48.242981,43.569427 48.271564,43.036751 
	C48.747471,42.924915 48.935322,42.869907 49.123173,42.814903 
	C49.123173,42.814903 49.564575,42.906773 49.787891,42.937420 
	C50.006168,43.431404 50.001129,43.894737 49.852158,44.675613 
z"/>
<path fill="#536AA2" opacity="1.000000" stroke="none" 
	d="
M56.800312,35.930359 
	C57.167606,35.884304 57.458443,36.031685 57.610962,36.087749 
	C57.804855,36.376419 57.846222,36.609024 57.963188,37.187683 
	C57.342102,37.318089 56.645416,37.102448 55.822990,36.472691 
	C55.942505,36.031189 56.187759,36.003799 56.800312,35.930359 
z"/>
<path fill="#CEDEEB" opacity="1.000000" stroke="none" 
	d="
M54.545235,50.075996 
	C54.908047,49.740009 55.618717,49.395416 56.650375,49.008434 
	C56.977528,49.136463 56.983696,49.306881 56.989120,49.732952 
	C56.289951,50.014866 55.591526,50.041130 54.545235,50.075996 
z"/>
<path fill="#7F97AE" opacity="1.000000" stroke="none" 
	d="
M51.247940,52.005989 
	C51.939152,52.003609 52.630367,52.001228 53.667282,51.998268 
	C54.012981,51.997692 54.377090,52.066635 54.558811,52.097923 
	C54.776508,52.544498 54.812481,52.959778 54.816772,53.686371 
	C54.122265,53.998936 53.459435,54.000195 52.312859,53.767296 
	C51.635387,53.024094 51.441662,52.515041 51.247940,52.005989 
z"/>
<path fill="#DECCDA" opacity="1.000000" stroke="none" 
	d="
M36.997345,55.333115 
	C36.997452,54.249489 36.999332,53.498829 37.376625,52.373615 
	C38.500252,52.000111 39.248463,52.001152 39.998184,52.001457 
	C39.999691,52.000717 39.994308,52.012394 40.103310,52.223309 
	C40.403568,52.698364 40.651382,52.888981 40.971581,53.255154 
	C40.987400,53.504238 40.994293,54.003365 40.994293,54.003365 
	C40.181740,54.912876 39.369186,55.822388 38.278870,56.865669 
	C38.001102,56.999439 37.502487,56.997883 37.253227,56.997871 
	C37.002354,56.553936 37.000732,56.110008 36.997345,55.333115 
z"/>
<path fill="#D6E6F4" opacity="1.000000" stroke="none" 
	d="
M41.326454,54.002331 
	C40.994293,54.003365 40.987400,53.504238 40.873543,53.036549 
	C40.566910,52.297638 40.311783,52.112148 39.994308,52.012394 
	C39.994308,52.012394 39.999691,52.000717 39.999542,51.673042 
	C40.002556,50.907181 40.005711,50.468994 40.335701,49.992100 
	C41.201550,49.630733 41.740570,49.308079 42.351425,49.029858 
	C42.423264,49.074291 42.591866,49.084900 42.758781,49.360374 
	C43.610207,50.105045 44.294716,50.574238 44.983036,51.408150 
	C44.899982,52.497269 44.813118,53.221668 44.436699,53.962532 
	C43.759892,53.986446 43.372631,53.993896 42.985374,54.001347 
	C42.543121,54.001331 42.100864,54.001316 41.326454,54.002331 
z"/>
<path fill="#C2D2DF" opacity="1.000000" stroke="none" 
	d="
M42.994160,54.253933 
	C43.372631,53.993896 43.759892,53.986446 44.565102,54.209557 
	C44.985241,54.625099 44.987423,54.810074 44.989605,54.995049 
	C44.552006,54.996937 44.114410,54.998829 43.350021,55.006153 
	C43.016468,54.843231 43.009708,54.674873 42.994160,54.253933 
z"/>
<path fill="#CEE4F6" opacity="1.000000" stroke="none" 
	d="
M51.064400,51.804047 
	C51.441662,52.515041 51.635387,53.024094 51.980686,53.767223 
	C52.104065,54.167267 52.075867,54.333237 52.007656,54.748569 
	C51.225315,54.999367 50.482983,55.000805 49.369125,55.004333 
	C48.546284,55.006905 48.094959,55.007378 47.324490,54.663174 
	C47.344151,53.272591 47.682957,52.226685 48.263248,51.171124 
	C48.504734,51.161465 48.961788,51.004192 49.225082,51.025436 
	C49.662243,51.018749 49.836109,50.990818 50.009979,50.962887 
	C50.300274,51.175957 50.590565,51.389030 51.064400,51.804047 
z"/>
<path fill="#768E9E" opacity="1.000000" stroke="none" 
	d="
M48.021763,51.180782 
	C47.682957,52.226685 47.344151,53.272591 46.986176,54.651527 
	C46.667404,55.115131 46.428371,55.317310 46.122589,55.791718 
	C45.654499,55.918415 45.390331,55.734489 45.096184,55.217800 
	C44.987423,54.810074 44.985241,54.625099 44.854652,54.193096 
	C44.813118,53.221668 44.899982,52.497269 44.999199,51.140778 
	C45.018482,50.330353 45.025410,50.152027 45.274178,50.076168 
	C45.969376,50.443657 46.422729,50.708683 47.170647,50.976269 
	C47.661171,50.965919 47.857128,50.953011 48.074829,51.004124 
	C48.096577,51.068142 48.021763,51.180782 48.021763,51.180782 
z"/>
<path fill="#E1CFE4" opacity="1.000000" stroke="none" 
	d="
M17.602013,26.015846 
	C18.528391,26.482351 19.148457,26.986248 19.941242,27.832314 
	C20.113962,28.174480 20.032871,28.467510 19.678490,28.419472 
	C19.138554,28.795937 18.952997,29.220440 18.624969,29.883076 
	C18.297525,30.441973 18.112551,30.762735 17.842999,31.189636 
	C17.758421,31.295776 17.738338,31.566465 17.738338,31.566465 
	C17.738338,31.566465 17.446365,31.629969 17.446365,31.629969 
	C17.446365,31.629969 17.263681,31.393366 17.233639,30.937925 
	C16.907198,30.220976 16.610802,29.959465 16.281416,29.689268 
	C16.248428,29.680582 16.180206,29.680075 16.046179,29.468929 
	C15.594351,29.188293 15.276550,29.118803 14.958749,29.049314 
	C14.958749,29.049314 14.974420,28.910131 15.000929,28.845362 
	C15.020162,28.382971 15.012886,27.985350 15.007524,27.289078 
	C15.771526,26.678030 16.533615,26.365635 17.602013,26.015846 
z"/>
<path fill="#EED1E5" opacity="1.000000" stroke="none" 
	d="
M32.011349,21.001966 
	C32.011349,21.001966 32.501198,21.000114 32.860519,21.215096 
	C33.421410,21.698004 33.680767,21.886358 33.997917,21.995138 
	C33.998554,22.162727 33.999195,22.330318 33.626869,22.749252 
	C32.509491,23.002941 31.765072,23.005289 30.855770,23.092670 
	C30.627794,23.282528 30.486973,23.445045 30.514729,23.482441 
	C30.653316,23.669163 30.836159,23.823034 31.003555,23.995384 
	C31.003679,24.002302 31.023561,24.007208 30.780424,24.269260 
	C29.361019,24.689106 28.184753,24.846897 26.894756,24.788815 
	C26.580582,24.303240 26.321796,24.112829 26.004089,23.754246 
	C26.003508,23.506783 26.001982,23.011856 26.251968,23.009117 
	C26.668627,23.004255 26.835299,23.002129 27.321667,22.859661 
	C28.761353,22.477755 29.881338,22.236187 31.217979,21.883694 
	C31.704477,21.573910 31.896715,21.316975 32.011349,21.001966 
z"/>
<path fill="#F1D9E9" opacity="1.000000" stroke="none" 
	d="
M31.020655,23.007637 
	C31.765072,23.005289 32.509491,23.002941 33.626129,23.000637 
	C33.998352,23.000683 34.491997,23.005737 34.741211,23.248695 
	C34.990425,23.491655 34.988178,23.962217 34.988178,23.962217 
	C34.988258,24.405924 34.988338,24.849632 34.751022,25.590008 
	C34.513630,25.886677 34.082317,25.802158 34.001118,25.477779 
	C32.954468,24.771338 31.989014,24.389273 31.023561,24.007208 
	C31.023561,24.007208 31.003679,24.002302 31.009249,23.750259 
	C31.014818,23.498217 31.020655,23.007637 31.020655,23.007637 
z"/>
<path fill="#EDD6E2" opacity="1.000000" stroke="none" 
	d="
M35.241615,23.977045 
	C34.988178,23.962217 34.990425,23.491655 34.987919,23.256645 
	C35.308689,23.118696 35.571579,23.302238 35.888374,23.787716 
	C35.833462,23.999403 35.664257,23.995638 35.241615,23.977045 
z"/>
<path fill="#E8CFDE" opacity="1.000000" stroke="none" 
	d="
M33.998302,21.747021 
	C33.680767,21.886358 33.421410,21.698004 33.105446,21.215191 
	C33.159134,21.000025 33.327221,20.999743 33.747421,21.001066 
	C33.999542,21.002670 33.998688,21.498905 33.998302,21.747021 
z"/>
<path fill="#F4D9E3" opacity="1.000000" stroke="none" 
	d="
M31.001326,21.994617 
	C29.881338,22.236187 28.761353,22.477755 27.295933,22.563574 
	C26.633055,21.938553 26.315607,21.469280 25.998108,20.749546 
	C25.997110,20.332109 25.996164,20.165136 25.995218,19.998163 
	C25.995218,19.998163 25.991240,19.498838 25.992771,19.249168 
	C26.161861,19.002420 26.329418,19.005342 26.747946,19.024790 
	C27.498409,19.384487 27.997898,19.727661 28.973619,20.342897 
	C29.967533,20.739750 30.485216,20.864538 31.002071,21.240650 
	C31.001272,21.659521 31.001299,21.827070 31.001326,21.994617 
z"/>
<path fill="#E8CFDE" opacity="1.000000" stroke="none" 
	d="
M31.217979,21.883694 
	C31.001299,21.827070 31.001272,21.659521 31.003019,20.997437 
	C31.004793,20.502901 31.004793,20.016203 31.004793,20.016203 
	C31.321436,20.122324 31.580349,20.308655 31.896442,20.788582 
	C31.896715,21.316975 31.704477,21.573910 31.217979,21.883694 
z"/>
<path fill="#EED1E5" opacity="1.000000" stroke="none" 
	d="
M30.685398,20.020060 
	C31.004793,20.016203 31.004793,20.502901 31.003845,20.746113 
	C30.485216,20.864538 29.967533,20.739750 29.280205,20.411030 
	C29.529041,20.146036 29.947523,20.084976 30.685398,20.020060 
z"/>
<path fill="#E0BFD1" opacity="1.000000" stroke="none" 
	d="
M36.999626,29.994743 
	C37.862610,30.827921 38.725597,31.661100 39.655048,32.976440 
	C39.135769,33.867069 38.550026,34.275532 37.883598,34.781635 
	C37.802917,34.879272 37.667835,35.093456 37.390587,35.250607 
	C37.100941,35.619854 37.088543,35.831951 37.003822,36.214996 
	C36.913628,36.642670 36.949944,36.891533 36.933575,37.364395 
	C36.716755,37.726162 36.606800,37.856075 36.499599,37.994431 
	C36.502350,38.002872 36.520290,38.001846 36.337006,37.602486 
	C36.111202,36.619015 36.068684,36.034904 35.952744,35.407730 
	C35.879322,35.364666 35.790573,35.219391 35.861809,34.905632 
	C35.952888,34.379208 35.972733,34.166542 35.880135,33.702797 
	C35.509968,32.966663 35.252247,32.481606 35.119881,31.733162 
	C35.830036,30.978096 36.414829,30.486420 36.999626,29.994743 
z"/>
<path fill="#3D7BD5" opacity="1.000000" stroke="none" 
	d="
M47.368881,36.133232 
	C47.042702,36.942425 46.716522,37.751614 45.947327,38.780441 
	C45.332260,39.040176 45.160202,39.080276 44.644936,39.064693 
	C43.643738,38.791039 42.985752,38.573071 42.625618,38.195309 
	C42.952835,37.032211 42.982193,36.028908 43.251701,34.875679 
	C43.597279,34.202896 43.702709,33.680042 43.808140,33.157185 
	C44.726341,33.276642 45.644539,33.396095 46.515984,33.958000 
	C46.271641,34.632294 46.152351,34.899170 46.187965,35.319099 
	C46.375717,35.597652 46.522018,35.714016 46.865402,35.881451 
	C47.027328,35.976692 47.368881,36.133232 47.368881,36.133232 
z"/>
<path fill="#EECDDB" opacity="1.000000" stroke="none" 
	d="
M36.975044,29.699688 
	C36.414829,30.486420 35.830036,30.978096 34.864227,31.843510 
	C33.990852,32.475742 33.498501,32.734238 32.998001,32.642365 
	C32.329571,31.531870 31.669277,30.771744 31.052168,29.692848 
	C31.731098,28.916967 32.366844,28.459858 33.191410,28.244629 
	C34.253544,28.324417 35.126858,28.162323 36.000175,28.000229 
	C36.316940,28.468365 36.633701,28.936499 36.975044,29.699688 
z"/>
<path fill="#DDCCF5" opacity="1.000000" stroke="none" 
	d="
M43.434853,33.102955 
	C43.702709,33.680042 43.597279,34.202896 42.877502,34.821205 
	C41.509544,34.925297 40.755924,34.933941 39.764164,34.898323 
	C39.526020,34.854061 39.049980,34.942417 38.770370,34.912216 
	C38.315266,34.816013 38.139774,34.750004 37.964283,34.683998 
	C38.550026,34.275532 39.135769,33.867069 39.862282,33.229889 
	C41.022556,33.017025 42.042061,33.032875 43.434853,33.102955 
z"/>
<path fill="#E7C8D7" opacity="1.000000" stroke="none" 
	d="
M35.973869,27.697218 
	C35.126858,28.162323 34.253544,28.324417 33.220375,27.925938 
	C33.401127,26.844296 33.741722,26.323227 34.082317,25.802158 
	C34.082317,25.802158 34.513630,25.886677 34.729721,25.922264 
	C35.279728,26.436634 35.613647,26.915421 35.973869,27.697218 
z"/>
<path fill="#6590F0" opacity="1.000000" stroke="none" 
	d="
M46.111362,35.201084 
	C46.152351,34.899170 46.271641,34.632294 46.651054,34.277260 
	C46.832878,34.154064 47.097656,34.407917 47.071354,34.657524 
	C47.045052,34.907135 46.850082,35.090836 46.659290,35.077450 
	C46.468498,35.064064 46.111362,35.201084 46.111362,35.201084 
z"/>
<path fill="#6192CD" opacity="1.000000" stroke="none" 
	d="
M48.192543,34.892036 
	C48.325577,35.309334 48.150150,35.654030 47.671803,36.065979 
	C47.368881,36.133232 47.027328,35.976692 46.945675,35.717098 
	C46.864021,35.457504 46.850082,35.090836 46.850082,35.090836 
	C46.850082,35.090836 47.045052,34.907135 47.150238,34.823101 
	C47.464981,34.765862 47.674534,34.792652 48.192543,34.892036 
z"/>
<path fill="#6C8EDC" opacity="1.000000" stroke="none" 
	d="
M55.034355,35.780060 
	C54.573833,35.990170 54.111980,35.994392 53.316727,35.776371 
	C52.983334,35.554127 52.956913,35.114304 52.956913,35.114304 
	C53.434601,35.065311 53.912292,35.016319 54.738464,35.066635 
	C55.086945,35.165939 55.033024,35.574173 55.034355,35.780060 
z"/>
<path fill="#4576D5" opacity="1.000000" stroke="none" 
	d="
M51.071320,34.634346 
	C50.896305,34.987690 50.692341,34.988392 50.182281,35.001884 
	C49.882000,34.756180 49.887817,34.497688 49.965748,33.858047 
	C50.372696,33.745171 50.707531,34.013439 51.071320,34.634346 
z"/>
<path fill="#4876CA" opacity="1.000000" stroke="none" 
	d="
M52.707874,35.124943 
	C52.956913,35.114304 52.983334,35.554127 52.970375,35.773952 
	C52.786854,35.988808 52.616291,35.983841 52.190529,35.953224 
	C51.940910,35.551872 52.115410,35.287872 52.707874,35.124943 
z"/>
<path fill="#3368CF" opacity="1.000000" stroke="none" 
	d="
M22.615677,38.258080 
	C22.620451,37.816872 22.726900,37.661434 22.940084,36.880363 
	C23.349571,35.159405 23.652325,34.064072 24.290859,32.888809 
	C25.385490,33.217606 26.144342,33.626335 26.782585,34.269455 
	C26.657543,34.679520 26.653111,34.855194 26.462612,35.262119 
	C26.494019,36.605358 26.711491,37.717354 26.625231,38.849922 
	C25.247770,38.918442 24.174042,38.966385 23.100315,39.014332 
	C22.972660,38.857506 22.845005,38.700676 22.615677,38.258080 
z"/>
<path fill="#CFD1FB" opacity="1.000000" stroke="none" 
	d="
M23.068310,39.256218 
	C24.174042,38.966385 25.247770,38.918442 26.624710,38.954918 
	C26.927923,39.039341 26.935469,39.249207 26.957901,39.447010 
	C26.980331,39.644814 27.005516,40.042164 26.773565,40.059486 
	C26.541615,40.076805 26.077259,40.104710 25.806549,40.076935 
	C25.354445,40.052174 25.173048,40.055187 24.991653,40.058201 
	C24.550682,40.042828 24.109709,40.027454 23.338230,39.998672 
	C23.007725,39.985256 23.036303,39.498104 23.068310,39.256218 
z"/>
<path fill="#C9CFFF" opacity="1.000000" stroke="none" 
	d="
M23.955078,32.968739 
	C23.652325,34.064072 23.349571,35.159405 22.959652,36.598454 
	C22.221792,35.774639 21.571096,34.607105 21.043190,33.309082 
	C21.593344,33.150337 22.020706,33.122078 22.546453,33.148640 
	C23.102306,33.127209 23.559774,33.050961 23.999836,32.989441 
	C23.982431,33.004166 23.955080,32.968739 23.955078,32.968739 
z"/>
<path fill="#5581D7" opacity="1.000000" stroke="none" 
	d="
M22.448069,33.093822 
	C22.020706,33.122078 21.593344,33.150337 20.850426,33.085114 
	C20.273409,33.070751 20.011946,33.149868 19.343105,33.275951 
	C18.935726,33.322918 18.875992,33.197525 18.790026,32.804726 
	C18.788147,31.948627 18.872234,31.485329 19.346748,31.006519 
	C19.996834,31.008379 20.256493,31.025753 20.903259,31.290760 
	C21.676268,32.056870 22.062168,32.575344 22.448069,33.093822 
z"/>
<path fill="#98BEFF" opacity="1.000000" stroke="none" 
	d="
M18.956322,31.022030 
	C18.872234,31.485329 18.788147,31.948627 18.731319,32.767624 
	C18.758577,33.123322 18.360090,33.076000 18.163574,33.034485 
	C17.975071,32.747322 17.983082,32.501678 17.864716,31.911251 
	C17.738338,31.566465 17.758421,31.295776 18.129631,31.081593 
	C18.696075,30.809305 18.891312,30.751200 19.047016,30.772568 
	C19.007481,30.852039 18.956322,31.022030 18.956322,31.022030 
z"/>
<path fill="#6886CF" opacity="1.000000" stroke="none" 
	d="
M16.314404,29.697954 
	C16.610802,29.959465 16.907198,30.220976 17.174582,30.799870 
	C16.963572,31.076839 16.781576,31.036421 16.321264,31.018837 
	C16.042950,31.041672 16.018812,31.018488 16.074474,30.679626 
	C16.191561,30.126495 16.252983,29.912224 16.314404,29.697954 
z"/>
<path fill="#5C70AF" opacity="1.000000" stroke="none" 
	d="
M16.281416,29.689268 
	C16.252983,29.912224 16.191561,30.126495 16.063435,30.668358 
	C15.996734,30.995949 15.572401,30.926321 15.359217,30.920135 
	C14.965317,30.943642 14.784601,30.973331 14.332722,31.043198 
	C14.052760,30.896765 14.043962,30.710155 14.043959,30.243008 
	C14.052753,29.962469 14.496165,29.968809 15.033224,29.923988 
	C15.773591,29.812801 15.976899,29.746437 16.180206,29.680075 
	C16.180206,29.680075 16.248428,29.680582 16.281416,29.689268 
z"/>
<path fill="#DDC3D7" opacity="1.000000" stroke="none" 
	d="
M36.520290,38.001846 
	C36.520290,38.001846 36.502350,38.002872 36.608597,38.249153 
	C36.829567,38.640110 36.944283,38.784779 37.072723,39.281216 
	C37.390423,40.755413 37.694405,41.877842 37.886513,43.213829 
	C37.576607,43.690014 37.327644,43.888885 36.726448,44.036049 
	C35.943447,44.364410 35.461754,44.680721 34.980061,44.997028 
	C33.215347,45.639606 31.450632,46.282185 29.331360,46.959518 
	C28.979713,45.930901 28.982624,44.867531 28.990856,43.069565 
	C28.993568,41.887501 28.990953,41.440029 29.064102,40.805145 
	C29.275480,40.376278 29.463356,40.186581 30.082493,40.114986 
	C31.477819,39.444592 32.494144,38.707848 33.675003,37.958496 
	C34.059940,37.940704 34.279541,37.951656 35.001320,38.203712 
	C35.842968,38.286404 36.181629,38.144127 36.520290,38.001846 
z"/>
<path fill="#D1C4DC" opacity="1.000000" stroke="none" 
	d="
M34.988022,45.371788 
	C35.461754,44.680721 35.943447,44.364410 36.726959,44.277763 
	C37.034561,44.830219 37.024029,45.152470 36.951801,45.897186 
	C36.977478,47.162067 37.048534,48.003956 37.089439,48.888023 
	C37.059292,48.930206 36.995811,49.012199 36.995811,49.012199 
	C36.329201,47.923649 35.662594,46.835098 34.988022,45.371788 
z"/>
<path fill="#D7D4E2" opacity="1.000000" stroke="none" 
	d="
M40.008869,50.030807 
	C40.005711,50.468994 40.002556,50.907181 39.998035,51.673782 
	C39.248463,52.001152 38.500252,52.000111 37.378307,51.998291 
	C37.002964,51.250469 37.001354,50.503429 36.997780,49.384293 
	C36.995811,49.012199 37.059292,48.930206 37.394691,48.938881 
	C38.142872,48.971664 38.555656,48.995766 39.111427,49.216934 
	C39.490669,49.638233 39.742153,49.843838 40.008869,50.030807 
z"/>
<path fill="#ECBDC8" opacity="1.000000" stroke="none" 
	d="
M28.988338,40.992561 
	C28.990953,41.440029 28.993568,41.887501 28.989910,42.670692 
	C27.922915,43.004753 26.862186,43.003094 25.403519,43.002594 
	C25.270041,42.513340 25.534504,42.022926 25.918064,41.045822 
	C26.037163,40.559128 26.077259,40.104710 26.077259,40.104710 
	C26.077259,40.104710 26.541615,40.076805 26.948586,40.289001 
	C27.899817,40.664986 28.444077,40.828773 28.988338,40.992561 
z"/>
<path fill="#DCC7E1" opacity="1.000000" stroke="none" 
	d="
M25.806549,40.076935 
	C26.077259,40.104710 26.037163,40.559128 26.024464,40.787064 
	C25.701696,40.905655 25.442350,40.723942 25.112690,40.264030 
	C25.173048,40.055187 25.354445,40.052174 25.806549,40.076935 
z"/>
<path fill="#6886CF" opacity="1.000000" stroke="none" 
	d="
M16.046179,29.468929 
	C15.976899,29.746437 15.773591,29.812801 15.254416,29.939404 
	C14.938549,29.999643 14.994324,29.525383 14.976536,29.287350 
	C15.276550,29.118803 15.594351,29.188293 16.046179,29.468929 
z"/>
<path fill="#D6DAF8" opacity="1.000000" stroke="none" 
	d="
M20.032871,28.467510 
	C20.032871,28.467510 20.113962,28.174480 20.168863,28.031202 
	C20.659040,27.651014 21.094315,27.414103 22.023399,27.087240 
	C22.690231,26.989618 22.863256,26.981951 23.034851,27.235210 
	C23.033772,27.843111 23.034126,28.190081 22.841263,28.640491 
	C22.648046,28.743935 22.239492,28.899010 21.887228,28.958878 
	C21.185070,29.328123 20.835178,29.637501 20.465918,29.900227 
	C20.446548,29.853573 20.352152,29.817581 20.250565,29.485210 
	C20.110277,28.924398 20.071573,28.695955 20.032871,28.467510 
z"/>
<path fill="#F9DDED" opacity="1.000000" stroke="none" 
	d="
M23.036283,26.974281 
	C22.863256,26.981951 22.690231,26.989618 22.257015,26.996937 
	C21.997772,26.247881 21.998722,25.499176 22.000704,24.376091 
	C22.001738,24.001711 22.010027,24.008436 22.274530,24.123890 
	C23.023188,24.495121 23.507341,24.750898 23.969315,25.295780 
	C23.643517,26.048019 23.339899,26.511150 23.036283,26.974281 
z"/>
<path fill="#F8D0E2" opacity="1.000000" stroke="none" 
	d="
M23.991495,25.006674 
	C23.507341,24.750898 23.023188,24.495121 22.287514,24.132973 
	C22.031069,23.849554 22.026140,23.672506 22.348869,23.255932 
	C23.121183,23.012388 23.565844,23.008369 24.342327,23.008038 
	C25.116760,23.011768 25.559370,23.011812 26.001982,23.011856 
	C26.001982,23.011856 26.003508,23.506783 25.829178,23.993793 
	C25.100395,24.656094 24.545946,24.831385 23.991495,25.006674 
z"/>
<path fill="#AD8697" opacity="1.000000" stroke="none" 
	d="
M24.010504,23.004349 
	C23.565844,23.008369 23.121183,23.012388 22.344147,22.990299 
	C22.047110,22.548441 22.082451,22.132694 22.172588,21.409431 
	C22.621752,21.072426 23.016121,21.042933 23.790730,21.247353 
	C24.256224,21.631918 24.341475,21.782568 24.317364,22.198938 
	C24.142170,22.644554 24.076338,22.824451 24.010504,23.004349 
z"/>
<path fill="#F8D0E2" opacity="1.000000" stroke="none" 
	d="
M24.426725,21.933220 
	C24.341475,21.782568 24.256224,21.631918 24.088449,21.234985 
	C24.005926,20.988701 24.005526,20.499735 24.005814,20.255486 
	C24.448156,20.008499 24.890209,20.005760 25.663740,20.000593 
	C25.996164,20.165136 25.997110,20.332109 25.872437,20.961899 
	C25.306786,21.594217 24.866756,21.763718 24.426725,21.933220 
z"/>
<path fill="#EADFF1" opacity="1.000000" stroke="none" 
	d="
M44.988144,39.120380 
	C45.160202,39.080276 45.332260,39.040176 45.762115,39.062691 
	C46.008377,39.882008 45.996834,40.638718 45.978119,41.952667 
	C45.970943,42.509911 45.988102,42.868832 45.995148,42.912453 
	C46.002193,42.956074 45.916122,42.962238 45.603142,42.973343 
	C44.873112,42.992657 44.456059,43.000866 44.027191,42.636330 
	C44.009193,41.518669 44.003017,40.773750 44.202602,39.925415 
	C44.668964,39.643768 44.862225,39.409897 44.988144,39.120380 
z"/>
<path fill="#98AEBF" opacity="1.000000" stroke="none" 
	d="
M49.055080,42.551476 
	C48.935322,42.869907 48.747471,42.924915 47.969177,42.928196 
	C47.198082,42.761742 47.017433,42.647011 46.792503,42.414841 
	C46.748226,42.297394 46.634876,42.073414 46.634876,42.073414 
	C47.418915,42.144962 48.202950,42.216507 49.055080,42.551476 
z"/>
<path fill="#BDE2FB" opacity="1.000000" stroke="none" 
	d="
M46.466873,42.096207 
	C46.634876,42.073414 46.748226,42.297394 46.575779,42.488815 
	C46.403332,42.680237 45.988102,42.868832 45.988102,42.868832 
	C45.988102,42.868832 45.970943,42.509911 45.966301,42.332237 
	C45.961662,42.154564 46.298874,42.118996 46.466873,42.096207 
z"/>
<path fill="#626E73" opacity="1.000000" stroke="none" 
	d="
M48.961788,51.004192 
	C48.961788,51.004192 48.504734,51.161465 48.263248,51.171124 
	C48.021763,51.180782 48.096577,51.068142 48.065208,50.721046 
	C47.715420,49.946781 47.397003,49.519608 46.813255,49.071453 
	C46.370792,49.040127 46.193657,49.029778 46.000774,48.740002 
	C45.726166,47.992374 45.467304,47.524166 45.123787,47.026531 
	C45.039131,46.997105 44.859890,46.998192 44.943687,46.692127 
	C45.097610,45.970058 45.167736,45.554058 45.383705,45.048477 
	C45.675449,44.784081 45.843002,44.633343 46.296169,44.643341 
	C47.342232,44.868641 48.124344,44.957291 48.906452,45.045944 
	C48.906452,45.045944 48.945000,45.062634 48.956074,45.045891 
	C49.271225,46.052994 49.575298,47.076832 49.658737,48.636559 
	C49.279331,49.783028 49.120560,50.393608 48.961788,51.004192 
z"/>
<path fill="#85A8C0" opacity="1.000000" stroke="none" 
	d="
M49.225082,51.025436 
	C49.120560,50.393608 49.279331,49.783028 49.686275,48.961056 
	C49.956818,49.242443 49.979183,49.735222 50.005764,50.595444 
	C49.836109,50.990818 49.662243,51.018749 49.225082,51.025436 
z"/>
<path fill="#687C92" opacity="1.000000" stroke="none" 
	d="
M48.834190,44.783531 
	C48.124344,44.957291 47.342232,44.868641 46.267540,44.256508 
	C45.955341,43.476097 45.935734,43.219170 45.916122,42.962238 
	C45.916122,42.962238 46.002193,42.956074 45.995148,42.912453 
	C45.988102,42.868832 46.403332,42.680237 46.620056,42.606262 
	C47.017433,42.647011 47.198082,42.761742 47.681122,42.985023 
	C48.242981,43.569427 48.502453,44.045273 48.834190,44.783531 
z"/>
<path fill="#D7D4E2" opacity="1.000000" stroke="none" 
	d="
M40.103310,52.223309 
	C40.311783,52.112148 40.566910,52.297638 40.857723,52.787464 
	C40.651382,52.888981 40.403568,52.698364 40.103310,52.223309 
z"/>
<path fill="#ABD0E5" opacity="1.000000" stroke="none" 
	d="
M42.591866,49.084900 
	C42.591866,49.084900 42.423264,49.074291 41.934799,49.054401 
	C40.896694,49.037739 40.347054,49.040966 39.776577,48.763512 
	C39.489372,47.987576 39.223003,47.492321 39.238899,46.889763 
	C40.618340,46.825474 41.715515,46.868488 42.855804,47.281219 
	C42.796570,48.128925 42.694218,48.606915 42.591866,49.084900 
z"/>
<path fill="#7F9CAA" opacity="1.000000" stroke="none" 
	d="
M42.758781,49.360374 
	C42.694218,48.606915 42.796570,48.128925 43.136215,47.251717 
	C43.558483,46.826000 43.743458,46.799503 44.153633,46.864086 
	C44.378830,46.955166 44.859890,46.998192 44.859890,46.998192 
	C44.859890,46.998192 45.039131,46.997105 45.034431,47.346466 
	C45.014004,48.137833 44.998280,48.579834 44.990681,49.260033 
	C44.998806,49.498222 45.032337,49.973705 45.032337,49.973705 
	C45.025410,50.152027 45.018482,50.330353 44.995388,50.776054 
	C44.294716,50.574238 43.610207,50.105045 42.758781,49.360374 
z"/>
<path fill="#7F9CAA" opacity="1.000000" stroke="none" 
	d="
M39.797413,49.044189 
	C40.347054,49.040966 40.896694,49.037739 41.862961,49.009968 
	C41.740570,49.308079 41.201550,49.630733 40.335701,49.992100 
	C39.742153,49.843838 39.490669,49.638233 39.318939,49.217045 
	C39.383461,49.020088 39.797413,49.044189 39.797413,49.044189 
z"/>
<path fill="#637F8E" opacity="1.000000" stroke="none" 
	d="
M45.274178,50.076168 
	C45.032337,49.973705 44.998806,49.498222 45.249245,49.264744 
	C45.671963,49.027317 45.844242,49.023373 46.016518,49.019424 
	C46.193657,49.029778 46.370792,49.040127 46.783623,49.384613 
	C46.971573,50.137074 46.923828,50.555389 46.876083,50.973709 
	C46.422729,50.708683 45.969376,50.443657 45.274178,50.076168 
z"/>
<path fill="#7F9CAA" opacity="1.000000" stroke="none" 
	d="
M47.170647,50.976269 
	C46.923828,50.555389 46.971573,50.137074 47.048950,49.405594 
	C47.397003,49.519608 47.715420,49.946781 48.043457,50.657028 
	C47.857128,50.953011 47.661171,50.965919 47.170647,50.976269 
z"/>
<path fill="#32529D" opacity="1.000000" stroke="none" 
	d="
M19.678490,28.419472 
	C20.071573,28.695955 20.110277,28.924398 20.214775,29.802502 
	C20.359098,30.649149 20.437624,30.846138 20.516151,31.043129 
	C20.256493,31.025753 19.996834,31.008379 19.346748,31.006519 
	C18.956322,31.022030 19.007481,30.852039 18.990591,30.505238 
	C18.904945,29.987272 18.836191,29.816107 18.767439,29.644941 
	C18.952997,29.220440 19.138554,28.795937 19.678490,28.419472 
z"/>
<path fill="#4A65A8" opacity="1.000000" stroke="none" 
	d="
M18.624969,29.883076 
	C18.836191,29.816107 18.904945,29.987272 19.030125,30.425766 
	C18.891312,30.751200 18.696075,30.809305 18.214207,30.975452 
	C18.112551,30.762735 18.297525,30.441973 18.624969,29.883076 
z"/>
<path fill="#F0D5D6" opacity="1.000000" stroke="none" 
	d="
M34.001118,25.477779 
	C33.741722,26.323227 33.401127,26.844296 33.031563,27.684055 
	C32.366844,28.459858 31.731098,28.916967 31.047110,29.943890 
	C30.994930,30.681152 30.990990,30.848602 30.773319,31.125946 
	C30.293175,31.433180 30.105316,31.688364 29.998005,32.000694 
	C30.000000,32.000000 29.998850,31.996006 29.664047,31.958776 
	C28.037081,31.605251 26.744913,31.288958 25.440037,30.775509 
	C25.427328,30.578356 25.053490,30.450409 25.313637,30.125347 
	C25.555695,29.523314 25.537605,29.246342 25.822500,28.846312 
	C26.419817,27.483730 26.714151,26.244207 27.008486,25.004686 
	C28.184753,24.846897 29.361019,24.689106 30.780424,24.269260 
	C31.989014,24.389273 32.954468,24.771338 34.001118,25.477779 
z"/>
<path fill="#F5D9DF" opacity="1.000000" stroke="none" 
	d="
M26.894756,24.788815 
	C26.714151,26.244207 26.419817,27.483730 25.362713,28.822678 
	C24.293213,28.908894 23.986485,28.895685 23.520222,28.792786 
	C23.360689,28.703093 23.034479,28.537050 23.034481,28.537050 
	C23.034126,28.190081 23.033772,27.843111 23.034851,27.235210 
	C23.339899,26.511150 23.643517,26.048019 23.969315,25.295780 
	C24.545946,24.831385 25.100395,24.656094 25.829758,24.241257 
	C26.321796,24.112829 26.580582,24.303240 26.894756,24.788815 
z"/>
<path fill="#EDC8D9" opacity="1.000000" stroke="none" 
	d="
M24.317364,22.198940 
	C24.866756,21.763718 25.306786,21.594217 25.872486,21.212364 
	C26.315607,21.469280 26.633055,21.938553 26.976234,22.703913 
	C26.835299,23.002129 26.668627,23.004255 26.251968,23.009117 
	C25.559370,23.011812 25.116760,23.011768 24.342327,23.008038 
	C24.076338,22.824451 24.142170,22.644554 24.317364,22.198940 
z"/>
<path fill="#E8CFDE" opacity="1.000000" stroke="none" 
	d="
M30.855770,23.092670 
	C31.020655,23.007637 31.014818,23.498217 31.009125,23.743340 
	C30.836159,23.823034 30.653316,23.669163 30.514729,23.482441 
	C30.486973,23.445045 30.627794,23.282528 30.855770,23.092670 
z"/>
<path fill="#E7C5D4" opacity="1.000000" stroke="none" 
	d="
M34.498337,37.978745 
	C34.279541,37.951656 34.059940,37.940704 33.898102,37.625317 
	C33.814751,36.540672 33.672840,35.776596 33.813339,35.045937 
	C34.660686,35.126030 35.225632,35.172710 35.790573,35.219391 
	C35.790573,35.219391 35.879322,35.364666 35.553711,35.559616 
	C34.984848,36.495956 34.741592,37.237350 34.498337,37.978745 
z"/>
<path fill="#E7C5D4" opacity="1.000000" stroke="none" 
	d="
M33.006145,32.992733 
	C33.498501,32.734238 33.990852,32.475742 34.738865,32.106895 
	C35.252247,32.481606 35.509968,32.966663 35.501793,33.718369 
	C34.478298,33.991943 33.720703,33.998867 32.722816,34.004448 
	C32.482521,34.003105 32.000771,33.991226 32.114647,33.776073 
	C32.431084,33.294003 32.690289,33.104607 33.006145,32.992733 
z"/>
<path fill="#374E92" opacity="1.000000" stroke="none" 
	d="
M37.059002,38.929451 
	C36.944283,38.784779 36.829567,38.640110 36.605850,38.240711 
	C36.606800,37.856075 36.716755,37.726162 37.117477,37.184029 
	C37.297543,36.529221 37.186844,36.286636 37.076145,36.044048 
	C37.088543,35.831951 37.100941,35.619854 37.707794,35.499382 
	C38.569027,35.576595 38.835812,35.562180 39.058857,35.952690 
	C38.912704,36.874344 38.810287,37.391068 38.544373,37.904709 
	C38.160843,37.992851 37.987488,38.139435 37.641293,38.462402 
	C37.300854,38.698765 37.179928,38.814106 37.059002,38.929451 
z"/>
<path fill="#CDBFE1" opacity="1.000000" stroke="none" 
	d="
M32.963112,34.005791 
	C33.720703,33.998867 34.478298,33.991943 35.614235,33.969444 
	C35.972733,34.166542 35.952888,34.379208 35.861809,34.905628 
	C35.225632,35.172710 34.660686,35.126030 33.685936,34.968346 
	C33.276127,34.857338 33.033344,34.684006 33.009800,34.515072 
	C32.986256,34.346138 32.963112,34.005791 32.963112,34.005791 
z"/>
<path fill="#374E92" opacity="1.000000" stroke="none" 
	d="
M35.001320,38.203712 
	C34.741592,37.237350 34.984848,36.495956 35.627132,35.602676 
	C36.068684,36.034904 36.111202,36.619015 36.337006,37.602486 
	C36.181629,38.144127 35.842968,38.286404 35.001320,38.203712 
z"/>
<path fill="#6B84BC" opacity="1.000000" stroke="none" 
	d="
M37.003822,36.214996 
	C37.186844,36.286636 37.297543,36.529221 37.224342,36.952175 
	C36.949944,36.891533 36.913628,36.642670 37.003822,36.214996 
z"/>
<path fill="#6B84BC" opacity="1.000000" stroke="none" 
	d="
M39.102592,35.547760 
	C38.835812,35.562180 38.569027,35.576595 37.985039,35.342232 
	C37.667835,35.093456 37.802917,34.879272 37.883598,34.781635 
	C38.139774,34.750004 38.315266,34.816013 38.777195,35.064213 
	C39.063633,35.246407 39.102592,35.547760 39.102592,35.547760 
z"/>
<path fill="#5582E0" opacity="1.000000" stroke="none" 
	d="
M40.002308,34.942585 
	C40.755924,34.933941 41.509544,34.925297 42.637360,34.971130 
	C42.982193,36.028908 42.952835,37.032211 42.385651,38.245781 
	C41.291328,38.113319 40.734829,37.770592 40.115311,37.015808 
	C40.035633,36.050030 40.018970,35.496307 40.002308,34.942585 
z"/>
<path fill="#D0C2E8" opacity="1.000000" stroke="none" 
	d="
M40.178326,37.427860 
	C40.734829,37.770592 41.291328,38.113319 42.087799,38.405579 
	C42.985752,38.573071 43.643738,38.791039 44.644936,39.064693 
	C44.862225,39.409897 44.668964,39.643768 43.861412,39.882957 
	C42.219440,39.637688 41.124428,39.331451 40.070953,38.772087 
	C40.118958,38.348072 40.125420,38.177181 40.167633,37.863625 
	C40.203384,37.720955 40.178326,37.427860 40.178326,37.427860 
z"/>
<path fill="#1A4CAF" opacity="1.000000" stroke="none" 
	d="
M46.659290,35.077450 
	C46.850082,35.090836 46.864021,35.457504 46.783745,35.621857 
	C46.522018,35.714016 46.375717,35.597652 46.187965,35.319099 
	C46.111362,35.201084 46.468498,35.064064 46.659290,35.077450 
z"/>
<path fill="#F1CAD2" opacity="1.000000" stroke="none" 
	d="
M32.998001,32.642365 
	C32.690289,33.104607 32.431084,33.294003 32.114243,33.780434 
	C31.999964,33.999943 32.001915,33.996380 31.752258,34.002842 
	C31.502604,34.009304 31.003296,34.022343 31.002506,34.015106 
	C31.001715,34.007874 31.007177,33.993439 30.896721,33.735931 
	C30.523792,32.984283 30.261322,32.490147 29.998850,31.996006 
	C29.998850,31.996006 30.000000,32.000000 30.209679,31.887712 
	C30.682426,31.577503 30.871658,31.324381 30.987051,31.016054 
	C30.990990,30.848602 30.994930,30.681152 31.003927,30.262661 
	C31.669277,30.771744 32.329571,31.531870 32.998001,32.642365 
z"/>
<path fill="#6C8EDC" opacity="1.000000" stroke="none" 
	d="
M40.115311,37.015808 
	C40.178326,37.427860 40.203384,37.720955 39.812313,37.824745 
	C39.183453,37.921619 38.945660,37.914707 38.707870,37.907791 
	C38.810287,37.391068 38.912704,36.874344 39.058857,35.952690 
	C39.102592,35.547760 39.063633,35.246407 39.056808,35.094414 
	C39.049980,34.942417 39.526020,34.854061 39.764164,34.898323 
	C40.018970,35.496307 40.035633,36.050030 40.115311,37.015808 
z"/>
<path fill="#E1CFE4" opacity="1.000000" stroke="none" 
	d="
M29.664047,31.958776 
	C30.261322,32.490147 30.523792,32.984283 30.486385,33.739140 
	C29.092072,34.011589 27.997633,34.023327 26.903194,34.035065 
	C26.144342,33.626335 25.385490,33.217606 24.290859,32.888809 
	C23.955080,32.968739 23.982431,33.004166 24.251722,32.801575 
	C24.831591,32.056881 25.142170,31.514772 25.452747,30.972664 
	C26.744913,31.288958 28.037081,31.605251 29.664047,31.958776 
z"/>
<path fill="#5E8DF0" opacity="1.000000" stroke="none" 
	d="
M26.928444,38.934341 
	C26.711491,37.717354 26.494019,36.605358 26.561180,35.228916 
	C26.845816,34.964466 27.027061,35.055145 27.052757,35.384865 
	C27.994307,36.883686 28.910164,38.052780 29.466518,39.173225 
	C28.383167,39.166119 27.659317,39.207664 26.935469,39.249207 
	C26.935469,39.249207 26.927923,39.039341 26.928444,38.934341 
z"/>
<path fill="#C9C3ED" opacity="1.000000" stroke="none" 
	d="
M26.782585,34.269455 
	C27.997633,34.023327 29.092072,34.011589 30.596844,33.996647 
	C31.007177,33.993439 31.001715,34.007874 31.001047,34.221016 
	C31.000380,34.434155 30.992527,34.846767 30.598011,34.899574 
	C29.144684,34.986633 28.085873,35.020889 27.027061,35.055145 
	C27.027061,35.055145 26.845816,34.964466 26.747246,34.997669 
	C26.653111,34.855194 26.657543,34.679520 26.782585,34.269455 
z"/>
<path fill="#DCC7E1" opacity="1.000000" stroke="none" 
	d="
M26.957901,39.447010 
	C27.659317,39.207664 28.383167,39.166119 29.455114,39.382587 
	C29.803213,39.640602 29.703489,40.048641 29.703489,40.048641 
	C29.463356,40.186581 29.275480,40.376278 29.064102,40.805145 
	C28.444077,40.828773 27.899817,40.664986 27.180534,40.271683 
	C27.005516,40.042164 26.980331,39.644814 26.957901,39.447010 
z"/>
<path fill="#8EBBFF" opacity="1.000000" stroke="none" 
	d="
M25.440037,30.775509 
	C25.142170,31.514772 24.831591,32.056881 24.269127,32.786850 
	C23.559774,33.050961 23.102306,33.127209 22.546453,33.148640 
	C22.062168,32.575344 21.676268,32.056870 20.903259,31.290760 
	C20.437624,30.846138 20.359098,30.649149 20.316362,30.134872 
	C20.352152,29.817581 20.446548,29.853573 20.831974,29.875402 
	C21.558096,29.564491 21.898794,29.231750 22.239492,28.899010 
	C22.239492,28.899010 22.648046,28.743935 22.841263,28.640491 
	C23.034479,28.537050 23.360689,28.703093 23.680862,29.109882 
	C24.351852,29.827917 24.702671,30.139164 25.053490,30.450409 
	C25.053490,30.450409 25.427328,30.578356 25.440037,30.775509 
z"/>
<path fill="#D9C1D2" opacity="1.000000" stroke="none" 
	d="
M40.029411,39.025215 
	C41.124428,39.331451 42.219440,39.637688 43.655647,39.986382 
	C44.003017,40.773750 44.009193,41.518669 44.011116,42.631969 
	C44.006863,43.000355 43.977367,42.991356 43.644863,42.995811 
	C42.868786,43.012806 42.425217,43.025352 41.583382,43.032120 
	C40.122871,43.017651 39.060631,43.008961 37.998386,43.000275 
	C37.694405,41.877842 37.390423,40.755413 37.072723,39.281216 
	C37.179928,38.814106 37.300854,38.698765 37.979362,38.649914 
	C39.034435,38.819344 39.531921,38.922279 40.029411,39.025215 
z"/>
<path fill="#6173BF" opacity="1.000000" stroke="none" 
	d="
M30.082493,40.114986 
	C29.703489,40.048641 29.803213,39.640602 29.814617,39.431240 
	C28.910164,38.052780 27.994307,36.883686 27.052757,35.384865 
	C28.085873,35.020889 29.144684,34.986633 30.863987,34.927692 
	C31.698227,34.863434 31.871975,34.823864 32.296669,34.799004 
	C32.709526,34.770473 32.871437,34.727238 33.033344,34.684006 
	C33.033344,34.684006 33.276127,34.857338 33.403526,34.934929 
	C33.672840,35.776596 33.814751,36.540672 33.733566,37.637924 
	C32.494144,38.707848 31.477819,39.444592 30.082493,40.114986 
z"/>
<path fill="#C7D6EB" opacity="1.000000" stroke="none" 
	d="
M37.886513,43.213829 
	C39.060631,43.008961 40.122871,43.017651 41.704041,43.243629 
	C42.432533,43.722130 42.694920,43.909325 43.120148,44.235451 
	C43.431194,44.709278 43.686535,44.895794 43.988224,45.303429 
	C43.962975,45.990273 43.945702,46.381641 43.928429,46.773006 
	C43.743458,46.799503 43.558483,46.826000 43.093098,46.882000 
	C41.715515,46.868488 40.618340,46.825474 39.040699,46.648048 
	C38.039215,46.167156 37.518196,45.820675 36.997181,45.474190 
	C37.024029,45.152470 37.034561,44.830219 37.028263,44.265717 
	C37.327644,43.888885 37.576607,43.690014 37.886513,43.213829 
z"/>
<path fill="#7A9CB5" opacity="1.000000" stroke="none" 
	d="
M36.951801,45.897186 
	C37.518196,45.820675 38.039215,46.167156 38.758430,46.755352 
	C39.223003,47.492321 39.489372,47.987576 39.776577,48.763512 
	C39.797413,49.044189 39.383461,49.020088 39.175949,49.019981 
	C38.555656,48.995766 38.142872,48.971664 37.424839,48.896702 
	C37.048534,48.003956 36.977478,47.162067 36.951801,45.897186 
z"/>
<path fill="#8292D0" opacity="1.000000" stroke="none" 
	d="
M21.887228,28.958878 
	C21.898794,29.231750 21.558096,29.564491 20.851341,29.922054 
	C20.835178,29.637501 21.185070,29.328123 21.887228,28.958878 
z"/>
<path fill="#DFE2F5" opacity="1.000000" stroke="none" 
	d="
M43.996201,45.007954 
	C43.686535,44.895794 43.431194,44.709278 43.333565,44.117096 
	C43.708462,43.583138 43.888599,43.318325 43.977367,42.991356 
	C43.977367,42.991356 44.006863,43.000355 44.022934,43.004715 
	C44.456059,43.000866 44.873112,42.992657 45.603142,42.973343 
	C45.935734,43.219170 45.955341,43.476097 46.003586,44.119858 
	C45.843002,44.633343 45.675449,44.784081 45.074371,45.001633 
	C44.411526,45.032227 44.203861,45.020088 43.996201,45.007954 
z"/>
<path fill="#C5CAD5" opacity="1.000000" stroke="none" 
	d="
M43.988224,45.303429 
	C44.203861,45.020088 44.411526,45.032227 44.928520,45.091209 
	C45.167736,45.554058 45.097610,45.970058 44.943687,46.692127 
	C44.859890,46.998192 44.378830,46.955166 44.153629,46.864086 
	C43.945702,46.381641 43.962975,45.990273 43.988224,45.303429 
z"/>
<path fill="#606767" opacity="1.000000" stroke="none" 
	d="
M46.000774,48.740002 
	C45.844242,49.023373 45.671963,49.027317 45.241119,49.026550 
	C44.998280,48.579834 45.014004,48.137833 45.119087,47.375893 
	C45.467304,47.524166 45.726166,47.992374 46.000774,48.740002 
z"/>
<path fill="#E1CFE4" opacity="1.000000" stroke="none" 
	d="
M30.773319,31.125946 
	C30.871658,31.324381 30.682426,31.577503 30.207684,31.888409 
	C30.105316,31.688364 30.293175,31.433180 30.773319,31.125946 
z"/>
<path fill="#728DD4" opacity="1.000000" stroke="none" 
	d="
M25.313637,30.125347 
	C24.702671,30.139164 24.351852,29.827917 23.840395,29.199575 
	C23.986485,28.895685 24.293213,28.908894 25.059731,28.945738 
	C25.537605,29.246342 25.555695,29.523314 25.313637,30.125347 
z"/>
<path fill="#EECDDB" opacity="1.000000" stroke="none" 
	d="
M33.009800,34.515072 
	C32.871437,34.727238 32.709526,34.770473 32.280750,34.602783 
	C32.013885,34.391861 32.001915,33.996380 32.001915,33.996380 
	C32.001915,33.996380 31.999964,33.999943 32.000366,33.995583 
	C32.000771,33.991226 32.482521,34.003105 32.722816,34.004448 
	C32.963112,34.005791 32.986256,34.346138 33.009800,34.515072 
z"/>
<path fill="#6B84BC" opacity="1.000000" stroke="none" 
	d="
M40.070953,38.772087 
	C39.531921,38.922279 39.034435,38.819344 38.198875,38.528893 
	C37.987488,38.139435 38.160843,37.992851 38.544373,37.904709 
	C38.945660,37.914707 39.183453,37.921619 39.776566,37.967415 
	C40.125420,38.177181 40.118958,38.348072 40.070953,38.772087 
z"/>
<path fill="#CDBFE1" opacity="1.000000" stroke="none" 
	d="
M31.752258,34.002842 
	C32.001915,33.996380 32.013885,34.391861 32.029804,34.588081 
	C31.871975,34.823864 31.698227,34.863434 31.258503,34.874886 
	C30.992527,34.846767 31.000380,34.434155 31.001839,34.228249 
	C31.003296,34.022343 31.502604,34.009304 31.752258,34.002842 
z"/>
<path fill="#CDCBDE" opacity="1.000000" stroke="none" 
	d="
M43.644863,42.995811 
	C43.888599,43.318325 43.708462,43.583138 43.223541,43.904144 
	C42.694920,43.909325 42.432533,43.722130 42.102303,43.249409 
	C42.425217,43.025352 42.868786,43.012806 43.644863,42.995811 
z"/>
</svg>