<svg version="1.1" id="Layer_1" xmlns="http://www.w3.org/2000/svg" xmlns:xlink="http://www.w3.org/1999/xlink" x="0px" y="0px"
	 width="100%" viewBox="0 0 64 64" enable-background="new 0 0 64 64" xml:space="preserve">
<path fill="#F6F1EE" opacity="1.000000" stroke="none" 
	d="
M21.000000,1.000000 
	C35.580570,1.000000 50.161144,1.000000 65.000000,1.000000 
	C65.000000,11.019418 65.000000,21.041052 64.645966,31.537498 
	C63.522228,32.679962 62.752514,33.347610 61.733971,34.012611 
	C61.485146,34.009956 60.987064,34.012573 60.796989,34.098476 
	C60.354183,34.337631 60.203484,34.559990 60.104904,34.909866 
	C60.055000,34.968269 59.942986,35.073429 59.908417,35.061211 
	C59.873848,35.048988 59.821186,34.998852 59.377197,34.821407 
	C58.621269,34.578354 58.309334,34.512749 57.975128,34.307076 
	C57.952854,34.167004 57.808784,33.922657 57.990810,33.728790 
	C58.503002,33.144573 58.833168,32.754227 59.163334,32.363880 
	C58.772995,32.213406 58.382656,32.062935 57.992355,31.597523 
	C57.995796,30.859900 57.999195,30.437218 58.356750,30.015530 
	C62.098370,28.983337 62.126530,28.461824 58.524021,25.081842 
	C58.317013,26.610561 58.155090,27.806307 57.628281,29.083832 
	C57.023335,29.232836 56.783276,29.300062 56.385101,29.508083 
	C55.982109,29.800985 55.722778,29.922180 55.372723,30.016697 
	C55.296463,30.020933 55.143978,30.011938 54.950459,29.740364 
	C53.845356,28.929354 52.933769,28.389919 52.008968,27.541752 
	C51.994549,26.819120 51.993347,26.405226 52.030354,25.778173 
	C52.068558,25.565018 52.203304,25.153406 52.371666,24.959879 
	C52.031193,24.528429 51.522358,24.290506 50.760750,24.050911 
	C50.339619,24.041672 50.171268,24.034107 49.975677,23.704521 
	C49.632545,22.588518 49.316654,21.794535 49.133362,20.947098 
	C49.177124,20.928852 49.088287,20.964062 48.745853,21.105072 
	C48.010910,21.471930 47.529564,21.732986 46.914181,21.747536 
	C46.169621,21.650324 45.559093,21.799618 44.691078,21.979679 
	C44.262794,22.037230 44.092003,22.064009 43.560539,22.061596 
	C42.473171,22.041784 41.746471,22.051163 40.682961,22.040291 
	C39.897263,21.989714 39.448383,21.959389 38.905090,21.552582 
	C36.206650,20.784872 33.602619,20.393646 30.991592,19.619120 
	C29.623928,15.542748 28.343288,11.817488 26.875345,8.167558 
	C25.841949,5.598102 24.340532,3.433543 20.999569,3.618063 
	C20.999783,2.496036 20.999891,1.748018 21.000000,1.000000 
M50.196083,18.593449 
	C50.200542,18.209885 50.205002,17.826319 50.209461,17.442755 
	C50.050236,17.441519 49.752705,17.429379 49.751816,17.440626 
	C49.721756,17.821886 49.719879,18.205368 50.196083,18.593449 
z"/>
<path fill="#F7F0EE" opacity="1.000000" stroke="none" 
	d="
M18.000000,65.000000 
	C12.384429,65.000000 6.768858,65.000000 1.000000,65.000000 
	C1.000000,54.646175 1.000000,44.291744 1.374316,33.468868 
	C2.495438,32.999699 3.242245,32.998981 4.296510,32.997253 
	C5.371965,32.552422 6.139961,32.108589 7.358975,31.487751 
	C8.283963,30.882519 8.757935,30.454296 9.535368,30.406727 
	C10.097435,30.977755 10.356041,31.168131 10.767186,31.331903 
	C11.132306,31.268404 11.325076,31.185362 11.902516,31.113407 
	C12.577541,31.148521 12.848085,31.126400 13.320555,31.196293 
	C13.522479,31.288309 13.950713,31.404831 13.949831,31.578129 
	C13.948948,31.751429 14.014023,32.091866 13.855456,32.457611 
	C13.540326,35.557693 13.383762,38.292034 13.214950,41.333008 
	C13.794505,42.095764 14.386309,42.551880 15.035734,43.213600 
	C15.178721,43.702103 15.338986,43.933022 15.637857,44.422462 
	C15.683131,45.153885 15.664700,45.574806 15.279081,45.998302 
	C10.761201,46.610600 10.336918,50.139339 10.673744,52.919991 
	C11.159969,56.933971 12.468898,61.138611 18.459248,60.996117 
	C21.944616,60.991302 24.976208,60.986244 28.437035,60.986572 
	C31.578220,60.330360 34.290173,59.668766 37.351818,59.034157 
	C45.882797,60.566067 49.135315,55.066334 52.330708,49.006325 
	C53.445976,49.338398 54.223354,49.669353 55.000504,50.399727 
	C54.729973,54.983162 49.624611,62.374149 46.917107,62.440849 
	C38.739162,62.642300 30.556360,62.722122 22.385977,63.085835 
	C20.898529,63.152054 19.460722,64.333420 18.000000,65.000000 
z"/>
<path fill="#F6F1EF" opacity="1.000000" stroke="none" 
	d="
M20.530956,1.000000 
	C20.999891,1.748018 20.999783,2.496036 20.650164,3.657253 
	C19.216763,5.074996 18.132872,6.079540 17.042156,7.315314 
	C17.035332,7.546544 17.029995,8.009173 16.782085,8.175287 
	C16.366348,8.898619 16.198523,9.455835 15.779539,10.224817 
	C15.404152,11.286222 15.279922,12.135864 15.096308,13.381041 
	C15.002436,14.842476 14.967948,15.908376 14.880144,17.339998 
	C14.795285,18.688385 14.763742,19.671047 14.492193,20.738731 
	C14.088256,20.867805 13.924325,20.911863 13.369021,20.969206 
	C10.653766,21.986322 8.329883,22.990156 5.667045,23.847775 
	C3.885393,23.467705 2.442696,23.233852 1.000000,23.000000 
	C1.000000,21.611111 1.000000,20.222221 1.295474,18.376183 
	C1.905697,17.513882 2.220445,17.108727 2.535194,16.703573 
	C2.023463,16.469049 1.511731,16.234524 1.000000,16.000000 
	C1.000000,11.063491 1.000000,6.126982 1.000000,1.000000 
	C7.353071,1.000000 13.707493,1.000000 20.530956,1.000000 
z"/>
<path fill="#F6F1EE" opacity="1.000000" stroke="none" 
	d="
M18.468658,65.000000 
	C19.460722,64.333420 20.898529,63.152054 22.385977,63.085835 
	C30.556360,62.722122 38.739162,62.642300 46.917107,62.440849 
	C49.624611,62.374149 54.729973,54.983162 55.356209,50.361328 
	C56.948734,48.311138 58.185326,46.698765 59.421921,45.086391 
	C59.177399,44.724262 58.932873,44.362129 58.688351,44.000000 
	C60.792233,44.000000 62.896118,44.000000 65.000000,44.000000 
	C65.000000,50.954647 65.000000,57.909298 65.000000,65.000000 
	C49.646000,65.000000 34.291656,65.000000 18.468658,65.000000 
z"/>
<path fill="#F6F2EA" opacity="1.000000" stroke="none" 
	d="
M65.000000,43.600006 
	C62.896118,44.000000 60.792233,44.000000 58.688351,44.000000 
	C58.932873,44.362129 59.177399,44.724262 59.421921,45.086391 
	C58.185326,46.698765 56.948734,48.311138 55.356434,49.961906 
	C54.223354,49.669353 53.445976,49.338398 52.089031,49.001984 
	C51.509460,48.996529 51.025871,48.996307 51.134537,48.707649 
	C51.856499,46.948769 52.469795,45.478554 53.132950,43.651894 
	C53.583927,42.196198 53.985043,41.096943 54.699341,39.988937 
	C56.182213,39.344162 57.351906,38.708130 58.646072,37.944904 
	C58.770554,37.817715 59.007214,37.551857 59.243683,37.408325 
	C59.637466,37.168568 59.794785,37.072342 59.940437,36.955475 
	C59.928768,36.934841 59.972107,36.920746 60.014702,36.965687 
	C60.057297,37.010628 60.125256,37.114147 60.204525,37.320133 
	C60.471836,37.770416 60.715279,37.930626 61.260849,38.005898 
	C61.507587,38.005043 62.001053,38.001575 62.000542,38.000786 
	C62.000034,38.000000 62.003330,38.003330 62.112938,38.221062 
	C62.423050,38.709339 62.683201,38.897404 63.001495,39.001488 
	C63.000000,39.000000 62.996681,38.997822 63.167126,39.240074 
	C63.891712,39.654881 64.445854,39.827442 65.000000,40.000000 
	C65.000000,41.066669 65.000000,42.133339 65.000000,43.600006 
z"/>
<path fill="#F4F0E9" opacity="1.000000" stroke="none" 
	d="
M61.982796,34.015259 
	C62.752514,33.347610 63.522228,32.679962 64.645966,32.006157 
	C65.000000,33.388889 65.000000,34.777779 64.750626,36.583256 
	C64.501244,36.999844 64.002487,36.999107 63.825256,36.740479 
	C63.092949,35.659653 62.537872,34.837456 61.982796,34.015259 
z"/>
<path fill="#FCECF7" opacity="1.000000" stroke="none" 
	d="
M1.000000,23.375000 
	C2.442696,23.233852 3.885393,23.467705 5.664159,23.850697 
	C6.000229,23.999832 6.001507,24.000305 6.000305,24.246086 
	C5.999103,24.491865 5.997448,24.983427 5.776177,25.274017 
	C5.371408,25.724663 5.187910,25.884722 4.985494,26.040642 
	C4.966576,26.036501 4.934366,26.061756 4.909623,26.026512 
	C4.884880,25.991266 4.832580,25.922842 4.773448,25.766918 
	C4.474999,25.738981 4.235683,25.866970 3.750036,25.998974 
	C3.503705,26.002991 3.011073,26.012751 2.759799,26.008076 
	C2.340978,26.003054 2.173433,26.002710 1.754417,26.001183 
	C1.335298,26.000000 1.167649,26.000000 1.000000,26.000000 
	C1.000000,25.250000 1.000000,24.500000 1.000000,23.375000 
z"/>
<path fill="#F6F2EA" opacity="1.000000" stroke="none" 
	d="
M64.002487,36.999107 
	C64.002487,36.999107 64.501244,36.999844 64.750626,36.999924 
	C65.000000,37.444336 65.000000,37.888672 64.666138,38.669235 
	C63.887081,39.002918 63.441883,39.000370 62.996681,38.997822 
	C62.996681,38.997822 63.000000,39.000000 62.892124,38.783310 
	C62.584526,38.294868 62.324223,38.107109 62.003330,38.003330 
	C62.003330,38.003330 62.000034,38.000000 62.171181,37.758602 
	C62.895710,37.344505 63.449097,37.171806 64.002487,36.999107 
z"/>
<path fill="#FCECF7" opacity="1.000000" stroke="none" 
	d="
M1.000000,16.333332 
	C1.511731,16.234524 2.023463,16.469049 2.535194,16.703573 
	C2.220445,17.108727 1.905697,17.513882 1.295474,17.959518 
	C1.000000,17.555555 1.000000,17.111111 1.000000,16.333332 
z"/>
<path fill="#FFF9EF" opacity="1.000000" stroke="none" 
	d="
M1.000000,32.000000 
	C1.000000,31.555664 1.000000,31.111328 1.250201,30.333679 
	C1.667145,29.996040 1.833890,29.991714 2.001085,29.993916 
	C2.001535,30.000443 2.011699,30.003323 2.115672,30.222832 
	C2.421987,30.712027 2.685502,30.892324 3.258185,30.989916 
	C3.506179,30.996597 4.001807,31.019741 4.006038,31.256849 
	C4.010268,31.493958 4.026834,31.967960 4.018648,31.976913 
	C4.010461,31.985868 3.987707,31.996340 3.615016,31.998749 
	C2.494884,32.000771 1.747442,32.000385 1.000000,32.000000 
z"/>
<path fill="#EFF9EB" opacity="1.000000" stroke="none" 
	d="
M1.000000,26.375000 
	C1.167649,26.000000 1.335298,26.000000 1.756636,26.251633 
	C2.017446,26.670107 2.024566,26.836946 2.027063,27.241417 
	C2.022441,27.479048 2.007322,27.954161 2.005193,28.216940 
	C2.003986,28.654911 2.004907,28.830101 1.754378,29.002777 
	C1.335285,29.000175 1.167642,29.000088 1.000000,29.000000 
	C1.000000,28.250000 1.000000,27.500000 1.000000,26.375000 
z"/>
<path fill="#FDEBD5" opacity="1.000000" stroke="none" 
	d="
M1.000000,32.250000 
	C1.747442,32.000385 2.494884,32.000771 3.616121,32.249252 
	C3.989627,32.664318 3.989339,32.831287 3.989051,32.998260 
	C3.242245,32.998981 2.495438,32.999699 1.374316,33.000210 
	C1.000000,33.000000 1.000000,32.500000 1.000000,32.250000 
z"/>
<path fill="#FAF8FA" opacity="1.000000" stroke="none" 
	d="
M63.167126,39.240074 
	C63.441883,39.000370 63.887081,39.002918 64.666138,39.002731 
	C65.000000,39.000000 65.000000,39.500000 65.000000,39.750000 
	C64.445854,39.827442 63.891712,39.654881 63.167126,39.240074 
z"/>
<path fill="#E8EBF0" opacity="1.000000" stroke="none" 
	d="
M1.000000,29.250000 
	C1.167642,29.000088 1.335285,29.000175 1.756109,29.248285 
	C2.009291,29.496305 2.000634,29.987389 2.000634,29.987389 
	C1.833890,29.991714 1.667145,29.996040 1.250201,30.000183 
	C1.000000,30.000000 1.000000,29.500000 1.000000,29.250000 
z"/>
<path fill="#FCEFE2" opacity="1.000000" stroke="none" 
	d="
M17.048981,7.084085 
	C18.132872,6.079540 19.216763,5.074996 20.650061,4.031262 
	C24.340532,3.433543 25.841949,5.598102 26.875345,8.167558 
	C28.343288,11.817488 29.623928,15.542748 30.852341,19.930271 
	C29.508919,21.422232 28.297758,22.219742 27.043922,22.727997 
	C26.717833,21.955933 26.434414,21.473124 26.104588,20.566242 
	C25.986078,18.441725 25.913977,16.741283 25.843683,14.694601 
	C25.531952,13.243003 25.218414,12.137644 24.940384,10.696378 
	C24.965052,9.911250 24.954212,9.462031 24.734043,8.709467 
	C22.032804,7.965443 19.540892,7.524764 17.048981,7.084085 
z"/>
<path fill="#FBECF0" opacity="1.000000" stroke="none" 
	d="
M27.086597,23.017252 
	C28.297758,22.219742 29.508919,21.422232 30.859333,20.313570 
	C33.602619,20.393646 36.206650,20.784872 38.634598,21.685387 
	C37.932686,22.785145 37.406853,23.375612 36.555779,24.007790 
	C35.457951,25.016634 34.685364,25.983770 33.634209,26.899189 
	C33.170971,26.807808 32.986301,26.768147 32.586185,26.489716 
	C30.629620,25.840441 28.888496,25.429937 27.106922,24.687004 
	C27.073181,23.908802 27.079889,23.463028 27.086597,23.017252 
z"/>
<path fill="#DBC0D8" opacity="1.000000" stroke="none" 
	d="
M52.203304,25.153406 
	C52.203304,25.153406 52.068558,25.565018 51.770145,25.960686 
	C51.392868,27.172804 51.313999,27.989250 51.192081,29.079906 
	C51.125114,29.537611 51.101196,29.721104 50.783733,30.044504 
	C49.610325,30.765554 48.730469,31.346695 47.494827,31.950890 
	C46.426140,31.982311 45.713234,31.990677 44.998062,31.773714 
	C44.995796,31.548384 45.003448,31.097765 45.277157,30.880232 
	C45.694504,29.750750 45.838142,28.838799 45.990997,27.694942 
	C46.000210,27.463036 46.000763,26.998856 46.260143,27.000340 
	C46.692429,26.999229 46.865337,26.996635 47.364941,26.994795 
	C48.115814,26.044525 48.539997,25.093502 49.223061,24.106262 
	C49.655598,24.055542 49.829258,24.041042 50.002918,24.026541 
	C50.171268,24.034107 50.339619,24.041672 50.901535,24.287815 
	C51.597832,24.735397 51.900566,24.944403 52.203304,25.153406 
z"/>
<path fill="#EDF4FD" opacity="1.000000" stroke="none" 
	d="
M57.992313,31.912464 
	C58.382656,32.062935 58.772995,32.213406 59.163334,32.363880 
	C58.833168,32.754227 58.503002,33.144573 57.919014,33.738029 
	C57.665188,33.941132 57.520283,33.946690 57.099270,34.030994 
	C56.128326,34.266861 55.578396,34.418427 55.028465,34.569988 
	C55.342899,35.220642 55.657330,35.871296 55.987320,36.512337 
	C56.002880,36.502720 55.969685,36.487576 55.622677,36.430164 
	C55.173721,36.583946 55.071770,36.795135 54.667969,36.880379 
	C53.646481,35.628864 52.926849,34.503292 52.211174,33.324852 
	C52.215130,33.271980 52.169685,33.065086 52.192688,32.807816 
	C52.224426,32.378571 52.233162,32.206593 52.533249,32.023319 
	C53.214924,32.008133 53.605259,32.004238 54.231747,31.843163 
	C54.641014,31.166975 54.814129,30.647966 55.026222,30.099430 
	C55.065201,30.069902 55.143978,30.011938 55.143978,30.011938 
	C55.143978,30.011938 55.296463,30.020933 55.760807,30.078732 
	C56.483391,30.095198 56.741631,30.053869 57.017807,30.302210 
	C57.354603,31.032074 57.673458,31.472269 57.992313,31.912464 
z"/>
<path fill="#E8C5D4" opacity="1.000000" stroke="none" 
	d="
M46.000763,26.998856 
	C46.000763,26.998856 46.000210,27.463036 45.578697,27.711548 
	C44.056213,27.962547 42.955242,27.965036 41.704018,27.713108 
	C41.695129,25.987391 41.836498,24.516090 42.264950,23.018127 
	C43.008423,22.691238 43.464813,22.391012 43.921207,22.090786 
	C44.092003,22.064009 44.262794,22.037230 44.744087,22.346199 
	C45.385277,23.860582 45.715973,25.039217 46.031563,26.412891 
	C46.016457,26.607927 46.000763,26.998856 46.000763,26.998856 
z"/>
<path fill="#D0BAC1" opacity="1.000000" stroke="none" 
	d="
M46.046665,26.217854 
	C45.715973,25.039217 45.385277,23.860582 45.001572,22.315428 
	C45.559093,21.799618 46.169621,21.650324 46.994965,22.031406 
	C47.794582,23.088680 48.379383,23.615580 48.964184,24.142479 
	C48.539997,25.093502 48.115814,26.044525 47.258186,26.795597 
	C46.636063,26.324072 46.376701,26.198143 46.046665,26.217854 
z"/>
<path fill="#F0ECEA" opacity="1.000000" stroke="none" 
	d="
M57.993168,29.002052 
	C58.155090,27.806307 58.317013,26.610561 58.524021,25.081842 
	C62.126530,28.461824 62.098370,28.983337 58.356174,29.762299 
	C57.998680,29.339401 57.995926,29.170727 57.993168,29.002052 
z"/>
<path fill="#F4F8FD" opacity="1.000000" stroke="none" 
	d="
M63.825256,36.740475 
	C63.449097,37.171806 62.895710,37.344505 62.171688,37.759392 
	C62.001053,38.001575 61.507587,38.005043 61.166382,37.806938 
	C60.659027,37.348862 60.425724,37.183968 60.125256,37.114147 
	C60.125256,37.114147 60.057297,37.010628 60.027779,36.726685 
	C59.998260,36.442738 59.935432,35.968487 59.946625,35.744801 
	C59.957817,35.521114 59.942986,35.073429 59.942986,35.073429 
	C59.942986,35.073429 60.055000,34.968269 60.292351,34.829376 
	C60.755615,34.514141 60.908070,34.288170 60.987064,34.012573 
	C60.987064,34.012573 61.485146,34.009956 61.733971,34.012608 
	C62.537872,34.837456 63.092949,35.659653 63.825256,36.740475 
z"/>
<path fill="#E0C4CF" opacity="1.000000" stroke="none" 
	d="
M36.881020,23.966080 
	C37.406853,23.375612 37.932686,22.785145 38.729008,22.061871 
	C39.448383,21.959389 39.897263,21.989714 40.675549,22.274052 
	C41.004951,22.528063 41.001579,22.996910 40.793137,23.256432 
	C39.724499,23.679991 38.864311,23.844028 37.723236,24.000467 
	C37.255241,23.983938 37.068130,23.975008 36.881020,23.966080 
z"/>
<path fill="#FDF1F4" opacity="1.000000" stroke="none" 
	d="
M49.223061,24.106262 
	C48.379383,23.615580 47.794582,23.088680 47.128998,22.277912 
	C47.529564,21.732986 48.010910,21.471930 48.746132,21.105436 
	C49.000000,21.000000 49.000763,21.000553 49.000763,21.000553 
	C49.316654,21.794535 49.632545,22.588518 49.975677,23.704521 
	C49.829258,24.041042 49.655598,24.055542 49.223061,24.106262 
z"/>
<path fill="#E8F0F9" opacity="1.000000" stroke="none" 
	d="
M57.520283,33.946690 
	C57.520283,33.946690 57.665188,33.941132 57.736984,33.931892 
	C57.808784,33.922657 57.952854,34.167004 57.629089,34.686745 
	C57.872620,35.988274 58.439919,36.770065 59.007214,37.551857 
	C59.007214,37.551857 58.770554,37.817715 58.417671,37.920235 
	C57.747768,38.020721 57.430874,38.025970 57.122814,37.665421 
	C56.744247,37.024090 56.356968,36.755833 55.969685,36.487576 
	C55.969685,36.487576 56.002880,36.502720 56.426003,36.358032 
	C57.072842,35.457794 57.296562,34.702244 57.520283,33.946690 
z"/>
<path fill="#EBDBE5" opacity="1.000000" stroke="none" 
	d="
M51.077282,29.904594 
	C51.101196,29.721104 51.125114,29.537611 51.386185,28.988579 
	C51.832657,28.405037 51.965607,28.147520 52.022186,27.850487 
	C52.933769,28.389919 53.845356,28.929354 54.950459,29.740364 
	C55.143978,30.011938 55.065201,30.069902 54.776386,30.045265 
	C54.317406,30.010956 54.147243,30.001287 53.647583,29.992619 
	C52.878815,30.000177 52.439545,30.006739 51.767906,29.999874 
	C51.535542,29.986444 51.077282,29.904594 51.077282,29.904594 
z"/>
<path fill="#F9F5F2" opacity="1.000000" stroke="none" 
	d="
M49.955002,18.590988 
	C49.719879,18.205368 49.721756,17.821886 49.751816,17.440626 
	C49.752705,17.429379 50.050236,17.441519 50.209461,17.442755 
	C50.205002,17.826319 50.200542,18.209885 49.955002,18.590988 
z"/>
<path fill="#D7BCC3" opacity="1.000000" stroke="none" 
	d="
M41.001579,22.996910 
	C41.001579,22.996910 41.004951,22.528063 41.012360,22.294304 
	C41.746471,22.051163 42.473171,22.041784 43.560539,22.061596 
	C43.464813,22.391012 43.008423,22.691238 42.021236,23.000984 
	C41.490440,23.010506 41.001579,22.996910 41.001579,22.996910 
z"/>
<path fill="#FCECF7" opacity="1.000000" stroke="none" 
	d="
M52.008968,27.541752 
	C51.965607,28.147520 51.832657,28.405037 51.429230,28.714369 
	C51.313999,27.989250 51.392868,27.172804 51.731941,26.173843 
	C51.993347,26.405226 51.994549,26.819120 52.008968,27.541752 
z"/>
<path fill="#F4F3F4" opacity="1.000000" stroke="none" 
	d="
M57.628281,29.083832 
	C57.995926,29.170727 57.998680,29.339401 58.002014,29.761307 
	C57.999195,30.437218 57.995796,30.859900 57.992355,31.597523 
	C57.673458,31.472269 57.354603,31.032074 56.896229,30.146004 
	C56.756710,29.700129 56.543221,29.367287 56.543221,29.367287 
	C56.783276,29.300062 57.023335,29.232836 57.628281,29.083832 
z"/>
<path fill="#D8C2D1" opacity="1.000000" stroke="none" 
	d="
M52.371666,24.959879 
	C51.900566,24.944403 51.597832,24.735397 51.154312,24.289488 
	C51.522358,24.290506 52.031193,24.528429 52.371666,24.959879 
z"/>
<path fill="#375794" opacity="1.000000" stroke="none" 
	d="
M59.243683,37.408325 
	C58.439919,36.770065 57.872620,35.988274 57.651360,34.826813 
	C58.309334,34.512749 58.621269,34.578354 59.183205,35.074715 
	C59.583374,35.656284 59.733536,35.807095 59.889961,36.213188 
	C59.914856,36.637684 59.933479,36.806896 59.952106,36.976112 
	C59.794785,37.072342 59.637466,37.168568 59.243683,37.408325 
z"/>
<path fill="#A39EA2" opacity="1.000000" stroke="none" 
	d="
M56.385101,29.508083 
	C56.543221,29.367287 56.756710,29.700129 56.878288,29.856335 
	C56.741631,30.053869 56.483391,30.095198 55.837067,30.074495 
	C55.722778,29.922180 55.982109,29.800985 56.385101,29.508083 
z"/>
<path fill="#FDF1F4" opacity="1.000000" stroke="none" 
	d="
M48.999725,20.999636 
	C49.088287,20.964062 49.177124,20.928852 49.133362,20.947098 
	C49.000763,21.000553 49.000000,21.000000 48.999725,20.999636 
z"/>
<path fill="#F4F0E9" opacity="1.000000" stroke="none" 
	d="
M59.883698,35.957909 
	C59.733536,35.807095 59.583374,35.656284 59.627197,35.252159 
	C59.821186,34.998852 59.873848,35.048988 59.908417,35.061211 
	C59.942986,35.073429 59.957817,35.521114 59.930672,35.750595 
	C59.903526,35.980076 59.883698,35.957909 59.883698,35.957909 
z"/>
<path fill="#F4F0E9" opacity="1.000000" stroke="none" 
	d="
M60.796989,34.098476 
	C60.908070,34.288170 60.755615,34.514141 60.342255,34.770969 
	C60.203484,34.559990 60.354183,34.337631 60.796989,34.098476 
z"/>
<path fill="#ECC9D8" opacity="1.000000" stroke="none" 
	d="
M51.025871,48.996307 
	C51.025871,48.996307 51.509460,48.996529 51.751137,49.000870 
	C49.135315,55.066334 45.882797,60.566067 37.173775,58.773434 
	C36.093121,57.654007 35.540203,56.822277 35.141953,55.690063 
	C37.775318,52.268761 43.865921,51.147537 41.020557,44.803982 
	C41.061844,44.359131 41.090881,44.182766 41.431900,44.003708 
	C42.159595,44.002956 42.575317,44.004902 43.165554,44.247250 
	C43.896000,44.658878 44.451923,44.830105 45.200668,45.003914 
	C45.393486,45.006496 45.779335,45.013496 45.826004,45.275658 
	C45.906631,45.712067 45.940590,45.886314 45.976906,46.298309 
	C45.979263,46.536057 45.996105,47.011276 46.087818,47.172379 
	C46.456570,47.229042 46.733604,47.124611 47.302238,47.166145 
	C48.737846,47.873508 49.881859,48.434906 51.025871,48.996307 
z"/>
<path fill="#F7E9EC" opacity="1.000000" stroke="none" 
	d="
M18.005470,60.995876 
	C12.468898,61.138611 11.159969,56.933971 10.673744,52.919991 
	C10.336918,50.139339 10.761201,46.610600 15.488515,46.197662 
	C16.394028,46.574116 16.722923,46.753788 17.185757,47.165009 
	C17.617794,47.585884 17.915892,47.775211 18.255592,48.167534 
	C18.460278,48.647793 18.697994,48.747726 19.334129,48.738388 
	C20.097790,48.837814 20.537668,48.869186 20.985847,49.326057 
	C20.995882,51.167065 20.997620,52.582573 20.621574,54.050148 
	C19.497684,56.400105 18.751577,58.697990 18.005470,60.995876 
z"/>
<path fill="#F3D9E6" opacity="1.000000" stroke="none" 
	d="
M18.459248,60.996117 
	C18.751577,58.697990 19.497684,56.400105 21.021301,54.050972 
	C22.863836,54.000519 23.928862,54.001316 25.166714,54.242805 
	C25.893538,54.656475 26.447536,54.829460 27.046181,55.380592 
	C27.396486,57.499557 27.702143,59.240372 28.007801,60.981190 
	C24.976208,60.986244 21.944616,60.991302 18.459248,60.996117 
z"/>
<path fill="#EFD3E1" opacity="1.000000" stroke="none" 
	d="
M28.437035,60.986572 
	C27.702143,59.240372 27.396486,57.499557 27.474428,55.379623 
	C29.571772,54.998749 31.285517,54.996986 33.168140,55.236797 
	C33.887112,55.649101 34.437199,55.819828 34.987289,55.990551 
	C35.540203,56.822277 36.093121,57.654007 36.824081,58.746452 
	C34.290173,59.668766 31.578220,60.330360 28.437035,60.986572 
z"/>
<path fill="#FAE0B7" opacity="1.000000" stroke="none" 
	d="
M13.227198,41.026371 
	C13.383762,38.292034 13.540326,35.557693 14.230804,32.442604 
	C15.516871,32.083847 16.269022,32.105846 17.183804,32.332623 
	C17.838205,32.687824 18.329975,32.838249 18.858620,33.385551 
	C18.896376,34.843510 18.897255,35.904587 18.591661,37.022614 
	C17.844696,37.713730 17.404202,38.347893 16.647400,39.033600 
	C15.296462,39.732220 14.261830,40.379295 13.227198,41.026371 
z"/>
<path fill="#566FAC" opacity="1.000000" stroke="none" 
	d="
M5.004411,26.044783 
	C5.187910,25.884722 5.371408,25.724663 6.178646,25.285194 
	C8.143866,25.024731 9.485347,25.043680 10.903071,25.352039 
	C11.010846,26.037064 11.042377,26.432674 11.026032,27.198048 
	C10.917800,27.808933 10.857441,28.050056 10.689665,28.222298 
	C10.582250,28.153414 10.389786,27.985809 9.954336,27.948944 
	C9.344576,28.455284 9.170265,28.998489 9.080735,29.601177 
	C9.165516,29.660660 9.231906,30.026075 9.231906,30.026075 
	C8.757935,30.454296 8.283963,30.882519 7.235641,31.091187 
	C6.607821,30.600304 6.554351,30.328972 6.659279,29.649803 
	C6.213254,28.176235 5.608833,27.110510 5.004411,26.044783 
z"/>
<path fill="#FCD9AD" opacity="1.000000" stroke="none" 
	d="
M13.214949,41.333008 
	C14.261830,40.379295 15.296462,39.732220 16.659199,39.368572 
	C16.980995,40.098362 16.974688,40.544727 16.752975,41.103683 
	C16.269587,41.420811 16.089552,41.685249 15.880489,42.224716 
	C15.557641,42.706539 15.295842,42.895920 14.978111,43.007996 
	C14.386309,42.551880 13.794505,42.095764 13.214949,41.333008 
z"/>
<path fill="#F8EFFA" opacity="1.000000" stroke="none" 
	d="
M6.500881,30.057642 
	C6.554351,30.328972 6.607821,30.600304 6.784625,31.268196 
	C6.139961,32.108589 5.371965,32.552422 4.296510,32.997253 
	C3.989339,32.831287 3.989627,32.664318 3.988811,32.246841 
	C3.987707,31.996340 4.010461,31.985868 4.228539,31.872190 
	C4.707808,31.563738 4.885271,31.310310 5.200437,30.887133 
	C5.707886,30.593689 5.928452,30.351685 6.187843,30.054813 
	C6.292119,30.059607 6.500881,30.057642 6.500881,30.057642 
z"/>
<path fill="#225896" opacity="1.000000" stroke="none" 
	d="
M10.389786,27.985809 
	C10.389786,27.985809 10.582250,28.153414 10.707321,28.370308 
	C10.832741,28.784061 10.827749,28.980787 10.820327,29.543438 
	C10.753707,30.392500 10.684177,30.875505 10.614647,31.358509 
	C10.356041,31.168131 10.097435,30.977755 9.535368,30.406727 
	C9.231906,30.026075 9.165516,29.660660 9.400915,29.435072 
	C9.887471,28.801592 10.138628,28.393700 10.389786,27.985809 
z"/>
<path fill="#C6C6D1" opacity="1.000000" stroke="none" 
	d="
M17.021173,32.127846 
	C16.269022,32.105846 15.516871,32.083847 14.389372,32.076859 
	C14.014023,32.091866 13.948948,31.751429 13.953247,31.445038 
	C13.957545,31.138649 13.939096,30.873020 14.294805,30.908140 
	C15.122647,30.966925 15.594781,30.990589 16.324265,31.110821 
	C16.737215,31.304182 16.892813,31.400976 17.084358,31.621418 
	C17.120302,31.745064 17.195129,31.991484 17.146065,32.018463 
	C17.097000,32.045441 17.021173,32.127846 17.021173,32.127846 
z"/>
<path fill="#E4C3AA" opacity="1.000000" stroke="none" 
	d="
M15.035734,43.213600 
	C15.295842,42.895920 15.557641,42.706539 16.119984,42.392910 
	C16.649101,42.892784 16.821743,43.439594 16.995113,43.992661 
	C16.995844,43.998913 16.974741,43.987103 16.624014,44.011818 
	C16.040241,44.061668 15.807197,44.086811 15.574152,44.111958 
	C15.338986,43.933022 15.178721,43.702103 15.035734,43.213600 
z"/>
<path fill="#E8BC9A" opacity="1.000000" stroke="none" 
	d="
M15.637857,44.422462 
	C15.807197,44.086811 16.040241,44.061668 16.640888,44.380577 
	C17.022932,45.460903 17.037374,46.197182 17.051817,46.933464 
	C16.722923,46.753788 16.394028,46.574116 15.855701,46.195084 
	C15.664700,45.574806 15.683131,45.153885 15.637857,44.422462 
z"/>
<path fill="#A7DCFF" opacity="1.000000" stroke="none" 
	d="
M10.767187,31.331903 
	C10.684177,30.875505 10.753707,30.392500 11.187390,29.650326 
	C11.695451,29.599796 11.839357,29.808435 11.795458,30.245794 
	C11.571114,30.668402 11.534575,30.862288 11.498036,31.056171 
	C11.325076,31.185362 11.132306,31.268404 10.767187,31.331903 
z"/>
<path fill="#6E8CD2" opacity="1.000000" stroke="none" 
	d="
M13.954129,31.271740 
	C13.950713,31.404831 13.522479,31.288309 13.316271,30.950451 
	C13.110062,30.612591 13.086311,30.121607 13.266451,30.196075 
	C13.659627,30.431385 13.823795,30.632210 13.939096,30.873020 
	C13.939096,30.873020 13.957545,31.138649 13.954129,31.271740 
z"/>
<path fill="#4F73BD" opacity="1.000000" stroke="none" 
	d="
M13.086311,30.121607 
	C13.086311,30.121607 13.110062,30.612591 13.114346,30.858435 
	C12.848085,31.126400 12.577541,31.148521 11.902516,31.113407 
	C11.534575,30.862288 11.571114,30.668402 12.072395,30.260197 
	C12.720197,30.071121 12.903255,30.096365 13.086311,30.121607 
z"/>
<path fill="#F3F4E8" opacity="1.000000" stroke="none" 
	d="
M6.003115,23.996910 
	C8.329883,22.990156 10.653766,21.986322 13.425993,21.372042 
	C13.878576,22.841053 13.882814,23.920513 13.667508,25.003315 
	C13.447964,25.006660 13.007490,25.001793 12.941668,24.649048 
	C10.584398,24.197636 8.292953,24.098970 6.001507,24.000305 
	C6.001507,24.000305 6.000229,23.999832 6.003115,23.996910 
z"/>
<path fill="#F2C690" opacity="1.000000" stroke="none" 
	d="
M14.933460,16.974276 
	C14.967948,15.908376 15.002436,14.842476 15.371892,13.359409 
	C16.140093,12.628329 16.573324,12.314415 17.267029,12.217569 
	C18.019136,13.956490 18.510775,15.478341 19.002216,17.333340 
	C19.001209,18.110666 19.000401,18.554848 18.667725,18.999741 
	C17.893501,18.998043 17.451143,18.995632 16.960304,18.669331 
	C16.252371,17.888386 15.592916,17.431332 14.933460,16.974276 
z"/>
<path fill="#F5B67A" opacity="1.000000" stroke="none" 
	d="
M14.880144,17.339998 
	C15.592916,17.431332 16.252371,17.888386 16.925514,19.005503 
	C16.967726,21.368011 16.996246,23.070461 16.682711,24.853798 
	C15.873363,24.971395 15.406068,25.008106 14.885087,25.070812 
	C14.831400,25.096809 14.714178,25.074640 14.806557,24.642702 
	C14.843356,23.025080 14.787778,21.839396 14.732200,20.653711 
	C14.763742,19.671047 14.795285,18.688385 14.880144,17.339998 
z"/>
<path fill="#F3D2AD" opacity="1.000000" stroke="none" 
	d="
M17.042156,7.315314 
	C19.540892,7.524764 22.032804,7.965443 24.494160,8.707844 
	C24.463606,9.009566 23.982138,9.017955 23.567532,9.013029 
	C21.768961,9.002514 20.384998,8.996924 18.832275,8.753384 
	C18.119007,8.346681 17.574501,8.177927 17.029995,8.009173 
	C17.029995,8.009173 17.035332,7.546544 17.042156,7.315314 
z"/>
<path fill="#E7C498" opacity="1.000000" stroke="none" 
	d="
M17.006556,12.000502 
	C16.573324,12.314415 16.140093,12.628329 15.431276,12.963875 
	C15.279922,12.135864 15.404152,11.286222 16.026161,10.224930 
	C16.523939,10.013280 17.017588,10.019498 17.013454,10.349531 
	C17.008398,11.119876 17.007477,11.560189 17.006556,12.000502 
z"/>
<path fill="#EDCAA4" opacity="1.000000" stroke="none" 
	d="
M17.017588,10.019498 
	C17.017588,10.019498 16.523939,10.013280 16.277317,10.013166 
	C16.198523,9.455835 16.366348,8.898619 16.782085,8.175287 
	C17.574501,8.177927 18.119007,8.346681 18.614815,8.867629 
	C18.294228,9.422542 18.105581,9.685077 17.754513,10.009277 
	C17.508852,10.011123 17.017588,10.019498 17.017588,10.019498 
z"/>
<path fill="#EFC599" opacity="1.000000" stroke="none" 
	d="
M14.492193,20.738731 
	C14.787778,21.839396 14.843356,23.025080 14.597815,24.653564 
	C14.296694,25.096365 13.887053,24.999971 13.887053,24.999971 
	C13.882814,23.920513 13.878576,22.841053 13.817367,21.358759 
	C13.924325,20.911863 14.088256,20.867805 14.492193,20.738731 
z"/>
<path fill="#DAB7C7" opacity="1.000000" stroke="none" 
	d="
M54.386162,39.997684 
	C53.985043,41.096943 53.583927,42.196198 52.783211,43.653664 
	C51.919067,44.000786 51.454521,43.989704 50.962482,43.695206 
	C50.619427,42.987453 50.303856,42.563118 49.919006,41.862846 
	C49.810955,41.401257 49.772190,41.215595 49.816185,40.683388 
	C49.955925,39.629696 50.012901,38.922546 50.463799,38.165497 
	C51.905796,38.164490 52.953869,38.213387 54.047852,38.555237 
	C54.191227,39.231354 54.288696,39.614521 54.386162,39.997684 
z"/>
<path fill="#E4B8CE" opacity="1.000000" stroke="none" 
	d="
M50.989971,43.978622 
	C51.454521,43.989704 51.919067,44.000786 52.733353,44.010101 
	C52.469795,45.478554 51.856499,46.948769 51.134537,48.707649 
	C49.881859,48.434906 48.737846,47.873508 47.048592,47.160576 
	C46.334267,47.009792 46.165184,47.010532 45.996105,47.011276 
	C45.996105,47.011276 45.979263,46.536057 46.279903,46.258221 
	C47.068230,45.657402 47.555916,45.334423 48.333984,45.028625 
	C49.412231,44.692322 50.200096,44.338829 50.992912,43.991016 
	C50.997864,43.996693 50.989971,43.978622 50.989971,43.978622 
z"/>
<path fill="#E6F0FE" opacity="1.000000" stroke="none" 
	d="
M54.699341,39.988937 
	C54.288696,39.614521 54.191227,39.231354 54.309052,38.375992 
	C54.693237,37.778259 54.862137,37.652725 55.386909,37.580608 
	C56.199890,37.768848 56.656994,37.903671 57.114098,38.038494 
	C57.430874,38.025970 57.747768,38.020721 58.293190,38.047424 
	C57.351906,38.708130 56.182213,39.344162 54.699341,39.988937 
z"/>
<path fill="#FAF8FA" opacity="1.000000" stroke="none" 
	d="
M62.112938,38.221062 
	C62.324223,38.107109 62.584526,38.294868 62.893623,38.784798 
	C62.683201,38.897404 62.423050,38.709339 62.112938,38.221062 
z"/>
<path fill="#E8F0F9" opacity="1.000000" stroke="none" 
	d="
M60.204525,37.320133 
	C60.425724,37.183968 60.659027,37.348862 60.919643,37.807789 
	C60.715279,37.930626 60.471836,37.770416 60.204525,37.320133 
z"/>
<path fill="#E8F0F9" opacity="1.000000" stroke="none" 
	d="
M59.889961,36.213188 
	C59.883698,35.957909 59.903526,35.980076 59.919479,35.974281 
	C59.935432,35.968487 59.998260,36.442738 59.985184,36.681740 
	C59.972107,36.920746 59.928768,36.934841 59.940437,36.955475 
	C59.933479,36.806896 59.914856,36.637684 59.889961,36.213188 
z"/>
<path fill="#F4EFFB" opacity="1.000000" stroke="none" 
	d="
M6.000305,24.246086 
	C8.292953,24.098970 10.584398,24.197636 12.578007,24.651787 
	C11.795721,25.025724 11.311275,25.044176 10.826827,25.062628 
	C9.485347,25.043680 8.143866,25.024731 6.399917,24.994606 
	C5.997448,24.983427 5.999103,24.491865 6.000305,24.246086 
z"/>
<path fill="#E6FAF6" opacity="1.000000" stroke="none" 
	d="
M6.659279,29.649803 
	C6.500881,30.057642 6.292119,30.059607 6.129574,29.750061 
	C5.636070,28.949387 5.305112,28.458256 4.944127,27.731228 
	C4.914100,27.495329 4.772932,27.041157 4.809341,26.795656 
	C4.845752,26.550156 4.934366,26.061756 4.934366,26.061756 
	C4.934366,26.061756 4.966576,26.036501 4.985494,26.040642 
	C5.608833,27.110510 6.213254,28.176235 6.659279,29.649803 
z"/>
<path fill="#FBFDFF" opacity="1.000000" stroke="none" 
	d="
M4.909623,26.026512 
	C4.934366,26.061756 4.845752,26.550156 4.641457,26.907084 
	C4.233541,27.453938 4.089826,27.681692 3.672876,27.952938 
	C2.895598,27.957121 2.451460,27.955641 2.007322,27.954161 
	C2.007322,27.954161 2.022441,27.479048 2.236835,27.127464 
	C2.712272,26.576120 2.898887,26.321743 3.011073,26.012751 
	C3.011073,26.012751 3.503705,26.002991 3.959933,25.990541 
	C4.416162,25.978092 4.832580,25.922842 4.832580,25.922842 
	C4.832580,25.922842 4.884880,25.991266 4.909623,26.026512 
z"/>
<path fill="#F4F8FD" opacity="1.000000" stroke="none" 
	d="
M4.773448,25.766918 
	C4.832580,25.922842 4.416162,25.978092 4.206264,25.986526 
	C4.235683,25.866970 4.474999,25.738981 4.773448,25.766918 
z"/>
<path fill="#F4F8FD" opacity="1.000000" stroke="none" 
	d="
M2.759799,26.008076 
	C2.898887,26.321743 2.712272,26.576120 2.241457,26.889835 
	C2.024566,26.836946 2.017446,26.670107 2.008107,26.252815 
	C2.173433,26.002710 2.340978,26.003054 2.759799,26.008076 
z"/>
<path fill="#E5F2E1" opacity="1.000000" stroke="none" 
	d="
M2.005193,28.216940 
	C2.451460,27.955641 2.895598,27.957121 3.914651,27.967163 
	C4.489567,27.975725 4.974153,27.967127 4.974154,27.967127 
	C5.305112,28.458256 5.636070,28.949387 6.025298,29.745268 
	C5.928452,30.351685 5.707886,30.593689 4.956285,30.893333 
	C4.490704,31.010637 4.001807,31.019741 4.001807,31.019741 
	C4.001807,31.019741 3.506179,30.996597 3.145839,30.776714 
	C2.587268,30.288876 2.329335,30.104372 2.011699,30.003323 
	C2.011699,30.003323 2.001535,30.000443 2.001085,29.993916 
	C2.000634,29.987389 2.009291,29.496305 2.007560,29.250797 
	C2.004907,28.830101 2.003986,28.654911 2.005193,28.216940 
z"/>
<path fill="#E8EBF0" opacity="1.000000" stroke="none" 
	d="
M2.115672,30.222832 
	C2.329335,30.104372 2.587268,30.288876 2.897845,30.770033 
	C2.685502,30.892324 2.421987,30.712027 2.115672,30.222832 
z"/>
<path fill="#E6FAF6" opacity="1.000000" stroke="none" 
	d="
M4.006038,31.256849 
	C4.001807,31.019741 4.490704,31.010637 4.734856,31.004436 
	C4.885271,31.310310 4.707808,31.563738 4.236726,31.863235 
	C4.026834,31.967960 4.010268,31.493958 4.006038,31.256849 
z"/>
<path fill="#FAC990" opacity="1.000000" stroke="none" 
	d="
M17.013454,10.349531 
	C17.017588,10.019498 17.508852,10.011123 17.978481,10.267931 
	C20.297022,10.691773 22.145929,10.858807 24.222372,11.024061 
	C24.449905,11.022281 24.904877,11.032286 24.904877,11.032286 
	C25.218414,12.137644 25.531952,13.243003 25.629728,14.873255 
	C25.263901,15.932072 25.113832,16.465996 24.719742,17.002243 
	C24.475719,17.004564 23.986853,17.013470 23.656736,16.977518 
	C21.885218,16.961107 20.443815,16.980650 19.002413,17.000193 
	C18.510775,15.478341 18.019136,13.956490 17.267029,12.217569 
	C17.007477,11.560189 17.008398,11.119876 17.013454,10.349531 
z"/>
<path fill="#E0BE99" opacity="1.000000" stroke="none" 
	d="
M24.963764,16.999920 
	C25.113832,16.465996 25.263901,15.932072 25.627922,15.219494 
	C25.913977,16.741283 25.986078,18.441725 26.034338,20.566883 
	C26.010496,20.991602 25.873035,21.009272 25.659622,21.000412 
	C25.446209,20.991550 25.016665,20.984787 25.009010,20.991852 
	C25.001356,20.998915 25.006723,20.979357 25.006618,20.581789 
	C24.992264,19.122787 24.978014,18.061354 24.963764,16.999920 
z"/>
<path fill="#F2D8AE" opacity="1.000000" stroke="none" 
	d="
M27.043924,22.727997 
	C27.079889,23.463028 27.073181,23.908802 27.053480,24.684153 
	C27.040487,25.013727 26.938660,24.990292 26.720097,24.986824 
	C26.501532,24.983356 26.063360,24.971722 26.041676,24.977352 
	C26.019991,24.982985 25.981302,25.005590 25.987167,24.605484 
	C25.953033,23.140009 25.913034,22.074640 25.873035,21.009272 
	C25.873035,21.009272 26.010496,20.991602 26.080746,20.990959 
	C26.434414,21.473124 26.717833,21.955933 27.043924,22.727997 
z"/>
<path fill="#EDCAA4" opacity="1.000000" stroke="none" 
	d="
M24.940384,10.696378 
	C24.904877,11.032286 24.449905,11.022281 24.222599,10.688958 
	C23.990908,9.909742 23.986521,9.463848 23.982136,9.017955 
	C23.982138,9.017955 24.463606,9.009566 24.703487,9.011189 
	C24.954212,9.462031 24.965052,9.911250 24.940384,10.696378 
z"/>
<path fill="#F3D8E5" opacity="1.000000" stroke="none" 
	d="
M32.801628,26.728485 
	C32.986301,26.768147 33.170971,26.807808 33.821465,27.147575 
	C34.862705,27.628212 35.438126,27.808746 36.007275,27.994362 
	C36.000999,27.999445 36.003983,27.996197 36.008526,28.349651 
	C36.678303,29.466854 37.343533,30.230600 38.016754,31.229630 
	C38.024738,31.464911 38.022034,31.935738 37.967216,32.101509 
	C37.785522,32.584114 37.582184,32.837460 37.082428,33.272186 
	C36.428921,34.003613 35.995365,34.490173 35.365311,34.691864 
	C34.779835,34.179619 34.390862,33.952244 33.946892,33.434006 
	C33.279266,32.746178 32.666641,32.349205 32.086830,31.745487 
	C32.119640,31.538738 32.111576,31.120144 32.272781,30.736589 
	C31.985313,30.076231 31.536636,29.799427 31.248384,29.239660 
	C31.255117,28.803719 31.101427,28.650738 30.980133,28.213482 
	C31.608894,27.528965 32.205261,27.128725 32.801628,26.728485 
z"/>
<path fill="#FCEFE2" opacity="1.000000" stroke="none" 
	d="
M32.586185,26.489716 
	C32.205261,27.128725 31.608894,27.528965 30.757534,28.093582 
	C30.026697,28.340530 29.550850,28.423103 29.263403,28.093269 
	C28.608421,27.404350 27.765038,27.127842 26.966335,26.542803 
	C26.986897,25.819613 26.962778,25.404953 26.938660,24.990292 
	C26.938660,24.990292 27.040487,25.013727 27.093929,25.016579 
	C28.888496,25.429937 30.629620,25.840441 32.586185,26.489716 
z"/>
<path fill="#E9CBDA" opacity="1.000000" stroke="none" 
	d="
M36.013550,27.989281 
	C35.438126,27.808746 34.862705,27.628212 34.100029,27.199291 
	C34.685364,25.983770 35.457951,25.016634 36.555779,24.007788 
	C37.068130,23.975008 37.255241,23.983938 37.722004,24.373772 
	C38.001663,25.501751 38.001671,26.248829 37.706772,27.019815 
	C36.945763,27.358912 36.479656,27.674095 36.013550,27.989281 
z"/>
<path fill="#D7B2CC" opacity="1.000000" stroke="none" 
	d="
M41.854271,27.967527 
	C42.955242,27.965036 44.056213,27.962547 45.569485,27.943453 
	C45.838142,28.838799 45.694504,29.750750 45.108353,30.943125 
	C44.777336,31.482050 44.888832,31.740547 45.000332,31.999046 
	C45.713234,31.990677 46.426140,31.982311 47.597206,32.219921 
	C48.120247,32.646343 48.185120,32.826786 48.164673,33.133751 
	C48.079353,33.260273 47.964752,33.542828 47.630608,33.712097 
	C46.558998,34.002579 45.821537,34.123787 44.873352,34.167404 
	C44.662628,34.089817 44.214447,34.061020 43.923477,33.977234 
	C43.431156,33.907799 43.229809,33.922150 42.754089,33.828281 
	C42.298866,33.642921 42.118004,33.565777 41.690445,33.451332 
	C41.192207,32.994591 40.940670,32.575146 40.962223,32.027908 
	C41.479393,30.924099 41.723476,29.948078 41.954575,28.719194 
	C41.912483,28.300062 41.883377,28.133795 41.854271,27.967527 
z"/>
<path fill="#D3BDCA" opacity="1.000000" stroke="none" 
	d="
M48.249992,33.007229 
	C48.185120,32.826786 48.120247,32.646343 47.952988,32.196869 
	C48.730469,31.346695 49.610325,30.765554 50.783733,30.044504 
	C51.077282,29.904594 51.535542,29.986444 51.778610,30.339764 
	C52.095081,31.140257 52.168491,31.587435 52.241901,32.034611 
	C52.233162,32.206593 52.224426,32.378571 51.838188,32.837212 
	C50.991753,33.145985 50.522820,33.168087 49.754745,33.142029 
	C49.053734,33.064991 48.651863,33.036110 48.249992,33.007229 
z"/>
<path fill="#CFBAE3" opacity="1.000000" stroke="none" 
	d="
M44.998062,31.773716 
	C44.888832,31.740547 44.777336,31.482050 44.834641,31.160658 
	C45.003448,31.097765 44.995796,31.548384 44.998062,31.773716 
z"/>
<path fill="#E9CBDA" opacity="1.000000" stroke="none" 
	d="
M46.031563,26.412891 
	C46.376701,26.198143 46.636063,26.324072 46.931496,26.794842 
	C46.865337,26.996635 46.692429,26.999229 46.260143,27.000340 
	C46.000763,26.998856 46.016457,26.607927 46.031563,26.412891 
z"/>
<path fill="#5D5B9D" opacity="1.000000" stroke="none" 
	d="
M55.031033,37.527187 
	C54.862137,37.652725 54.693237,37.778259 54.263145,38.083038 
	C52.953869,38.213387 51.905796,38.164490 50.355324,37.846123 
	C49.896053,37.137516 49.939186,36.698383 49.968208,35.866028 
	C49.962761,34.958191 49.971416,34.443569 49.940155,33.739861 
	C49.900242,33.550777 50.050575,33.194714 50.595490,33.172657 
	C51.496006,33.226311 51.851612,33.302017 52.207214,33.377724 
	C52.926849,34.503292 53.646481,35.628864 54.711987,37.006996 
	C55.057858,37.259560 55.031033,37.527187 55.031033,37.527187 
z"/>
<path fill="#E6EAFD" opacity="1.000000" stroke="none" 
	d="
M52.533249,32.023319 
	C52.168491,31.587435 52.095081,31.140257 52.010975,30.353191 
	C52.439545,30.006739 52.878815,30.000177 53.652420,30.327480 
	C53.989700,31.107679 53.992645,31.554010 53.995590,32.000343 
	C53.605259,32.004238 53.214924,32.008133 52.533249,32.023319 
z"/>
<path fill="#375794" opacity="1.000000" stroke="none" 
	d="
M57.099270,34.030994 
	C57.296562,34.702244 57.072842,35.457794 56.410442,36.367649 
	C55.657330,35.871296 55.342899,35.220642 55.028465,34.569988 
	C55.578396,34.418427 56.128326,34.266861 57.099270,34.030994 
z"/>
<path fill="#375794" opacity="1.000000" stroke="none" 
	d="
M55.386909,37.580608 
	C55.031033,37.527187 55.057858,37.259560 55.013840,37.132942 
	C55.071770,36.795135 55.173721,36.583946 55.622677,36.430164 
	C56.356968,36.755833 56.744247,37.024090 57.122814,37.665421 
	C56.656994,37.903671 56.199890,37.768848 55.386909,37.580608 
z"/>
<path fill="#B0D4FF" opacity="1.000000" stroke="none" 
	d="
M52.211174,33.324852 
	C51.851612,33.302017 51.496006,33.226311 50.596062,33.196838 
	C50.051720,33.243080 50.053886,33.190189 50.053886,33.190189 
	C50.522820,33.168087 50.991753,33.145985 51.815186,33.094482 
	C52.169685,33.065086 52.215130,33.271980 52.211174,33.324852 
z"/>
<path fill="#F6EAF3" opacity="1.000000" stroke="none" 
	d="
M54.231747,31.843163 
	C53.992645,31.554010 53.989700,31.107679 53.981918,30.326485 
	C54.147243,30.001287 54.317406,30.010956 54.737404,30.074793 
	C54.814129,30.647966 54.641014,31.166975 54.231747,31.843163 
z"/>
<path fill="#F1CADC" opacity="1.000000" stroke="none" 
	d="
M41.704018,27.713108 
	C41.883377,28.133795 41.912483,28.300062 41.629517,28.679461 
	C40.212193,28.260363 39.106934,27.628134 38.001678,26.995905 
	C38.001671,26.248829 38.001663,25.501751 38.002888,24.381371 
	C38.864311,23.844028 39.724499,23.679991 40.793137,23.256432 
	C41.001579,22.996910 41.490440,23.010506 41.734154,23.027649 
	C41.836498,24.516090 41.695129,25.987391 41.704018,27.713108 
z"/>
<path fill="#F8DBE3" opacity="1.000000" stroke="none" 
	d="
M35.141953,55.690063 
	C34.437199,55.819828 33.887112,55.649101 33.211494,54.874676 
	C34.387409,51.549309 35.688850,48.827644 37.240757,46.063866 
	C37.660007,46.013561 37.828785,46.005367 38.271889,45.984108 
	C39.009640,45.726631 39.473064,45.482212 40.202896,45.186428 
	C40.648979,45.114197 40.828648,45.093330 41.008312,45.072464 
	C43.865921,51.147537 37.775318,52.268761 35.141953,55.690063 
z"/>
<path fill="#E7C5D7" opacity="1.000000" stroke="none" 
	d="
M42.991035,44.006851 
	C42.575317,44.004902 42.159595,44.002956 41.287964,43.744049 
	C40.532387,43.236008 40.232723,42.984928 39.890572,42.444450 
	C39.226200,41.759464 38.604309,41.363876 37.956444,40.724113 
	C37.930462,40.479939 37.834778,39.998241 37.858681,39.790924 
	C37.882584,39.583607 37.860897,39.166790 38.117119,39.030273 
	C38.613251,38.593292 38.853161,38.292828 39.296394,37.860992 
	C39.499718,37.729622 39.933353,37.944912 40.011337,38.286621 
	C41.739811,40.074970 43.390305,41.521606 45.020592,42.985470 
	C45.000393,43.002693 44.961716,43.039062 44.667892,43.047417 
	C43.913055,43.372799 43.452045,43.689823 42.991035,44.006851 
z"/>
<path fill="#E7BED4" opacity="1.000000" stroke="none" 
	d="
M43.165558,44.247253 
	C43.452045,43.689823 43.913055,43.372799 44.682793,43.373775 
	C44.996960,44.128300 45.002403,44.564816 45.007847,45.001335 
	C44.451923,44.830105 43.896000,44.658878 43.165558,44.247253 
z"/>
<path fill="#B196A6" opacity="1.000000" stroke="none" 
	d="
M39.933060,42.733849 
	C40.232723,42.984928 40.532387,43.236008 40.975986,43.746746 
	C41.090881,44.182766 41.061844,44.359131 41.020557,44.803982 
	C40.828648,45.093330 40.648979,45.114197 39.980190,45.104485 
	C39.491074,45.073906 39.024593,44.983646 39.017303,44.668850 
	C39.017971,43.934288 39.025932,43.514519 39.260452,43.008980 
	C39.487007,42.923206 39.933060,42.733849 39.933060,42.733849 
z"/>
<path fill="#AF849F" opacity="1.000000" stroke="none" 
	d="
M48.043602,45.011436 
	C47.555916,45.334423 47.068230,45.657402 46.277546,46.020470 
	C45.940590,45.886314 45.906631,45.712067 45.908417,45.034412 
	C45.968590,44.363323 45.993019,44.195641 46.347343,44.002296 
	C47.118416,43.983921 47.559593,43.991207 47.980572,44.000248 
	C47.960369,44.002003 47.954453,44.042110 47.973553,44.284737 
	C47.992653,44.527359 48.043598,45.011436 48.043602,45.011436 
z"/>
<path fill="#E7C5D7" opacity="1.000000" stroke="none" 
	d="
M46.017452,44.027954 
	C45.993019,44.195641 45.968590,44.363323 45.861748,44.772247 
	C45.779335,45.013496 45.393486,45.006496 45.200668,45.003914 
	C45.002403,44.564816 44.996960,44.128300 44.976616,43.365421 
	C44.961716,43.039062 45.000393,43.002693 45.231434,43.113266 
	C45.724365,43.438797 45.909359,43.706833 46.017452,44.027954 
z"/>
<path fill="#E7BED4" opacity="1.000000" stroke="none" 
	d="
M46.087818,47.172379 
	C46.165184,47.010532 46.334267,47.009792 46.756996,47.014614 
	C46.733604,47.124611 46.456570,47.229042 46.087818,47.172379 
z"/>
<path fill="#F4E2E7" opacity="1.000000" stroke="none" 
	d="
M24.993885,54.002113 
	C23.928862,54.001316 22.863836,54.000519 21.399086,53.998901 
	C20.997620,52.582573 20.995882,51.167065 21.149717,49.096058 
	C21.848618,47.931515 22.391945,47.422474 23.249180,46.901962 
	C24.038284,46.536182 24.513477,46.181870 25.245403,45.725124 
	C26.000628,45.082935 26.499119,44.543179 26.999664,44.240425 
	C27.001719,44.477425 27.051548,44.948822 27.054358,45.252510 
	C27.372145,46.037975 27.687120,46.519753 27.993551,47.363979 
	C26.987967,49.818325 25.990925,51.910217 24.993885,54.002113 
z"/>
<path fill="#F5B473" opacity="1.000000" stroke="none" 
	d="
M22.935272,46.913433 
	C22.391945,47.422474 21.848618,47.931515 21.141418,48.670555 
	C20.537668,48.869186 20.097790,48.837814 19.232460,48.590363 
	C18.643702,48.187992 18.446028,48.051414 18.213989,47.964539 
	C17.915892,47.775211 17.617794,47.585884 17.185757,47.165009 
	C17.037374,46.197182 17.022932,45.460903 16.991615,44.355862 
	C16.974741,43.987103 16.995844,43.998913 17.329807,43.993565 
	C18.109535,43.971569 18.555300,43.954922 19.295856,43.928856 
	C20.060596,43.613731 20.530540,43.308018 21.332909,43.001495 
	C22.107864,43.002197 22.550392,43.003712 22.994808,43.255562 
	C22.998848,43.672779 23.000999,43.839657 22.997559,44.370514 
	C22.973068,45.460800 22.954170,46.187119 22.935272,46.913433 
z"/>
<path fill="#ECBD8E" opacity="1.000000" stroke="none" 
	d="
M18.255592,48.167534 
	C18.446028,48.051414 18.643702,48.187992 18.908680,48.522305 
	C18.697994,48.747726 18.460278,48.647793 18.255592,48.167534 
z"/>
<path fill="#FAE4ED" opacity="1.000000" stroke="none" 
	d="
M25.166712,54.242805 
	C25.990925,51.910217 26.987967,49.818325 28.234566,47.193073 
	C28.655540,46.107491 28.826954,45.555271 28.999228,45.001373 
	C29.000086,44.999691 29.003906,44.986511 29.300072,44.968285 
	C30.064930,44.634064 30.533627,44.318069 31.316916,44.139687 
	C32.729652,44.521179 33.827801,44.765060 35.109261,45.251244 
	C35.858860,45.654148 36.425140,45.814754 36.983963,46.007950 
	C36.976505,46.040543 36.990288,46.105976 36.990288,46.105976 
	C35.688850,48.827644 34.387409,51.549309 33.042614,54.633099 
	C31.285517,54.996986 29.571772,54.998749 27.429783,55.001476 
	C26.447536,54.829460 25.893538,54.656475 25.166712,54.242805 
z"/>
<path fill="#E3BC8D" opacity="1.000000" stroke="none" 
	d="
M21.000484,43.002304 
	C20.530540,43.308018 20.060596,43.613731 19.289440,43.581566 
	C18.314947,42.492821 17.641665,41.741959 16.968380,40.991093 
	C16.974688,40.544727 16.980995,40.098362 16.975506,39.317024 
	C17.404202,38.347893 17.844696,37.713730 18.621994,37.037117 
	C18.958801,36.994667 19.013655,37.033558 19.059118,37.358192 
	C19.745003,38.789547 20.385422,39.896267 21.014681,41.336174 
	C21.002508,42.113674 21.001497,42.557991 21.000484,43.002304 
z"/>
<path fill="#FEB980" opacity="1.000000" stroke="none" 
	d="
M18.928467,36.980164 
	C18.897255,35.904587 18.896376,34.843510 18.913689,33.116287 
	C18.936367,32.267120 18.940849,32.084099 18.992794,31.787254 
	C19.040253,31.673431 19.065569,31.428089 19.424191,31.408386 
	C20.190281,33.258968 20.597748,35.129257 20.673124,37.001450 
	C19.898573,37.013424 19.456114,37.023491 19.013655,37.033558 
	C19.013655,37.033558 18.958801,36.994667 18.928467,36.980164 
z"/>
<path fill="#EBE3C8" opacity="1.000000" stroke="none" 
	d="
M18.945333,31.901081 
	C18.940849,32.084099 18.936367,32.267120 18.876814,32.719406 
	C18.329975,32.838249 17.838205,32.687824 17.183804,32.332623 
	C17.021173,32.127846 17.097000,32.045441 17.435204,32.010155 
	C18.164051,31.950274 18.554691,31.925676 18.945333,31.901081 
z"/>
<path fill="#436CA1" opacity="1.000000" stroke="none" 
	d="
M13.266451,30.196075 
	C12.903255,30.096365 12.720197,30.071121 12.260201,30.031475 
	C11.839357,29.808435 11.695451,29.599796 11.184480,29.284267 
	C10.827749,28.980787 10.832741,28.784061 10.814736,28.439190 
	C10.857441,28.050056 10.917800,27.808933 11.426428,27.252945 
	C12.847428,26.336542 13.820157,25.735004 15.281461,25.233450 
	C16.388090,25.568371 17.006145,25.803307 17.406910,26.347925 
	C16.976521,27.113338 16.763424,27.569065 16.352585,28.077881 
	C16.073160,28.610605 15.991477,29.090240 15.964905,29.929249 
	C16.035648,30.530497 16.051281,30.772375 16.066916,31.014254 
	C15.594781,30.990589 15.122647,30.966925 14.294805,30.908140 
	C13.823795,30.632210 13.659627,30.431385 13.266451,30.196075 
z"/>
<path fill="#E4FDFC" opacity="1.000000" stroke="none" 
	d="
M14.792887,25.133465 
	C13.820157,25.735004 12.847428,26.336542 11.474302,26.883183 
	C11.042377,26.432674 11.010846,26.037064 10.903071,25.352039 
	C11.311275,25.044176 11.795721,25.025724 12.643829,25.004532 
	C13.007490,25.001793 13.447964,25.006660 13.667508,25.003315 
	C13.887053,24.999971 14.296694,25.096365 14.505436,25.085503 
	C14.714178,25.074640 14.831400,25.096809 14.847452,25.090828 
	C14.863504,25.084846 14.792887,25.133465 14.792887,25.133465 
z"/>
<path fill="#A7DCFF" opacity="1.000000" stroke="none" 
	d="
M9.954336,27.948944 
	C10.138628,28.393700 9.887471,28.801592 9.316134,29.375591 
	C9.170265,28.998489 9.344576,28.455284 9.954336,27.948944 
z"/>
<path fill="#E8B894" opacity="1.000000" stroke="none" 
	d="
M16.752975,41.103683 
	C17.641665,41.741959 18.314947,42.492821 18.994648,43.590981 
	C18.555300,43.954922 18.109535,43.971569 17.329077,43.987312 
	C16.821743,43.439594 16.649101,42.892784 16.236965,42.177776 
	C16.089552,41.685249 16.269587,41.420811 16.752975,41.103683 
z"/>
<path fill="#FAE0B7" opacity="1.000000" stroke="none" 
	d="
M18.992794,31.787256 
	C18.554691,31.925676 18.164051,31.950274 17.484268,31.983177 
	C17.195129,31.991484 17.120302,31.745064 17.147156,31.549377 
	C17.174007,31.353689 17.171366,31.163828 17.515175,31.192505 
	C18.079947,31.153343 18.300909,31.085506 18.666817,31.108322 
	C18.811764,31.198975 19.065569,31.428089 19.065569,31.428089 
	C19.065569,31.428089 19.040253,31.673431 18.992794,31.787256 
z"/>
<path fill="#6E8CD2" opacity="1.000000" stroke="none" 
	d="
M16.324265,31.110821 
	C16.051281,30.772375 16.035648,30.530497 16.254143,30.125622 
	C16.660229,30.114256 16.832191,30.265890 17.036983,30.602072 
	C17.069815,30.786619 17.171366,31.163828 17.171366,31.163828 
	C17.171366,31.163828 17.174007,31.353689 17.111210,31.425730 
	C16.892813,31.400976 16.737215,31.304182 16.324265,31.110821 
z"/>
<path fill="#F7C082" opacity="1.000000" stroke="none" 
	d="
M17.024765,24.772909 
	C16.996246,23.070461 16.967726,21.368011 16.973995,19.329391 
	C17.451143,18.995632 17.893501,18.998043 18.779308,19.216911 
	C19.422668,19.704472 19.682003,19.894470 20.000656,20.377733 
	C20.000851,21.500988 20.001150,22.249878 19.859730,23.284355 
	C18.820261,23.970930 17.922514,24.371920 17.024765,24.772909 
z"/>
<path fill="#FAC379" opacity="1.000000" stroke="none" 
	d="
M20.000763,20.003368 
	C19.682003,19.894470 19.422668,19.704472 19.111176,19.216198 
	C19.000401,18.554848 19.001209,18.110666 19.002216,17.333340 
	C20.443815,16.980650 21.885218,16.961107 23.637146,17.273100 
	C23.630564,18.072468 23.313454,18.540302 22.678011,19.032688 
	C21.573374,19.372616 20.787067,19.687992 20.000763,20.003368 
z"/>
<path fill="#F2BB76" opacity="1.000000" stroke="none" 
	d="
M16.682711,24.853798 
	C17.922514,24.371920 18.820261,23.970930 20.197472,23.283178 
	C21.455139,22.665760 22.233341,22.335104 23.269085,21.892700 
	C24.019989,21.513754 24.513355,21.246555 25.006723,20.979357 
	C25.006723,20.979357 25.001356,20.998915 25.002678,21.358585 
	C25.329767,22.814034 25.655535,23.909811 25.981302,25.005590 
	C25.981302,25.005590 26.019991,24.982985 25.805889,25.240509 
	C23.671385,26.280466 21.750980,27.062899 19.739851,27.875090 
	C19.649126,27.904846 19.474182,27.986670 19.384426,27.845207 
	C19.294672,27.703743 18.959383,27.690706 18.831453,27.435699 
	C18.343748,26.799875 17.983973,26.419060 17.624199,26.038242 
	C17.006145,25.803307 16.388090,25.568371 15.281462,25.233450 
	C14.792887,25.133465 14.863504,25.084846 14.901139,25.064831 
	C15.406068,25.008106 15.873363,24.971395 16.682711,24.853798 
z"/>
<path fill="#F8CD9B" opacity="1.000000" stroke="none" 
	d="
M23.567530,9.013029 
	C23.986521,9.463848 23.990908,9.909742 23.995066,10.690739 
	C22.145929,10.858807 20.297022,10.691773 18.224144,10.266085 
	C18.105581,9.685077 18.294228,9.422542 18.783575,9.105579 
	C20.384998,8.996924 21.768961,9.002514 23.567530,9.013029 
z"/>
<path fill="#ECBFD3" opacity="1.000000" stroke="none" 
	d="
M46.347343,44.002296 
	C45.909359,43.706833 45.724365,43.438797 45.251633,43.096046 
	C43.390305,41.521606 41.739811,40.074970 39.993912,38.185211 
	C39.898506,37.742088 39.949741,37.541897 40.295166,37.734909 
	C41.428234,37.946644 42.215881,37.965363 43.248978,38.089577 
	C43.665676,38.146137 43.836926,38.097202 43.956642,38.113503 
	C43.905106,38.178745 43.960636,38.335480 44.228287,38.522690 
	C46.241768,39.483250 47.987595,40.256592 49.733421,41.029934 
	C49.772190,41.215595 49.810955,41.401257 49.748737,42.076576 
	C49.098763,43.043652 48.549770,43.521072 48.000774,43.998489 
	C47.559593,43.991207 47.118416,43.983921 46.347343,44.002296 
z"/>
<path fill="#BBAFEE" opacity="1.000000" stroke="none" 
	d="
M49.816185,40.683388 
	C47.987595,40.256592 46.241768,39.483250 44.492912,38.402390 
	C44.673843,38.037148 44.857803,37.979416 45.410660,37.887814 
	C46.516018,37.782722 47.252491,37.711502 48.266922,37.674149 
	C49.024025,37.225094 49.503170,36.742172 49.982315,36.259247 
	C49.939186,36.698383 49.896053,37.137516 49.961403,37.896027 
	C50.012901,38.922546 49.955925,39.629696 49.816185,40.683388 
z"/>
<path fill="#F1BED7" opacity="1.000000" stroke="none" 
	d="
M47.980572,44.000244 
	C48.549770,43.521072 49.098763,43.043652 49.818024,42.352505 
	C50.303856,42.563118 50.619427,42.987453 50.962482,43.695206 
	C50.989971,43.978622 50.997864,43.996693 50.614212,43.995461 
	C49.471859,44.010189 48.713154,44.026150 47.954453,44.042110 
	C47.954453,44.042110 47.960369,44.002003 47.980572,44.000244 
z"/>
<path fill="#DBADCA" opacity="1.000000" stroke="none" 
	d="
M47.973553,44.284737 
	C48.713154,44.026150 49.471859,44.010189 50.609261,43.989784 
	C50.200096,44.338829 49.412231,44.692322 48.333981,45.028625 
	C48.043598,45.011436 47.992653,44.527359 47.973553,44.284737 
z"/>
<path fill="#F4F8FD" opacity="1.000000" stroke="none" 
	d="
M4.944126,27.731228 
	C4.974153,27.967127 4.489567,27.975725 4.247791,27.961502 
	C4.089826,27.681692 4.233541,27.453938 4.605047,27.152584 
	C4.772932,27.041157 4.914100,27.495329 4.944126,27.731228 
z"/>
<path fill="#F2BD82" opacity="1.000000" stroke="none" 
	d="
M25.006618,20.581789 
	C24.513355,21.246555 24.019989,21.513754 23.265427,21.517977 
	C23.001602,20.506044 22.998974,19.757090 22.996344,19.008135 
	C23.313454,18.540302 23.630564,18.072468 23.967262,17.309052 
	C23.986853,17.013470 24.475719,17.004564 24.719742,17.002243 
	C24.978014,18.061354 24.992264,19.122787 25.006618,20.581789 
z"/>
<path fill="#DDB97B" opacity="1.000000" stroke="none" 
	d="
M25.987167,24.605484 
	C25.655535,23.909811 25.329767,22.814034 25.010330,21.351521 
	C25.016665,20.984787 25.446209,20.991550 25.659622,21.000412 
	C25.913034,22.074640 25.953033,23.140009 25.987167,24.605484 
z"/>
<path fill="#D9C6A4" opacity="1.000000" stroke="none" 
	d="
M19.830576,27.845331 
	C21.750980,27.062899 23.671385,26.280466 25.827574,25.234879 
	C26.063360,24.971722 26.501532,24.983356 26.720097,24.986824 
	C26.962778,25.404953 26.986897,25.819613 27.060627,26.567474 
	C27.110243,26.900677 27.122086,27.094841 26.981594,27.077688 
	C26.643360,27.046793 26.486622,27.120060 26.013577,27.587749 
	C25.511795,28.174219 25.367325,28.453272 25.055717,28.784660 
	C24.888582,28.836996 24.566156,29.010031 24.336218,28.962799 
	C23.795832,28.863375 23.483215,28.838924 22.936827,28.750811 
	C21.747009,28.388044 20.788792,28.116688 19.830576,27.845331 
z"/>
<path fill="#8589CC" opacity="1.000000" stroke="none" 
	d="
M25.222853,28.732327 
	C25.367325,28.453272 25.511795,28.174219 26.043478,27.722370 
	C26.430689,27.549576 26.628984,27.730682 26.816921,27.922951 
	C27.694904,28.245371 28.384954,28.375525 29.075003,28.505676 
	C29.550850,28.423103 30.026697,28.340530 30.725142,28.377857 
	C31.101427,28.650738 31.255117,28.803719 31.384214,29.528408 
	C31.610273,30.440126 31.860924,30.780134 32.111576,31.120144 
	C32.111576,31.120144 32.119640,31.538738 31.802265,31.872370 
	C31.288113,32.785168 31.091335,33.364334 30.738890,33.935532 
	C30.583221,33.927563 30.270813,33.947113 30.041561,33.694599 
	C29.149683,33.387802 28.487057,33.333519 27.669292,33.005043 
	C26.923853,31.861013 26.333553,30.991180 25.687695,29.746166 
	C25.495708,29.158098 25.359280,28.945211 25.222853,28.732327 
z"/>
<path fill="#E5BCD1" opacity="1.000000" stroke="none" 
	d="
M37.706772,27.019815 
	C39.106934,27.628134 40.212193,28.260363 41.642502,28.932323 
	C41.723476,29.948078 41.479393,30.924099 40.635376,31.984024 
	C39.364304,32.023865 38.693169,31.979801 38.022034,31.935738 
	C38.022034,31.935738 38.024738,31.464911 38.009056,30.877281 
	C37.330242,29.525166 36.667114,28.760681 36.003983,27.996197 
	C36.003983,27.996197 36.000999,27.999445 36.007275,27.994362 
	C36.479656,27.674095 36.945763,27.358912 37.706772,27.019815 
z"/>
<path fill="#6F9DDF" opacity="1.000000" stroke="none" 
	d="
M35.561813,34.976734 
	C35.995365,34.490173 36.428921,34.003613 37.240108,33.499580 
	C37.730911,33.625755 37.844078,33.769405 38.015343,34.309158 
	C38.056065,35.767670 38.038685,36.830074 37.648956,37.959515 
	C36.533051,37.945274 35.789490,37.864002 35.021721,37.462769 
	C35.007378,36.503731 35.017239,35.864651 35.119576,35.074829 
	C35.212055,34.924084 35.561813,34.976734 35.561813,34.976734 
z"/>
<path fill="#E9DCF4" opacity="1.000000" stroke="none" 
	d="
M37.957245,33.913055 
	C37.844078,33.769405 37.730911,33.625755 37.460064,33.254715 
	C37.582184,32.837460 37.785522,32.584114 37.967216,32.101509 
	C38.693169,31.979801 39.364304,32.023865 40.362286,32.111816 
	C40.940670,32.575146 41.192207,32.994591 41.456062,33.433304 
	C41.468376,33.452576 41.264839,33.876377 41.226368,33.885517 
	C41.187897,33.894657 41.203556,33.994026 41.169128,33.998756 
	C41.134701,34.003483 41.102730,33.941765 40.588753,33.797966 
	C39.368931,33.740463 38.663086,33.826759 37.957245,33.913055 
z"/>
<path fill="#E9DCF4" opacity="1.000000" stroke="none" 
	d="
M30.894558,33.943501 
	C31.091335,33.364334 31.288113,32.785168 31.769453,32.079117 
	C32.666641,32.349205 33.279266,32.746178 33.921661,33.523113 
	C33.951431,33.903080 33.766262,33.907467 33.643269,33.884426 
	C33.520275,33.861385 33.277588,33.925407 32.959335,33.900799 
	C32.432018,33.915863 32.222950,33.955536 31.734310,33.976585 
	C31.268015,33.953140 31.081285,33.948318 30.894558,33.943501 
z"/>
<path fill="#EFCEDE" opacity="1.000000" stroke="none" 
	d="
M36.008526,28.349651 
	C36.667114,28.760681 37.330242,29.525166 38.001068,30.641998 
	C37.343533,30.230600 36.678303,29.466854 36.008526,28.349651 
z"/>
<path fill="#4D63A3" opacity="1.000000" stroke="none" 
	d="
M32.272781,30.736589 
	C31.860924,30.780134 31.610273,30.440126 31.223791,29.811371 
	C31.536636,29.799427 31.985313,30.076231 32.272781,30.736589 
z"/>
<path fill="#35478C" opacity="1.000000" stroke="none" 
	d="
M33.976662,33.813972 
	C34.390862,33.952244 34.779835,34.179619 35.365311,34.691864 
	C35.561813,34.976734 35.212055,34.924084 34.810524,34.939224 
	C34.194748,34.605400 33.980503,34.256435 33.766262,33.907467 
	C33.766262,33.907467 33.951431,33.903080 33.976662,33.813972 
z"/>
<path fill="#2957A7" opacity="1.000000" stroke="none" 
	d="
M29.263403,28.093269 
	C28.384954,28.375525 27.694904,28.245371 26.973185,27.789680 
	C26.941513,27.464142 27.122086,27.094841 27.122086,27.094841 
	C27.122086,27.094841 27.110243,26.900677 27.015949,26.876003 
	C27.765038,27.127842 28.608421,27.404350 29.263403,28.093269 
z"/>
<path fill="#354C92" opacity="1.000000" stroke="none" 
	d="
M47.988960,37.640282 
	C47.252491,37.711502 46.516018,37.782722 45.375034,37.519917 
	C45.008369,36.205593 45.046219,35.225292 45.084072,34.244995 
	C45.821537,34.123787 46.558998,34.002579 47.653046,33.885895 
	C48.009632,33.890423 47.916485,34.228119 47.924126,34.568703 
	C47.950836,35.819622 47.969898,36.729950 47.988960,37.640282 
z"/>
<path fill="#C496BB" opacity="1.000000" stroke="none" 
	d="
M44.873352,34.167404 
	C45.046219,35.225292 45.008369,36.205593 45.006142,37.553787 
	C44.857803,37.979416 44.673843,38.037148 44.225258,38.215179 
	C43.960636,38.335480 43.905106,38.178745 44.018440,37.715508 
	C44.159336,36.188519 44.186890,35.124767 44.214447,34.061020 
	C44.214447,34.061020 44.662628,34.089817 44.873352,34.167404 
z"/>
<path fill="#354C92" opacity="1.000000" stroke="none" 
	d="
M43.923477,33.977234 
	C44.186890,35.124767 44.159336,36.188519 44.069977,37.650265 
	C43.836926,38.097202 43.665676,38.146137 43.273071,37.745583 
	C43.075878,36.612740 43.100033,35.929386 43.088608,34.919502 
	C43.044834,34.374149 43.036648,34.155323 43.028458,33.936501 
	C43.229809,33.922150 43.431156,33.907799 43.923477,33.977234 
z"/>
<path fill="#C2BFF4" opacity="1.000000" stroke="none" 
	d="
M49.754745,33.142029 
	C50.053886,33.190189 50.051720,33.243080 50.051147,33.218895 
	C50.050575,33.194714 49.900242,33.550777 49.581436,33.767525 
	C48.813911,34.065556 48.365200,34.146839 47.916485,34.228119 
	C47.916485,34.228119 48.009632,33.890423 47.987190,33.716625 
	C47.964752,33.542828 48.079353,33.260273 48.164673,33.133751 
	C48.651863,33.036110 49.053734,33.064991 49.754745,33.142029 
z"/>
<path fill="#6E8CD2" opacity="1.000000" stroke="none" 
	d="
M42.754089,33.828281 
	C43.036648,34.155323 43.044834,34.374149 42.910721,34.922462 
	C42.768417,35.251949 42.415001,35.247318 42.157318,34.879532 
	C41.688038,34.299961 41.476437,34.088169 41.264839,33.876377 
	C41.264839,33.876377 41.468376,33.452576 41.702759,33.470604 
	C42.118004,33.565777 42.298866,33.642921 42.754089,33.828281 
z"/>
<path fill="#2E51AA" opacity="1.000000" stroke="none" 
	d="
M47.924126,34.568703 
	C48.365200,34.146839 48.813911,34.065556 49.621349,33.956612 
	C49.971416,34.443569 49.962761,34.958191 49.968208,35.866028 
	C49.503170,36.742172 49.024025,37.225094 48.266922,37.674149 
	C47.969898,36.729950 47.950836,35.819622 47.924126,34.568703 
z"/>
<path fill="#E7C5D7" opacity="1.000000" stroke="none" 
	d="
M39.033894,43.094753 
	C39.025932,43.514519 39.017971,43.934288 38.797794,44.784420 
	C38.308750,45.414837 38.112747,45.675632 37.997566,45.997169 
	C37.828785,46.005367 37.660007,46.013561 37.240757,46.063866 
	C36.990288,46.105976 36.976505,46.040543 36.986359,45.698120 
	C36.992729,44.942150 36.989246,44.528606 36.995552,43.758751 
	C36.992073,42.928467 36.978802,42.454487 37.204285,41.970440 
	C37.443035,41.960373 37.920769,41.946320 38.160118,42.080959 
	C38.610943,42.508652 38.822418,42.801701 39.033894,43.094753 
z"/>
<path fill="#F0D6E1" opacity="1.000000" stroke="none" 
	d="
M38.271889,45.984108 
	C38.112747,45.675632 38.308750,45.414837 38.805084,45.099216 
	C39.024593,44.983646 39.491074,45.073906 39.713783,45.155849 
	C39.473064,45.482212 39.009640,45.726631 38.271889,45.984108 
z"/>
<path fill="#2558A9" opacity="1.000000" stroke="none" 
	d="
M38.015343,34.309158 
	C38.663086,33.826759 39.368931,33.740463 40.332344,34.201599 
	C40.382057,35.667763 40.174194,36.586498 39.957611,37.513390 
	C39.948895,37.521553 39.949741,37.541897 39.949741,37.541897 
	C39.949741,37.541897 39.898506,37.742088 39.915932,37.843498 
	C39.933353,37.944912 39.499718,37.729622 39.024834,37.866695 
	C38.373737,37.966671 38.197521,37.929577 38.021309,37.892483 
	C38.038685,36.830074 38.056065,35.767670 38.015343,34.309158 
z"/>
<path fill="#D7D5FA" opacity="1.000000" stroke="none" 
	d="
M37.648960,37.959515 
	C38.197521,37.929577 38.373737,37.966671 38.821510,37.998066 
	C38.853161,38.292828 38.613251,38.593292 37.907841,38.981930 
	C37.442345,39.070103 37.010246,39.043110 36.671356,39.024494 
	C35.879681,38.989258 35.426891,38.972637 34.974968,38.661648 
	C34.999203,38.172428 35.022564,37.977581 35.045929,37.782730 
	C35.789490,37.864002 36.533051,37.945274 37.648960,37.959515 
z"/>
<path fill="#D7D5FA" opacity="1.000000" stroke="none" 
	d="
M37.920769,41.946320 
	C37.920769,41.946320 37.443035,41.960373 36.984161,41.960995 
	C36.525291,41.961617 36.085712,41.913574 36.046295,41.728905 
	C36.006882,41.544235 35.839226,41.206261 35.904266,40.913429 
	C35.997643,40.422638 36.025978,40.224678 36.293892,40.016907 
	C36.533470,40.007099 37.011955,39.975075 37.217545,39.984962 
	C37.423138,39.994850 37.834778,39.998241 37.834778,39.998241 
	C37.834778,39.998241 37.930462,40.479939 37.943291,40.968964 
	C37.956120,41.457993 37.920769,41.946320 37.920769,41.946320 
z"/>
<path fill="#F0D6E1" opacity="1.000000" stroke="none" 
	d="
M38.160118,42.080959 
	C37.920769,41.946320 37.956120,41.457993 37.969269,41.213142 
	C38.604309,41.363876 39.226200,41.759464 39.890572,42.444450 
	C39.933060,42.733849 39.487007,42.923206 39.260452,43.008980 
	C38.822418,42.801701 38.610943,42.508652 38.160118,42.080959 
z"/>
<path fill="#F0D6E1" opacity="1.000000" stroke="none" 
	d="
M37.858681,39.790924 
	C37.834778,39.998241 37.423138,39.994850 37.215389,39.752663 
	C37.007641,39.510475 37.010246,39.043110 37.010246,39.043110 
	C37.010246,39.043110 37.442345,39.070103 37.651619,39.118446 
	C37.860897,39.166790 37.882584,39.583607 37.858681,39.790924 
z"/>
<path fill="#EEE1EE" opacity="1.000000" stroke="none" 
	d="
M27.051548,44.948822 
	C27.051548,44.948822 27.001719,44.477425 26.971378,43.982838 
	C26.927174,43.316090 26.913311,43.143925 26.955240,42.639099 
	C26.945562,41.862137 26.880093,41.417839 26.855545,40.651039 
	C26.936558,39.896915 26.976648,39.465302 27.422338,39.023438 
	C28.910885,39.040806 29.993834,39.068420 31.056131,39.455933 
	C31.020069,40.541920 31.004658,41.268009 30.692039,42.017513 
	C29.929794,42.366947 29.464752,42.692963 29.001738,43.346992 
	C29.003813,44.112175 29.003860,44.549343 29.003906,44.986511 
	C29.003906,44.986511 29.000086,44.999691 28.674328,44.997833 
	C27.916229,44.980259 27.483889,44.964539 27.051548,44.948822 
z"/>
<path fill="#E2B898" opacity="1.000000" stroke="none" 
	d="
M23.249180,46.901962 
	C22.954170,46.187119 22.973068,45.460800 23.330109,44.368210 
	C24.111616,44.000912 24.554981,43.999889 25.002991,44.304470 
	C25.001314,45.015900 24.994993,45.421730 24.988670,45.827557 
	C24.513477,46.181870 24.038284,46.536182 23.249180,46.901962 
z"/>
<path fill="#F6B085" opacity="1.000000" stroke="none" 
	d="
M25.245403,45.725124 
	C24.994993,45.421730 25.001314,45.015900 25.003891,43.968887 
	C24.999914,42.880421 24.999681,42.433144 25.108746,41.771275 
	C25.414961,41.288612 25.670723,41.100555 26.009680,41.280136 
	C26.322506,42.035763 26.610977,42.503761 26.899448,42.971760 
	C26.913311,43.143925 26.927174,43.316090 26.969322,43.745834 
	C26.499119,44.543179 26.000628,45.082935 25.245403,45.725124 
z"/>
<path fill="#FCE6E5" opacity="1.000000" stroke="none" 
	d="
M27.054358,45.252510 
	C27.483889,44.964539 27.916229,44.980259 28.673470,44.999516 
	C28.826954,45.555271 28.655540,46.107491 28.243111,46.830620 
	C27.687120,46.519753 27.372145,46.037975 27.054358,45.252510 
z"/>
<path fill="#F4B49A" opacity="1.000000" stroke="none" 
	d="
M24.999449,41.985867 
	C24.999681,42.433144 24.999914,42.880421 24.999245,43.663284 
	C24.554981,43.999889 24.111616,44.000912 23.335703,44.004234 
	C23.000999,43.839657 22.998848,43.672779 22.998146,43.002884 
	C22.999918,42.331600 23.000235,42.163330 23.333698,41.994247 
	C24.111046,41.990910 24.555248,41.988388 24.999449,41.985867 
z"/>
<path fill="#F6B085" opacity="1.000000" stroke="none" 
	d="
M23.000551,41.995064 
	C23.000235,42.163330 22.999918,42.331600 22.996262,42.752548 
	C22.550392,43.003712 22.107864,43.002197 21.332911,43.001495 
	C21.001497,42.557991 21.002508,42.113674 21.307320,41.358612 
	C22.074263,41.363598 22.537407,41.679329 23.000551,41.995064 
z"/>
<path fill="#F3DFE9" opacity="1.000000" stroke="none" 
	d="
M34.925945,45.008945 
	C33.827801,44.765060 32.729652,44.521179 31.316847,43.887787 
	C31.002367,43.330357 31.002546,43.162441 31.351677,42.999767 
	C32.800438,43.324890 33.900253,43.644772 35.003002,43.977379 
	C35.005936,43.990108 35.010460,44.017864 35.000237,44.266563 
	C34.990009,44.515263 34.925945,45.008945 34.925945,45.008945 
z"/>
<path fill="#EFD7E4" opacity="1.000000" stroke="none" 
	d="
M31.002728,42.994522 
	C31.002546,43.162441 31.002367,43.330357 31.002254,43.750175 
	C30.533627,44.318069 30.064930,44.634064 29.300072,44.968285 
	C29.003860,44.549343 29.003813,44.112175 29.335531,43.340496 
	C30.112413,43.003582 30.557529,43.001183 31.001305,42.999367 
	C30.999964,42.999958 31.002728,42.994522 31.002728,42.994522 
z"/>
<path fill="#B59EAB" opacity="1.000000" stroke="none" 
	d="
M35.109261,45.251244 
	C34.925945,45.008945 34.990009,44.515263 35.330193,44.264313 
	C36.108837,44.047256 36.547298,44.081158 36.985764,44.115059 
	C36.989246,44.528606 36.992729,44.942150 36.993816,45.665527 
	C36.425140,45.814754 35.858860,45.654148 35.109261,45.251244 
z"/>
<path fill="#F0B57D" opacity="1.000000" stroke="none" 
	d="
M23.333698,41.994247 
	C22.537407,41.679329 22.074263,41.363598 21.318481,41.025429 
	C20.385422,39.896267 19.745003,38.789547 19.059118,37.358192 
	C19.456114,37.023491 19.898573,37.013424 21.045296,37.001236 
	C22.494198,37.001888 23.238836,37.004665 24.320549,36.997078 
	C24.881502,36.967552 25.105375,36.948387 25.539448,37.047188 
	C25.749645,37.165146 26.036358,37.552685 26.274090,37.612503 
	C26.680128,38.126106 26.848433,38.579895 27.016739,39.033684 
	C26.976648,39.465302 26.936558,39.896915 26.648762,40.655609 
	C26.401056,40.982681 25.985325,40.992512 25.985325,40.992512 
	C25.670723,41.100555 25.414961,41.288612 25.108746,41.771275 
	C24.555248,41.988388 24.111046,41.990910 23.333698,41.994247 
z"/>
<path fill="#EDB984" opacity="1.000000" stroke="none" 
	d="
M23.983473,37.007439 
	C23.238836,37.004665 22.494198,37.001888 21.377388,36.999329 
	C20.597748,35.129257 20.190281,33.258968 19.424191,31.408386 
	C19.065569,31.428089 18.811764,31.198975 18.929504,30.783234 
	C19.032261,30.089233 19.017277,29.810972 19.167927,29.397453 
	C19.380434,28.837023 19.427307,28.411846 19.474182,27.986670 
	C19.474182,27.986670 19.649126,27.904846 19.739851,27.875088 
	C20.788792,28.116688 21.747009,28.388044 22.829212,29.109226 
	C23.299965,30.706581 23.646732,31.854109 23.994667,33.402058 
	C23.991716,34.870800 23.987595,35.939117 23.983473,37.007439 
z"/>
<path fill="#375794" opacity="1.000000" stroke="none" 
	d="
M17.004154,30.417524 
	C16.832191,30.265890 16.660229,30.114256 16.199032,29.766251 
	C15.991477,29.090240 16.073160,28.610605 16.422153,28.151852 
	C16.689465,28.172733 16.892784,28.176636 16.904573,28.488987 
	C17.107763,29.172310 17.299162,29.543278 17.358425,30.029884 
	C17.226290,30.145523 17.004154,30.417524 17.004154,30.417524 
z"/>
<path fill="#5B95D4" opacity="1.000000" stroke="none" 
	d="
M17.406910,26.347927 
	C17.983973,26.419060 18.343748,26.799875 18.307018,27.544895 
	C17.571270,27.998278 17.232027,28.087458 16.892784,28.176636 
	C16.892784,28.176636 16.689465,28.172733 16.619896,28.098763 
	C16.763424,27.569065 16.976521,27.113338 17.406910,26.347927 
z"/>
<path fill="#5B95D4" opacity="1.000000" stroke="none" 
	d="
M19.002295,29.532709 
	C19.017277,29.810972 19.032261,30.089233 18.784557,30.692581 
	C18.300909,31.085506 18.079947,31.153343 17.515175,31.192505 
	C17.171366,31.163828 17.069815,30.786619 17.036983,30.602072 
	C17.004154,30.417524 17.226290,30.145523 17.737255,29.959150 
	C18.499578,29.692753 18.750937,29.612730 19.002295,29.532709 
z"/>
<path fill="#FDBA8A" opacity="1.000000" stroke="none" 
	d="
M22.678011,19.032688 
	C22.998974,19.757090 23.001602,20.506044 23.007889,21.629723 
	C22.233341,22.335104 21.455139,22.665760 20.339191,22.997593 
	C20.001150,22.249878 20.000851,21.500988 20.000656,20.377733 
	C20.787067,19.687992 21.573374,19.372616 22.678011,19.032688 
z"/>
<path fill="#7488B3" opacity="1.000000" stroke="none" 
	d="
M19.167927,29.397453 
	C18.750937,29.612730 18.499578,29.692753 17.869392,29.843513 
	C17.299162,29.543278 17.107763,29.172310 16.904573,28.488987 
	C17.232027,28.087458 17.571270,27.998278 18.434948,27.799904 
	C18.959383,27.690706 19.294672,27.703743 19.384426,27.845207 
	C19.427307,28.411846 19.380434,28.837023 19.167927,29.397453 
z"/>
<path fill="#4D63A3" opacity="1.000000" stroke="none" 
	d="
M40.295166,37.734909 
	C39.949741,37.541897 39.948895,37.521553 40.114311,37.100166 
	C40.440331,36.433327 40.600937,36.187878 40.997982,36.117973 
	C41.627945,35.944778 42.021473,35.596046 42.415001,35.247318 
	C42.415001,35.247318 42.768417,35.251949 42.946304,35.248993 
	C43.100033,35.929386 43.075878,36.612740 43.027626,37.640091 
	C42.215881,37.965363 41.428234,37.946644 40.295166,37.734909 
z"/>
<path fill="#D1B397" opacity="1.000000" stroke="none" 
	d="
M23.993498,33.001637 
	C23.646732,31.854109 23.299965,30.706581 23.060814,29.200638 
	C23.483215,28.838924 23.795832,28.863375 24.487902,29.191778 
	C25.160769,29.685776 25.452011,29.903561 25.743256,30.121347 
	C26.333553,30.991180 26.923853,31.861013 27.587461,33.115303 
	C27.527645,33.638901 27.371408,33.743614 27.051712,33.594868 
	C26.428608,33.294193 25.945848,33.212547 25.095888,33.096352 
	C24.483624,33.041748 24.238560,33.021690 23.993498,33.001637 
z"/>
<path fill="#A8B1C0" opacity="1.000000" stroke="none" 
	d="
M25.687695,29.746166 
	C25.452011,29.903561 25.160769,29.685776 24.717840,29.239010 
	C24.566156,29.010031 24.888582,28.836996 25.055717,28.784660 
	C25.359280,28.945211 25.495708,29.158098 25.687695,29.746166 
z"/>
<path fill="#9DC4ED" opacity="1.000000" stroke="none" 
	d="
M26.981594,27.077688 
	C27.122086,27.094841 26.941513,27.464142 26.785248,27.597412 
	C26.628984,27.730682 26.430689,27.549576 26.400787,27.414955 
	C26.486622,27.120060 26.643360,27.046793 26.981594,27.077688 
z"/>
<path fill="#DCE9FE" opacity="1.000000" stroke="none" 
	d="
M27.192057,33.813900 
	C27.371408,33.743614 27.527645,33.638901 27.742601,33.389500 
	C28.487057,33.333519 29.149683,33.387802 29.779621,33.809677 
	C29.458088,34.420719 29.169243,34.664169 28.756344,35.014153 
	C28.825918,35.170128 29.019547,35.219574 29.323288,35.450272 
	C29.433399,35.631523 29.854759,35.582897 29.849407,35.767395 
	C29.995777,36.190872 30.209595,36.278862 30.472662,36.380955 
	C30.459816,36.546040 30.730730,36.736504 30.575493,36.845894 
	C30.684877,37.049816 30.949501,37.144352 31.347458,37.231400 
	C31.480791,37.223907 31.717697,37.100567 31.854723,37.307781 
	C31.991749,37.514996 32.427444,37.756069 32.427444,37.756069 
	C32.427444,37.756069 32.915329,37.656273 32.982605,37.951725 
	C33.097633,38.443462 33.145386,38.639744 32.840630,38.903275 
	C32.017670,39.012360 31.547224,39.054192 31.076780,39.096031 
	C29.993834,39.068420 28.910885,39.040806 27.422337,39.023438 
	C26.848433,38.579895 26.680128,38.126106 26.724203,37.535824 
	C27.021742,36.204185 27.106899,35.009045 27.192057,33.813900 
z"/>
<path fill="#A6C0FD" opacity="1.000000" stroke="none" 
	d="
M30.730730,36.736504 
	C30.730730,36.736504 30.459816,36.546040 30.517948,36.166973 
	C30.414385,35.443905 30.173944,35.375568 29.854759,35.582897 
	C29.854759,35.582897 29.433399,35.631523 29.243664,35.356636 
	C29.053930,35.081745 28.880398,34.907623 28.880398,34.907623 
	C29.169243,34.664169 29.458088,34.420719 30.008873,34.062187 
	C30.270813,33.947113 30.583221,33.927563 30.738888,33.935532 
	C31.081285,33.948318 31.268015,33.953140 31.723728,34.368637 
	C31.901041,35.553066 31.809368,36.326817 31.717697,37.100567 
	C31.717697,37.100567 31.480791,37.223907 31.227470,37.104973 
	C30.974148,36.986042 30.730730,36.736504 30.730730,36.736504 
z"/>
<path fill="#AEC4F8" opacity="1.000000" stroke="none" 
	d="
M33.193142,38.836029 
	C33.145386,38.639744 33.097633,38.443462 32.984585,37.576500 
	C33.038723,35.912350 33.158154,34.918880 33.277588,33.925407 
	C33.277588,33.925407 33.520275,33.861385 33.643269,33.884426 
	C33.980503,34.256435 34.194748,34.605400 34.718044,35.089973 
	C35.017239,35.864651 35.007378,36.503731 35.021721,37.462769 
	C35.022564,37.977581 34.999203,38.172428 34.968655,38.670143 
	C34.961472,38.973003 34.936691,38.961090 34.645901,38.932137 
	C33.967789,38.880795 33.580463,38.858414 33.193142,38.836029 
z"/>
<path fill="#8496D8" opacity="1.000000" stroke="none" 
	d="
M42.157318,34.879532 
	C42.021473,35.596046 41.627945,35.944778 41.014393,35.890175 
	C40.930763,34.989231 41.067158,34.491631 41.203556,33.994026 
	C41.203556,33.994026 41.187897,33.894657 41.226368,33.885517 
	C41.476437,34.088169 41.688038,34.299961 42.157318,34.879532 
z"/>
<path fill="#88B8FF" opacity="1.000000" stroke="none" 
	d="
M41.169128,33.998756 
	C41.067158,34.491631 40.930763,34.989231 40.777954,35.714634 
	C40.600937,36.187878 40.440331,36.433327 40.123028,37.092003 
	C40.174194,36.586498 40.382057,35.667763 40.846325,34.345398 
	C41.102730,33.941765 41.134701,34.003483 41.169128,33.998756 
z"/>
<path fill="#35478C" opacity="1.000000" stroke="none" 
	d="
M32.959335,33.900799 
	C33.158154,34.918880 33.038723,35.912350 32.917309,37.281048 
	C32.915329,37.656273 32.427444,37.756069 32.427444,37.756069 
	C32.427444,37.756069 31.991749,37.514996 31.854723,37.307781 
	C31.809368,36.326817 31.901041,35.553066 32.003296,34.387264 
	C32.222950,33.955536 32.432018,33.915863 32.959335,33.900799 
z"/>
<path fill="#FDE7EC" opacity="1.000000" stroke="none" 
	d="
M36.995552,43.758751 
	C36.547298,44.081158 36.108837,44.047256 35.340416,44.015610 
	C35.010460,44.017864 35.005936,43.990108 35.023430,43.671207 
	C35.124584,42.951973 35.208244,42.551643 35.494484,42.105652 
	C35.697060,42.059994 36.085712,41.913574 36.085712,41.913574 
	C36.085712,41.913574 36.525291,41.961617 36.745411,41.971062 
	C36.978802,42.454487 36.992073,42.928467 36.995552,43.758751 
z"/>
<path fill="#EFCEDE" opacity="1.000000" stroke="none" 
	d="
M36.671356,39.024494 
	C37.010246,39.043110 37.007641,39.510475 37.009796,39.742775 
	C37.011955,39.975075 36.533470,40.007099 36.057693,39.896461 
	C35.366840,39.510910 35.151764,39.236000 34.936691,38.961090 
	C34.936691,38.961090 34.961472,38.973003 34.967789,38.964508 
	C35.426891,38.972637 35.879681,38.989258 36.671356,39.024494 
z"/>
<path fill="#F6D4D7" opacity="1.000000" stroke="none" 
	d="
M34.645901,38.932137 
	C35.151764,39.236000 35.366840,39.510910 35.818115,39.906269 
	C36.025978,40.224678 35.997643,40.422638 35.720665,40.998039 
	C35.263493,41.599304 35.203453,41.857910 35.291904,42.151310 
	C35.208244,42.551643 35.124584,42.951973 35.020496,43.658478 
	C33.900253,43.644772 32.800438,43.324890 31.351677,42.999767 
	C31.002728,42.994522 30.999964,42.999958 30.999313,42.748184 
	C30.995523,42.328976 30.992384,42.161533 30.989244,41.994095 
	C31.004658,41.268009 31.020069,40.541920 31.056131,39.455933 
	C31.547224,39.054192 32.017670,39.012360 32.840630,38.903275 
	C33.580463,38.858414 33.967789,38.880795 34.645901,38.932137 
M32.515575,41.416451 
	C32.515575,41.416451 32.575512,41.520359 32.515575,41.416451 
z"/>
<path fill="#F0D6E1" opacity="1.000000" stroke="none" 
	d="
M35.494484,42.105652 
	C35.203453,41.857910 35.263493,41.599304 35.655624,41.290871 
	C35.839226,41.206261 36.006882,41.544235 36.046295,41.728905 
	C36.085712,41.913574 35.697060,42.059994 35.494484,42.105652 
z"/>
<path fill="#E9AD92" opacity="1.000000" stroke="none" 
	d="
M26.009680,41.280136 
	C25.985325,40.992512 26.401056,40.982681 26.607838,40.978111 
	C26.880093,41.417839 26.945562,41.862137 26.955242,42.639099 
	C26.610977,42.503761 26.322506,42.035763 26.009680,41.280136 
z"/>
<path fill="#FEE6F3" opacity="1.000000" stroke="none" 
	d="
M30.692039,42.017513 
	C30.992384,42.161533 30.995523,42.328976 31.000656,42.747597 
	C30.557529,43.001183 30.112413,43.003582 29.333502,43.012482 
	C29.464752,42.692963 29.929794,42.366947 30.692039,42.017513 
z"/>
<path fill="#3B538E" opacity="1.000000" stroke="none" 
	d="
M27.051712,33.594868 
	C27.106899,35.009045 27.021742,36.204185 26.486471,37.476006 
	C26.036358,37.552685 25.749645,37.165146 25.486244,36.666176 
	C25.302923,35.155102 25.383007,34.143005 25.463089,33.130905 
	C25.945848,33.212547 26.428608,33.294193 27.051712,33.594868 
z"/>
<path fill="#E2B898" opacity="1.000000" stroke="none" 
	d="
M25.095890,33.096352 
	C25.383007,34.143005 25.302923,35.155102 25.276045,36.548214 
	C25.105375,36.948387 24.881502,36.967552 24.320549,36.997078 
	C23.987595,35.939117 23.991716,34.870800 23.994667,33.402058 
	C24.238560,33.021690 24.483624,33.041748 25.095890,33.096352 
z"/>
<path fill="#A6C0FD" opacity="1.000000" stroke="none" 
	d="
M31.094135,37.112465 
	C30.949501,37.144352 30.684877,37.049816 30.575493,36.845894 
	C30.730730,36.736504 30.974148,36.986042 31.094135,37.112465 
z"/>
<path fill="#AEC4F8" opacity="1.000000" stroke="none" 
	d="
M29.849407,35.767395 
	C30.173944,35.375568 30.414385,35.443905 30.530796,36.001888 
	C30.209595,36.278862 29.995777,36.190872 29.849407,35.767395 
z"/>
<path fill="#AEC4F8" opacity="1.000000" stroke="none" 
	d="
M29.133553,35.175385 
	C29.019547,35.219574 28.825918,35.170128 28.756344,35.014153 
	C28.880398,34.907623 29.053930,35.081745 29.133553,35.175385 
z"/>
<path fill="#FCDFE0" opacity="1.000000" stroke="none" 
	d="
M32.545544,41.468407 
	C32.575512,41.520359 32.515575,41.416451 32.545544,41.468407 
z"/>
</svg>